<?xml version="1.0" encoding="iso-8859-1"?>
<!-- Generator: Adobe Illustrator 18.1.1, SVG Export Plug-In . SVG Version: 6.00 Build 0)  -->
<svg version="1.1" id="Ebene_1" xmlns="http://www.w3.org/2000/svg" xmlns:xlink="http://www.w3.org/1999/xlink" x="0px" y="0px"
	 viewBox="0 0 23.642 28.347" style="enable-background:new 0 0 23.642 28.347;" xml:space="preserve">
<g>
	<path style="fill:#E6007E;" d="M0,15.397c0-7.529,4.287-12.95,11.821-12.95s11.821,5.421,11.821,12.95s-4.287,12.95-11.821,12.95
		S0,22.926,0,15.397"/>
	<path style="fill:#F8C9DF;" d="M13.802,5.769c0,0.448-0.315,0.63-0.704,0.406l-0.935-0.539c-0.194-0.112-0.509-0.112-0.703,0
		l-0.935,0.539c-0.389,0.224-0.704,0.042-0.704-0.406V4.69c0-0.224-0.157-0.497-0.352-0.609L8.535,3.542
		c-0.389-0.225-0.389-0.588,0-0.812l0.934-0.54c0.195-0.112,0.352-0.385,0.352-0.609V0.502c0-0.448,0.315-0.63,0.704-0.406
		l0.935,0.54c0.194,0.112,0.509,0.112,0.703,0l0.935-0.54c0.389-0.224,0.704-0.042,0.704,0.406v1.079
		c0,0.224,0.158,0.497,0.352,0.609l0.935,0.54c0.388,0.224,0.388,0.587,0,0.812l-0.935,0.539c-0.194,0.112-0.352,0.385-0.352,0.609
		V5.769z"/>
	<path style="fill:#FFFFFF;" d="M10.868,3.089c0-0.526,0.427-0.953,0.953-0.953c0.527,0,0.953,0.427,0.953,0.953
		c0,0.526-0.426,0.953-0.953,0.953C11.295,4.042,10.868,3.615,10.868,3.089"/>
</g>
</svg>
