<?xml version="1.0" encoding="iso-8859-1"?>
<!-- Generator: Adobe Illustrator 18.1.1, SVG Export Plug-In . SVG Version: 6.00 Build 0)  -->
<svg version="1.1" id="Ebene_1" xmlns="http://www.w3.org/2000/svg" xmlns:xlink="http://www.w3.org/1999/xlink" x="0px" y="0px"
	 viewBox="0 0 24.674 28.346" style="enable-background:new 0 0 24.674 28.346;" xml:space="preserve">
<g>
	<g>
		<path style="fill:#DAC26D;" d="M11.423,21.038c-0.315-4.029-2.782-7.308-5.687-7.308c-2.906,0-5.258,3.189-5.688,7.308
			c-0.418,4.014,1.944,7.308,5.688,7.308C9.479,28.346,11.738,25.062,11.423,21.038"/>
		<path style="fill:#AC8F46;" d="M6.37,21.024c0-3.653-0.284-6.615-0.634-6.615s-0.634,2.962-0.634,6.615s0.284,6.615,0.634,6.615
			S6.37,24.677,6.37,21.024"/>
	</g>
	<g>
		<path style="fill:#DAC26D;" d="M24.644,21.038c-0.315-4.029-2.782-7.308-5.687-7.308c-2.906,0-5.258,3.189-5.688,7.308
			c-0.418,4.014,1.944,7.308,5.688,7.308C22.7,28.346,24.959,25.062,24.644,21.038"/>
		<path style="fill:#AC8F46;" d="M19.591,21.024c0-3.653-0.284-6.615-0.634-6.615s-0.634,2.962-0.634,6.615s0.284,6.615,0.634,6.615
			S19.591,24.677,19.591,21.024"/>
	</g>
	<g>
		<path style="fill:#DAC26D;" d="M17.933,7.179C17.623,3.221,15.2,0,12.346,0S7.181,3.132,6.759,7.179
			c-0.411,3.944,1.91,7.179,5.587,7.179C16.024,14.358,18.242,11.132,17.933,7.179"/>
		<path style="fill:#AC8F46;" d="M12.969,7.165c0-3.589-0.279-6.498-0.623-6.498s-0.623,2.909-0.623,6.498s0.279,6.498,0.623,6.498
			S12.969,10.754,12.969,7.165"/>
	</g>
</g>
</svg>
