<?xml version="1.0" encoding="iso-8859-1"?>
<!-- Generator: Adobe Illustrator 18.1.1, SVG Export Plug-In . SVG Version: 6.00 Build 0)  -->
<svg version="1.1" id="Ebene_1" xmlns="http://www.w3.org/2000/svg" xmlns:xlink="http://www.w3.org/1999/xlink" x="0px" y="0px"
	 viewBox="0 0 28.347 23.054" style="enable-background:new 0 0 28.347 23.054;" xml:space="preserve">
<g>
	<path style="fill:#FFB500;" d="M1.07,0.06c0.787-0.229,1.611,0.223,1.841,1.01l0.148,0.508c3.118,10.406,13.411,17.21,24.233,16.19
		l0.041-0.003l0.04,0.005c0.462,0.058,0.857,0.404,0.953,0.887c0.134,0.672-0.397,1.074-0.774,1.273
		c-0.921,0.488-2.403,1.056-3.655,1.501c-1.242,0.442-2.256,0.763-2.256,0.763c-0.019,0.006-0.041,0.012-0.066,0.017
		c-0.651,0.224-1.325,0.406-2.02,0.544C11.196,24.418,3.072,18.99,1.409,10.63C1.088,9.013,1.031,7.403,1.211,5.848L0.06,1.9
		C-0.169,1.113,0.283,0.289,1.07,0.06"/>
	<path style="fill:#FFF9C7;" d="M4.006,9.198c3.262,5.823,9.249,9.753,15.897,10.487c0.448,0.05,0.374,0.722-0.074,0.673
		C12.966,19.6,6.785,15.544,3.416,9.529C3.195,9.135,3.786,8.804,4.006,9.198"/>
</g>
</svg>
