<?xml version="1.0" encoding="iso-8859-1"?>
<!-- Generator: Adobe Illustrator 18.1.1, SVG Export Plug-In . SVG Version: 6.00 Build 0)  -->
<svg version="1.1" id="Ebene_1" xmlns="http://www.w3.org/2000/svg" xmlns:xlink="http://www.w3.org/1999/xlink" x="0px" y="0px"
	 viewBox="0 0 14.23 28.346" style="enable-background:new 0 0 14.23 28.346;" xml:space="preserve">
<g>
	<path style="fill:#E5231B;" d="M0.007,15.216C0,25.563,5.383,28.346,7.114,28.346c1.732,0,7.116-2.529,7.108-13.13
		c0.167-9.514-2.3-12.17-7.108-12.17C2.434,3.046-0.155,5.323,0.007,15.216"/>
	<path style="fill:#F9C5AF;" d="M10.356,3.619l0.015,0.002c0,0-1.529-0.652-1.961-1.186C7.999,1.927,7.878,1.156,7.932,0.517
		c0.017-0.207-0.024-0.385-0.238-0.46C7.515-0.005,7.303,0,7.115,0c-0.187,0-0.4-0.005-0.578,0.057
		C6.323,0.132,6.281,0.31,6.299,0.517c0.054,0.639-0.067,1.41-0.479,1.918C5.389,2.969,3.859,3.621,3.859,3.621l0.016-0.002
		C2.489,4.232,1.449,5.404,0.798,7.467c0,0,3.029,0.728,6.317,0.728s6.317-0.728,6.317-0.728
		C12.782,5.404,11.741,4.232,10.356,3.619"/>
</g>
</svg>
