<?xml version="1.0" encoding="iso-8859-1"?>
<!-- Generator: Adobe Illustrator 18.1.1, SVG Export Plug-In . SVG Version: 6.00 Build 0)  -->
<svg version="1.1" id="Ebene_1" xmlns="http://www.w3.org/2000/svg" xmlns:xlink="http://www.w3.org/1999/xlink" x="0px" y="0px"
	 viewBox="0 0 19.908 28.347" style="enable-background:new 0 0 19.908 28.347;" xml:space="preserve">
<g>
	<path style="fill:#DAC26D;" d="M9.181,0.829C13.1-2.501,20.962,4.603,19.79,14.988C18.278,28.379,2.688,31.407,0.38,25.395
		c-2.308-6.013,6.576-5.974,8.495-11.884C10.795,7.6,5.744,3.75,9.181,0.829"/>
	<path style="fill:#CE9D38;" d="M5.035,22.409c-0.208-0.093-0.379-0.268-0.462-0.499c-0.158-0.448,0.077-0.94,0.525-1.098
		c0.035-0.013,3.825-1.418,5.832-5.563c2.007-4.141,0.082-8.822,0.062-8.869c-0.184-0.438,0.022-0.942,0.46-1.127
		c0.438-0.184,0.943,0.022,1.127,0.46c0.093,0.22,2.243,5.453-0.1,10.287c-2.326,4.802-6.625,6.369-6.807,6.434
		C5.456,22.51,5.229,22.495,5.035,22.409"/>
</g>
</svg>
