<?xml version="1.0" encoding="iso-8859-1"?>
<!-- Generator: Adobe Illustrator 18.1.1, SVG Export Plug-In . SVG Version: 6.00 Build 0)  -->
<svg version="1.1" id="Ebene_1" xmlns="http://www.w3.org/2000/svg" xmlns:xlink="http://www.w3.org/1999/xlink" x="0px" y="0px"
	 viewBox="0 0 26.363 28.346" style="enable-background:new 0 0 26.363 28.346;" xml:space="preserve">
<g>
	<path style="fill:#F9C6C0;" d="M25.94,6.573c-1.828,1.229-4.245,1.387-6.385,0.189c-2.142-1.199-3.468-3.45-3.667-5.812
		c0.146-0.098,3.461-1.959,6.384-0.189C24.378,2.036,25.74,4.211,25.94,6.573"/>
	<path style="fill:#F9C6C0;" d="M6.265,16.561c-0.024,0-0.123-0.001-0.147-0.004c-0.323-0.04-0.552-0.334-0.512-0.657
		c0.711-5.743,4.416-11.261,10.256-14.938c0.276-0.174,0.639-0.091,0.812,0.184c0.174,0.275,0.091,0.639-0.184,0.812
		c-5.536,3.485-9.049,8.701-9.716,14.086C6.737,16.343,6.557,16.561,6.265,16.561z"/>
	<path style="fill:#F9C6C0;" d="M16.915,16.344c-0.204,0-0.402-0.106-0.51-0.295c-2.354-4.089-2.713-9.57-0.715-14.822
		c0.115-0.304,0.456-0.456,0.759-0.341c0.304,0.116,0.457,0.456,0.341,0.76c-1.87,4.915-1.539,10.039,0.635,13.816
		c0.162,0.281,0.065,0.641-0.217,0.804L16.915,16.344z"/>
	<path style="fill:#E40134;" d="M0.058,20.919c0.466-3.764,3.45-5.301,6.976-4.815c3.537,0.389,6.055,2.607,5.59,6.371
		c-0.457,3.748-3.636,6.305-7.099,5.81C2.047,27.92-0.415,24.665,0.058,20.919"/>
	<path style="fill:#E40134;" d="M25.424,17.225c-1.857-3.226-5.142-3.478-8.145-1.695c-3.05,1.7-4.483,4.667-2.626,7.893
		c1.841,3.216,5.692,4.316,8.636,2.548C26.295,24.316,27.278,20.433,25.424,17.225"/>
</g>
</svg>
