<?xml version="1.0" encoding="iso-8859-1"?>
<!-- Generator: Adobe Illustrator 18.1.1, SVG Export Plug-In . SVG Version: 6.00 Build 0)  -->
<svg version="1.1" id="Ebene_1" xmlns="http://www.w3.org/2000/svg" xmlns:xlink="http://www.w3.org/1999/xlink" x="0px" y="0px"
	 viewBox="0 0 26.207 25.743" style="enable-background:new 0 0 26.207 25.743;" xml:space="preserve">
<g>
	<g>
		<path style="fill:#743701;" d="M1.053,11.891c-1.987-2.094-1.078-6.183,2.03-9.132c3.108-2.95,7.239-3.643,9.226-1.549
			s1.078,6.182-2.03,9.132S3.04,13.985,1.053,11.891"/>
		<path style="fill:#743701;" d="M25.595,23.426c-1.311,2.572-5.468,3.08-9.286,1.135s-5.851-5.607-4.54-8.18
			c1.311-2.572,5.468-3.08,9.286-1.135C24.873,17.192,26.906,20.854,25.595,23.426"/>
	</g>
	
		<rect x="15.576" y="3.788" transform="matrix(-0.9272 -0.3747 0.3747 -0.9272 36.1846 22.7373)" style="fill:#4C2300;" width="9.454" height="8.127"/>
	
		<rect x="0.629" y="16.506" transform="matrix(-0.0872 -0.9962 0.9962 -0.0872 -14.7325 27.1643)" style="fill:#4C2300;" width="8.9" height="7.651"/>
</g>
</svg>
