<?xml version="1.0" encoding="utf-8"?>
<!-- Generator: Adobe Illustrator 19.2.1, SVG Export Plug-In . SVG Version: 6.00 Build 0)  -->
<svg version="1.1" id="Ebene_1" xmlns="http://www.w3.org/2000/svg" xmlns:xlink="http://www.w3.org/1999/xlink" x="0px" y="0px"
	 viewBox="0 0 1000 1000" enable-background="new 0 0 1000 1000" xml:space="preserve">
<polygon fill="#E0B634" points="263.8,67.1 224.5,87.5 180.3,87.5 161.3,120.4 127.6,137.9 125.7,182.1 103.6,220.4 122.6,253.3 
	120.9,291.3 158.2,315.1 180.3,353.3 218.3,353.3 250.4,373.7 289.6,353.3 333.8,353.3 352.8,320.5 386.5,302.9 388.5,258.7 
	410.6,220.4 391.6,187.5 393.2,149.5 356,125.8 333.8,87.5 295.8,87.5 "/>
<polygon fill="#E0B634" points="644.7,22.9 605.4,43.4 561.2,43.4 542.2,76.3 508.5,93.8 506.6,138 484.5,176.3 503.5,209.2 
	501.8,247.2 539.1,271 561.2,309.2 599.2,309.2 631.3,329.6 670.5,309.2 714.7,309.2 733.7,276.4 767.4,258.8 769.4,214.6 
	791.4,176.3 772.5,143.4 774.1,105.4 736.8,81.7 714.7,43.4 676.7,43.4 "/>
<polygon fill="#E0B634" points="846.9,378.8 807.6,399.2 763.4,399.2 744.4,432.1 710.7,449.7 708.8,493.9 686.7,532.2 705.7,565.1 
	704,603 741.3,626.8 763.4,665.1 801.4,665.1 833.5,685.5 872.7,665.1 916.9,665.1 936,632.2 969.6,614.6 971.6,570.5 993.7,532.2 
	974.7,499.3 976.3,461.3 939.1,437.5 916.9,399.2 878.9,399.2 "/>
<polygon fill="#E0B634" points="491.2,378.8 451.9,399.2 407.7,399.2 388.7,432.1 355,449.7 353.1,493.9 331,532.2 350,565.1 
	348.3,603 385.6,626.8 407.7,665.1 445.7,665.1 477.8,685.5 517,665.1 561.2,665.1 580.2,632.2 613.9,614.6 615.9,570.5 638,532.2 
	619,499.3 620.6,461.3 583.4,437.5 561.2,399.2 523.2,399.2 "/>
<polygon fill="#E0B634" points="167.6,532.1 128.3,552.6 84.1,552.6 65.1,585.5 31.4,603 29.5,647.2 7.4,685.5 26.3,718.4 
	24.7,756.4 62,780.2 84.1,818.4 122.1,818.4 154.2,838.8 193.4,818.4 237.6,818.4 256.6,785.6 290.3,768 292.2,723.8 314.3,685.5 
	295.4,652.6 297,614.6 259.7,590.9 237.6,552.6 199.6,552.6 "/>
<polygon fill="#E0B634" points="660.7,671.7 621.4,692.1 577.2,692.1 558.2,725 524.5,742.5 522.6,786.7 500.5,825 519.5,858 
	517.8,895.9 555.1,919.7 577.2,957.9 615.2,957.9 647.3,978.4 686.5,957.9 730.7,957.9 749.8,925.1 783.4,907.5 785.4,863.3 
	807.5,825 788.5,792.1 790.1,754.2 752.9,730.4 730.7,692.1 692.7,692.1 "/>
<path fill="#D6EEFC" d="M156.3,635.8h-25c-6.3,0-11.4-5.1-11.4-11.4v-28.7c0-6.3,5.1-11.4,11.4-11.4h25c6.3,0,11.4,5.1,11.4,11.4
	v28.7C167.7,630.7,162.6,635.8,156.3,635.8"/>
<path fill="#D6EEFC" d="M242.4,716h-25c-6.3,0-11.4-5.1-11.4-11.4v-28.7c0-6.3,5.1-11.4,11.4-11.4h25c6.3,0,11.4,5.1,11.4,11.4v28.7
	C253.8,710.9,248.7,716,242.4,716"/>
<path fill="#D6EEFC" d="M123.9,748.7h-25c-6.3,0-11.4-5.1-11.4-11.4v-28.7c0-6.3,5.1-11.4,11.4-11.4h25c6.3,0,11.4,5.1,11.4,11.4
	v28.7C135.3,743.5,130.2,748.7,123.9,748.7"/>
<path fill="#D6EEFC" d="M589.5,853.3h-25c-6.3,0-11.4-5.1-11.4-11.4v-28.7c0-6.3,5.1-11.4,11.4-11.4h25c6.3,0,11.4,5.1,11.4,11.4
	v28.7C600.9,848.2,595.8,853.3,589.5,853.3"/>
<path fill="#D6EEFC" d="M746.7,820h-25c-6.3,0-11.4-5.1-11.4-11.4v-28.7c0-6.3,5.1-11.4,11.4-11.4h25c6.3,0,11.4,5.1,11.4,11.4v28.7
	C758.1,814.9,753,820,746.7,820"/>
<path fill="#D6EEFC" d="M473.1,329.1h-25c-6.3,0-11.4-5.1-11.4-11.4V289c0-6.3,5.1-11.4,11.4-11.4h25c6.3,0,11.4,5.1,11.4,11.4v28.7
	C484.5,324,479.4,329.1,473.1,329.1"/>
<path fill="#D6EEFC" d="M698.9,922.3h-25c-6.3,0-11.4-5.1-11.4-11.4v-28.7c0-6.3,5.1-11.4,11.4-11.4h25c6.3,0,11.4,5.1,11.4,11.4
	v28.7C710.3,917.1,705.2,922.3,698.9,922.3"/>
<path fill="#D6EEFC" d="M556.9,487.5h-25c-6.3,0-11.4-5.1-11.4-11.4v-28.7c0-6.3,5.1-11.4,11.4-11.4h25c6.3,0,11.4,5.1,11.4,11.4
	v28.7C568.3,482.3,563.2,487.5,556.9,487.5"/>
<path fill="#D6EEFC" d="M694.4,244.2h-25c-6.3,0-11.4-5.1-11.4-11.4v-28.7c0-6.3,5.1-11.4,11.4-11.4h25c6.3,0,11.4,5.1,11.4,11.4
	v28.7C705.8,239.1,700.7,244.2,694.4,244.2"/>
<path fill="#D6EEFC" d="M218.5,303.3h-25c-6.3,0-11.4-5.1-11.4-11.4v-28.7c0-6.3,5.1-11.4,11.4-11.4h25c6.3,0,11.4,5.1,11.4,11.4
	v28.7C229.9,298.2,224.8,303.3,218.5,303.3"/>
<path fill="#D6EEFC" d="M111.9,487.5h-25c-6.3,0-11.4-5.1-11.4-11.4v-28.7c0-6.3,5.1-11.4,11.4-11.4h25c6.3,0,11.4,5.1,11.4,11.4
	v28.7C123.3,482.3,118.2,487.5,111.9,487.5"/>
<path fill="#D6EEFC" d="M328.4,277.5h-25c-6.3,0-11.4-5.1-11.4-11.4v-28.7c0-6.3,5.1-11.4,11.4-11.4h25c6.3,0,11.4,5.1,11.4,11.4
	v28.7C339.8,272.4,334.7,277.5,328.4,277.5"/>
<path fill="#D6EEFC" d="M817.5,583.7h-25c-6.3,0-11.4-5.1-11.4-11.4v-28.7c0-6.3,5.1-11.4,11.4-11.4h25c6.3,0,11.4,5.1,11.4,11.4
	v28.7C828.9,578.6,823.9,583.7,817.5,583.7"/>
<path fill="#D6EEFC" d="M849.6,483.5h-25c-6.3,0-11.4-5.1-11.4-11.4v-28.7c0-6.3,5.1-11.4,11.4-11.4h25c6.3,0,11.4,5.1,11.4,11.4
	v28.7C861,478.4,855.9,483.5,849.6,483.5"/>
<path fill="#D6EEFC" d="M428.6,519.5h-25c-6.3,0-11.4-5.1-11.4-11.4v-28.7c0-6.3,5.1-11.4,11.4-11.4h25c6.3,0,11.4,5.1,11.4,11.4
	v28.7C440,514.5,434.9,519.5,428.6,519.5"/>
<path fill="#D6EEFC" d="M593,218.5h-25c-6.3,0-11.4-5.1-11.4-11.4v-28.7c0-6.3,5.1-11.4,11.4-11.4h25c6.3,0,11.4,5.1,11.4,11.4v28.7
	C604.4,213.3,599.3,218.5,593,218.5"/>
<path fill="#D6EEFC" d="M666.4,111.6h-27.7c-7,0-12.7-5.7-12.7-12.7V67c0-7,5.7-12.7,12.7-12.7h27.7c7,0,12.7,5.7,12.7,12.7v31.9
	C679.1,105.9,673.4,111.6,666.4,111.6"/>
<path fill="#D6EEFC" d="M225.6,170.4h-27.7c-7,0-12.7-5.7-12.7-12.7v-31.9c0-7,5.7-12.7,12.7-12.7h27.7c7,0,12.7,5.7,12.7,12.7v31.9
	C238.3,164.7,232.6,170.4,225.6,170.4"/>
<path fill="#D6EEFC" d="M520.8,619.8h-25c-6.3,0-11.4-5.1-11.4-11.4v-28.7c0-6.3,5.1-11.4,11.4-11.4h25c6.3,0,11.4,5.1,11.4,11.4
	v28.7C532.2,614.7,527.2,619.8,520.8,619.8"/>
<path fill="#D6EEFC" d="M452.7,812.5h-25c-6.3,0-11.4-5.1-11.4-11.4v-28.7c0-6.3,5.1-11.4,11.4-11.4h25c6.3,0,11.4,5.1,11.4,11.4
	v28.7C464.1,807.4,459,812.5,452.7,812.5"/>
<path fill="#D6EEFC" d="M929.8,583.7h-25c-6.3,0-11.4-5.1-11.4-11.4v-28.7c0-6.3,5.1-11.4,11.4-11.4h25c6.3,0,11.4,5.1,11.4,11.4
	v28.7C941.2,578.6,936.1,583.7,929.8,583.7"/>
</svg>
