<?xml version="1.0" encoding="iso-8859-1"?>
<!-- Generator: Adobe Illustrator 18.1.1, SVG Export Plug-In . SVG Version: 6.00 Build 0)  -->
<svg version="1.1" id="Ebene_1" xmlns="http://www.w3.org/2000/svg" xmlns:xlink="http://www.w3.org/1999/xlink" x="0px" y="0px"
	 viewBox="0 0 28.346 28.346" style="enable-background:new 0 0 28.346 28.346;" xml:space="preserve">
<g>
	<path style="fill:#FFB500;" d="M15.676,15.676c-0.524,0.524,0.959,2.855,3.312,5.208c2.352,2.353,4.682,3.835,5.207,3.311
		c0.523-0.524-0.959-2.854-3.312-5.206C18.53,16.636,16.199,15.153,15.676,15.676"/>
	<path style="fill:#FFB500;" d="M4.15,4.15C3.626,4.674,5.109,7.006,7.462,9.358c2.352,2.353,4.682,3.835,5.207,3.311
		c0.523-0.524-0.959-2.854-3.312-5.206C7.004,5.111,4.673,3.628,4.15,4.15"/>
	<path style="fill:#FFB500;" d="M16.299,14.173c0,0.74,2.696,1.341,6.023,1.341c3.328,0,6.024-0.601,6.024-1.341
		c0-0.74-2.696-1.341-6.024-1.341C18.995,12.832,16.299,13.433,16.299,14.173"/>
	<path style="fill:#FFB500;" d="M0,14.173c0,0.74,2.696,1.341,6.023,1.341c3.328,0,6.024-0.601,6.024-1.341
		c0-0.74-2.696-1.341-6.024-1.341C2.696,12.832,0,13.433,0,14.173"/>
	<path style="fill:#FFB500;" d="M15.676,12.67c0.524,0.524,2.855-0.959,5.208-3.312c2.353-2.352,3.835-4.682,3.311-5.207
		c-0.524-0.523-2.854,0.959-5.206,3.312C16.636,9.816,15.153,12.147,15.676,12.67"/>
	<path style="fill:#FFB500;" d="M4.15,24.195c0.524,0.524,2.855-0.959,5.208-3.312c2.353-2.352,3.835-4.682,3.311-5.207
		c-0.524-0.523-2.854,0.959-5.206,3.312C5.11,21.341,3.627,23.672,4.15,24.195"/>
	<path style="fill:#FFB500;" d="M14.173,12.047c0.74,0,1.341-2.696,1.341-6.023C15.514,2.696,14.913,0,14.173,0
		c-0.74,0-1.341,2.696-1.341,6.024C12.832,9.351,13.433,12.047,14.173,12.047"/>
	<path style="fill:#FFB500;" d="M14.173,28.346c0.74,0,1.341-2.696,1.341-6.023c0-3.328-0.601-6.024-1.341-6.024
		c-0.74,0-1.341,2.696-1.341,6.024C12.832,25.65,13.433,28.346,14.173,28.346"/>
	<path style="fill:#FFB500;" d="M16.217,13.586c0.204,0.712,2.961,0.545,6.159-0.372s5.625-2.237,5.421-2.949
		c-0.204-0.711-2.961-0.545-6.159,0.372S16.013,12.874,16.217,13.586"/>
	<path style="fill:#FFB500;" d="M0.549,18.079c0.204,0.712,2.961,0.545,6.159-0.372s5.625-2.237,5.421-2.949
		c-0.204-0.711-2.961-0.545-6.159,0.372S0.345,17.367,0.549,18.079"/>
	<path style="fill:#FFB500;" d="M15.204,12.314c0.647,0.359,2.48-1.708,4.093-4.618c1.613-2.91,2.395-5.559,1.747-5.918
		c-0.647-0.359-2.479,1.708-4.092,4.618S14.557,11.956,15.204,12.314"/>
	<path style="fill:#FFB500;" d="M7.302,26.568c0.647,0.359,2.48-1.708,4.093-4.618s2.395-5.559,1.747-5.918
		c-0.647-0.359-2.479,1.708-4.092,4.618S6.655,26.21,7.302,26.568"/>
	<path style="fill:#FFB500;" d="M13.587,12.129c0.712-0.204,0.545-2.961-0.372-6.159s-2.237-5.625-2.949-5.421
		C9.555,0.753,9.721,3.51,10.638,6.708S12.875,12.333,13.587,12.129"/>
	<path style="fill:#FFB500;" d="M18.08,27.797c0.712-0.204,0.545-2.961-0.372-6.159s-2.237-5.625-2.949-5.421
		c-0.711,0.204-0.545,2.961,0.372,6.159C16.048,25.574,17.368,28.001,18.08,27.797"/>
	<path style="fill:#FFB500;" d="M12.314,13.142c0.359-0.647-1.708-2.48-4.618-4.093c-2.91-1.613-5.559-2.395-5.918-1.747
		c-0.359,0.647,1.708,2.479,4.618,4.092S11.955,13.789,12.314,13.142"/>
	<path style="fill:#FFB500;" d="M26.568,21.044c0.359-0.647-1.708-2.48-4.618-4.093c-2.91-1.613-5.559-2.395-5.918-1.747
		c-0.359,0.647,1.708,2.479,4.618,4.092C23.56,20.909,26.21,21.691,26.568,21.044"/>
	<path style="fill:#FFB500;" d="M16.015,13.109c0.37,0.641,3.005-0.187,5.886-1.851c2.882-1.663,4.917-3.531,4.547-4.172
		c-0.371-0.642-3.006,0.187-5.888,1.85C17.679,10.6,15.644,12.467,16.015,13.109"/>
	<path style="fill:#FFB500;" d="M1.899,21.259c0.37,0.641,3.005-0.187,5.886-1.851c2.882-1.663,4.917-3.531,4.547-4.172
		c-0.371-0.642-3.006,0.187-5.888,1.85C3.563,18.75,1.528,20.617,1.899,21.259"/>
	<path style="fill:#FFB500;" d="M14.724,12.119c0.715,0.192,1.993-2.257,2.854-5.471c0.861-3.214,0.979-5.972,0.264-6.165
		c-0.715-0.191-1.993,2.257-2.854,5.471S14.009,11.928,14.724,12.119"/>
	<path style="fill:#FFB500;" d="M10.505,27.862c0.715,0.192,1.993-2.257,2.854-5.471c0.861-3.214,0.979-5.972,0.264-6.165
		c-0.715-0.191-1.993,2.257-2.854,5.471S9.79,27.671,10.505,27.862"/>
	<path style="fill:#FFB500;" d="M13.11,12.331c0.641-0.37-0.187-3.005-1.851-5.886C9.596,3.563,7.728,1.528,7.087,1.898
		c-0.642,0.371,0.187,3.006,1.85,5.888C10.601,10.667,12.468,12.702,13.11,12.331"/>
	<path style="fill:#FFB500;" d="M21.26,26.446c0.641-0.37-0.187-3.005-1.851-5.886c-1.663-2.882-3.531-4.917-4.172-4.547
		c-0.642,0.371,0.187,3.006,1.85,5.888C18.751,24.782,20.618,26.817,21.26,26.446"/>
	<path style="fill:#FFB500;" d="M12.119,13.622c0.192-0.715-2.257-1.993-5.471-2.854c-3.214-0.861-5.972-0.979-6.165-0.264
		c-0.191,0.715,2.257,1.993,5.471,2.854S11.928,14.337,12.119,13.622"/>
	<path style="fill:#FFB500;" d="M27.862,17.841c0.192-0.715-2.257-1.993-5.471-2.854c-3.214-0.861-5.972-0.979-6.165-0.264
		c-0.191,0.715,2.257,1.993,5.471,2.854S27.671,18.556,27.862,17.841"/>
	<path style="fill:#511B00;" d="M21.985,11.97c-0.36,0.416-0.592,0.825-0.539,1.213c0.049,0.356,0.319,0.669,0.71,0.955
		c-0.388,0.29-0.656,0.604-0.701,0.961c-0.042,0.326,0.081,0.664,0.332,1.008c-0.385,0.182-0.655,0.42-0.774,0.726
		c-0.141,0.366-0.011,0.818,0.242,1.306c-0.548,0.04-1.002,0.165-1.24,0.477c-0.218,0.287-0.246,0.699-0.172,1.178
		c-0.479-0.07-0.892-0.037-1.176,0.183c-0.26,0.201-0.411,0.527-0.477,0.948c-0.401-0.144-0.761-0.165-1.06-0.033
		c-0.36,0.158-0.587,0.569-0.755,1.093c-0.414-0.359-0.824-0.591-1.213-0.538c-0.356,0.048-0.668,0.319-0.954,0.71
		c-0.289-0.389-0.605-0.657-0.962-0.702c-0.326-0.042-0.663,0.081-1.008,0.332c-0.183-0.385-0.42-0.654-0.727-0.773
		c-0.364-0.142-0.816-0.012-1.305,0.241c-0.039-0.548-0.164-1.002-0.477-1.239c-0.287-0.218-0.699-0.247-1.178-0.173
		c0.071-0.479,0.038-0.892-0.183-1.176c-0.2-0.26-0.527-0.412-0.946-0.477c0.141-0.402,0.165-0.76,0.032-1.061
		c-0.157-0.358-0.571-0.586-1.093-0.753c0.358-0.416,0.591-0.825,0.538-1.213c-0.049-0.357-0.319-0.669-0.711-0.955
		c0.389-0.29,0.657-0.605,0.703-0.962c0.041-0.326-0.081-0.663-0.334-1.007c0.386-0.182,0.655-0.42,0.774-0.727
		c0.141-0.365,0.012-0.817-0.241-1.305c0.549-0.04,1.001-0.165,1.24-0.477c0.217-0.287,0.247-0.699,0.173-1.178
		c0.479,0.07,0.891,0.037,1.176-0.183c0.259-0.202,0.411-0.527,0.477-0.947c0.401,0.143,0.76,0.164,1.059,0.032
		c0.36-0.158,0.587-0.569,0.754-1.093c0.416,0.359,0.826,0.591,1.213,0.538c0.357-0.048,0.67-0.319,0.956-0.71
		c0.289,0.389,0.603,0.656,0.96,0.702c0.326,0.041,0.665-0.082,1.008-0.332c0.183,0.384,0.421,0.653,0.727,0.772
		c0.366,0.142,0.817,0.012,1.305-0.24c0.041,0.548,0.166,1.001,0.477,1.239c0.287,0.217,0.699,0.247,1.179,0.173
		c-0.07,0.479-0.038,0.891,0.183,1.176c0.2,0.26,0.526,0.412,0.947,0.477c-0.143,0.401-0.165,0.76-0.033,1.06
		C21.049,11.575,21.461,11.803,21.985,11.97"/>
</g>
</svg>
