<?xml version="1.0" encoding="utf-8"?>
<!-- Generator: Adobe Illustrator 15.0.0, SVG Export Plug-In . SVG Version: 6.00 Build 0)  -->
<!DOCTYPE svg PUBLIC "-//W3C//DTD SVG 1.1//EN" "http://www.w3.org/Graphics/SVG/1.1/DTD/svg11.dtd">
<svg version="1.1" id="Ebene_1" xmlns="http://www.w3.org/2000/svg" xmlns:xlink="http://www.w3.org/1999/xlink" x="0px" y="0px"
	 width="2834.65px" height="2834.649px" viewBox="0 0 2834.65 2834.649" enable-background="new 0 0 2834.65 2834.649"
	 xml:space="preserve">
<g>
	<path fill="#FEDDAA" d="M2264.711,1153.023c259.116-106.517,407.817-393.917,332.173-641.961
		c-75.679-248.043-347.074-362.769-606.189-256.252c-259.116,106.516-407.818,393.917-332.139,641.96
		C1734.2,1144.813,2005.595,1259.538,2264.711,1153.023"/>
	<path fill="#FEEAD3" d="M2272.472,889.078c174.297-71.643,274.328-264.979,223.415-431.79
		c-50.878-166.847-233.418-244.008-407.714-172.365c-174.296,71.644-274.328,264.945-223.415,431.79
		C1915.636,883.559,2098.176,960.721,2272.472,889.078"/>
</g>
<g>
	<path fill="#FEDDAA" d="M2264.711,2399.023c259.116-106.517,407.817-393.917,332.173-641.961
		c-75.679-248.043-347.074-362.769-606.189-256.253c-259.116,106.517-407.818,393.917-332.139,641.961
		C1734.2,2390.813,2005.595,2505.538,2264.711,2399.023"/>
	<path fill="#FEEAD3" d="M2272.472,2135.078c174.297-71.643,274.328-264.979,223.415-431.79
		c-50.878-166.847-233.418-244.008-407.714-172.365c-174.296,71.644-274.328,264.945-223.415,431.79
		C1915.636,2129.559,2098.176,2206.721,2272.472,2135.078"/>
</g>
<g>
	<path fill="#FEDDAA" d="M983.207,1314.107c259.116-106.517,407.817-393.917,332.173-641.961
		c-75.679-248.043-347.074-362.769-606.189-256.253C450.074,522.41,301.372,809.81,377.052,1057.854
		C452.696,1305.897,724.091,1420.622,983.207,1314.107"/>
	<path fill="#FEEAD3" d="M990.968,1050.162c174.297-71.643,274.328-264.979,223.415-431.79
		c-50.878-166.847-233.418-244.008-407.714-172.365c-174.296,71.644-274.328,264.945-223.415,431.79
		C634.132,1044.643,816.672,1121.805,990.968,1050.162"/>
</g>
<g>
	<path fill="#FEDDAA" d="M1026.597,2610.945c259.116-106.517,407.817-393.917,332.173-641.961
		c-75.679-248.043-347.074-362.769-606.189-256.253c-259.116,106.517-407.818,393.917-332.139,641.961
		C496.086,2602.735,767.48,2717.459,1026.597,2610.945"/>
	<path fill="#FEEAD3" d="M1034.357,2347c174.297-71.643,274.328-264.979,223.415-431.79
		c-50.878-166.847-233.418-244.008-407.714-172.365c-174.296,71.644-274.328,264.945-223.415,431.79
		C677.521,2341.481,860.062,2418.643,1034.357,2347"/>
</g>
</svg>
