<?xml version="1.0" encoding="iso-8859-1"?>
<!-- Generator: Adobe Illustrator 18.1.1, SVG Export Plug-In . SVG Version: 6.00 Build 0)  -->
<svg version="1.1" id="Ebene_1" xmlns="http://www.w3.org/2000/svg" xmlns:xlink="http://www.w3.org/1999/xlink" x="0px" y="0px"
	 viewBox="0 0 20.422 28.346" style="enable-background:new 0 0 20.422 28.346;" xml:space="preserve">
<g>
	<path style="fill:#80A51B;" d="M17.659,12.387c0.201,11.525-7.917,11.819-7.917,11.819S1.59,21.863,2.407,12.653
		C3.301,2.57,9.814,0,9.814,0S17.478,2.001,17.659,12.387"/>
	<path style="fill:#E4CA72;" d="M14.597,0.826c0,0-0.619,5.631-2.323,13.649c-0.717,3.374-1.451,6.345-2.063,8.664
		c-0.612-2.319-1.346-5.29-2.063-8.664C6.444,6.457,5.825,0.826,5.825,0.826C5.796,0.841-1.751,5.167,0.379,17.908
		c1.338,8.003,5.39,9.942,8.392,10.342c-0.003,0.01-0.01,0.032-0.01,0.032c0.294,0.021,0.692,0.052,1.153,0.062
		c0.103,0.003,0.199,0.002,0.297,0.002c0.099,0,0.194,0.001,0.298-0.002c0.46-0.01,0.858-0.041,1.152-0.062
		c0,0-0.007-0.022-0.01-0.032c3.002-0.4,7.054-2.339,8.392-10.342C22.173,5.167,14.626,0.841,14.597,0.826"/>
</g>
</svg>
