<?xml version="1.0" encoding="utf-8"?>
<!-- Generator: Adobe Illustrator 15.0.0, SVG Export Plug-In . SVG Version: 6.00 Build 0)  -->
<!DOCTYPE svg PUBLIC "-//W3C//DTD SVG 1.1//EN" "http://www.w3.org/Graphics/SVG/1.1/DTD/svg11.dtd">
<svg version="1.1" id="Ebene_1" xmlns="http://www.w3.org/2000/svg" xmlns:xlink="http://www.w3.org/1999/xlink" x="0px" y="0px"
	 width="2834.65px" height="2834.649px" viewBox="0 0 2834.65 2834.649" enable-background="new 0 0 2834.65 2834.649"
	 xml:space="preserve">
<g>
	<path fill="#1B2E51" d="M1822.344,683.605c116.559-31.274,176.012-187.539,132.782-348.928
		c-43.229-161.282-172.809-266.846-289.367-235.571c-116.559,31.167-176.012,187.326-132.782,348.714
		C1576.205,609.209,1705.786,714.773,1822.344,683.605"/>
	<path fill="#1B2E51" d="M2343.12,943.514c97.666,70.98,256.492,18.893,354.691-116.345
		c98.199-135.131,98.733-302.283,1.068-373.265c-97.56-70.874-256.387-18.893-354.586,116.345
		C2246.095,705.487,2245.562,872.64,2343.12,943.514"/>
	<path fill="#1B2E51" d="M1301.675,2105.04c102.361,64.043,257.132,0.961,345.725-140.787
		c88.486-141.643,77.279-308.367-25.083-372.41c-102.255-63.83-257.026-0.854-345.513,140.787
		C1188.212,1874.379,1199.419,2041.104,1301.675,2105.04"/>
	<path fill="#1B2E51" d="M2169.137,2438.17c119.761-14.73,200.349-161.176,180.067-326.939
		c-20.387-165.871-134.063-288.406-253.823-273.678c-119.761,14.73-200.349,161.068-179.961,326.939
		C1935.7,2330.258,2049.376,2452.901,2169.137,2438.17"/>
	<path fill="#1B2E51" d="M873.974,1852.604c110.261-49.1,144.523-212.73,76.639-365.365
		c-67.993-152.743-212.41-236.533-322.777-187.433c-110.154,49.1-144.523,212.517-76.531,365.259
		C619.296,1817.7,763.713,1901.704,873.974,1852.604"/>
	<path fill="#1B2E51" d="M422.897,2278.491c98.84-69.168,101.188-236.32,5.443-373.266
		c-95.958-136.838-253.717-191.594-352.557-122.428c-98.84,69.273-101.294,236.211-5.443,373.156
		C166.191,2292.899,324.058,2347.657,422.897,2278.491"/>
	<path fill="#1B2E51" d="M1311.388,2748.032c95.211-74.289,88.699-241.336-14.196-373.051s-263.217-178.039-358.321-103.75
		c-95.104,74.291-88.806,241.23,14.09,372.838C1055.749,2775.891,1216.284,2822.323,1311.388,2748.032"/>
	<path fill="#1B2E51" d="M908.344,656.388c120.721,0,218.493-135.559,218.493-302.604c0-167.046-97.772-302.497-218.493-302.497
		c-120.722,0-218.494,135.451-218.494,302.497C689.85,520.829,787.622,656.388,908.344,656.388"/>
	<path fill="#1B2E51" d="M265.778,1157.844c118.907,20.921,238.773-95.53,267.807-260.121
		c28.926-164.591-43.869-314.878-162.776-335.799c-118.8-20.921-238.667,95.424-267.7,260.015
		C74.076,986.529,146.872,1136.923,265.778,1157.844"/>
	<path fill="#1B2E51" d="M1505.864,1218.898c86.779-83.79,63.083-249.234-53.049-369.422
		c-116.131-120.294-280.508-149.646-367.286-65.857c-86.886,83.896-63.189,249.234,52.942,369.528
		C1254.603,1273.335,1419.087,1302.795,1505.864,1218.898"/>
	<path fill="#1B2E51" d="M1946.16,1585.225c120.722,0,218.493-135.559,218.493-302.604c0-167.046-97.771-302.496-218.493-302.496
		c-120.721,0-218.493,135.45-218.493,302.496C1727.667,1449.667,1825.439,1585.225,1946.16,1585.225"/>
	<path fill="#1B2E51" d="M2548.912,1775.325c118.053,25.084,241.869-86.99,276.666-250.514
		c34.689-163.417-32.876-316.266-150.929-341.35c-117.945-25.083-241.869,87.099-276.559,250.516
		C2363.294,1597.393,2430.859,1750.243,2548.912,1775.325"/>
</g>
</svg>
