<?xml version="1.0" standalone="no"?>
<!DOCTYPE svg PUBLIC "-//W3C//DTD SVG 20010904//EN"
 "http://www.w3.org/TR/2001/REC-SVG-20010904/DTD/svg10.dtd">
<svg version="1.0" xmlns="http://www.w3.org/2000/svg"
 width="300.000000pt" height="300.000000pt" viewBox="0 0 300.000000 300.000000"
 preserveAspectRatio="xMidYMid meet">
<metadata>
Created by potrace 1.11, written by Peter Selinger 2001-2013
</metadata>
<g transform="translate(0.000000,300.000000) scale(0.100000,-0.100000)"
fill="#000000" stroke="none">
<path d="M1275 2944 c-38 -7 -85 -15 -102 -18 -62 -12 -210 -64 -299 -105
-271 -127 -542 -389 -674 -650 -43 -87 -106 -253 -116 -310 -3 -14 -7 -28 -9
-32 -3 -3 -7 -28 -10 -55 -4 -27 -10 -67 -15 -89 -16 -73 -5 -369 19 -480 11
-55 21 -103 21 -107 0 -5 4 -8 8 -8 5 0 17 53 27 117 10 65 20 123 21 128 99
534 232 806 432 882 26 9 56 29 67 43 62 79 192 186 300 246 174 98 307 135
505 140 166 4 268 -13 405 -67 140 -56 240 -123 360 -245 62 -62 90 -83 125
-93 98 -27 184 -108 224 -209 l17 -44 -33 7 c-18 4 -55 18 -83 31 -27 13 -50
22 -52 21 -6 -7 50 -143 61 -149 45 -25 110 -98 138 -155 46 -94 47 -185 4
-393 -13 -60 -55 -193 -65 -203 -21 -21 -20 1 3 71 14 40 23 72 21 72 -2 0 2
18 10 40 8 22 14 43 14 45 -1 3 4 36 10 73 7 37 13 77 15 90 3 17 -6 30 -34
50 -21 14 -48 42 -61 61 l-24 35 -3 -53 c-2 -32 3 -70 14 -96 21 -56 13 -123
-21 -178 -14 -23 -29 -49 -34 -57 -5 -8 -24 -54 -42 -102 -35 -92 -55 -126
-66 -115 -4 4 4 29 16 55 13 26 34 77 46 113 20 58 21 68 9 92 -19 36 -25 120
-12 160 6 17 22 47 36 66 22 30 26 44 24 99 -4 128 -65 347 -122 437 -11 17
-28 46 -39 66 -37 66 -158 203 -205 231 -7 4 1 -19 16 -50 30 -60 51 -202 30
-202 -20 0 -109 90 -134 137 -28 50 -40 99 -42 167 -2 36 -6 43 -41 63 -46 25
-185 76 -191 70 -3 -2 6 -12 20 -20 43 -28 86 -80 112 -135 14 -30 23 -56 20
-60 -8 -7 -81 15 -131 40 -56 28 -129 107 -150 162 -13 34 -23 46 -39 47 -80
5 -165 4 -186 -2 l-25 -7 25 -1 c62 -3 225 -110 201 -134 -5 -5 -42 -10 -82
-10 -93 -2 -178 28 -238 83 -24 22 -50 40 -57 40 -21 0 -144 -44 -189 -68
l-40 -21 63 6 c49 4 77 1 132 -17 82 -26 81 -33 -13 -75 -85 -39 -181 -45
-260 -17 l-57 21 -48 -38 c-26 -21 -55 -48 -66 -59 l-19 -21 39 18 c57 28 149
42 193 31 24 -5 23 -8 -32 -62 -31 -30 -70 -61 -87 -68 -16 -7 -30 -15 -30
-19 0 -3 17 -22 36 -41 56 -56 129 -229 150 -359 3 -14 9 -48 14 -76 5 -27 12
-75 15 -105 3 -30 8 -66 10 -80 2 -14 6 -68 10 -120 3 -52 8 -115 10 -140 2
-25 5 -129 7 -232 2 -104 6 -188 9 -188 3 0 16 35 28 77 203 710 357 1037 534
1129 41 22 118 28 161 14 48 -16 130 -81 160 -128 66 -106 116 -315 172 -722
2 -19 6 -48 9 -65 3 -16 7 -50 9 -75 5 -45 12 -97 21 -155 3 -16 7 -48 10 -70
19 -124 59 -297 80 -341 37 -76 147 -154 195 -139 32 10 207 203 271 297 106
160 178 330 221 526 30 133 32 444 4 572 -64 300 -193 537 -406 751 -126 127
-245 212 -394 284 -79 38 -218 90 -266 100 -8 2 -36 8 -61 14 -89 20 -126 24
-294 26 -106 1 -197 -3 -240 -11z m395 -149 l34 -12 -44 -32 c-63 -46 -97 -63
-158 -77 -50 -12 -145 -11 -185 2 -24 8 -11 23 55 66 99 63 210 83 298 53z
m-450 -20 c0 -3 -9 -24 -21 -47 -28 -55 -104 -129 -160 -156 -44 -22 -149 -53
-149 -45 0 2 9 20 19 41 28 55 97 129 149 160 59 35 162 65 162 47z m785 -89
c27 -13 61 -32 75 -44 l25 -20 -60 -17 c-113 -33 -220 -18 -313 44 l-43 28 63
16 c35 9 72 18 83 20 44 8 122 -5 170 -27z m-1166 -93 c-30 -137 -98 -232
-206 -287 l-32 -16 5 28 c23 133 75 218 171 281 63 42 73 41 62 -6z m1417
-112 c24 -11 60 -32 80 -47 35 -27 94 -104 94 -122 0 -16 -94 -4 -156 19 -59
22 -141 95 -170 152 l-16 30 62 -6 c34 -4 82 -16 106 -26z m89 -493 c34 -75
44 -183 25 -255 -7 -27 -16 -52 -20 -58 -4 -5 -8 -43 -8 -84 -1 -41 -4 -96 -7
-123 -9 -72 -49 -204 -60 -198 -12 6 -12 5 15 105 14 50 23 119 26 183 3 91 1
109 -18 145 -46 91 -54 184 -23 279 29 89 33 89 70 6z"/>
<path d="M636 1897 c-48 -52 -104 -221 -121 -362 -3 -27 -7 -61 -9 -75 -9 -57
-23 -205 -31 -325 -3 -49 -8 -115 -10 -145 -2 -30 -7 -104 -10 -165 -2 -60 -8
-160 -11 -221 l-6 -111 79 -72 c155 -144 375 -268 578 -325 88 -24 110 -29
210 -46 51 -8 369 -6 415 3 173 35 276 67 401 124 l84 39 -55 26 c-154 71
-273 226 -350 456 -16 48 -32 103 -35 122 -3 19 -11 55 -16 80 -27 122 -38
275 -44 613 -3 217 -6 262 -20 283 -18 27 -39 26 -83 -5 -31 -22 -106 -177
-135 -281 -29 -98 -62 -254 -77 -355 -40 -274 -47 -329 -65 -475 -15 -123 -34
-210 -52 -234 -27 -37 -85 -60 -148 -58 -83 2 -133 36 -183 124 -23 41 -60
153 -68 208 -3 19 -7 46 -9 60 -3 14 -7 77 -10 140 -7 148 -15 258 -30 415 -3
39 -8 90 -11 115 -2 25 -7 65 -10 90 -49 369 -85 446 -168 357z"/>
</g>
</svg>
