<svg id="Capa_1" data-name="Capa 1" xmlns="http://www.w3.org/2000/svg" viewBox="0 0 150 150"><defs><style>.cls-1{fill:#fff;}</style></defs><path d="M149,75A74.11,74.11,0,1,1,74.86.87,74.11,74.11,0,0,1,149,75Z"/><path d="M72.83,60.64a1.57,1.57,0,0,0,2.07-.71,1.77,1.77,0,1,0-2.07.71Z"/><path d="M80.83,60.43c1.2.93,2.55,1.21,3,.63s-.17-1.81-1.38-2.74-2.56-1.2-3-.62S79.61,59.51,80.83,60.43Z"/><path d="M76.37,67.08c-1-.34-1.61-1.22-1.35-2a1.73,1.73,0,0,1,2.27-.7c1,.35,1.61,1.22,1.35,2A1.73,1.73,0,0,1,76.37,67.08Z"/><path d="M83.66,66.35c-.6-.21-1-.73-.82-1.18a1.22,1.22,0,1,1,.82,1.18Z"/><path d="M66.85,58.4a.84.84,0,0,1-.83.84.84.84,0,1,1,0-1.68A.84.84,0,0,1,66.85,58.4Z"/><path d="M82.48,72.19a.85.85,0,1,1-.85-.85A.86.86,0,0,1,82.48,72.19Z"/><path class="cls-1" d="M105.57,65.37c-25-4.33-29.31,10.21-30,15.2V59c1.31.74,18.93,10.28,30.09-16.88-26-4.49-29.6,11.43-30.09,15.76V42.3c3.69-2.65,15.7-13.6-.89-34.55C58.32,27.84,69.11,38.87,73.18,42V53c-2.49-6.08-9.43-14-28.75-10.64,9.67,23.54,24.2,19.5,28.75,17.51V76.44c-2.43-6.11-9.32-14.23-28.86-10.85C54.06,89.3,68.73,85.07,73.18,83.1V99.86c-2.37-6.12-9.22-14.46-29-11,9.81,23.85,24.61,19.44,29,17.49v17c-2.29-6.17-9.06-14.73-29.08-11.28,9.88,24,24.81,19.43,29.08,17.49v13.31h2.34v-14c2.46,1.31,19.2,9.14,30-17.05-23.75-4.11-28.86,8.73-30,14.36v-20.6c2.16,1.18,19.14,9.45,30-17-24.31-4.22-29.07,9.36-30,14.75v-21C77.32,83.3,94.58,92.11,105.57,65.37Z"/><path class="cls-1" d="M75.52,143.57H73.18a.72.72,0,0,1-.72-.73V130.62a20.09,20.09,0,0,1-7,1.31c-6.4,0-15.4-3.4-22.06-19.6a.7.7,0,0,1,0-.63.68.68,0,0,1,.52-.35,50.19,50.19,0,0,1,8.7-.82c11.32,0,17,4.7,19.78,9.54V107.4a19.57,19.57,0,0,1-6.88,1.28c-6.38,0-15.38-3.4-22-19.59a.72.72,0,0,1,.55-1,49.76,49.76,0,0,1,8.69-.81c11.22,0,16.85,4.62,19.68,9.4V84.17a19,19,0,0,1-6.8,1.26c-6.38,0-15.36-3.4-22-19.56a.77.77,0,0,1,0-.63.71.71,0,0,1,.51-.36,51.67,51.67,0,0,1,8.67-.8c11.14,0,16.75,4.55,19.59,9.27V61a19.34,19.34,0,0,1-6.71,1.22c-6.36,0-15.35-3.38-22-19.53a.7.7,0,0,1,0-.63.73.73,0,0,1,.52-.37,51.67,51.67,0,0,1,8.67-.8c11,0,16.63,4.5,19.48,9.13V42.36A19,19,0,0,1,65.3,29.83c-.79-6.81,2.15-14.4,8.76-22.54A.8.8,0,0,1,74.63,7a.7.7,0,0,1,.56.28c6.63,8.35,9.5,16.08,8.54,23a19,19,0,0,1-7.48,12.39v9.66c2.2-5.25,7.62-11.71,20.81-11.71a52.91,52.91,0,0,1,8.67.81.77.77,0,0,1,.51.37.68.68,0,0,1,0,.62C99.64,58.56,90.66,62,84.28,62a19.76,19.76,0,0,1-8-1.76V75.25C80.78,64.76,93,63.84,97,63.84a52.07,52.07,0,0,1,8.7.81.77.77,0,0,1,.5.36.71.71,0,0,1,0,.62C99.6,81.81,90.6,85.2,84.23,85.2h0a19.56,19.56,0,0,1-8-1.73v15c2.3-5.2,7.76-11.4,20.71-11.4a52,52,0,0,1,8.69.81.72.72,0,0,1,.5.36.67.67,0,0,1,0,.63c-6.66,16.18-15.66,19.59-22,19.59a19.62,19.62,0,0,1-7.91-1.72v14.83c2.32-5.08,7.79-11.27,20.66-11.27a52.17,52.17,0,0,1,8.7.81.68.68,0,0,1,.5.36.65.65,0,0,1,0,.62c-6.65,16.2-15.67,19.61-22.07,19.61A19.68,19.68,0,0,1,76.25,130v12.83A.72.72,0,0,1,75.52,143.57Zm-1.62-1.45h.91V128.87a.69.69,0,0,1,.34-.62.71.71,0,0,1,.72,0,18,18,0,0,0,8.21,2c5.85,0,14.07-3.12,20.39-17.87a50.73,50.73,0,0,0-7.56-.64c-15.51,0-19.61,9.15-20.67,14.58a.75.75,0,0,1-.79.58.72.72,0,0,1-.64-.72v-20.6a.7.7,0,0,1,.34-.62.71.71,0,0,1,.72,0,18.18,18.18,0,0,0,8.29,2c5.84,0,14-3.12,20.35-17.84A49.23,49.23,0,0,0,97,88.53C80.59,88.53,77,99,76.24,103.47a.72.72,0,0,1-1.43-.12v-21a.72.72,0,0,1,1.07-.64,18,18,0,0,0,8.35,2.1h0c5.82,0,14-3.13,20.32-17.83A49.23,49.23,0,0,0,97,65.3c-16.69,0-20.08,10.75-20.76,15.37a.7.7,0,0,1-.76.62.74.74,0,0,1-.67-.72V59a.75.75,0,0,1,.26-.57.65.65,0,0,1-.26-.55V42.3a.68.68,0,0,1,.3-.58A17.77,17.77,0,0,0,82.3,30.07c.88-6.28-1.71-13.39-7.67-21.15-6,7.55-8.62,14.53-7.89,20.74a17.53,17.53,0,0,0,6.88,11.77.7.7,0,0,1,.28.58V53a.72.72,0,0,1-1.39.27c-2.05-5-7.11-11-19.53-11a50.29,50.29,0,0,0-7.54.63c6.3,14.7,14.49,17.82,20.31,17.82a18.18,18.18,0,0,0,7.14-1.51.71.71,0,0,1,.69.06.73.73,0,0,1,.32.59V76.44a.72.72,0,0,1-1.39.26c-2-5.09-7.09-11.18-19.64-11.18a48.73,48.73,0,0,0-7.52.64C51.64,80.86,59.84,84,65.66,84a18.11,18.11,0,0,0,7.23-1.55.71.71,0,0,1,.69.06.74.74,0,0,1,.32.6V99.86a.72.72,0,0,1-.59.71.7.7,0,0,1-.8-.45c-2-5.18-7.07-11.37-19.73-11.37a48,48,0,0,0-7.55.64c6.31,14.72,14.51,17.84,20.35,17.84a18.36,18.36,0,0,0,7.31-1.58.75.75,0,0,1,.68,0,.76.76,0,0,1,.33.62v17a.69.69,0,0,1-.59.69.7.7,0,0,1-.81-.44c-2-5.29-7-11.59-19.82-11.59a49,49,0,0,0-7.55.63c6.3,14.74,14.52,17.87,20.37,17.87a18.6,18.6,0,0,0,7.39-1.61.72.72,0,0,1,.68,0,.75.75,0,0,1,.33.61ZM76,58.44a17.88,17.88,0,0,0,8.28,2.06c5.82,0,14-3.11,20.31-17.8a49,49,0,0,0-7.53-.63c-17.64,0-20.4,12.17-20.82,15.91A.74.74,0,0,1,76,58.44Z"/><path class="cls-1" d="M44.43,43.1a.75.75,0,0,1-.73-.73V34.43a.73.73,0,0,1,1.46,0v7.94A.75.75,0,0,1,44.43,43.1Z"/><path class="cls-1" d="M105.61,43.1a.75.75,0,0,1-.73-.73V34.43a.73.73,0,1,1,1.45,0v7.94A.75.75,0,0,1,105.61,43.1Z"/><path class="cls-1" d="M44.43,88.56a.74.74,0,0,1-.73-.73V79.89a.73.73,0,0,1,1.46,0v7.94A.74.74,0,0,1,44.43,88.56Z"/><path class="cls-1" d="M105.61,88.56a.74.74,0,0,1-.73-.73V79.89a.73.73,0,1,1,1.45,0v7.94A.74.74,0,0,1,105.61,88.56Z"/><path class="cls-1" d="M75.65,57a36.13,36.13,0,0,1,28.86-14.66L76.1,57.89"/><path d="M76.1,58.25a.35.35,0,0,1-.31-.19.36.36,0,0,1,.14-.49L103,42.75A36.1,36.1,0,0,0,76,57.24a.37.37,0,0,1-.51.11.35.35,0,0,1-.1-.5A36.8,36.8,0,0,1,104.51,42h0a.33.33,0,0,1,.34.28.35.35,0,0,1-.17.41L76.27,58.2A.31.31,0,0,1,76.1,58.25Z"/><path class="cls-1" d="M76.1,57.89a32.06,32.06,0,0,0,28.71-15.52"/><path d="M77.34,58.29c-.79,0-1.25,0-1.25,0a.36.36,0,0,1-.34-.4.34.34,0,0,1,.39-.32A31.92,31.92,0,0,0,104.5,42.18a.35.35,0,0,1,.49-.11.33.33,0,0,1,.13.48A32.71,32.71,0,0,1,77.34,58.29Z"/><path class="cls-1" d="M73.6,57A36.13,36.13,0,0,0,44.73,42.34L73.14,57.87"/><path d="M73.14,58.22a.72.72,0,0,1-.19,0L44.56,42.66a.39.39,0,0,1-.19-.41.38.38,0,0,1,.36-.28h0C64,42.06,73.81,56.67,73.9,56.81a.36.36,0,1,1-.61.4A36.13,36.13,0,0,0,46.22,42.74L73.31,57.55a.33.33,0,0,1,.13.48A.3.3,0,0,1,73.14,58.22Z"/><path class="cls-1" d="M73.14,57.87A32.05,32.05,0,0,1,44.43,42.34"/><path d="M71.9,58.27A32.69,32.69,0,0,1,44.12,42.53a.36.36,0,0,1,.12-.49.33.33,0,0,1,.49.11A31.9,31.9,0,0,0,73.1,57.51a.36.36,0,0,1,.4.32.37.37,0,0,1-.33.39S72.69,58.27,71.9,58.27Z"/><path class="cls-1" d="M75.65,103.62a36.15,36.15,0,0,1,28.86-14.68L76.1,104.47"/><path d="M76.1,104.83a.37.37,0,0,1-.31-.18.37.37,0,0,1,.14-.5L103,89.34A36,36,0,0,0,76,103.81a.36.36,0,0,1-.51.11.35.35,0,0,1-.1-.5,36.72,36.72,0,0,1,29.17-14.83h0a.33.33,0,0,1,.34.26.35.35,0,0,1-.17.41L76.27,104.79A.31.31,0,0,1,76.1,104.83Z"/><path class="cls-1" d="M76.1,104.47a32.06,32.06,0,0,0,28.71-15.53"/><path d="M77.34,104.87c-.79,0-1.25,0-1.25,0a.35.35,0,0,1-.34-.4.33.33,0,0,1,.39-.32A31.91,31.91,0,0,0,104.5,88.75a.36.36,0,0,1,.49-.11.35.35,0,0,1,.13.49A32.71,32.71,0,0,1,77.34,104.87Z"/><path class="cls-1" d="M73.6,103.59A36.16,36.16,0,0,0,44.73,88.92l28.41,15.52"/><path d="M73.14,104.8a.46.46,0,0,1-.19,0L44.56,89.24a.4.4,0,0,1-.19-.41.38.38,0,0,1,.36-.27h0c19.24.07,29.08,14.69,29.17,14.83a.36.36,0,0,1-.61.4A36.16,36.16,0,0,0,46.22,89.32l27.09,14.81a.34.34,0,0,1,.13.49A.31.31,0,0,1,73.14,104.8Z"/><path class="cls-1" d="M73.14,104.44A32,32,0,0,1,44.43,88.92"/><path d="M71.9,104.84A32.67,32.67,0,0,1,44.12,89.11a.37.37,0,0,1,.12-.5.36.36,0,0,1,.49.12A31.9,31.9,0,0,0,73.1,104.08a.35.35,0,0,1,.4.33.36.36,0,0,1-.33.39S72.69,104.84,71.9,104.84Z"/></svg>