<svg id="Capa_1" data-name="Capa 1" xmlns="http://www.w3.org/2000/svg" viewBox="0 0 150 150"><defs><style>.cls-1{fill:#fff;}</style></defs><path d="M149,75A74.11,74.11,0,1,1,74.86.87,74.11,74.11,0,0,1,149,75Z"/><path class="cls-1" d="M124,69.48c-6.66-8.35-24.19-9.77-28.69.8a17.54,17.54,0,0,0-8.35-6c-8.07-2.84-15.67-.59-21.45,5,0-.4.08-.78.08-1.19,0-7-.2-15.15,2.36-21.88,1.9,1.9,5.39,2.7,7.61,2.6,5.67-.26,11-.72,13.3-6.74,2.13-5.65-.34-12.18-4.25-16.37-2.77-3-3.81-3-7.82-2.8A97.48,97.48,0,0,0,64.94,24C58.41,25.18,53,35.19,49.85,40.55,40.5,56.49,31.9,74,30.52,92.69a1.16,1.16,0,0,0,.57,1c24.72,16.27,61.24,19.85,87.08,3.7C127.58,91.5,131.4,78.79,124,69.48Z"/><path d="M91,85.51c-3.72,3.28-7.1,4.68-12,4.38-4.73-.3-9.11-1-13.09-3.67-1.25-.84-2.4,1.16-1.17,2,4.7,3.18,10.18,3.9,15.76,4.06,4.94.14,8.53-1.89,12.19-5.13C93.75,86.16,92.11,84.53,91,85.51Z"/><path d="M69.32,76.62c1.06-2.08,3.05-3.3,5-4.46a1.16,1.16,0,0,0-1.17-2c-2.27,1.37-4.57,2.86-5.8,5.29C66.64,76.78,68.65,78,69.32,76.62Z"/><path d="M76.86,71a1.16,1.16,0,0,0,0-2.32A1.16,1.16,0,0,0,76.86,71Z"/></svg>