<svg id="Capa_1" data-name="Capa 1" xmlns="http://www.w3.org/2000/svg" viewBox="0 0 150 150"><defs><style>.cls-1{fill:#fff;}.cls-2{fill:none;}</style></defs><path d="M149,75A74.11,74.11,0,1,1,74.86.87,74.11,74.11,0,0,1,149,75Z"/><path class="cls-1" d="M100.32,24.3h0a6.81,6.81,0,0,0-6.8-6.8H60.12a6.8,6.8,0,0,0-6.79,6.8h0a6.79,6.79,0,0,0,6.79,6.78h3.25v9.21L48.84,56.76v59.11S46.4,126,59,126H94.85s6.78-1.47,6.78-9.7V56.76L91,41.26V31.08h3.48S100.32,31.08,100.32,24.3Z"/><path class="cls-1" d="M94.85,126.67H59c-4.34,0-7.46-1.17-9.26-3.47a9.44,9.44,0,0,1-1.55-7.41v-59a.59.59,0,0,1,.16-.41l14.38-16.3V31.72H60.12a7.43,7.43,0,0,1,0-14.85h33.4A7.43,7.43,0,0,1,101,24.3c0,7.33-6.43,7.42-6.49,7.42H91.6v9.35L102.15,56.4a.61.61,0,0,1,.11.36v59.58c0,8.64-7.21,10.31-7.27,10.31ZM49.47,57v58.86a.89.89,0,0,1,0,.14s-.84,3.71,1.3,6.42c1.56,2,4.35,3,8.27,3H94.77c.7-.15,6.23-1.76,6.23-9.06V57L90.46,41.61a.51.51,0,0,1-.11-.35V31.08a.63.63,0,0,1,.63-.62h3.48c.22,0,5.22-.1,5.22-6.16a6.16,6.16,0,0,0-6.16-6.16H60.12a6.16,6.16,0,1,0,0,12.32h3.25a.62.62,0,0,1,.62.62v9.21a.66.66,0,0,1-.15.41Z"/><path class="cls-1" d="M46.54,46.41s-15.5,17-15.5,31,15.5,12.11,15.5,12.11,14.05.18,14.05-11.14C60.59,64.82,46.54,46.41,46.54,46.41Z"/><path d="M44.68,90.24c-4.3,0-14.27-1.25-14.27-12.83,0-14.12,15-30.72,15.67-31.43a.66.66,0,0,1,.48-.2A.62.62,0,0,1,47,46c.58.77,14.17,18.74,14.17,32.35,0,4.79-2.44,8.34-7.1,10.28a21.67,21.67,0,0,1-7.52,1.49A18,18,0,0,1,44.68,90.24ZM46.5,47.41c-2.66,3.08-14.82,17.79-14.82,30,0,13.32,14.76,11.5,14.76,11.5a21.36,21.36,0,0,0,7.19-1.42C57.83,85.74,60,82.7,60,78.38,60,66.56,48.91,50.72,46.5,47.41Z"/><path d="M49.49,84h0a.64.64,0,0,1-.64-.63.64.64,0,0,1,.63-.64,6.45,6.45,0,0,0,4.76-2.36c1.51-2.07,1.6-5.3.25-9.62a.62.62,0,0,1,.41-.79.64.64,0,0,1,.79.42c1.48,4.72,1.32,8.34-.44,10.74A7.61,7.61,0,0,1,49.49,84Z"/><line x1="85.9" y1="46.41" x2="94.9" y2="59.14"/><path d="M94.9,59.77a.64.64,0,0,1-.51-.27l-9-12.72a.63.63,0,1,1,1-.72l9,12.72a.64.64,0,0,1-.15.87A.59.59,0,0,1,94.9,59.77Z"/><path class="cls-2" d="M94.9,66v45.21s.81,7.41-9.8,7.41"/><path d="M85.1,119.19a.61.61,0,0,1-.63-.62.62.62,0,0,1,.63-.63q5.41,0,7.73-2.57a5.86,5.86,0,0,0,1.45-4.14V66a.63.63,0,0,1,.62-.64.64.64,0,0,1,.64.64v45.21a7,7,0,0,1-1.78,5C92,118.19,89.08,119.19,85.1,119.19Z"/></svg>