<svg id="Capa_1" data-name="Capa 1" xmlns="http://www.w3.org/2000/svg" viewBox="0 0 150 150"><defs><style>.cls-1{fill:#fff;}</style></defs><path d="M149,75A74.11,74.11,0,1,1,74.86.87,74.11,74.11,0,0,1,149,75Z"/><polygon class="cls-1" points="113 41.2 109.01 43.66 93.51 53.26 93.51 104.86 93.51 108.41 115.72 94.66 115.72 39.51 113 41.2"/><path class="cls-1" d="M93.51,109.05a.58.58,0,0,1-.31-.08.64.64,0,0,1-.33-.56V53.25a.64.64,0,0,1,.31-.55L115.38,39a.61.61,0,0,1,.65,0,.66.66,0,0,1,.34.57V94.66a.66.66,0,0,1-.31.55L93.85,109A.67.67,0,0,1,93.51,109.05Zm.65-55.44v53.63L115.07,94.3V40.67Z"/><polygon class="cls-1" points="105.93 38.23 58.85 38.23 41.62 48.89 38.63 50.74 91.44 50.74 93.12 49.7 111.65 38.23 105.93 38.23"/><path class="cls-1" d="M91.44,51.39H38.63a.64.64,0,0,1-.62-.47.63.63,0,0,1,.28-.73L58.52,37.67a.74.74,0,0,1,.33-.09h52.8a.64.64,0,0,1,.62.47.63.63,0,0,1-.28.73L91.78,51.29A.67.67,0,0,1,91.44,51.39ZM40.9,50.1H91.25l1.53-1,16.6-10.28H59Z"/><polygon class="cls-1" points="34.56 53.97 34.56 107.84 34.56 109.69 90.29 109.69 90.29 53.97 87.56 53.97 34.56 53.97"/><path class="cls-1" d="M90.29,110.33H34.56a.64.64,0,0,1-.64-.64V54a.65.65,0,0,1,.64-.65H90.29a.65.65,0,0,1,.64.65v55.72A.64.64,0,0,1,90.29,110.33ZM35.21,109H89.64V54.62H35.21Z"/><path d="M72.83,60.64a1.57,1.57,0,0,0,2.07-.71,1.77,1.77,0,1,0-2.07.71Z"/><path d="M80.83,60.43c1.2.93,2.56,1.21,3,.63s-.16-1.81-1.38-2.74-2.56-1.2-3-.62S79.61,59.51,80.83,60.43Z"/><path d="M76.37,67.08a1.47,1.47,0,1,1,.92-2.66c1,.35,1.61,1.22,1.36,2A1.74,1.74,0,0,1,76.37,67.08Z"/><path d="M83.67,66.35c-.61-.21-1-.73-.82-1.18a1.22,1.22,0,1,1,.82,1.18Z"/><path d="M66.86,58.4a.84.84,0,0,1-.83.84.84.84,0,1,1,0-1.68A.84.84,0,0,1,66.86,58.4Z"/><path d="M82.48,72.19a.85.85,0,0,1-.85.84.84.84,0,0,1-.83-.84.85.85,0,0,1,.83-.85A.86.86,0,0,1,82.48,72.19Z"/></svg>