<svg id="Capa_1" data-name="Capa 1" xmlns="http://www.w3.org/2000/svg" viewBox="0 0 150 150"><defs><style>.cls-1{fill:#fff;}</style></defs><ellipse cx="74.86" cy="74.98" rx="74.11" ry="74.1"/><path class="cls-1" d="M38.34,77.6a.76.76,0,0,1,.92-1.18c8.91,4.76,13.51,15.39,17.28,24.26a105.72,105.72,0,0,1,4.88,14.11c3.22-5.81,6.25-21.21-1.22-35C51.27,63.24,22.41,48.25,22.41,48.25s-2.78,33.31,5.64,48.9c7.44,13.74,23.55,20.16,29.65,20.2C54.14,102.76,48.79,88.55,38.34,77.6Z"/><path class="cls-1" d="M57.7,118.07h0c-6.91,0-22.92-6.94-30.28-20.58C19,81.91,21.58,49.56,21.69,48.2a.79.79,0,0,1,.37-.58.74.74,0,0,1,.68,0c1.19.62,29.17,15.28,38.11,31.82C68.68,94,65,109.77,62.05,115.14a.71.71,0,0,1-.73.37.77.77,0,0,1-.61-.53,107,107,0,0,0-4.81-14c-3.66-8.56-8.18-19.21-17-23.91,9,9.55,15,21.92,19.49,40.12a.76.76,0,0,1-.15.63A.73.73,0,0,1,57.7,118.07ZM23.05,49.42c-.38,5.89-1.72,33.76,5.63,47.38,6.68,12.36,21.19,19.15,28.09,19.79-4.37-17.44-10.23-29.34-19-38.49a1.45,1.45,0,0,1-.29-1.58,1.52,1.52,0,0,1,2.07-.75c9.26,5,13.89,15.87,17.63,24.63a108.8,108.8,0,0,1,4.38,12.33,40.12,40.12,0,0,0-2-32.61C51.76,65.66,28.16,52.21,23.05,49.42Z"/><path class="cls-1" d="M82.89,74.58C70.19,86.81,67.76,104.12,69,112.18a124.45,124.45,0,0,1,7.27-11.84c7.72-11.13,18.39-18.13,30.4-24a.73.73,0,0,1,.74,1.26C95.16,84.89,85.16,93,78,105.5c-2.18,3.79-4.16,7.68-6,11.62,6.35,2.32,27.16,1.11,40.55-11.81,14.9-14.34,23.63-52.38,23.63-52.38S98.69,59.35,82.89,74.58Z"/><path class="cls-1" d="M79.2,118.79a23.5,23.5,0,0,1-7.51-1,.86.86,0,0,1-.43-.41.8.8,0,0,1,0-.59c2.16-4.51,4.09-8.22,6.08-11.66C83.79,94,92.65,85.54,107,77c-9.64,4.69-21.74,11.61-30.18,23.76a131.71,131.71,0,0,0-7.21,11.79.68.68,0,0,1-.76.36.69.69,0,0,1-.59-.59C67,103.65,69.66,86.31,82.38,74,98.17,58.85,134.46,52.47,136,52.21a.74.74,0,0,1,.65.23.67.67,0,0,1,.17.65c-.35,1.57-8.94,38.41-23.83,52.75C103.07,115.39,89,118.79,79.2,118.79Zm-6.26-2.11a24.62,24.62,0,0,0,6.26.67c9.55,0,23.18-3.3,32.79-12.56,13.16-12.69,21.6-44.66,23.16-50.95-6.25,1.21-37.79,7.81-51.77,21.26a47,47,0,0,0-13.93,34.71c2-3.56,4.09-6.88,6.17-9.9,8.64-12.4,20.93-19.46,30.68-24.21a1.51,1.51,0,0,1,2.09.93,1.42,1.42,0,0,1-.66,1.6c-14.1,8.42-22.8,16.68-29.12,27.63C76.74,109.09,75,112.54,72.94,116.68Z"/></svg>