<?xml version="1.0" encoding="iso-8859-1"?>
<!-- Generator: Adobe Illustrator 18.1.1, SVG Export Plug-In . SVG Version: 6.00 Build 0)  -->
<svg version="1.1" id="Ebene_1" xmlns="http://www.w3.org/2000/svg" xmlns:xlink="http://www.w3.org/1999/xlink" x="0px" y="0px"
	 viewBox="0 0 18.929 28.346" style="enable-background:new 0 0 18.929 28.346;" xml:space="preserve">
<g>
	<path style="fill:#DAC26D;" d="M18.793,14.711C17.417,3.001,11.736,0,9.464,0C7.191,0,1.511,3.001,0.135,14.711
		c-1.257,10.696,6.578,13.635,9.329,13.635S20.05,25.407,18.793,14.711"/>
	<path style="fill:#CE9D38;" d="M14.092,21.739c-0.134,0-0.27-0.04-0.388-0.125c-0.3-0.214-0.369-0.632-0.155-0.932
		c0.026-0.037,2.583-3.706,1.155-8.235c-0.84-2.664-1.198-3.633-1.201-3.643c-0.129-0.346,0.048-0.73,0.394-0.859
		c0.344-0.128,0.731,0.048,0.859,0.393c0.014,0.04,0.37,1.001,1.223,3.707c1.634,5.184-1.222,9.245-1.344,9.416
		C14.504,21.642,14.3,21.739,14.092,21.739"/>
	<path style="fill:#CE9D38;" d="M4.836,21.589c0.134,0,0.27-0.04,0.388-0.125c0.3-0.214,0.369-0.632,0.155-0.932
		c-0.026-0.037-2.583-3.706-1.155-8.235c0.84-2.664,1.198-3.633,1.201-3.643c0.129-0.346-0.048-0.73-0.394-0.859
		C4.687,7.667,4.3,7.843,4.172,8.188c-0.014,0.04-0.37,1.001-1.223,3.707c-1.634,5.184,1.222,9.245,1.344,9.416
		C4.424,21.492,4.628,21.589,4.836,21.589"/>
	<path style="fill:#CE9D38;" d="M9.646,5.347c0.133,0,0.268,0.038,0.388,0.117c0.323,0.215,0.411,0.65,0.197,0.974
		c-1.691,2.551-0.902,4.975-0.139,7.318c0.235,0.719,0.456,1.397,0.598,2.066c0.916,4.268-2.442,7.137-2.585,7.257
		c-0.296,0.25-0.739,0.21-0.987-0.087c-0.25-0.296-0.212-0.739,0.084-0.989c0.117-0.099,2.85-2.458,2.115-5.887
		c-0.128-0.597-0.339-1.242-0.561-1.925C7.97,11.779,6.993,8.778,9.06,5.661C9.195,5.457,9.418,5.347,9.646,5.347"/>
</g>
</svg>
