<?xml version="1.0" encoding="iso-8859-1"?>
<!-- Generator: Adobe Illustrator 18.1.1, SVG Export Plug-In . SVG Version: 6.00 Build 0)  -->
<svg version="1.1" id="Ebene_1" xmlns="http://www.w3.org/2000/svg" xmlns:xlink="http://www.w3.org/1999/xlink" x="0px" y="0px"
	 viewBox="0 0 25.512 25.642" style="enable-background:new 0 0 25.512 25.642;" xml:space="preserve">
<g>
	<path style="fill:#7B410F;" d="M11.983,25.523c6.816,0.887,13.529-5.45,13.529-12.592C25.512,5.79,19.801,0,12.756,0
		S0,5.79,0,12.931c0,2.386,0.494,4.715,1.75,6.54c2.507,3.645,2.744,6.171,2.744,6.171S8.206,25.031,11.983,25.523"/>
	<path style="fill:#BE8867;" d="M12.756,0c-1.101,0-2.17,0.142-3.19,0.408c-1.098,2.448,1.251,6.052,5.319,8.108
		c4.099,2.072,8.39,1.787,9.621-0.626C22.568,3.253,18.037,0,12.756,0"/>
</g>
</svg>
