<?xml version="1.0" encoding="utf-8"?>
<!-- Generator: Adobe Illustrator 15.0.0, SVG Export Plug-In . SVG Version: 6.00 Build 0)  -->
<!DOCTYPE svg PUBLIC "-//W3C//DTD SVG 1.1//EN" "http://www.w3.org/Graphics/SVG/1.1/DTD/svg11.dtd">
<svg version="1.1" id="Ebene_1" xmlns="http://www.w3.org/2000/svg" xmlns:xlink="http://www.w3.org/1999/xlink" x="0px" y="0px"
	 width="340.16px" height="226.77px" viewBox="0 0 340.16 226.77" enable-background="new 0 0 340.16 226.77" xml:space="preserve">
<polygon fill="#E0B634" points="116.517,15.216 107.605,19.842 97.582,19.842 93.273,27.303 85.631,31.272 85.2,41.295 
	80.188,49.98 84.497,57.441 84.111,66.058 92.57,71.455 97.582,80.117 106.199,80.117 113.479,84.744 122.368,80.117 
	132.391,80.117 136.7,72.68 144.342,68.689 144.795,58.665 149.807,49.98 145.498,42.52 145.861,33.903 137.425,28.528 
	132.391,19.842 123.773,19.842 "/>
<polygon fill="#E0B634" points="202.894,5.193 193.981,9.842 183.959,9.842 179.65,17.303 172.008,21.271 171.576,31.294 
	166.565,39.98 170.873,47.441 170.488,56.058 178.947,61.454 183.959,70.117 192.576,70.117 199.855,74.743 208.744,70.117 
	218.768,70.117 223.076,62.679 230.719,58.688 231.172,48.665 236.16,39.98 231.875,32.519 232.238,23.902 223.779,18.528 
	218.768,9.842 210.15,9.842 "/>
<polygon fill="#E0B634" points="248.746,85.901 239.834,90.527 229.812,90.527 225.502,97.988 217.86,101.979 217.43,112.002 
	212.418,120.687 216.727,128.148 216.342,136.742 224.8,142.14 229.812,150.824 238.429,150.824 245.708,155.45 254.598,150.824 
	264.621,150.824 268.951,143.365 276.571,139.373 277.025,129.372 282.037,120.687 277.729,113.226 278.091,104.609 269.654,99.212 
	264.621,90.527 256.004,90.527 "/>
<polygon fill="#E0B634" points="168.084,85.901 159.172,90.527 149.149,90.527 144.841,97.988 137.198,101.979 136.768,112.002 
	131.756,120.687 136.064,128.148 135.679,136.742 144.138,142.14 149.149,150.824 157.767,150.824 165.046,155.45 173.936,150.824 
	183.959,150.824 188.268,143.365 195.909,139.373 196.363,129.372 201.375,120.687 197.066,113.226 197.429,104.609 188.992,99.212 
	183.959,90.527 175.342,90.527 "/>
<polygon fill="#E0B634" points="94.702,120.664 85.79,125.313 75.767,125.313 71.458,132.774 63.815,136.742 63.385,146.766 
	58.373,155.45 62.659,162.911 62.296,171.529 70.755,176.926 75.767,185.588 84.384,185.588 91.663,190.215 100.552,185.588 
	110.576,185.588 114.884,178.151 122.526,174.159 122.957,164.136 127.969,155.45 123.683,147.99 124.046,139.373 115.587,133.998 
	110.576,125.313 101.958,125.313 "/>
<polygon fill="#E0B634" points="206.521,152.322 197.609,156.948 187.587,156.948 183.278,164.408 175.636,168.377 175.205,178.4 
	170.193,187.085 174.502,194.569 174.117,203.163 182.575,208.561 187.587,217.223 196.204,217.223 203.483,221.871 
	212.373,217.223 222.396,217.223 226.727,209.785 234.347,205.794 234.801,195.771 239.813,187.085 235.504,179.624 235.866,171.03 
	227.43,165.633 222.396,156.948 213.779,156.948 "/>
</svg>
