<?xml version="1.0" encoding="utf-8"?>
<!-- Generator: Adobe Illustrator 15.0.0, SVG Export Plug-In . SVG Version: 6.00 Build 0)  -->
<!DOCTYPE svg PUBLIC "-//W3C//DTD SVG 1.1//EN" "http://www.w3.org/Graphics/SVG/1.1/DTD/svg11.dtd">
<svg version="1.1" id="Ebene_1" xmlns="http://www.w3.org/2000/svg" xmlns:xlink="http://www.w3.org/1999/xlink" x="0px" y="0px"
	 width="340.16px" height="226.77px" viewBox="0 0 340.16 226.77" enable-background="new 0 0 340.16 226.77" xml:space="preserve">
<path fill="#7D593A" d="M84.58,167.885c0,5.247-4.253,9.5-9.5,9.5l0,0c-5.247,0-9.5-4.253-9.5-9.5v-108c0-5.247,4.253-9.5,9.5-9.5
	l0,0c5.247,0,9.5,4.253,9.5,9.5V167.885z"/>
<path fill="#7D593A" d="M139.014,172.862c0.444,5.504-3.659,10.327-9.164,10.771l0,0c-5.505,0.443-10.328-3.66-10.771-9.164
	l-10.932-135.56c-0.444-5.505,3.659-10.328,9.164-10.771l0,0c5.505-0.444,10.327,3.659,10.771,9.164L139.014,172.862z"/>
<path fill="#7D593A" d="M188.127,180.067c0.7,5.478-3.172,10.487-8.65,11.188l0,0c-5.479,0.7-10.488-3.173-11.188-8.651
	l-17.254-134.9c-0.701-5.479,3.172-10.487,8.65-11.188l0,0c5.479-0.701,10.487,3.172,11.188,8.65L188.127,180.067z"/>
<path fill="#7D593A" d="M282.58,161.885c0,5.522-4.477,10-10,10l0,0c-5.523,0-10-4.478-10-10v-136c0-5.523,4.477-10,10-10l0,0
	c5.523,0,10,4.477,10,10V161.885z"/>
<path fill="#7D593A" d="M253.022,184.4c1.445,5.33-1.704,10.823-7.035,12.269l0,0c-5.331,1.445-10.823-1.705-12.268-7.035
	L198.138,58.37c-1.445-5.331,1.704-10.823,7.035-12.268l0,0c5.331-1.445,10.823,1.705,12.268,7.036L253.022,184.4z"/>
</svg>
