<?xml version="1.0" encoding="utf-8"?>
<!-- Generator: Adobe Illustrator 15.0.0, SVG Export Plug-In . SVG Version: 6.00 Build 0)  -->
<!DOCTYPE svg PUBLIC "-//W3C//DTD SVG 1.1//EN" "http://www.w3.org/Graphics/SVG/1.1/DTD/svg11.dtd">
<svg version="1.1" id="Ebene_1" xmlns="http://www.w3.org/2000/svg" xmlns:xlink="http://www.w3.org/1999/xlink" x="0px" y="0px"
	 width="2834.65px" height="2834.649px" viewBox="0 0 2834.65 2834.649" enable-background="new 0 0 2834.65 2834.649"
	 xml:space="preserve">
<g>
	<path fill="#F7E7DA" d="M818.165,522.709C818.165,234.004,1165.571,0,1594.078,0c428.508,0,775.813,234.004,775.813,522.709
		s-347.306,522.709-775.813,522.709C1165.571,1045.418,818.165,811.414,818.165,522.709"/>
	<path fill="#F7E7DA" d="M169.354,2249.639c-152.903-244.805,17.8-627.51,381.206-854.714
		c363.407-227.204,781.914-213.004,934.717,31.9c152.902,244.805-17.7,627.412-381.106,854.715
		C740.764,2508.745,322.256,2494.444,169.354,2249.639"/>
	<path fill="#F7E7DA" d="M2143.188,1284.822c287.805-20.101,545.309,310.305,575.209,738.014
		c29.9,427.807-179.203,790.912-467.008,811.014c-287.805,20.1-545.31-310.307-575.21-738.014
		C1646.279,1668.03,1855.383,1304.923,2143.188,1284.822"/>
</g>
</svg>
