<?xml version="1.0" encoding="iso-8859-1"?>
<!-- Generator: Adobe Illustrator 18.1.1, SVG Export Plug-In . SVG Version: 6.00 Build 0)  -->
<svg version="1.1" id="Ebene_1" xmlns="http://www.w3.org/2000/svg" xmlns:xlink="http://www.w3.org/1999/xlink" x="0px" y="0px"
	 viewBox="0 0 26.079 28.346" style="enable-background:new 0 0 26.079 28.346;" xml:space="preserve">
<g>
	<path style="fill:#743701;" d="M7.048,5.227C7.048,2.34,10.522,0,14.807,0s7.758,2.34,7.758,5.227s-3.473,5.227-7.758,5.227
		S7.048,8.114,7.048,5.227"/>
	<path style="fill:#743701;" d="M0.56,22.496c-1.529-2.448,0.178-6.275,3.812-8.547s7.819-2.13,9.347,0.319
		c1.529,2.448-0.177,6.274-3.811,8.547C6.274,25.087,2.089,24.944,0.56,22.496"/>
	<path style="fill:#743701;" d="M20.298,12.848c2.878-0.201,5.453,3.103,5.752,7.38c0.299,4.278-1.792,7.909-4.67,8.11
		s-5.453-3.103-5.752-7.38C15.329,16.68,17.42,13.049,20.298,12.848"/>
</g>
</svg>
