<?xml version="1.0" encoding="utf-8"?>
<!-- Generator: Adobe Illustrator 15.0.0, SVG Export Plug-In  -->
<!DOCTYPE svg PUBLIC "-//W3C//DTD SVG 1.1//EN" "http://www.w3.org/Graphics/SVG/1.1/DTD/svg11.dtd" [
	<!ENTITY ns_flows "http://ns.adobe.com/Flows/1.0/">
]>
<svg version="1.1"
	 xmlns="http://www.w3.org/2000/svg" xmlns:xlink="http://www.w3.org/1999/xlink" xmlns:a="http://ns.adobe.com/AdobeSVGViewerExtensions/3.0/"
	 x="0px" y="0px" width="340px" height="227px" viewBox="-73.643 0 340 227" enable-background="new -73.643 0 340 227"
	 xml:space="preserve">
<defs>
</defs>
<polygon fill="#743701" points="133.854,0 122.766,5.775 110.262,5.775 104.886,15.08 95.357,20.048 94.806,32.536 88.549,43.376 
	93.934,52.672 93.461,63.408 104.006,70.137 110.262,80.961 121.006,80.961 130.07,86.736 141.158,80.961 153.67,80.961 
	159.038,71.656 168.574,66.696 169.118,54.2 175.374,43.376 169.998,34.064 170.463,23.328 159.926,16.6 153.67,5.775 
	142.918,5.775 "/>
<polygon fill="#743701" points="45.277,143.809 32.773,143.809 27.397,153.121 17.869,158.081 17.317,170.569 11.069,181.401 
	16.445,190.714 15.973,201.441 26.525,208.17 32.773,219.002 43.517,219.002 52.589,224.77 63.669,219.002 76.181,219.002 
	81.557,209.689 91.093,204.729 91.638,192.233 97.886,181.401 92.518,172.098 92.981,161.361 82.438,154.642 76.181,143.809 
	65.437,143.809 56.373,138.033 "/>
<polygon fill="#743701" points="34.208,47.005 21.704,47.005 16.328,56.317 6.8,61.277 6.248,73.766 0,84.598 5.376,93.91 
	4.904,104.638 15.456,111.366 21.704,122.198 32.448,122.198 41.52,127.966 52.601,122.198 65.113,122.198 70.488,112.886 
	80.025,107.926 80.569,95.43 86.817,84.598 81.449,75.294 81.913,64.558 71.369,57.838 65.113,47.005 54.369,47.005 45.304,41.229 
	"/>
<polygon fill="#743701" points="132.277,102.44 119.773,102.44 114.396,111.753 104.869,116.713 104.316,129.201 98.068,140.033 
	103.445,149.346 102.973,160.073 113.525,166.802 119.773,177.634 130.518,177.634 139.589,183.401 150.67,177.634 163.182,177.634 
	168.557,168.321 178.094,163.361 178.638,150.865 184.886,140.033 179.518,130.729 179.981,119.993 169.438,113.273 163.182,102.44 
	152.438,102.44 143.373,96.665 "/>
</svg>
