<?xml version="1.0" encoding="utf-8"?>
<!-- Generator: Adobe Illustrator 15.0.0, SVG Export Plug-In . SVG Version: 6.00 Build 0)  -->
<!DOCTYPE svg PUBLIC "-//W3C//DTD SVG 1.1//EN" "http://www.w3.org/Graphics/SVG/1.1/DTD/svg11.dtd">
<svg version="1.1" id="Ebene_1" xmlns="http://www.w3.org/2000/svg" xmlns:xlink="http://www.w3.org/1999/xlink" x="0px" y="0px"
	 width="2834.65px" height="2834.649px" viewBox="0 0 2834.65 2834.649" enable-background="new 0 0 2834.65 2834.649"
	 xml:space="preserve">
<g>
	<path fill="#FEDEA9" d="M799.682,1156.946c209.664,0,379.598-170.083,379.598-379.748c0-209.665-169.934-379.599-379.598-379.599
		c-209.665,0-379.6,169.934-379.6,379.599C420.082,986.864,590.018,1156.946,799.682,1156.946"/>
	<path fill="#FDCD6D" d="M1919.247,1359.611c209.665,0,379.6-170.082,379.6-379.748c0-209.664-169.935-379.599-379.6-379.599
		c-209.664,0-379.598,169.935-379.598,379.599C1539.649,1189.529,1709.583,1359.611,1919.247,1359.611"/>
	<path fill="#FDCD6D" d="M863.316,2233.204c209.666,0,379.599-169.934,379.599-379.598s-169.933-379.598-379.599-379.598
		c-209.664,0-379.599,169.934-379.599,379.598S653.652,2233.204,863.316,2233.204"/>
	<path fill="#FEDEA9" d="M2034.968,2393.018c209.666,0,379.6-170.082,379.6-379.748c0-209.662-169.934-379.598-379.6-379.598
		c-209.664,0-379.599,169.936-379.599,379.598C1655.369,2222.936,1825.304,2393.018,2034.968,2393.018"/>
</g>
</svg>
