<?xml version="1.0" encoding="utf-8"?>
<!-- Generator: Adobe Illustrator 21.0.2, SVG Export Plug-In . SVG Version: 6.00 Build 0)  -->
<svg version="1.1" id="Ebene_1" xmlns="http://www.w3.org/2000/svg" xmlns:xlink="http://www.w3.org/1999/xlink" x="0px" y="0px"
	 viewBox="0 0 24.3 30.32" style="enable-background:new 0 0 24.3 30.32;" xml:space="preserve">
<style type="text/css">
	.st0{fill:#FFDE9D;}
	.st1{fill:#E3AE60;}
</style>
<g>
	<g>
		<path class="st0" d="M1.57,9.2c3.09,4.02,5.42,4.22,9.68,5.4c0.08,0.02,0.16,0.08,0.32,0.06c0.16-0.02,0.82-0.55,0.88-0.67
			c0.06-0.12,0.05-0.25,0.02-0.34c-0.98-3.8,0.37-6.72-2.71-10.73C7.45-0.1,3.53-0.69,1.61,0.75l0,0c0,0-0.02,0.02-0.03,0.02l0,0
			C-0.29,2.24-0.74,6.18,1.57,9.2"/>
		<path class="st1" d="M2.13,1.41c-1.59,1.25-1.88,4.7,0.19,7.4c0.26,0.33,0.52,0.66,0.81,0.97c0.25,0.28,0.52,0.55,0.8,0.81
			c0.25,0.23,0.52,0.45,0.79,0.66c0.26,0.19,0.52,0.37,0.79,0.53c0.26,0.16,0.53,0.3,0.81,0.43c0.27,0.13,0.55,0.25,0.83,0.35
			c0.28,0.11,0.57,0.21,0.86,0.3c0.3,0.09,0.6,0.18,0.89,0.27c0.31,0.09,0.63,0.18,0.94,0.26c0.34,0.09,0.68,0.2,1.02,0.28
			c0.19,0.05,0.35,0.1,0.53,0.01c0.13-0.07,0.26-0.18,0.32-0.32c0.05-0.12,0.03-0.19,0.01-0.26c-0.95-3.38,0.28-5.98-2.49-9.59
			c-2.07-2.7-5.48-3.31-7.1-2.1L2.13,1.41z"/>
	</g>
	<g>
		<path class="st0" d="M11.49,21.52C9,17.1,6.72,16.58,2.66,14.82c-0.07-0.03-0.15-0.1-0.31-0.1s-0.88,0.43-0.96,0.54
			c-0.08,0.11-0.08,0.24-0.07,0.33c0.44,3.9-1.31,6.61,1.18,11.01c1.87,3.31,5.67,4.43,7.77,3.28l0,0c0.01,0,0.03-0.02,0.03-0.02
			l0,0C12.37,28.66,13.36,24.82,11.49,21.52"/>
		<path class="st1" d="M9.85,29.15c1.75-1.02,2.52-4.39,0.84-7.36c-0.21-0.37-0.43-0.72-0.66-1.07c-0.21-0.31-0.44-0.62-0.68-0.91
			c-0.22-0.26-0.45-0.52-0.69-0.76c-0.23-0.23-0.47-0.44-0.71-0.64c-0.24-0.19-0.49-0.37-0.74-0.54c-0.25-0.16-0.51-0.32-0.77-0.46
			C6.17,17.27,5.9,17.13,5.63,17c-0.28-0.14-0.56-0.26-0.85-0.39c-0.3-0.13-0.6-0.26-0.9-0.39c-0.32-0.14-0.64-0.29-0.97-0.42
			c-0.18-0.07-0.33-0.15-0.52-0.08c-0.14,0.05-0.28,0.14-0.36,0.27C1.98,16.09,1.99,16.16,2,16.23c0.47,3.48-1.11,5.88,1.13,9.84
			c1.68,2.97,4.97,4.04,6.74,3.07L9.85,29.15z"/>
	</g>
	<g>
		<path class="st0" d="M23.2,18.75c1.94-4.68,0.94-6.8-0.16-11.08c-0.02-0.08-0.01-0.18-0.11-0.31c-0.1-0.13-0.88-0.43-1.02-0.42
			c-0.14,0.01-0.24,0.08-0.3,0.15c-2.8,2.75-6.01,3.04-7.94,7.71c-1.45,3.51,0,7.2,2.2,8.14l0,0c0.01,0,0.03,0.01,0.03,0.01l0,0
			C18.11,23.84,21.75,22.26,23.2,18.75"/>
		<path class="st1" d="M16.18,22.16c1.88,0.75,5.01-0.72,6.32-3.87c0.16-0.39,0.31-0.78,0.44-1.18c0.12-0.36,0.22-0.72,0.3-1.09
			c0.07-0.34,0.13-0.67,0.17-1.02c0.04-0.32,0.06-0.64,0.06-0.95c0-0.3-0.01-0.61-0.03-0.91c-0.02-0.3-0.06-0.6-0.11-0.89
			c-0.05-0.3-0.11-0.6-0.17-0.89c-0.07-0.31-0.14-0.61-0.21-0.91c-0.08-0.32-0.16-0.63-0.24-0.95c-0.09-0.34-0.17-0.69-0.26-1.02
			c-0.05-0.18-0.08-0.35-0.26-0.46c-0.12-0.08-0.29-0.13-0.43-0.11c-0.13,0.02-0.18,0.07-0.23,0.12c-2.45,2.51-5.32,2.75-7.06,6.95
			c-1.3,3.15-0.13,6.4,1.73,7.2L16.18,22.16z"/>
	</g>
</g>
</svg>
