<?xml version="1.0" encoding="iso-8859-1"?>
<!-- Generator: Adobe Illustrator 18.1.1, SVG Export Plug-In . SVG Version: 6.00 Build 0)  -->
<svg version="1.1" id="Ebene_1" xmlns="http://www.w3.org/2000/svg" xmlns:xlink="http://www.w3.org/1999/xlink" x="0px" y="0px"
	 viewBox="0 0 24.68 28.346" style="enable-background:new 0 0 24.68 28.346;" xml:space="preserve">
<g>
	<path style="fill:#AA772D;" d="M0,12.377C0-2.322,12.34,0.158,12.34,0.158s12.34-2.239,12.34,12.219
		c0,13.247-12.34,15.969-12.34,15.969S0,25.624,0,12.377"/>
	<path style="fill:#CE9D38;" d="M1.344,12.448c0-13.034,10.942-10.835,10.942-10.835s10.941-1.984,10.941,10.835
		c0,11.746-10.941,14.159-10.941,14.159S1.344,24.194,1.344,12.448"/>
	<path style="fill:#AA772D;" d="M7.454,6.057c0.141,0,0.284,0.043,0.408,0.132C8.177,6.414,8.25,6.853,8.025,7.168
		c-0.027,0.038-2.716,3.895-1.214,8.656c0.882,2.8,1.259,3.819,1.262,3.829c0.135,0.364-0.05,0.768-0.414,0.903
		c-0.362,0.135-0.768-0.051-0.902-0.414c-0.016-0.041-0.389-1.052-1.286-3.896c-1.718-5.449,1.284-9.717,1.412-9.897
		C7.021,6.158,7.235,6.057,7.454,6.057"/>
	<path style="fill:#AA772D;" d="M17.182,6.215c-0.141,0-0.284,0.043-0.408,0.132c-0.315,0.225-0.388,0.664-0.163,0.979
		c0.027,0.038,2.716,3.895,1.214,8.656c-0.882,2.8-1.259,3.819-1.262,3.829c-0.135,0.364,0.05,0.768,0.414,0.903
		c0.362,0.135,0.768-0.051,0.902-0.414c0.016-0.041,0.389-1.052,1.286-3.896c1.718-5.449-1.284-9.717-1.412-9.897
		C17.615,6.317,17.401,6.215,17.182,6.215"/>
	<path style="fill:#AA772D;" d="M12.127,23.288c-0.14,0-0.282-0.04-0.407-0.123c-0.34-0.226-0.433-0.683-0.207-1.024
		c1.777-2.681,0.947-5.229,0.145-7.691c-0.246-0.756-0.479-1.47-0.629-2.172c-0.962-4.487,2.567-7.502,2.718-7.628
		c0.311-0.263,0.777-0.221,1.038,0.091c0.262,0.311,0.222,0.777-0.089,1.04c-0.123,0.103-2.996,2.584-2.223,6.188
		c0.134,0.627,0.356,1.305,0.589,2.023c0.826,2.535,1.853,5.69-0.319,8.966C12.601,23.173,12.365,23.288,12.127,23.288"/>
</g>
</svg>
