<?xml version="1.0" encoding="utf-8"?>
<!-- Generator: Adobe Illustrator 15.0.0, SVG Export Plug-In . SVG Version: 6.00 Build 0)  -->
<!DOCTYPE svg PUBLIC "-//W3C//DTD SVG 1.1//EN" "http://www.w3.org/Graphics/SVG/1.1/DTD/svg11.dtd">
<svg version="1.1" id="Ebene_1" xmlns="http://www.w3.org/2000/svg" xmlns:xlink="http://www.w3.org/1999/xlink" x="0px" y="0px"
	 width="2834.65px" height="2834.649px" viewBox="0 0 2834.65 2834.649" enable-background="new 0 0 2834.65 2834.649"
	 xml:space="preserve">
<g>
	<path fill="#FDC06F" d="M2539.79,1295.512c0-151.133-55.113-287.152-143.476-391.535c27.506-248.865-63.678-477.983-256.523-576.32
		c-8.766-4.434-18.236-5.844-27.204-9.673C2025.938,130.68,1837.626,0,1617.677,0c-159.596,0-301.963,69.622-401.813,178.74
		c-222.266-21.058-450.073,98.942-562.919,320.502c-42.116,82.519-61.36,169.673-64.081,255.415
		c-128.16,100.05-211.989,254.104-211.989,429.318c0,48.061,8.161,93.904,19.849,138.337
		c-63.577,110.831-101.864,245.641-101.864,392.139c0,282.82,139.547,524.734,337.631,626.598
		c26.197,276.674,249.874,493.602,525.238,493.602c59.345,0,115.364-12.293,168.563-30.832
		c65.088,18.137,132.694,30.832,204.029,30.832c340.956,0,624.985-222.066,697.429-518.891
		c166.447-112.141,280.2-323.223,280.2-568.26c0-67.506-10.982-131.285-26.801-192.443
		C2517.522,1476.266,2539.79,1389.013,2539.79,1295.512"/>
	<path fill="#FEF0AE" d="M969.619,2485.129c-15.214,0-30.63-4.434-44.333-13.299c-36.977-24.686-47.053-74.357-22.468-111.436
		c193.249-291.586,103.072-568.664,15.818-836.572c-26.801-82.115-52.091-159.697-68.413-236.169
		c-104.685-487.958,279.193-815.917,295.616-829.619c33.854-28.515,84.433-23.98,112.846,9.975
		c28.515,33.854,24.182,84.533-9.672,113.147c-13.3,11.185-325.843,280.906-241.712,672.845
		c14.509,68.312,38.589,142.064,64.08,220.15c89.773,275.666,201.511,618.84-34.761,975.01
		C1021.104,2472.536,995.614,2485.129,969.619,2485.129"/>
	<path fill="#FEF0AE" d="M1397.729,2653.592c-16.121,0-32.443-4.836-46.65-15.012c-35.97-25.795-44.332-75.971-18.64-112.041
		c3.124-4.434,310.528-445.539,138.841-990.021c-100.956-320.3-143.979-436.875-144.382-438.083
		c-15.416-41.512,5.844-87.758,47.354-103.174c41.411-15.415,87.858,5.844,103.274,47.255
		c1.713,4.836,44.434,120.402,147.002,445.641c196.473,623.271-146.901,1111.432-161.511,1131.984
		C1447.3,2642.006,1422.716,2653.592,1397.729,2653.592"/>
	<path fill="#FEF0AE" d="M1912.286,2348.708c-18.641,0-37.18-6.449-52.394-19.445c-33.552-28.918-37.48-79.699-8.464-113.25
		c15.416-18.236,377.229-459.848-48.463-1143.875c-236.17-380.15-94.407-744.582-88.16-759.998
		c16.523-41.208,63.072-60.856,104.482-44.534c41.108,16.423,60.957,63.073,44.635,104.181
		c-4.836,12.493-116.473,306.497,75.466,615.515c490.275,787.705,52.595,1311.531,33.753,1333.496
		C1957.323,2339.336,1934.854,2348.708,1912.286,2348.708"/>
</g>
</svg>
