<?xml version="1.0" encoding="utf-8"?>
<!-- Generator: Adobe Illustrator 21.1.0, SVG Export Plug-In . SVG Version: 6.00 Build 0)  -->
<svg version="1.1" id="Ebene_1" xmlns="http://www.w3.org/2000/svg" xmlns:xlink="http://www.w3.org/1999/xlink" x="0px" y="0px"
	 viewBox="0 0 28.3 28.3" style="enable-background:new 0 0 28.3 28.3;" xml:space="preserve">
<style type="text/css">
	.st0{fill:#D7B46A;}
	.st1{fill:#AD8C44;}
	.st2{fill:#F4E393;}
	.st3{fill:#EFD06C;}
	.st4{fill:#EED38E;}
</style>
<g>
	<path class="st0" d="M25.9,10.5c2.6-3.1,3.2-7.1,1.1-9.1c-2-2-5.9-1.5-9.1,1.1C14.8,5,14.1,9,16.8,11.6
		C19.4,14.3,23.3,13.6,25.9,10.5"/>
	<path class="st1" d="M22.4,6.9c2.6-2.6,4.5-4.9,4.2-5.1S24,3.5,21.5,6s-4.5,4.9-4.2,5.1C17.5,11.4,19.8,9.5,22.4,6.9"/>
	<path class="st0" d="M10.5,17.5c-3.1-2.6-7.1-3.2-9.1-1.1c-2,2-1.5,5.9,1.1,9.1c2.5,3.1,6.5,3.8,9.1,1.1
		C14.2,24,13.5,20.1,10.5,17.5"/>
	<path class="st1" d="M6.9,21c-2.6-2.6-4.9-4.5-5.1-4.2s1.6,2.5,4.2,5.1s4.9,4.5,5.1,4.2C11.4,25.9,9.5,23.6,6.9,21"/>
	<circle class="st2" cx="8.9" cy="8.8" r="3.6"/>
	<circle class="st3" cx="7.6" cy="3.7" r="3.6"/>
	<circle class="st4" cx="3.7" cy="7.3" r="3.6"/>
	<circle class="st2" cx="24.6" cy="19.4" r="3.6"/>
	<circle class="st3" cx="19.4" cy="20.7" r="3.6"/>
	<circle class="st4" cx="23" cy="24.6" r="3.6"/>
</g>
</svg>
