<?xml version="1.0" encoding="iso-8859-1"?>
<!-- Generator: Adobe Illustrator 18.1.1, SVG Export Plug-In . SVG Version: 6.00 Build 0)  -->
<svg version="1.1" id="Ebene_1" xmlns="http://www.w3.org/2000/svg" xmlns:xlink="http://www.w3.org/1999/xlink" x="0px" y="0px"
	 viewBox="0 0 18.542 30.806" style="enable-background:new 0 0 18.542 30.806;" xml:space="preserve">
<g>
	<path style="fill:#EBCB7A;" d="M18.542,18.805c0-9.108-5.126-11.744-7.885-18.273c-0.056-0.133-0.137-0.291-0.392-0.436
		c-0.255-0.144-1.76-0.111-1.984,0S7.948,0.4,7.884,0.55C5.12,7.041,0,9.722,0,18.805c0,6.825,4.946,11.946,9.239,11.997v0.004
		h0.064v-0.004C13.596,30.751,18.542,25.63,18.542,18.805"/>
	<path style="fill:#6B6016;" d="M9.258,28.629c3.418-0.043,7.357-4.361,7.357-10.118c0-7.681-4.319-9.904-6.524-15.411
		c-0.046-0.112-0.089-0.206-0.305-0.341C9.44,2.543,8.949,2.64,8.727,2.767c-0.189,0.108-0.23,0.222-0.275,0.334
		c-2.206,5.506-6.524,7.73-6.524,15.41c0,5.757,3.939,10.075,7.357,10.118H9.258z"/>
</g>
</svg>
