<?xml version="1.0" encoding="iso-8859-1"?>
<!-- Generator: Adobe Illustrator 18.1.1, SVG Export Plug-In . SVG Version: 6.00 Build 0)  -->
<svg version="1.1" id="Ebene_1" xmlns="http://www.w3.org/2000/svg" xmlns:xlink="http://www.w3.org/1999/xlink" x="0px" y="0px"
	 viewBox="0 0 25.511 26.221" style="enable-background:new 0 0 25.511 26.221;" xml:space="preserve">
<g>
	<path style="fill:#FEDEA9;" d="M14.173,5.103c1.409,0,2.551-1.143,2.551-2.552C16.724,1.142,15.582,0,14.173,0
		c-1.409,0-2.551,1.142-2.551,2.551C11.622,3.96,12.764,5.103,14.173,5.103"/>
	<path style="fill:#FDCD6D;" d="M21.401,9.355c1.409,0,2.551-1.143,2.551-2.552c0-1.409-1.142-2.551-2.551-2.551
		c-1.409,0-2.551,1.142-2.551,2.551C18.85,8.212,19.992,9.355,21.401,9.355"/>
	<path style="fill:#FEDEA9;" d="M6.378,6.237c1.409,0,2.551-1.143,2.551-2.552c0-1.409-1.142-2.551-2.551-2.551
		S3.827,2.276,3.827,3.685C3.827,5.094,4.969,6.237,6.378,6.237"/>
	<path style="fill:#FDCD6D;" d="M10.63,12.19c1.409,0,2.551-1.143,2.551-2.552c0-1.409-1.142-2.551-2.551-2.551
		S8.079,8.229,8.079,9.638C8.079,11.047,9.221,12.19,10.63,12.19"/>
	<path style="fill:#FEDEA9;" d="M2.551,20.268c1.409,0,2.551-1.143,2.551-2.552s-1.142-2.551-2.551-2.551S0,16.307,0,17.716
		S1.142,20.268,2.551,20.268"/>
	<path style="fill:#FDCD6D;" d="M2.693,12.756c1.409,0,2.551-1.143,2.551-2.552c0-1.409-1.142-2.551-2.551-2.551
		s-2.551,1.142-2.551,2.551C0.142,11.613,1.284,12.756,2.693,12.756"/>
	<path style="fill:#FDCD6D;" d="M7.512,26.221c1.409,0,2.551-1.143,2.551-2.552s-1.142-2.551-2.551-2.551
		c-1.409,0-2.551,1.142-2.551,2.551S6.103,26.221,7.512,26.221"/>
	<path style="fill:#FEDEA9;" d="M16.724,15.45c1.409,0,2.551-1.143,2.551-2.552s-1.142-2.551-2.551-2.551
		c-1.409,0-2.551,1.142-2.551,2.551S15.315,15.45,16.724,15.45"/>
	<path style="fill:#FEDEA9;" d="M11.622,20.694c1.409,0,2.551-1.143,2.551-2.552s-1.142-2.551-2.551-2.551
		c-1.409,0-2.551,1.142-2.551,2.551S10.213,20.694,11.622,20.694"/>
	<path style="fill:#FEDEA9;" d="M22.96,18c1.409,0,2.551-1.142,2.551-2.551s-1.142-2.551-2.551-2.551
		c-1.409,0-2.551,1.142-2.551,2.551S21.551,18,22.96,18"/>
	<path style="fill:#FDCD6D;" d="M18.567,24.945c1.409,0,2.551-1.142,2.551-2.551s-1.142-2.551-2.551-2.551
		c-1.409,0-2.551,1.142-2.551,2.551S17.158,24.945,18.567,24.945"/>
</g>
</svg>
