<?xml version="1.0" encoding="iso-8859-1"?>
<!-- Generator: Adobe Illustrator 18.1.1, SVG Export Plug-In . SVG Version: 6.00 Build 0)  -->
<svg version="1.1" id="Ebene_1" xmlns="http://www.w3.org/2000/svg" xmlns:xlink="http://www.w3.org/1999/xlink" x="0px" y="0px"
	 viewBox="0 0 28.346 28.346" style="enable-background:new 0 0 28.346 28.346;" xml:space="preserve">
<g>
	<path style="fill:#56217A;" d="M0,14.173C0,6.345,6.345,0,14.173,0s14.173,6.345,14.173,14.173s-6.345,14.173-14.173,14.173
		S0,22.001,0,14.173"/>
	<path style="fill:#D1BCDC;" d="M23.694,15.446c0,0.781-0.548,1.097-1.225,0.707l-1.627-0.939c-0.338-0.196-0.887-0.196-1.225,0
		l-1.627,0.939c-0.677,0.39-1.225,0.074-1.225-0.707v-1.879c-0.001-0.391-0.275-0.866-0.613-1.061l-1.627-0.94
		c-0.676-0.39-0.676-1.023,0-1.414l1.627-0.94c0.338-0.195,0.612-0.67,0.613-1.06V6.273c0-0.781,0.548-1.098,1.225-0.708l1.627,0.94
		c0.338,0.195,0.887,0.195,1.225,0l1.627-0.94c0.677-0.39,1.225-0.073,1.225,0.708v1.879c0,0.39,0.274,0.865,0.613,1.06l1.627,0.94
		c0.676,0.391,0.676,1.024,0,1.414l-1.627,0.94c-0.339,0.195-0.613,0.67-0.613,1.061V15.446z"/>
	<path style="fill:#56217A;" d="M18.269,10.855c0-1.083,0.878-1.961,1.961-1.961s1.961,0.878,1.961,1.961
		c0,1.083-0.878,1.961-1.961,1.961S18.269,11.938,18.269,10.855"/>
</g>
</svg>
