<?xml version="1.0" encoding="iso-8859-1"?>
<!-- Generator: Adobe Illustrator 18.1.1, SVG Export Plug-In . SVG Version: 6.00 Build 0)  -->
<svg version="1.1" id="Ebene_1" xmlns="http://www.w3.org/2000/svg" xmlns:xlink="http://www.w3.org/1999/xlink" x="0px" y="0px"
	 viewBox="0 0 26.557 25.596" style="enable-background:new 0 0 26.557 25.596;" xml:space="preserve">
<g>
	<path style="fill:#423332;" d="M17.073,5.924c1.092-0.293,1.649-1.757,1.244-3.269c-0.405-1.511-1.619-2.5-2.711-2.207
		c-1.092,0.292-1.649,1.755-1.244,3.267C14.767,5.227,15.981,6.216,17.073,5.924"/>
	<path style="fill:#423332;" d="M21.952,8.359c0.915,0.665,2.403,0.177,3.323-1.09c0.92-1.266,0.925-2.832,0.01-3.497
		c-0.914-0.664-2.402-0.177-3.322,1.09S21.038,7.695,21.952,8.359"/>
	<path style="fill:#423332;" d="M12.195,19.241c0.959,0.6,2.409,0.009,3.239-1.319c0.829-1.327,0.724-2.889-0.235-3.489
		c-0.958-0.598-2.408-0.008-3.237,1.319C11.132,17.08,11.237,18.642,12.195,19.241"/>
	<path style="fill:#423332;" d="M20.322,22.362c1.122-0.138,1.877-1.51,1.687-3.063c-0.191-1.554-1.256-2.702-2.378-2.564
		c-1.122,0.138-1.877,1.509-1.686,3.063C18.135,21.351,19.2,22.5,20.322,22.362"/>
	<path style="fill:#423332;" d="M8.188,16.876c1.033-0.46,1.354-1.993,0.718-3.423c-0.637-1.431-1.99-2.216-3.024-1.756
		c-1.032,0.46-1.354,1.991-0.717,3.422C5.802,16.549,7.155,17.336,8.188,16.876"/>
	<path style="fill:#423332;" d="M3.962,20.866c0.926-0.648,0.948-2.214,0.051-3.497c-0.899-1.282-2.377-1.795-3.303-1.147
		c-0.926,0.649-0.949,2.213-0.051,3.496S3.036,21.514,3.962,20.866"/>
	<path style="fill:#423332;" d="M12.286,25.265c0.892-0.696,0.831-2.261-0.133-3.495c-0.964-1.234-2.466-1.668-3.357-0.972
		c-0.891,0.696-0.832,2.26,0.132,3.493C9.891,25.526,11.395,25.961,12.286,25.265"/>
	<path style="fill:#423332;" d="M8.51,5.669c1.131,0,2.047-1.27,2.047-2.835S9.641,0,8.51,0S6.463,1.269,6.463,2.834
		S7.379,5.669,8.51,5.669"/>
	<path style="fill:#423332;" d="M2.49,10.367c1.114,0.196,2.237-0.895,2.509-2.437C5.27,6.388,4.588,4.98,3.474,4.784
		C2.361,4.588,1.238,5.678,0.966,7.22S1.376,10.171,2.49,10.367"/>
	<path style="fill:#423332;" d="M14.108,10.939c0.813-0.785,0.591-2.335-0.497-3.461c-1.088-1.127-2.628-1.402-3.441-0.617
		c-0.814,0.786-0.592,2.335,0.496,3.462C11.754,11.449,13.295,11.725,14.108,10.939"/>
	<path style="fill:#423332;" d="M18.233,14.371c1.131,0,2.047-1.27,2.047-2.835s-0.916-2.834-2.047-2.834
		c-1.131,0-2.047,1.269-2.047,2.834S17.102,14.371,18.233,14.371"/>
	<path style="fill:#423332;" d="M23.88,16.152c1.106,0.235,2.266-0.815,2.592-2.347c0.325-1.531-0.308-2.963-1.414-3.198
		c-1.105-0.235-2.266,0.816-2.591,2.347C22.141,14.485,22.774,15.917,23.88,16.152"/>
</g>
</svg>
