<?xml version="1.0" encoding="utf-8"?>
<!-- Generator: Adobe Illustrator 15.0.0, SVG Export Plug-In . SVG Version: 6.00 Build 0)  -->
<!DOCTYPE svg PUBLIC "-//W3C//DTD SVG 1.1//EN" "http://www.w3.org/Graphics/SVG/1.1/DTD/svg11.dtd">
<svg version="1.1" id="Ebene_1" xmlns="http://www.w3.org/2000/svg" xmlns:xlink="http://www.w3.org/1999/xlink" x="0px" y="0px"
	 width="340.16px" height="226.77px" viewBox="0 0 340.16 226.77" enable-background="new 0 0 340.16 226.77" xml:space="preserve">
<polygon fill="#743701" points="116.517,15.216 107.605,19.842 97.582,19.842 93.273,27.303 85.631,31.272 85.2,41.295 
	80.188,49.98 84.497,57.441 84.111,66.058 92.57,71.455 97.582,80.117 106.199,80.117 113.479,84.744 122.368,80.117 
	132.391,80.117 136.7,72.68 144.342,68.689 144.795,58.665 149.807,49.98 145.498,42.52 145.861,33.903 137.425,28.528 
	132.391,19.842 123.773,19.842 "/>
<polygon fill="#743701" points="202.894,5.193 193.981,9.842 183.959,9.842 179.65,17.303 172.008,21.271 171.576,31.294 
	166.565,39.98 170.873,47.441 170.488,56.058 178.947,61.454 183.959,70.117 192.576,70.117 199.855,74.743 208.744,70.117 
	218.768,70.117 223.076,62.679 230.719,58.688 231.172,48.665 236.16,39.98 231.875,32.519 232.238,23.902 223.779,18.528 
	218.768,9.842 210.15,9.842 "/>
<polygon fill="#743701" points="248.746,85.901 239.834,90.527 229.812,90.527 225.502,97.988 217.86,101.979 217.43,112.002 
	212.418,120.687 216.727,128.148 216.342,136.742 224.8,142.14 229.812,150.824 238.429,150.824 245.708,155.45 254.598,150.824 
	264.621,150.824 268.951,143.365 276.571,139.373 277.025,129.372 282.037,120.687 277.729,113.226 278.091,104.609 269.654,99.212 
	264.621,90.527 256.004,90.527 "/>
<polygon fill="#743701" points="168.084,85.901 159.172,90.527 149.149,90.527 144.841,97.988 137.198,101.979 136.768,112.002 
	131.756,120.687 136.064,128.148 135.679,136.742 144.138,142.14 149.149,150.824 157.767,150.824 165.046,155.45 173.936,150.824 
	183.959,150.824 188.268,143.365 195.909,139.373 196.363,129.372 201.375,120.687 197.066,113.226 197.429,104.609 188.992,99.212 
	183.959,90.527 175.342,90.527 "/>
<polygon fill="#743701" points="94.702,120.664 85.79,125.313 75.767,125.313 71.458,132.774 63.815,136.742 63.385,146.766 
	58.373,155.45 62.659,162.911 62.296,171.529 70.755,176.926 75.767,185.588 84.384,185.588 91.663,190.215 100.552,185.588 
	110.576,185.588 114.884,178.151 122.526,174.159 122.957,164.136 127.969,155.45 123.683,147.99 124.046,139.373 115.587,133.998 
	110.576,125.313 101.958,125.313 "/>
<polygon fill="#743701" points="206.521,152.322 197.609,156.948 187.587,156.948 183.278,164.408 175.636,168.377 175.205,178.4 
	170.193,187.085 174.502,194.569 174.117,203.163 182.575,208.561 187.587,217.223 196.204,217.223 203.483,221.871 
	212.373,217.223 222.396,217.223 226.727,209.785 234.347,205.794 234.801,195.771 239.813,187.085 235.504,179.624 235.866,171.03 
	227.43,165.633 222.396,156.948 213.779,156.948 "/>
<path fill="#D6EEFC" d="M92.139,144.18H86.47c-1.428,0-2.585-1.156-2.585-2.585v-6.508c0-1.429,1.157-2.585,2.585-2.585h5.669
	c1.429,0,2.585,1.156,2.585,2.585v6.508C94.725,143.024,93.568,144.18,92.139,144.18"/>
<path fill="#D6EEFC" d="M111.664,162.367h-5.669c-1.428,0-2.585-1.156-2.585-2.585v-6.509c0-1.429,1.157-2.585,2.585-2.585h5.669
	c1.429,0,2.585,1.156,2.585,2.585v6.509C114.25,161.211,113.093,162.367,111.664,162.367"/>
<path fill="#D6EEFC" d="M84.792,169.782h-5.669c-1.429,0-2.585-1.156-2.585-2.585v-6.508c0-1.429,1.156-2.586,2.585-2.586h5.669
	c1.429,0,2.585,1.157,2.585,2.586v6.508C87.377,168.604,86.221,169.782,84.792,169.782"/>
<path fill="#D6EEFC" d="M190.376,193.503h-5.669c-1.429,0-2.586-1.157-2.586-2.586v-6.508c0-1.429,1.157-2.585,2.586-2.585h5.669
	c1.429,0,2.585,1.156,2.585,2.585v6.508C192.961,192.346,191.805,193.503,190.376,193.503"/>
<path fill="#D6EEFC" d="M226.024,185.951h-5.669c-1.43,0-2.586-1.156-2.586-2.585v-6.509c0-1.429,1.156-2.585,2.586-2.585h5.669
	c1.429,0,2.585,1.156,2.585,2.585v6.509C228.609,184.795,227.453,185.951,226.024,185.951"/>
<path fill="#D6EEFC" d="M163.98,74.63h-5.669c-1.429,0-2.585-1.156-2.585-2.585v-6.509c0-1.429,1.156-2.585,2.585-2.585h5.669
	c1.429,0,2.585,1.156,2.585,2.585v6.509C166.565,73.474,165.409,74.63,163.98,74.63"/>
<path fill="#D6EEFC" d="M215.185,209.15h-5.669c-1.429,0-2.586-1.156-2.586-2.585v-6.508c0-1.429,1.157-2.586,2.586-2.586h5.669
	c1.429,0,2.585,1.157,2.585,2.586v6.508C217.77,207.971,216.613,209.15,215.185,209.15"/>
<path fill="#D6EEFC" d="M182.983,110.55h-5.669c-1.43,0-2.586-1.156-2.586-2.585v-6.508c0-1.429,1.156-2.586,2.586-2.586h5.669
	c1.429,0,2.585,1.157,2.585,2.586v6.508C185.568,109.371,184.412,110.55,182.983,110.55"/>
<path fill="#D6EEFC" d="M214.164,55.377h-5.669c-1.429,0-2.585-1.156-2.585-2.585v-6.509c0-1.429,1.156-2.585,2.585-2.585h5.669
	c1.429,0,2.586,1.156,2.586,2.585v6.509C216.75,54.221,215.593,55.377,214.164,55.377"/>
<path fill="#D6EEFC" d="M106.244,68.78h-5.669c-1.429,0-2.585-1.156-2.585-2.585v-6.509c0-1.429,1.157-2.585,2.585-2.585h5.669
	c1.429,0,2.585,1.156,2.585,2.585v6.509C108.83,67.623,107.673,68.78,106.244,68.78"/>
<path fill="#D6EEFC" d="M82.071,110.55h-5.669c-1.429,0-2.585-1.156-2.585-2.585v-6.508c0-1.429,1.156-2.586,2.585-2.586h5.669
	c1.429,0,2.585,1.157,2.585,2.586v6.508C84.656,109.371,83.5,110.55,82.071,110.55"/>
<path fill="#D6EEFC" d="M131.167,62.929h-5.669c-1.429,0-2.585-1.157-2.585-2.585v-6.509c0-1.429,1.156-2.585,2.585-2.585h5.669
	c1.429,0,2.585,1.156,2.585,2.585v6.509C133.751,61.772,132.595,62.929,131.167,62.929"/>
<path fill="#D6EEFC" d="M242.08,132.365h-5.67c-1.429,0-2.585-1.156-2.585-2.585v-6.509c0-1.428,1.156-2.585,2.585-2.585h5.67
	c1.428,0,2.584,1.157,2.584,2.585v6.509C244.664,131.209,243.531,132.365,242.08,132.365"/>
<path fill="#D6EEFC" d="M249.359,109.644h-5.67c-1.429,0-2.585-1.157-2.585-2.586v-6.508c0-1.429,1.156-2.585,2.585-2.585h5.67
	c1.428,0,2.584,1.156,2.584,2.585v6.508C251.943,108.487,250.787,109.644,249.359,109.644"/>
<path fill="#D6EEFC" d="M153.889,117.807h-5.669c-1.428,0-2.585-1.156-2.585-2.585v-6.509c0-1.429,1.157-2.585,2.585-2.585h5.669
	c1.429,0,2.585,1.156,2.585,2.585v6.509C156.474,116.673,155.317,117.807,153.889,117.807"/>
<path fill="#D6EEFC" d="M191.17,49.549h-5.67c-1.428,0-2.585-1.156-2.585-2.585v-6.509c0-1.428,1.157-2.585,2.585-2.585h5.67
	c1.428,0,2.585,1.157,2.585,2.585v6.509C193.755,48.37,192.598,49.549,191.17,49.549"/>
<path fill="#D6EEFC" d="M207.814,25.308h-6.281c-1.588,0-2.88-1.293-2.88-2.88v-7.234c0-1.587,1.292-2.88,2.88-2.88h6.281
	c1.588,0,2.881,1.293,2.881,2.88v7.234C210.694,24.015,209.402,25.308,207.814,25.308"/>
<path fill="#D6EEFC" d="M107.854,38.642h-6.282c-1.587,0-2.88-1.293-2.88-2.88v-7.234c0-1.587,1.292-2.88,2.88-2.88h6.282
	c1.587,0,2.88,1.293,2.88,2.88v7.234C110.734,37.349,109.442,38.642,107.854,38.642"/>
<path fill="#D6EEFC" d="M174.797,140.552h-5.669c-1.428,0-2.585-1.156-2.585-2.585v-6.509c0-1.429,1.157-2.585,2.585-2.585h5.669
	c1.429,0,2.585,1.156,2.585,2.585v6.509C177.382,139.396,176.248,140.552,174.797,140.552"/>
<path fill="#D6EEFC" d="M159.354,184.25h-5.669c-1.429,0-2.585-1.156-2.585-2.585v-6.508c0-1.429,1.156-2.586,2.585-2.586h5.669
	c1.429,0,2.585,1.157,2.585,2.586v6.508C161.939,183.094,160.783,184.25,159.354,184.25"/>
<path fill="#D6EEFC" d="M267.546,132.365h-5.669c-1.43,0-2.586-1.156-2.586-2.585v-6.509c0-1.428,1.156-2.585,2.586-2.585h5.669
	c1.429,0,2.585,1.157,2.585,2.585v6.509C270.131,131.209,268.975,132.365,267.546,132.365"/>
</svg>
