<?xml version="1.0" encoding="iso-8859-1"?>
<!-- Generator: Adobe Illustrator 18.1.1, SVG Export Plug-In . SVG Version: 6.00 Build 0)  -->
<svg version="1.1" id="Ebene_1" xmlns="http://www.w3.org/2000/svg" xmlns:xlink="http://www.w3.org/1999/xlink" x="0px" y="0px"
	 viewBox="0 0 23.091 26.078" style="enable-background:new 0 0 23.091 26.078;" xml:space="preserve">
<g>
	<path style="fill:#683914;" d="M2.466,15.164c0.001,0.017,0.002,0.033,0.003,0.05c0.368,8.99,9.584,10.864,9.584,10.864
		s9.215-1.874,9.583-10.864c0.001-0.017,0.002-0.033,0.003-0.05H2.466z"/>
	<path style="fill:#A77D5F;" d="M12.052,18.119c5.293,0,9.584-1.304,9.584-2.912c0-1.609-4.291-2.913-9.584-2.913
		s-9.584,1.304-9.584,2.913C2.468,16.815,6.759,18.119,12.052,18.119"/>
	<path style="fill:#FFFFFF;" d="M12.052,17.495c4.418,0,7.999-1.089,7.999-2.432c0-1.341-3.581-2.43-7.999-2.43
		s-7.999,1.089-7.999,2.43C4.053,16.406,7.634,17.495,12.052,17.495"/>
	<path style="fill:#FFE5BF;" d="M0,13.306c0,0,0.716-1.845,2.807-3.159c0,0,4.151,1.748,5.704,4.289c0,0-0.767,1.084-2.812,2.112
		C5.699,16.548,3.582,13.737,0,13.306"/>
	<path style="fill:#FFE5BF;" d="M7.928,15.385c0,0,1.514-0.975,3.757-0.824c0,0,0.97,1.245,1.351,2.923c0,0-0.992-0.017-1.865-0.017
		c-0.807,0-1.688-0.114-1.688-0.114C9.045,16.627,8.602,16.01,7.928,15.385"/>
	<path style="fill:#683914;" d="M22.029,13.124c2.358-5.21,0.814-10.19-4.882-12.351C11.45-1.385,6.51,1.137,4.152,6.347
		C4.054,6.563,3.967,6.779,3.884,6.994C3.858,7.04,3.831,7.086,3.81,7.134C3.759,7.246,3.725,7.36,3.701,7.478
		c-0.014,0.04-0.029,0.08-0.044,0.121l0.025,0.009c-0.223,1.938,2.922,4.694,7.467,6.417c4.546,1.724,8.899,1.81,10.238,0.295
		l0.025,0.01c0.021-0.039,0.041-0.077,0.062-0.114c0.074-0.098,0.139-0.203,0.189-0.314c0.022-0.049,0.039-0.097,0.056-0.148
		C21.826,13.549,21.931,13.34,22.029,13.124"/>
	<path style="fill:#472200;" d="M11.933,4.773c0.62,0.235,1.331-0.034,1.588-0.602c0.257-0.568-0.038-1.218-0.658-1.453
		c-0.62-0.235-1.331,0.034-1.588,0.602C11.018,3.887,11.313,4.538,11.933,4.773"/>
	<path style="fill:#472200;" d="M15.693,8.208c0.62,0.235,1.331-0.034,1.588-0.602c0.257-0.568-0.038-1.218-0.658-1.453
		c-0.62-0.236-1.331,0.034-1.588,0.602C14.778,7.322,15.073,7.973,15.693,8.208"/>
	<path style="fill:#472200;" d="M16.804,4.43c0.62,0.235,1.331-0.034,1.588-0.602c0.257-0.568-0.038-1.218-0.658-1.453
		c-0.62-0.236-1.331,0.034-1.588,0.602C15.889,3.544,16.184,4.195,16.804,4.43"/>
</g>
</svg>
