<?xml version="1.0" encoding="utf-8"?>
<!-- Generator: Adobe Illustrator 15.0.0, SVG Export Plug-In . SVG Version: 6.00 Build 0)  -->
<!DOCTYPE svg PUBLIC "-//W3C//DTD SVG 1.1//EN" "http://www.w3.org/Graphics/SVG/1.1/DTD/svg11.dtd">
<svg version="1.1" id="Ebene_1" xmlns="http://www.w3.org/2000/svg" xmlns:xlink="http://www.w3.org/1999/xlink" x="0px" y="0px"
	 width="2834.65px" height="2834.649px" viewBox="0 0 2834.65 2834.649" enable-background="new 0 0 2834.65 2834.649"
	 xml:space="preserve">
<g>
	<path fill="#FEDEA9" d="M1570.565,551.665c152.322,0,275.779-123.564,275.779-275.886S1722.887,0,1570.565,0
		s-275.778,123.457-275.778,275.779S1418.244,551.665,1570.565,551.665"/>
	<path fill="#FEDEA9" d="M2351.956,1011.332c152.322,0,275.779-123.564,275.779-275.887c0-152.321-123.457-275.778-275.779-275.778
		c-152.321,0-275.778,123.457-275.778,275.778C2076.178,887.768,2199.635,1011.332,2351.956,1011.332"/>
	<path fill="#FEDEA9" d="M727.879,674.258c152.321,0,275.778-123.565,275.778-275.887c0-152.322-123.457-275.779-275.778-275.779
		S452.1,246.049,452.1,398.371C452.1,550.692,575.558,674.258,727.879,674.258"/>
	<path fill="#FEDEA9" d="M1187.546,1317.813c152.321,0,275.778-123.565,275.778-275.887c0-152.322-123.457-275.779-275.778-275.779
		c-152.322,0-275.779,123.458-275.779,275.779S1035.224,1317.813,1187.546,1317.813"/>
	<path fill="#FEDEA9" d="M314.157,2191.094c152.321,0,275.779-123.564,275.779-275.887s-123.457-275.779-275.779-275.779
		S38.378,1762.885,38.378,1915.208S161.835,2191.094,314.157,2191.094"/>
	<path fill="#FEDEA9" d="M329.508,1379.001c152.321,0,275.778-123.564,275.778-275.887c0-152.321-123.457-275.778-275.778-275.778
		c-152.322,0-275.779,123.457-275.779,275.778C53.729,1255.437,177.186,1379.001,329.508,1379.001"/>
	<path fill="#FEDEA9" d="M850.471,2834.651c152.321,0,275.778-123.566,275.778-275.887c0-152.322-123.457-275.779-275.778-275.779
		s-275.778,123.457-275.778,275.779C574.692,2711.084,698.149,2834.651,850.471,2834.651"/>
	<path fill="#FEDEA9" d="M1846.345,1670.239c152.321,0,275.778-123.564,275.778-275.886c0-152.321-123.457-275.778-275.778-275.778
		c-152.322,0-275.779,123.457-275.779,275.778C1570.565,1546.674,1694.022,1670.239,1846.345,1670.239"/>
	<path fill="#FEDEA9" d="M1294.787,2237.147c152.321,0,275.778-123.564,275.778-275.887c0-152.32-123.457-275.777-275.778-275.777
		s-275.779,123.457-275.779,275.777C1019.008,2113.583,1142.466,2237.147,1294.787,2237.147"/>
	<path fill="#FEDEA9" d="M2520.493,1945.911c152.322,0,275.779-123.459,275.779-275.779c0-152.322-123.457-275.779-275.779-275.779
		c-152.321,0-275.778,123.457-275.778,275.779C2244.715,1822.452,2368.173,1945.911,2520.493,1945.911"/>
	<path fill="#FEDEA9" d="M2045.584,2696.706c152.321,0,275.778-123.457,275.778-275.777c0-152.322-123.457-275.779-275.778-275.779
		s-275.779,123.457-275.779,275.779C1769.805,2573.249,1893.263,2696.706,2045.584,2696.706"/>
</g>
</svg>
