<?xml version="1.0" encoding="iso-8859-1"?>
<!-- Generator: Adobe Illustrator 18.1.1, SVG Export Plug-In . SVG Version: 6.00 Build 0)  -->
<svg version="1.1" id="Ebene_1" xmlns="http://www.w3.org/2000/svg" xmlns:xlink="http://www.w3.org/1999/xlink" x="0px" y="0px"
	 viewBox="0 0 22.449 28.346" style="enable-background:new 0 0 22.449 28.346;" xml:space="preserve">
<g>
	<path style="fill:#E4C73D;" d="M22.449,12.955c0-1.512-0.551-2.871-1.435-3.915c0.275-2.489-0.637-4.781-2.565-5.763
		c-0.088-0.045-0.183-0.059-0.272-0.097C17.311,1.307,15.427,0,13.228,0c-1.596,0-3.019,0.696-4.018,1.788
		C6.987,1.577,4.709,2.776,3.58,4.992C3.159,5.818,2.967,6.689,2.94,7.546c-1.282,1-2.121,2.542-2.121,4.293
		c0,0.481,0.082,0.939,0.199,1.384C0.382,14.332,0,15.679,0,17.144c0,2.828,1.395,5.248,3.375,6.267
		c0.262,2.766,2.5,4.935,5.254,4.935c0.593,0,1.153-0.123,1.685-0.308c0.651,0.181,1.327,0.308,2.041,0.308
		c3.409,0,6.249-2.22,6.973-5.188c1.665-1.122,2.802-3.233,2.802-5.683c0-0.675-0.109-1.312-0.267-1.925
		C22.227,14.763,22.449,13.89,22.449,12.955"/>
</g>
</svg>
