<?xml version="1.0" encoding="utf-8"?>
<!-- Generator: Adobe Illustrator 15.0.0, SVG Export Plug-In . SVG Version: 6.00 Build 0)  -->
<!DOCTYPE svg PUBLIC "-//W3C//DTD SVG 1.1//EN" "http://www.w3.org/Graphics/SVG/1.1/DTD/svg11.dtd">
<svg version="1.1" id="Ebene_1" xmlns="http://www.w3.org/2000/svg" xmlns:xlink="http://www.w3.org/1999/xlink" x="0px" y="0px"
	 width="2834.65px" height="2834.649px" viewBox="0 0 2834.65 2834.649" enable-background="new 0 0 2834.65 2834.649"
	 xml:space="preserve">
<g>
	<path fill="#FFF2B8" d="M1325.924,2103.836c-31.501-402.906-278.205-730.812-568.71-730.812
		c-290.605,0-525.81,318.906-568.81,730.812c-41.801,401.408,194.403,730.813,568.81,730.813
		C1131.521,2834.649,1357.424,2506.245,1325.924,2103.836L1325.924,2103.836z"/>
	<path fill="#FFF2B8" d="M2648.047,2103.836c-31.501-402.906-278.205-730.812-568.71-730.812
		c-290.605,0-525.81,318.906-568.811,730.812c-41.801,401.408,194.404,730.813,568.811,730.813
		C2453.644,2834.649,2679.548,2506.245,2648.047,2103.836L2648.047,2103.836z"/>
	<path fill="#FFF2B8" d="M1976.935,717.913C1945.935,322.105,1703.63,0,1418.226,0c-285.405,0-516.51,313.205-558.71,717.913
		c-41.101,394.406,191.003,717.912,558.71,717.912C1786.032,1435.825,2007.836,1113.22,1976.935,717.913L1976.935,717.913z"/>
</g>
</svg>
