<?xml version="1.0" encoding="iso-8859-1"?>
<!-- Generator: Adobe Illustrator 18.1.1, SVG Export Plug-In . SVG Version: 6.00 Build 0)  -->
<svg version="1.1" id="Ebene_1" xmlns="http://www.w3.org/2000/svg" xmlns:xlink="http://www.w3.org/1999/xlink" x="0px" y="0px"
	 viewBox="0 0 17.767 28.008" style="enable-background:new 0 0 17.767 28.008;" xml:space="preserve">
<g>
	<path style="fill:#B44922;" d="M11.63,0.033c-1.498-0.324-2.047,1.812-2.746,1.812S7.635-0.291,6.138,0.033
		c-2.744,0.594-5.772,4.818-6.136,14.45c-0.135,10.702,6.131,13.525,8.882,13.525s9.017-2.823,8.881-13.525
		C17.401,4.851,14.373,0.627,11.63,0.033"/>
	<path style="fill:#8D2B15;" d="M8.884,25.408c-0.098,0-0.196-0.019-0.291-0.059c-0.382-0.161-0.561-0.601-0.4-0.982
		c0.77-1.826,1.068-4.256,0.798-6.498c-0.11-0.926-0.426-1.796-0.759-2.718c-0.108-0.299-0.217-0.599-0.319-0.902
		C7.42,12.788,7.17,11.328,7.17,9.908c0-1.873,0.952-5.294,0.992-5.439c0.111-0.398,0.523-0.633,0.925-0.52
		c0.398,0.112,0.632,0.525,0.521,0.924C9.597,4.907,8.67,8.242,8.67,9.908c0,1.256,0.224,2.555,0.665,3.862
		c0.099,0.293,0.203,0.582,0.308,0.871c0.348,0.96,0.707,1.953,0.839,3.048c0.304,2.527-0.026,5.174-0.905,7.26
		C9.455,25.236,9.176,25.408,8.884,25.408z M13.806,21.908c-0.114,0-0.23-0.026-0.339-0.082c-0.369-0.188-0.517-0.639-0.328-1.008
		c2.22-4.362,0.333-12.32,0.314-12.4c-0.098-0.402,0.149-0.808,0.552-0.905c0.401-0.097,0.808,0.149,0.905,0.552
		c0.085,0.348,2.037,8.575-0.436,13.433C14.343,21.759,14.08,21.908,13.806,21.908z M3.963,21.908c-0.273,0-0.537-0.149-0.669-0.41
		C0.82,16.641,2.773,8.413,2.858,8.065c0.098-0.403,0.503-0.647,0.905-0.552c0.402,0.098,0.649,0.503,0.552,0.906
		C4.296,8.498,2.41,16.456,4.63,20.818c0.188,0.369,0.041,0.82-0.328,1.008C4.193,21.882,4.077,21.908,3.963,21.908z"/>
</g>
</svg>
