<?xml version="1.0" encoding="iso-8859-1"?>
<!-- Generator: Adobe Illustrator 18.1.1, SVG Export Plug-In . SVG Version: 6.00 Build 0)  -->
<svg version="1.1" id="Ebene_1" xmlns="http://www.w3.org/2000/svg" xmlns:xlink="http://www.w3.org/1999/xlink" x="0px" y="0px"
	 viewBox="0 0 22.281 28.134" style="enable-background:new 0 0 22.281 28.134;" xml:space="preserve">
<g>
	<path style="fill:#7A2C00;" d="M22.281,12.858c0-1.5-0.547-2.85-1.424-3.886c0.273-2.47-0.632-4.744-2.546-5.72
		c-0.087-0.044-0.181-0.058-0.27-0.096C17.181,1.297,15.312,0,13.129,0c-1.584,0-2.997,0.691-3.988,1.774
		C6.935,1.565,4.674,2.756,3.554,4.955C3.136,5.774,2.945,6.639,2.918,7.49c-1.272,0.993-2.104,2.522-2.104,4.261
		c0,0.477,0.081,0.932,0.197,1.373C0.38,14.224,0,15.562,0,17.016c0,2.807,1.385,5.208,3.351,6.219
		c0.26,2.746,2.48,4.899,5.213,4.899c0.589,0,1.145-0.122,1.673-0.306c0.646,0.18,1.317,0.306,2.025,0.306
		c3.384,0,6.203-2.204,6.922-5.15c1.652-1.113,2.781-3.208,2.781-5.64c0-0.67-0.109-1.303-0.266-1.91
		C22.06,14.652,22.281,13.786,22.281,12.858"/>
	<path style="fill:#B23F06;" d="M6.697,24.665c-0.151,0-0.304-0.044-0.44-0.132c-0.367-0.245-0.467-0.738-0.223-1.106
		c1.918-2.894,1.023-5.644,0.157-8.303c-0.266-0.815-0.517-1.585-0.679-2.344C4.473,7.937,8.283,4.682,8.446,4.546
		c0.336-0.283,0.838-0.238,1.12,0.099c0.283,0.336,0.24,0.839-0.096,1.123c-0.132,0.111-3.234,2.788-2.399,6.678
		c0.144,0.678,0.383,1.41,0.636,2.185c0.891,2.736,2,6.142-0.345,9.677C7.208,24.54,6.955,24.665,6.697,24.665"/>
	<path style="fill:#B23F06;" d="M10.946,26.337c-0.16,0-0.322-0.048-0.463-0.149c-0.357-0.256-0.44-0.754-0.185-1.112
		c0.031-0.044,3.082-4.422,1.378-9.826c-1.002-3.179-1.429-4.336-1.433-4.348c-0.153-0.412,0.058-0.871,0.47-1.024
		c0.411-0.153,0.872,0.058,1.025,0.469c0.017,0.048,0.441,1.195,1.459,4.423c1.95,6.186-1.458,11.031-1.603,11.235
		C11.438,26.222,11.194,26.337,10.946,26.337"/>
	<path style="fill:#B23F06;" d="M16.053,23.311c-0.185,0-0.369-0.064-0.52-0.193c-0.333-0.287-0.372-0.791-0.084-1.124
		c0.153-0.181,3.744-4.564-0.481-11.353c-2.344-3.773-0.937-7.39-0.875-7.543c0.164-0.409,0.626-0.604,1.037-0.442
		c0.408,0.163,0.605,0.626,0.443,1.034c-0.048,0.124-1.156,3.042,0.749,6.109c4.866,7.818,0.522,13.017,0.335,13.235
		C16.5,23.218,16.277,23.311,16.053,23.311"/>
</g>
</svg>
