<?xml version="1.0" encoding="utf-8"?>
<!-- Generator: Adobe Illustrator 15.0.0, SVG Export Plug-In . SVG Version: 6.00 Build 0)  -->
<!DOCTYPE svg PUBLIC "-//W3C//DTD SVG 1.1//EN" "http://www.w3.org/Graphics/SVG/1.1/DTD/svg11.dtd">
<svg version="1.1" id="Ebene_1" xmlns="http://www.w3.org/2000/svg" xmlns:xlink="http://www.w3.org/1999/xlink" x="0px" y="0px"
	 width="340.16px" height="226.77px" viewBox="0 0 340.16 226.77" enable-background="new 0 0 340.16 226.77" xml:space="preserve">
<g>
	<circle fill="#F4E393" cx="123.083" cy="129.412" r="28.847"/>
	<circle fill="#EFD06C" cx="112.666" cy="88.545" r="28.847"/>
	<circle fill="#EED38E" cx="81.415" cy="117.392" r="28.847"/>
	<circle fill="#F4E393" cx="240.874" cy="146.239" r="28.847"/>
	<circle fill="#EFD06C" cx="199.206" cy="156.656" r="28.847"/>
	<circle fill="#EED38E" cx="228.054" cy="187.907" r="28.847"/>
	<circle fill="#F4E393" cx="220.04" cy="38.864" r="28.847"/>
	<circle fill="#EFD06C" cx="178.372" cy="49.281" r="28.847"/>
	<circle fill="#EED38E" cx="207.22" cy="80.531" r="28.847"/>
</g>
<path fill="#D6EEFC" d="M92.139,144.18H86.47c-1.428,0-2.585-1.156-2.585-2.585v-6.508c0-1.429,1.157-2.585,2.585-2.585h5.669
	c1.429,0,2.585,1.156,2.585,2.585v6.508C94.725,143.024,93.568,144.18,92.139,144.18"/>
<path fill="#D6EEFC" d="M111.664,162.367h-5.669c-1.428,0-2.585-1.156-2.585-2.585v-6.509c0-1.429,1.157-2.585,2.585-2.585h5.669
	c1.429,0,2.585,1.156,2.585,2.585v6.509C114.25,161.211,113.093,162.367,111.664,162.367"/>
<path fill="#D6EEFC" d="M84.792,169.782h-5.669c-1.429,0-2.585-1.156-2.585-2.585v-6.508c0-1.429,1.156-2.586,2.585-2.586h5.669
	c1.429,0,2.585,1.157,2.585,2.586v6.508C87.377,168.604,86.221,169.782,84.792,169.782"/>
<path fill="#D6EEFC" d="M190.376,193.503h-5.669c-1.429,0-2.586-1.157-2.586-2.586v-6.508c0-1.429,1.157-2.585,2.586-2.585h5.669
	c1.429,0,2.585,1.156,2.585,2.585v6.508C192.961,192.346,191.805,193.503,190.376,193.503"/>
<path fill="#D6EEFC" d="M226.024,185.951h-5.669c-1.43,0-2.586-1.156-2.586-2.585v-6.509c0-1.429,1.156-2.585,2.586-2.585h5.669
	c1.429,0,2.585,1.156,2.585,2.585v6.509C228.609,184.795,227.453,185.951,226.024,185.951"/>
<path fill="#D6EEFC" d="M163.98,74.63h-5.669c-1.429,0-2.585-1.156-2.585-2.585v-6.509c0-1.429,1.156-2.585,2.585-2.585h5.669
	c1.429,0,2.585,1.156,2.585,2.585v6.509C166.565,73.474,165.409,74.63,163.98,74.63"/>
<path fill="#D6EEFC" d="M215.185,209.15h-5.669c-1.429,0-2.586-1.156-2.586-2.585v-6.508c0-1.429,1.157-2.586,2.586-2.586h5.669
	c1.429,0,2.585,1.157,2.585,2.586v6.508C217.77,207.971,216.613,209.15,215.185,209.15"/>
<path fill="#D6EEFC" d="M182.983,110.55h-5.669c-1.43,0-2.586-1.156-2.586-2.585v-6.508c0-1.429,1.156-2.586,2.586-2.586h5.669
	c1.429,0,2.585,1.157,2.585,2.586v6.508C185.568,109.371,184.412,110.55,182.983,110.55"/>
<path fill="#D6EEFC" d="M214.164,55.377h-5.669c-1.429,0-2.585-1.156-2.585-2.585v-6.509c0-1.429,1.156-2.585,2.585-2.585h5.669
	c1.429,0,2.586,1.156,2.586,2.585v6.509C216.75,54.221,215.593,55.377,214.164,55.377"/>
<path fill="#D6EEFC" d="M106.244,68.78h-5.669c-1.429,0-2.585-1.156-2.585-2.585v-6.509c0-1.429,1.157-2.585,2.585-2.585h5.669
	c1.429,0,2.585,1.156,2.585,2.585v6.509C108.83,67.623,107.673,68.78,106.244,68.78"/>
<path fill="#D6EEFC" d="M82.071,110.55h-5.669c-1.429,0-2.585-1.156-2.585-2.585v-6.508c0-1.429,1.156-2.586,2.585-2.586h5.669
	c1.429,0,2.585,1.157,2.585,2.586v6.508C84.656,109.371,83.5,110.55,82.071,110.55"/>
<path fill="#D6EEFC" d="M131.167,62.929h-5.669c-1.429,0-2.585-1.157-2.585-2.585v-6.509c0-1.429,1.156-2.585,2.585-2.585h5.669
	c1.429,0,2.585,1.156,2.585,2.585v6.509C133.751,61.772,132.595,62.929,131.167,62.929"/>
<path fill="#D6EEFC" d="M242.08,132.365h-5.67c-1.429,0-2.585-1.156-2.585-2.585v-6.509c0-1.428,1.156-2.585,2.585-2.585h5.67
	c1.428,0,2.584,1.157,2.584,2.585v6.509C244.664,131.209,243.531,132.365,242.08,132.365"/>
<path fill="#D6EEFC" d="M249.359,109.644h-5.67c-1.429,0-2.585-1.157-2.585-2.586v-6.508c0-1.429,1.156-2.585,2.585-2.585h5.67
	c1.428,0,2.584,1.156,2.584,2.585v6.508C251.943,108.487,250.787,109.644,249.359,109.644"/>
<path fill="#D6EEFC" d="M153.889,117.807h-5.669c-1.428,0-2.585-1.156-2.585-2.585v-6.509c0-1.429,1.157-2.585,2.585-2.585h5.669
	c1.429,0,2.585,1.156,2.585,2.585v6.509C156.474,116.673,155.317,117.807,153.889,117.807"/>
<path fill="#D6EEFC" d="M191.17,49.549h-5.67c-1.428,0-2.585-1.156-2.585-2.585v-6.509c0-1.428,1.157-2.585,2.585-2.585h5.67
	c1.428,0,2.585,1.157,2.585,2.585v6.509C193.755,48.37,192.598,49.549,191.17,49.549"/>
<path fill="#D6EEFC" d="M207.814,25.308h-6.281c-1.588,0-2.88-1.293-2.88-2.88v-7.234c0-1.587,1.292-2.88,2.88-2.88h6.281
	c1.588,0,2.881,1.293,2.881,2.88v7.234C210.694,24.015,209.402,25.308,207.814,25.308"/>
<path fill="#D6EEFC" d="M107.854,38.642h-6.282c-1.587,0-2.88-1.293-2.88-2.88v-7.234c0-1.587,1.292-2.88,2.88-2.88h6.282
	c1.587,0,2.88,1.293,2.88,2.88v7.234C110.734,37.349,109.442,38.642,107.854,38.642"/>
<path fill="#D6EEFC" d="M174.797,140.552h-5.669c-1.428,0-2.585-1.156-2.585-2.585v-6.509c0-1.429,1.157-2.585,2.585-2.585h5.669
	c1.429,0,2.585,1.156,2.585,2.585v6.509C177.382,139.396,176.248,140.552,174.797,140.552"/>
<path fill="#D6EEFC" d="M159.354,184.25h-5.669c-1.429,0-2.585-1.156-2.585-2.585v-6.508c0-1.429,1.156-2.586,2.585-2.586h5.669
	c1.429,0,2.585,1.157,2.585,2.586v6.508C161.939,183.094,160.783,184.25,159.354,184.25"/>
<path fill="#D6EEFC" d="M267.546,132.365h-5.669c-1.43,0-2.586-1.156-2.586-2.585v-6.509c0-1.428,1.156-2.585,2.586-2.585h5.669
	c1.429,0,2.585,1.157,2.585,2.585v6.509C270.131,131.209,268.975,132.365,267.546,132.365"/>
</svg>
