<svg id="Ebene_1" data-name="Ebene 1" xmlns="http://www.w3.org/2000/svg" viewBox="0 0 25.51 25.64"><defs><style>.cls-1{fill:#b2b2b2;}</style></defs><path class="cls-1" d="M16.66,22.32a10.06,10.06,0,0,1-1.78-4.49,17.72,17.72,0,0,1-.24-2c0-.69-.06-1.38-.08-2.07s0-1.36,0-2v-.78a1.23,1.23,0,0,1,0-.2c-.06-1.17-.82-.49-1-.3a1.67,1.67,0,0,0-.18.28,8.79,8.79,0,0,0-.88,2.13,23.29,23.29,0,0,0-.59,2.73c-.16,1-.29,1.91-.41,2.78s-.22,1.63-.29,2.26a4.84,4.84,0,0,1-.23,1.17,1.06,1.06,0,0,1-.47.51,1.56,1.56,0,0,1-.7.22A2.22,2.22,0,0,1,9,22.42a1.27,1.27,0,0,1-.61-.36,4.06,4.06,0,0,1-.85-1.6,8.23,8.23,0,0,1-.35-2c-.06-1.64-.18-3.3-.36-5-.11-1.15-.27-2.26-.47-3.34,0-.12-.07-.25-.11-.39-.29-1-.87-.53-1.05-.34s-.13.25-.21.4a7.64,7.64,0,0,0-.71,2.36Q4.13,13,4,14c-.07.7-.14,1.42-.19,2.18s-.1,1.47-.14,2.16-.06,1.3-.09,1.84,0,1-.05,1.27a.15.15,0,0,0,0,.07,12.72,12.72,0,0,0,15.33,2.41A4.64,4.64,0,0,1,16.66,22.32Z"/><path class="cls-1" d="M1.09,13.63c.13-.66.29-1.34.48-2.06a19.31,19.31,0,0,1,.7-2.11,7.73,7.73,0,0,1,1-1.8A3.29,3.29,0,0,1,4.62,6.59a2,2,0,0,1,.47-.14A9.34,9.34,0,0,1,17.32,4.14a8.74,8.74,0,0,1,2.26,2.07,3.09,3.09,0,0,1,2.55,2.27c0,.11.07.07-.05,0a3.45,3.45,0,0,1-1.47-.6,9,9,0,0,1,.49,1.31l0,0a3.2,3.2,0,0,1,1.63,2.57,5.42,5.42,0,0,1,0,.57v0A14.14,14.14,0,0,1,21.91,16l-.2-.08a13.78,13.78,0,0,0,.83-3.61,3.19,3.19,0,0,1-1.1-1.15c0,.34,0,.68,0,1a1.92,1.92,0,0,1-.38,2.39,9.16,9.16,0,0,1-.79,1.95l-.19-.1a9.16,9.16,0,0,0,.8-2,2,2,0,0,1,.33-2.51h0a9.18,9.18,0,0,0-1.12-4.41,3,3,0,0,1-.44-.73,8.62,8.62,0,0,0-1.85-2,3.09,3.09,0,0,1,.65,2.39c0,.11,0,.09-.06,0a3.14,3.14,0,0,1-1.51-3,8.58,8.58,0,0,0-2.32-.92,2.94,2.94,0,0,1,1.66,2c0,.11.08.07,0,0a3.06,3.06,0,0,1-2.6-2.18,9,9,0,0,0-2.14,0,2.94,2.94,0,0,1,2.16,1.18c.07.09.09,0,0,.06a3.07,3.07,0,0,1-3.23-1,9.15,9.15,0,0,0-2.3.92,3,3,0,0,1,2.49.21c.1,0,.1,0,0,.06a3.19,3.19,0,0,1-3.43.34A8.84,8.84,0,0,0,5.9,5.87a3.07,3.07,0,0,1,2.21-.46c.11,0,.1,0,0,.06A3.59,3.59,0,0,1,6.59,6.71a2.39,2.39,0,0,1,.84.92,8.09,8.09,0,0,1,.72,1.9,19.59,19.59,0,0,1,.42,2.41c.1.87.17,1.72.22,2.56s.07,1.6.08,2.31,0,1.27,0,1.69c.12-.33.26-.77.42-1.33s.35-1.19.56-1.88.44-1.39.69-2.12a21.12,21.12,0,0,1,.86-2.11,13.8,13.8,0,0,1,1-1.81A4.32,4.32,0,0,1,13.57,8a1.89,1.89,0,0,1,1.28-.36,2.54,2.54,0,0,1,1.44.77A3.76,3.76,0,0,1,17.14,10a22.2,22.2,0,0,1,.58,2.44c.16.91.3,1.86.42,2.87s.26,1.94.39,2.82.27,1.64.42,2.3a2.74,2.74,0,0,0,.61,1.33,2.53,2.53,0,0,0,1.06.7l.29.08a12.69,12.69,0,1,0-20.3-6c.07-.45.14-.88.21-1.28S1,14.28,1.09,13.63ZM19.36,14.8a8.17,8.17,0,0,0,.51-3.43A3.35,3.35,0,0,1,19.74,8a.36.36,0,0,0,0-.1l0,.09a3.36,3.36,0,0,1,.29,3.43,8.39,8.39,0,0,1-.53,3.47Zm1.53-9c.05.1.08.05,0,.05a3.09,3.09,0,0,1-3-1.77A.16.16,0,0,0,17.83,4s0,0,0,0l.11,0a3.11,3.11,0,0,1,2.94,1.78ZM18,3c.09.07.1,0,0,.06a3.11,3.11,0,0,1-3.45-.42l-.09,0h0a.23.23,0,0,0,.11,0A3.19,3.19,0,0,1,18,3Zm-7-.45.09-.06a3.32,3.32,0,0,1,3.41-.89c.11,0,.1,0,0,.07a3.25,3.25,0,0,1-3.41.89H11ZM7.4,3.89a.47.47,0,0,0,.06-.09,3.48,3.48,0,0,1,2.87-2.15c.11,0,.08-.06,0,.05A3.42,3.42,0,0,1,7.49,3.86a.16.16,0,0,0-.09,0ZM4.92,6l0-.1A3.52,3.52,0,0,1,7,2.91c.1,0,.06-.08,0,0A3.45,3.45,0,0,1,5,5.91L4.92,6S4.9,6,4.92,6Z"/></svg>