<svg id="Capa_1" data-name="Capa 1" xmlns="http://www.w3.org/2000/svg" viewBox="0 0 370 370"><defs><style>.cls-1{fill:#fff;}</style></defs><path d="M313.22,217.08A141.12,141.12,0,1,1,172.09,76,141.14,141.14,0,0,1,313.22,217.08Z"/><path d="M118.59,54.74l-11.91,4.44.12,6.58-4.88,1.81-.41-32.3,5.41-2L127.73,58l-4.92,1.83ZM106.32,39.91l.25,15,9.29-3.45Z"/><path d="M130.77,26.5l5.4,25.83,10.07-2.11.82,3.94-14.95,3.13-6.23-29.77Z"/><path d="M146.84,23.45,168,21.89l.3,4.06-8.08.6,1.94,26.28-5,.36L155.26,26.9l-8.11.61Z"/><path d="M188.33,53.63a15.2,15.2,0,0,1-13.93-17,15.51,15.51,0,0,1,30.88,3A15.15,15.15,0,0,1,188.33,53.63Zm.42-4.3c6,.58,10.78-3.35,11.44-10.17s-3.27-11.52-9.27-12.1-10.77,3.25-11.43,10.08S182.75,48.74,188.75,49.33Z"/><path d="M243.67,39.82l-11.14-3.94-3,8.43,9.91,3.49-1.35,3.84-9.92-3.49-3.09,8.79,11.14,3.93-1.35,3.85L219,59.13l10.13-28.75L245,36Z"/><path d="M276.54,51.88,261.93,78.63l-4.38-2.4-2.29-27.14L244.37,69,240,66.64,254.6,39.9,259,42.3l2.31,27.09,10.86-19.9Z"/><path d="M295.87,66.27l13.36,11.9-2.71,3-9.63-8.58-6,6.69,7.51,6.7-2.7,3-7.52-6.7-8.84,9.94L275.64,89Z"/><path d="M314.3,83.77l3.36,3.7-22.47,20.46-3.36-3.68Z"/><path d="M306.63,122.38l-7.11-9.88,24.7-17.76,6.78,9.42c3.75,5.22,2.87,10.06-.62,12.57-3,2.15-6.09,1.64-8.66-.13a7.57,7.57,0,0,1-2.62,9.11C315.34,128.41,310.26,127.43,306.63,122.38ZM317.29,114l-3.84-5.33-7.71,5.55,3.93,5.47c2,2.74,4.56,3.41,6.95,1.7S319.23,116.66,317.29,114Zm10.15-7.78-3.61-5-7.07,5.08,3.6,5c1.9,2.63,4.29,3.33,6.57,1.7S329.32,108.81,327.44,106.18Z"/><path d="M346.88,130.62c3.22,6.48,1.06,11.51-3.38,13.72a8.67,8.67,0,0,1-10.94-2.45l-8,12.35L322,148.91l7.81-11.7-1.7-3.41-10.91,5.4-2.22-4.47,27.28-13.53Zm-3.65,1.81-2.45-5L331.63,132l2.46,4.95c1.73,3.49,4.43,4.11,7.14,2.76S345,135.93,343.23,132.43Z"/><path d="M337.7,174.9l-3.6-12.2-6.57-.35-1.48-5,32.29,1.85,1.63,5.53L333.83,183.8l-1.47-5Zm15.66-11.22-15-.79,2.81,9.52Z"/><path d="M168.24,189.77c1.73.58,3.47,0,3.94-1.35s-.56-2.86-2.29-3.45-3.47,0-3.92,1.34S166.53,189.18,168.24,189.77Z"/><path d="M183.46,189.38c2.29,1.76,4.86,2.29,5.72,1.19s-.33-3.45-2.63-5.21-4.88-2.3-5.73-1.18S181.14,187.62,183.46,189.38Z"/><path d="M175,202c-1.9-.66-3.06-2.33-2.57-3.74s2.41-2,4.32-1.33,3.06,2.33,2.58,3.73S176.87,202.69,175,202Z"/><path d="M188.85,200.64c-1.15-.4-1.85-1.39-1.56-2.25s1.46-1.19,2.62-.79a1.69,1.69,0,1,1-1.06,3Z"/><path d="M156.84,185.5a1.6,1.6,0,0,1-1.58,1.61,1.62,1.62,0,0,1-1.61-1.61,1.6,1.6,0,0,1,1.61-1.59A1.58,1.58,0,0,1,156.84,185.5Z"/><path d="M186.6,211.76a1.61,1.61,0,1,1-1.61-1.61A1.62,1.62,0,0,1,186.6,211.76Z"/><path class="cls-1" d="M230.57,198.77c-47.68-8.24-55.81,19.44-57.21,28.95V186.66c2.49,1.41,36,19.57,57.28-32.13-49.57-8.56-56.36,21.76-57.28,30V154.84c7-5,29.9-25.88-1.71-65.78-31.06,38.25-10.51,59.25-2.75,65.24v20.94c-4.75-11.58-18-26.62-54.76-20.26,18.43,44.82,46.09,37.13,54.76,33.35v31.52c-4.64-11.64-17.74-27.08-54.95-20.65,18.53,45.14,46.48,37.08,55,33.34v31.9c-4.51-11.64-17.56-27.52-55.16-21,18.67,45.42,46.85,37,55.16,33.3v32.37c-4.37-11.74-17.26-28.05-55.38-21.47,18.81,45.8,47.24,37,55.38,33.3V346.3h4.46V319.69c4.67,2.5,36.56,17.41,57-32.45-45.23-7.85-55,16.61-57,27.34V275.35c4.11,2.25,36.44,18,57.14-32.34-46.29-8-55.36,17.82-57.14,28.09V231C176.78,232.92,209.64,249.7,230.57,198.77Z"/><path class="cls-1" d="M173.36,347.69H168.9a1.37,1.37,0,0,1-1.38-1.39V323a38.31,38.31,0,0,1-13.26,2.49c-12.17,0-29.32-6.47-42-37.32a1.31,1.31,0,0,1,0-1.19,1.27,1.27,0,0,1,1-.68,96.23,96.23,0,0,1,16.56-1.56c21.55,0,32.3,8.94,37.66,18.17V278.82a37.45,37.45,0,0,1-13.09,2.44c-12.16,0-29.29-6.48-42-37.31a1.32,1.32,0,0,1,.07-1.18,1.35,1.35,0,0,1,1-.69,95.46,95.46,0,0,1,16.55-1.54c21.36,0,32.09,8.79,37.47,17.9V234.58A36.28,36.28,0,0,1,154.58,237c-12.15,0-29.26-6.46-41.91-37.25a1.42,1.42,0,0,1,.07-1.19,1.38,1.38,0,0,1,1-.69,98.2,98.2,0,0,1,16.51-1.52c21.2,0,31.89,8.67,37.29,17.66V190.37a36.51,36.51,0,0,1-12.78,2.33c-12.11,0-29.23-6.44-41.87-37.2a1.31,1.31,0,0,1,.07-1.19,1.36,1.36,0,0,1,1-.7,97.55,97.55,0,0,1,16.52-1.52c21,0,31.68,8.56,37.09,17.38V155c-4.71-3.77-12.18-11.55-13.64-23.86-1.5-13,4.1-27.42,16.7-42.92a1.57,1.57,0,0,1,1.08-.5,1.36,1.36,0,0,1,1.06.53c12.62,15.91,18.09,30.63,16.26,43.73-1.79,12.78-10.15,20.52-14.23,23.6v18.39c4.19-10,14.5-22.29,39.62-22.29a99.58,99.58,0,0,1,16.51,1.54,1.45,1.45,0,0,1,1,.69,1.34,1.34,0,0,1,.06,1.19c-12.64,30.75-29.73,37.21-41.89,37.21a37.52,37.52,0,0,1-15.28-3.36V217.6c8.62-20,31.81-21.73,39.51-21.73a100,100,0,0,1,16.55,1.53,1.43,1.43,0,0,1,1,.7,1.4,1.4,0,0,1,.09,1.18c-12.65,30.79-29.79,37.26-41.93,37.26h0a37.37,37.37,0,0,1-15.18-3.29V261.8c4.37-9.89,14.77-21.71,39.43-21.71a98.94,98.94,0,0,1,16.55,1.55,1.37,1.37,0,0,1,1,.7,1.27,1.27,0,0,1,.09,1.18c-12.68,30.81-29.81,37.3-42,37.3a37.12,37.12,0,0,1-15.05-3.27V305.8c4.42-9.68,14.82-21.47,39.34-21.47a99.06,99.06,0,0,1,16.55,1.54,1.35,1.35,0,0,1,1,.68,1.24,1.24,0,0,1,.09,1.19c-12.66,30.85-29.84,37.34-42,37.34a37.46,37.46,0,0,1-14.9-3.21V346.3A1.37,1.37,0,0,1,173.36,347.69Zm-3.09-2.76H172V319.69a1.29,1.29,0,0,1,.65-1.17,1.33,1.33,0,0,1,1.36,0,34.7,34.7,0,0,0,15.64,3.84c11.15,0,26.8-5.94,38.83-34a95.45,95.45,0,0,0-14.39-1.23c-29.54,0-37.35,17.42-39.36,27.77a1.44,1.44,0,0,1-1.51,1.11,1.36,1.36,0,0,1-1.22-1.37V275.35a1.35,1.35,0,0,1,2-1.21,34.64,34.64,0,0,0,15.79,3.91c11.12,0,26.74-5.95,38.75-34a93.68,93.68,0,0,0-14.37-1.2c-31.18,0-38,19.87-39.45,28.44a1.37,1.37,0,0,1-2.73-.22V231a1.31,1.31,0,0,1,.69-1.21,1.29,1.29,0,0,1,1.35,0,34.36,34.36,0,0,0,15.89,4h0c11.1,0,26.72-5.95,38.71-33.95a93.83,93.83,0,0,0-14.38-1.19c-31.79,0-38.25,20.47-39.53,29.27a1.35,1.35,0,0,1-1.46,1.17,1.39,1.39,0,0,1-1.27-1.37V186.66a1.39,1.39,0,0,1,.49-1.07,1.29,1.29,0,0,1-.49-1.07V154.84a1.28,1.28,0,0,1,.57-1.09c3.53-2.58,12-9.81,13.69-22.2,1.67-12-3.26-25.49-14.61-40.27-11.36,14.39-16.4,27.68-15,39.49s8.79,19.12,13.1,22.42a1.36,1.36,0,0,1,.53,1.11v20.94a1.38,1.38,0,0,1-2.65.52c-3.91-9.54-13.54-20.94-37.19-20.94A93.38,93.38,0,0,0,116.08,156c12,28,27.59,33.92,38.66,33.92a34.58,34.58,0,0,0,13.61-2.88,1.36,1.36,0,0,1,1.31.12,1.38,1.38,0,0,1,.61,1.13v31.52a1.38,1.38,0,0,1-1.13,1.35,1.4,1.4,0,0,1-1.52-.84c-3.87-9.71-13.51-21.3-37.39-21.3a91.7,91.7,0,0,0-14.33,1.22c12,28,27.6,33.95,38.68,33.95a34.65,34.65,0,0,0,13.77-2.94,1.33,1.33,0,0,1,1.31.11,1.4,1.4,0,0,1,.61,1.14v31.9a1.36,1.36,0,0,1-1.13,1.36,1.32,1.32,0,0,1-1.52-.86c-3.82-9.85-13.45-21.64-37.57-21.64a90.92,90.92,0,0,0-14.37,1.21c12,28,27.63,34,38.75,34a35.08,35.08,0,0,0,13.92-3,1.4,1.4,0,0,1,1.3.1,1.44,1.44,0,0,1,.62,1.17v32.37a1.32,1.32,0,0,1-1.13,1.33,1.37,1.37,0,0,1-1.54-.85c-3.72-10.07-13.34-22.07-37.74-22.07a94.9,94.9,0,0,0-14.39,1.2c12,28.08,27.67,34,38.79,34a35.17,35.17,0,0,0,14.09-3.07,1.37,1.37,0,0,1,1.3.1,1.44,1.44,0,0,1,.62,1.16Zm4-159.35A34.17,34.17,0,0,0,190,189.51c11.08,0,26.69-5.93,38.67-33.9a93,93,0,0,0-14.33-1.2c-33.6,0-38.84,23.18-39.64,30.29A1.39,1.39,0,0,1,174.26,185.58Z"/><path class="cls-1" d="M114.14,156.36a1.41,1.41,0,0,1-1.38-1.38V139.85a1.39,1.39,0,0,1,2.78,0V155A1.41,1.41,0,0,1,114.14,156.36Z"/><path class="cls-1" d="M230.64,156.36a1.4,1.4,0,0,1-1.37-1.38V139.85a1.38,1.38,0,1,1,2.76,0V155A1.41,1.41,0,0,1,230.64,156.36Z"/><path class="cls-1" d="M114.14,242.94a1.41,1.41,0,0,1-1.38-1.39V226.42a1.39,1.39,0,0,1,2.78,0v15.13A1.42,1.42,0,0,1,114.14,242.94Z"/><path class="cls-1" d="M230.64,242.94a1.4,1.4,0,0,1-1.37-1.39V226.42a1.38,1.38,0,1,1,2.76,0v15.13A1.41,1.41,0,0,1,230.64,242.94Z"/><path class="cls-1" d="M173.6,182.9s18.27-27.8,55-27.92l-54.1,29.54"/><path d="M174.46,185.22a.7.7,0,0,1-.6-.37.69.69,0,0,1,.28-.93l51.58-28.21c-34,1.53-51.4,27.32-51.56,27.58a.69.69,0,1,1-1.16-.74c.19-.29,18.91-28.11,55.55-28.28h0a.63.63,0,0,1,.64.53.69.69,0,0,1-.31.79l-54.11,29.54A.66.66,0,0,1,174.46,185.22Z"/><path class="cls-1" d="M174.46,184.52A61,61,0,0,0,229.13,155"/><path d="M176.82,185.3c-1.51,0-2.38-.07-2.38-.07a.71.71,0,0,1-.66-.77.68.68,0,0,1,.76-.61,60.83,60.83,0,0,0,54-29.23.67.67,0,0,1,.93-.22.64.64,0,0,1,.24.93A62.28,62.28,0,0,1,176.82,185.3Z"/><path class="cls-1" d="M169.7,182.87s-18.29-27.81-55-27.94l54.09,29.56"/><path d="M168.81,185.16a.93.93,0,0,1-.35-.08L114.4,155.53a.68.68,0,0,1,.32-1.3h0c36.64.16,55.37,28,55.54,28.25a.68.68,0,0,1-.2,1,.7.7,0,0,1-1-.2c-.18-.26-17.56-26.08-51.55-27.56l51.59,28.19a.67.67,0,0,1,.26.93A.59.59,0,0,1,168.81,185.16Z"/><path class="cls-1" d="M168.81,184.49a61,61,0,0,1-54.67-29.56"/><path d="M166.45,185.26a62.29,62.29,0,0,1-52.89-30,.68.68,0,0,1,.22-.94.65.65,0,0,1,.94.21,60.77,60.77,0,0,0,54,29.25.67.67,0,0,1,.75.61.7.7,0,0,1-.62.74C168.82,185.16,168,185.26,166.45,185.26Z"/><path class="cls-1" d="M173.6,271.6s18.27-27.79,55-27.94l-54.1,29.58"/><path d="M174.46,273.92a.69.69,0,0,1-.32-1.3l51.58-28.19c-34,1.49-51.4,27.28-51.56,27.55a.69.69,0,0,1-.95.21.68.68,0,0,1-.21-.95c.19-.29,18.91-28.13,55.55-28.25h0a.62.62,0,0,1,.64.5.65.65,0,0,1-.31.77l-54.11,29.58A.66.66,0,0,1,174.46,273.92Z"/><path class="cls-1" d="M174.46,273.24a61.06,61.06,0,0,0,54.67-29.58"/><path d="M176.82,274c-1.51,0-2.38-.07-2.38-.07a.69.69,0,0,1-.66-.77.64.64,0,0,1,.76-.6,60.82,60.82,0,0,0,54-29.25.7.7,0,0,1,.93-.22.66.66,0,0,1,.24.95A62.26,62.26,0,0,1,176.82,274Z"/><path class="cls-1" d="M169.7,271.56s-18.29-27.78-55-27.95l54.09,29.56"/><path d="M168.81,273.87a.77.77,0,0,1-.35-.08L114.4,244.22a.75.75,0,0,1-.37-.77.72.72,0,0,1,.69-.51h0c36.64.13,55.37,28,55.54,28.24a.67.67,0,0,1-.2,1,.69.69,0,0,1-1-.2c-.18-.26-17.56-26.06-51.55-27.56l51.59,28.2a.66.66,0,0,1,.26.94A.64.64,0,0,1,168.81,273.87Z"/><path class="cls-1" d="M168.81,273.17a61,61,0,0,1-54.67-29.56"/><path d="M166.45,273.94a62.24,62.24,0,0,1-52.89-30,.68.68,0,0,1,1.16-.72,60.71,60.71,0,0,0,54,29.22.67.67,0,0,1,.75.64.7.7,0,0,1-.62.75C168.82,273.87,168,273.94,166.45,273.94Z"/></svg>