<svg id="Capa_1" data-name="Capa 1" xmlns="http://www.w3.org/2000/svg" viewBox="0 0 370 370"><defs><style>.cls-1{fill:#fff;}</style></defs><path d="M313.71,217.77A141.93,141.93,0,1,1,171.78,75.83,141.94,141.94,0,0,1,313.71,217.77Z"/><path d="M16.15,98.27,27.71,84.49l3.14,2.63-8.34,9.95,6.91,5.79,6.5-7.76,3.13,2.63-6.49,7.76,10.24,8.58-3.22,3.85Z"/><path d="M37,74.93,40.8,71.7,53.32,86.64c3,3.64,6.55,3.63,9.79.91s3.88-6.17.83-9.81L51.41,62.8l3.85-3.21L67.72,74.45c5,6,3.06,12.41-1.83,16.5s-11.47,4.81-16.47-1.16Z"/><path d="M84.78,46.37,74.45,52.21,78.86,60,88,54.84l2,3.56-9.2,5.19,4.61,8.16,10.34-5.84,2,3.56-14.71,8.3L68.07,51.11l14.71-8.3Z"/><path d="M120.19,28l10,29-4.75,1.63L103.67,41.93l7.43,21.64-4.77,1.64-9.94-29,4.75-1.63,21.71,16.69-7.41-21.6Z"/><path d="M133.77,25.08l21.13-3,.57,4.05-8.06,1.14,3.69,26.23-5,.7L142.44,28l-8.11,1.15Z"/><path d="M185,26l-11.87-.27-.21,9,10.55.25-.1,4.08-10.53-.25-.22,9.36,11.85.27-.1,4.09-16.86-.39.72-30.57,16.86.39Z"/><path d="M238.26,49.16c-2.77,9-10.6,12.62-20,9.74L208.73,56l9-29.22,9.55,2.93C236.64,32.56,241.05,40.13,238.26,49.16ZM219.49,55c6.89,2.11,11.8-.7,13.85-7.34s-.38-11.94-7.27-14.07l-4.75-1.46-6.58,21.41Z"/><path d="M268.42,51.6,257.9,46.09,253.73,54,263.09,59l-1.9,3.61-9.36-4.9L247.48,66,258,71.48l-1.91,3.63-15-7.84,14.22-27.14,15,7.84Z"/><path d="M292.71,87.34l-4.08-3.75-8.4,9.12-3.68-3.4,20.7-22.48L305,74c5.33,4.91,5.15,10.37,1.79,14C303.85,91.2,298.57,92.73,292.71,87.34Zm2.78-3c2.87,2.65,5.44,2.45,7.52.18s2.11-4.88-.77-7.52l-4.07-3.75-6.77,7.34Z"/><path d="M328.27,99.65c4.38,5.78,3.2,11.14-.76,14.15a8.71,8.71,0,0,1-11.26-.37l-5.53,13.68-3.61-4.77,5.5-13-2.32-3-9.74,7.38-3-4,24.37-18.45ZM325,102.12l-3.35-4.42-8.17,6.19,3.36,4.41c2.35,3.12,5.14,3.22,7.56,1.39S327.36,105.24,325,102.12Z"/><path d="M321.27,147.52A15.65,15.65,0,1,1,342.1,155,15.32,15.32,0,0,1,321.27,147.52Zm4-1.85c2.58,5.5,8.44,7.6,14.69,4.67s8.28-8.76,5.7-14.26-8.35-7.65-14.61-4.71S322.64,140.17,325.22,145.67Z"/><path d="M359.6,160.43l5.12,20.72-4,1-2-7.91-25.73,6.36-1.2-4.88,25.73-6.35-2-7.94Z"/><path d="M363.91,211.63,363,199.77l-9,.7.82,10.54-4.08.32L350,200.78l-9.36.73.92,11.85-4.09.32-1.31-16.86,30.57-2.37L368,211.32Z"/><path d="M367.66,225l-.25,5-30.51-1.53.25-5Z"/><path d="M361.47,268.89l-30-6,1-4.91,25.33-10.27-22.35-4.51,1-4.91,30,6.05-1,4.91-25.29,10.27,22.31,4.5Z"/><path d="M326.87,291.65l5.1-11.74-4.85-4.5,2.08-4.81,23.72,22.25-2.32,5.33L318.16,296l2.11-4.83Zm19.33,1.44-11-10.26-4,9.16Z"/><path class="cls-1" d="M265.84,207.24c-12.77-16-46.33-18.73-55,1.52-3.81-5.44-10-9.44-16-11.56-15.46-5.45-30-1.12-41.08,9.6.05-.78.16-1.5.16-2.29,0-13.42-.4-29,4.51-41.9,3.65,3.65,10.31,5.17,14.57,5,10.86-.49,21.14-1.38,25.48-12.91,4.08-10.81-.65-23.32-8.15-31.35-5.31-5.66-7.29-5.83-15-5.37a188.75,188.75,0,0,0-22.64,2.18c-12.51,2.24-22.88,21.42-28.89,31.68-17.92,30.54-34.39,64.07-37,99.86A2.2,2.2,0,0,0,88,253.6c47.34,31.16,117.29,38,166.77,7.08C272.75,249.41,280.06,225.07,265.84,207.24Z"/><path d="M202.68,237.94c-7.13,6.28-13.6,9-23.09,8.38-9.06-.57-17.44-1.86-25.07-7-2.39-1.61-4.6,2.23-2.24,3.84,9,6.09,19.5,7.46,30.19,7.78,9.45.26,16.33-3.63,23.34-9.84C208,239.17,204.82,236.06,202.68,237.94Z"/><path d="M161.18,220.91c2-4,5.83-6.31,9.53-8.54,2.45-1.48.22-5.31-2.24-3.84-4.35,2.62-8.75,5.48-11.12,10.14C156.05,221.22,159.89,223.46,161.18,220.91Z"/><path d="M175.6,210.06c2.88,0,2.88-4.44,0-4.44S172.75,210.06,175.6,210.06Z"/></svg>