<svg id="Capa_1" data-name="Capa 1" xmlns="http://www.w3.org/2000/svg" viewBox="0 0 370 370"><defs><style>.cls-1{fill:#fff;}</style></defs><path d="M311.45,215.87A140.13,140.13,0,1,1,171.32,75.74,140.14,140.14,0,0,1,311.45,215.87Z"/><path d="M32.28,130.62c-3.15,5.15-8.39,7.37-12.94,4.59l2.78-4.52c2.21,1.11,4.83.68,6.61-2.25s1.25-5.59-.93-6.94c-6.21-3.8-10.55,12.31-20,6.5-4.51-2.76-5.12-8.08-1.89-13.33,3-4.91,7.73-6.79,12.36-4.47l-2.85,4.66c-1.83-.92-4.36-.38-6.07,2.23-1.57,2.4-1.54,5,.94,6.53,5.8,3.56,10.53-12.26,19.92-6.5C34,119.48,35.8,124.89,32.28,130.62Z"/><path d="M17.15,98.76l3-3.91L44,113.43,41,117.33Z"/><path d="M44.05,69.37,65.34,90.89l-3.52,3.49L35.33,88.82,51.2,104.88l-3.51,3.48L26.39,86.84l3.53-3.49,26.45,5.52-15.85-16Z"/><path d="M91.48,66.15l-10.9,6.36,1.22,6.41-4.46,2.6L71.47,50l5-2.88L101,67.76l-4.51,2.62ZM77,53.73l2.78,14.6,8.51-5Z"/><path d="M113.24,34.91l-5.3,25.62,13.14-5,1.53,4L104,66.64,102.61,63l5.26-25.6-13.1,5-1.53-4,18.63-7.08Z"/><path d="M121.15,28.56l4.84-1,3.8,18.84c.92,4.59,4,6.23,8,5.41s6.28-3.52,5.36-8.11l-3.8-18.84,4.84-1L148,42.65c1.51,7.53-3.21,12.2-9.38,13.45s-12.2-1.26-13.71-8.79Zm13.79-13.67.83,4.13-8.46,6.53L126.59,22Z"/><path d="M169.21,22c6.29-.11,11.75,3,14.14,8.84l-5.94.09a8.39,8.39,0,0,0-8.14-4.6c-6,.09-10.25,4.41-10.14,11.21s4.51,11,10.49,10.95a8.42,8.42,0,0,0,8-4.85l5.95-.1c-2.21,5.94-7.59,9.15-13.87,9.24a15.05,15.05,0,0,1-15.64-15.15A15.07,15.07,0,0,1,169.21,22Z"/><path d="M207.49,50.05l-12.42-2.2-3.21,5.69-5.08-.91,15.9-27.82,5.63,1,5.36,31.59-5.12-.91ZM204.44,31.2l-7.3,12.92,9.69,1.72Z"/><path d="M237.85,34c6.74,2.48,8.62,7.57,6.93,12.18a8.6,8.6,0,0,1-9.55,5.72L238,66.24l-5.56-2L230,50.46l-3.56-1.3-4.15,11.36-4.66-1.71L228,30.42Zm-1.39,3.8-5.15-1.88-3.48,9.52L233,47.33c3.64,1.33,6-.07,7-2.89S240.09,39.15,236.46,37.81Z"/><path d="M269.94,53.64,259.64,48l-4.25,7.79,9.16,5-1.95,3.55-9.15-5L249,67.47l10.29,5.62-1.93,3.55-14.65-8,14.51-26.55,14.64,8Z"/><path d="M269.71,85.84c-4.8-3.65-6.52-9.09-3.29-13.35l4.22,3.2c-1.31,2.1-1.14,4.75,1.59,6.82s5.46,1.79,7-.26c4.41-5.81-11.22-11.71-4.5-20.57,3.19-4.23,8.54-4.31,13.45-.59,4.62,3.48,6,8.37,3.26,12.75l-4.37-3.3c1.1-1.73.81-4.3-1.63-6.26-2.24-1.79-4.84-2-6.6.29C274.73,70,290,76.26,283.37,85.06,280.65,88.67,275.08,89.89,269.71,85.84Z"/><path d="M306.65,113.48l-8-9.79-6.16,2.24-3.28-4,30.26-10.81,3.63,4.43-16.52,27.56-3.31-4Zm10-16.34-14,5.07,6.25,7.63Z"/><path d="M347.09,133.75l-26.54,14.49-2.38-4.34L330.82,120,311,130.81l-2.38-4.35L335.2,112l2.37,4.35L325,140.19l19.76-10.8Zm-.34-16.42c1.13,2.07-.09,3.82.74,5.35a1.83,1.83,0,0,0,2.5.76l1.33,2.44c-3.24,1.23-5.6.35-6.82-1.87-1.12-2.05.14-3.84-.7-5.36a1.88,1.88,0,0,0-2.54-.75l-1.33-2.44C343.18,114.23,345.54,115.13,346.75,117.33Z"/><path d="M334.44,169l-4-12-6.55-.14-1.62-4.92,32.16.82,1.8,5.45-25.39,19.77-1.62-5Zm15.23-11.66L334.76,157l3.09,9.38Z"/><path d="M349.93,205.35c-9.21,1.26-15.7-4.25-17-13.85l-1.34-9.76,29.9-4.09,1.34,9.77C364.13,197,359.18,204.09,349.93,205.35Zm-13-14.39c1,7,5.53,10.29,12.32,9.35S359.78,195,358.82,188l-.67-4.87-21.9,3Z"/><path d="M364.77,211.33l.09,4.93-30.14.48-.07-5Z"/><path d="M346.88,250.56c-9.24-1.08-14.17-8.05-13.05-17.68l1.15-9.81,30,3.51-1.15,9.8C362.73,246,356.16,251.64,346.88,250.56Zm-9-17.21c-.83,7.08,2.79,11.35,9.62,12.15S359,243,359.84,235.92l.57-4.89-22-2.56Z"/><path d="M326.59,265.75a15.44,15.44,0,1,1,10,19.41A15.12,15.12,0,0,1,326.59,265.75Zm4.1,1.32c-1.84,5.71,1,11.17,7.46,13.25s11.87-.74,13.71-6.46-.9-11.13-7.39-13.22S332.52,261.37,330.69,267.07Z"/><path d="M315.14,292.78c2.85-5.33,7.94-7.87,12.66-5.34l-2.5,4.67c-2.29-1-4.87-.39-6.49,2.64s-.92,5.67,1.35,6.87c6.43,3.46,9.82-12.92,19.63-7.67,4.68,2.5,5.6,7.77,2.69,13.22-2.72,5.09-7.34,7.25-12.1,5.2l2.58-4.83c1.88.82,4.38.13,5.93-2.59,1.42-2.49,1.24-5.1-1.33-6.48-6-3.21-9.8,12.9-19.53,7.69C314,304,312,298.72,315.14,292.78Z"/><polygon class="cls-1" points="243.43 152 235.9 156.66 206.59 174.79 206.59 272.36 206.59 279.07 248.58 253.07 248.58 148.8 243.43 152"/><path class="cls-1" d="M206.58,280.28a1.18,1.18,0,0,1-1.21-1.21V174.79a1.2,1.2,0,0,1,.58-1l42-26a1.18,1.18,0,0,1,1.24,0,1.23,1.23,0,0,1,.63,1.07V253.07a1.22,1.22,0,0,1-.59,1.05l-42,26A1.16,1.16,0,0,1,206.58,280.28Zm1.23-104.81v101.4l39.54-24.46V151Z"/><polygon class="cls-1" points="230.07 146.37 141.05 146.37 108.46 166.54 102.81 170.04 202.67 170.04 205.84 168.07 240.89 146.37 230.07 146.37"/><path class="cls-1" d="M202.67,171.26H102.81a1.22,1.22,0,0,1-.64-2.26l38.24-23.67a1.31,1.31,0,0,1,.64-.18h99.84a1.23,1.23,0,0,1,.64,2.27l-38.21,23.66A1.25,1.25,0,0,1,202.67,171.26Zm-95.57-2.44h95.21l2.89-1.8,31.38-19.42H141.39Z"/><polygon class="cls-1" points="95.12 176.15 95.12 277.99 95.12 281.49 200.49 281.49 200.49 176.15 195.32 176.15 95.12 176.15"/><path class="cls-1" d="M200.49,282.72H95.12a1.22,1.22,0,0,1-1.21-1.23V176.15a1.22,1.22,0,0,1,1.21-1.23H200.49a1.23,1.23,0,0,1,1.21,1.23V281.49A1.23,1.23,0,0,1,200.49,282.72ZM96.35,280.26H199.26V177.37H96.35Z"/><path d="M167.49,188.75c1.72.58,3.46,0,3.91-1.33s-.56-2.84-2.27-3.43-3.44,0-3.89,1.33S165.8,188.17,167.49,188.75Z"/><path d="M182.6,188.36c2.28,1.76,4.84,2.28,5.68,1.19s-.31-3.42-2.6-5.18-4.85-2.28-5.69-1.17S180.31,186.62,182.6,188.36Z"/><path d="M174.18,200.94c-1.9-.66-3-2.31-2.56-3.71s2.41-2,4.3-1.33,3,2.32,2.56,3.7S176.06,201.58,174.18,200.94Z"/><path d="M188,199.55c-1.15-.4-1.84-1.39-1.55-2.24a2.3,2.3,0,1,1,1.55,2.24Z"/><path d="M156.19,184.51a1.59,1.59,0,1,1-1.58-1.58A1.58,1.58,0,0,1,156.19,184.51Z"/><path d="M185.73,210.59a1.59,1.59,0,1,1-3.18,0,1.59,1.59,0,1,1,3.18,0Z"/></svg>