<svg id="Capa_1" data-name="Capa 1" xmlns="http://www.w3.org/2000/svg" viewBox="0 0 370 370"><defs><style>.cls-1{fill:#fff;}.cls-2{fill:none;}</style></defs><path d="M314.48,216.89A142.19,142.19,0,1,1,172.3,74.71,142.19,142.19,0,0,1,314.48,216.89Z"/><path d="M129.54,57c-5.92,1.59-11.36-.42-12.76-5.68l5.2-1.38c.86,2.37,3.1,3.87,6.46,3s4.85-3.27,4.17-5.78c-1.92-7.16-16.4,1.71-19.33-9.21-1.4-5.2,1.87-9.55,7.93-11.18,5.66-1.51,10.47.4,12.26,5.35l-5.38,1.44c-.7-1.95-2.94-3.31-6-2.58-2.84.66-4.65,2.62-3.88,5.48,1.79,6.69,16.36-1.7,19.27,9.13C138.64,50,136.15,55.21,129.54,57Z"/><path d="M145.4,22.23l5-.62,3.8,30.46-5,.61Z"/><path d="M189.91,20.91l-.83,30.62-5-.14L169.6,28.14,169,51l-5-.14.83-30.63,5,.14,14.47,23.21.62-22.8Z"/><path d="M227.52,28.27l-7.61,25.51,9.93,3-1.16,3.89-14.75-4.4,8.76-29.39Z"/><path d="M254.93,65.87,243.47,60.1l-4.78,4.61L234,62.36l23.58-22.49,5.19,2.6-3.95,32.35-4.74-2.37Zm2.53-19.26L246.57,57.08l8.94,4.48Z"/><path d="M295.79,63.7c5,4,7.23,10,5.3,16.09L296.39,76A8.55,8.55,0,0,0,293,67.13c-4.73-3.81-10.88-3.21-15.21,2.17s-3.64,11.54,1.09,15.35a8.58,8.58,0,0,0,9.39,1.41L293,89.83c-5.57,3.2-11.85,2.22-16.82-1.79A15.63,15.63,0,0,1,295.79,63.7Z"/><path d="M316,82.59,329.71,99l-3.13,2.64-5.24-6.25L301,112.4l-3.22-3.86,20.32-17-5.26-6.28Z"/><path d="M317.52,137.58a15.68,15.68,0,1,1,21.28,6.21A15.35,15.35,0,0,1,317.52,137.58Zm3.83-2.1c2.91,5.35,8.91,7.11,15,3.78s7.76-9.26,4.84-14.61-8.83-7.14-14.91-3.82S318.43,130.14,321.35,135.48Z"/><path d="M330.61,168.71c-1.78-5.86.05-11.33,5.24-12.91l1.56,5.14c-2.34.94-3.77,3.21-2.75,6.54s3.4,4.72,5.89,4c7.07-2.15-2.24-16.29,8.55-19.57,5.14-1.56,9.58,1.55,11.39,7.53,1.7,5.6,0,10.46-4.92,12.4L354,166.5c1.93-.77,3.22-3.05,2.38-6.11-.76-2.81-2.76-4.54-5.58-3.68-6.61,2,2.22,16.25-8.48,19.5C337.89,177.55,332.59,175.24,330.61,168.71Z"/><path d="M344.09,205.38l-1.35-12.76-6.45-1.54-.55-5.21,31.65,7.71.61,5.78-29.36,14.12-.55-5.26Zm17.56-8.27L347,193.6l1,9.94Z"/><path class="cls-1" d="M221.14,119.65h0a13.06,13.06,0,0,0-13-13H144a13.06,13.06,0,0,0-13,13h0a13,13,0,0,0,13,13h6.23v17.68l-27.88,31.58V295.35s-4.67,19.51,19.51,19.51h68.78s13-2.8,13-18.59V181.93L203.22,152.2V132.67h6.67S221.14,132.67,221.14,119.65Z"/><path class="cls-1" d="M210.65,316.09H141.87c-8.32,0-14.3-2.25-17.76-6.66-4.55-5.73-3.2-13.05-3-14.22V181.93a1.15,1.15,0,0,1,.32-.78L149,149.88v-16h-5a14.25,14.25,0,0,1,0-28.49H208.1a14.25,14.25,0,0,1,14.25,14.24c0,14.07-12.34,14.25-12.46,14.25h-5.48v17.94l20.23,29.41a1.08,1.08,0,0,1,.22.68V296.27c0,16.58-13.84,19.76-14,19.76A1.29,1.29,0,0,1,210.65,316.09ZM123.56,182.41V295.35a1.66,1.66,0,0,1,0,.28c0,.06-1.62,7.12,2.5,12.32,3,3.77,8.34,5.69,15.86,5.69H210.5c1.33-.29,11.94-3.38,11.94-17.37V182.33l-20.22-29.45a1.06,1.06,0,0,1-.21-.68V132.67a1.18,1.18,0,0,1,1.21-1.18h6.67c.43,0,10-.21,10-11.84a11.82,11.82,0,0,0-11.82-11.82H144a11.83,11.83,0,0,0,0,23.66h6.23a1.18,1.18,0,0,1,1.19,1.18v17.68a1.3,1.3,0,0,1-.28.78Z"/><path class="cls-1" d="M117.94,162.09s-29.73,32.53-29.73,59.47,29.73,23.24,29.73,23.24,27,.34,27-21.37C144.91,197.4,117.94,162.09,117.94,162.09Z"/><path d="M114.38,246.19c-8.25,0-27.37-2.41-27.37-24.63,0-27.1,28.83-58.95,30.06-60.3a1.23,1.23,0,0,1,.93-.38,1.16,1.16,0,0,1,.91.47c1.12,1.47,27.19,36,27.19,62.08,0,9.18-4.69,16-13.62,19.71A41.19,41.19,0,0,1,118,246,31.14,31.14,0,0,1,114.38,246.19Zm3.5-82.19c-5.11,5.91-28.45,34.13-28.45,57.56,0,25.56,28.34,22.06,28.34,22.06a40.82,40.82,0,0,0,13.78-2.71c8.07-3.35,12.14-9.2,12.14-17.48C143.69,200.75,122.49,170.35,117.88,164Z"/><path d="M123.61,234.17h0a1.22,1.22,0,0,1-1.23-1.21,1.24,1.24,0,0,1,1.22-1.22s5.88-.06,9.12-4.54c2.89-4,3.07-10.16.48-18.46a1.19,1.19,0,0,1,.8-1.51,1.24,1.24,0,0,1,1.51.8c2.84,9.07,2.54,16-.85,20.62C130.67,234.11,123.88,234.17,123.61,234.17Z"/><line x1="193.47" y1="162.09" x2="210.74" y2="186.51"/><path d="M210.74,187.72a1.21,1.21,0,0,1-1-.53l-17.29-24.4a1.21,1.21,0,0,1,.29-1.68,1.22,1.22,0,0,1,1.71.29l17.27,24.41a1.24,1.24,0,0,1-.29,1.68A1.19,1.19,0,0,1,210.74,187.72Z"/><path class="cls-2" d="M210.74,199.58v86.74s1.56,14.23-18.81,14.23"/><path d="M191.93,301.73a1.19,1.19,0,0,1-1.21-1.18,1.21,1.21,0,0,1,1.21-1.22c6.92,0,11.89-1.65,14.84-4.93a11.19,11.19,0,0,0,2.78-7.95V199.58a1.2,1.2,0,0,1,1.19-1.23,1.21,1.21,0,0,1,1.22,1.23v86.74a13.49,13.49,0,0,1-3.4,9.67C205.15,299.81,199.57,301.73,191.93,301.73Z"/></svg>