<svg id="Capa_1" data-name="Capa 1" xmlns="http://www.w3.org/2000/svg" viewBox="0 0 370 370"><defs><style>.cls-1{fill:#fff;}</style></defs><ellipse cx="171.95" cy="217.34" rx="142.66" ry="142.65"/><path class="cls-1" d="M101.65,222.4a1.46,1.46,0,0,1,1.77-2.28c17.14,9.17,26,29.63,33.26,46.7a206.55,206.55,0,0,1,9.4,27.16c6.19-11.18,12-40.82-2.35-67.4C126.54,194.74,71,165.9,71,165.9S65.64,230,81.84,260c14.32,26.46,45.34,38.82,57.08,38.9C132.06,270.82,121.76,243.48,101.65,222.4Z"/><path class="cls-1" d="M138.92,300.3h0c-13.3-.07-44.13-13.36-58.3-39.62-16.21-30-11.24-92.26-11-94.89a1.55,1.55,0,0,1,.72-1.11,1.38,1.38,0,0,1,1.31,0c2.3,1.19,56.15,29.41,73.36,61.25,15.07,28,8.07,58.4,2.3,68.74a1.36,1.36,0,0,1-1.39.72,1.44,1.44,0,0,1-1.17-1,206,206,0,0,0-9.28-27c-7-16.48-15.73-37-32.67-46,17.34,18.37,28.94,42.18,37.5,77.22a1.46,1.46,0,0,1-.27,1.21A1.41,1.41,0,0,1,138.92,300.3ZM72.22,168.14c-.73,11.35-3.32,65,10.84,91.22,12.84,23.78,40.79,36.86,54.06,38.08-8.4-33.57-19.69-56.47-36.49-74.08a2.8,2.8,0,0,1-.55-3.05,2.93,2.93,0,0,1,4-1.44c17.83,9.54,26.73,30.55,33.94,47.41A213,213,0,0,1,146.42,290c5-12.09,9.28-38.38-3.9-62.78C127.47,199.42,82.05,173.51,72.22,168.14Z"/><path class="cls-1" d="M187.4,216.57C163,240.13,158.27,273.45,160.6,289a236.9,236.9,0,0,1,14-22.8c14.86-21.43,35.4-34.9,58.52-46.19a1.41,1.41,0,0,1,1.42,2.43c-23.49,14-42.75,29.71-56.56,53.69-4.2,7.3-8,14.79-11.65,22.37,12.21,4.47,52.28,2.14,78.06-22.74C273,248.13,289.86,174.9,289.86,174.9S217.82,187.26,187.4,216.57Z"/><path class="cls-1" d="M180.31,301.69c-6,0-11.08-.67-14.46-1.9a1.38,1.38,0,0,1-.79-1.92c4.15-8.69,7.87-15.81,11.7-22.44,12.38-21.54,29.44-37.75,57-54.22-18.56,9-41.84,22.35-58.09,45.73a250.7,250.7,0,0,0-13.89,22.69,1.32,1.32,0,0,1-1.46.69,1.3,1.3,0,0,1-1.14-1.14c-2.47-16.65,2.71-50,27.21-73.64,30.38-29.24,100.24-41.52,103.2-42a1.4,1.4,0,0,1,1.24.45,1.29,1.29,0,0,1,.34,1.26c-.68,3-17.23,73.93-45.88,101.52C226.25,295.14,199.24,301.69,180.31,301.69Zm-12.05-4.06a48.08,48.08,0,0,0,12.05,1.29c18.37,0,44.62-6.36,63.11-24.19,25.34-24.42,41.59-86,44.59-98.07-12,2.32-72.75,15-99.66,40.91-21.73,21-27.8,49.78-26.82,66.83,3.86-6.86,7.87-13.24,11.89-19.06,16.63-23.88,40.28-37.47,59-46.6a2.9,2.9,0,0,1,4,1.79,2.71,2.71,0,0,1-1.27,3.07c-27.15,16.22-43.9,32.11-56.06,53.19C175.58,283,172.12,289.65,168.26,297.63Z"/><path d="M209.18,23.6l5.26.77L198.6,53.16l-5.78-.85-7.07-32.09,5.34.78,5.37,26.62Z"/><path d="M241.77,37.14l-11.32-3.79-2.86,8.55,10,3.36-1.3,3.9L226.28,45.8l-3,8.92,11.31,3.79-1.31,3.9L217.21,57,227,27.85l16.09,5.39Z"/><path d="M277.27,60.61l-5.28-3a8.72,8.72,0,0,0-4.87-8.09c-5.31-3-11.29-1.4-14.62,4.49s-1.63,11.87,3.69,14.87c4.85,2.74,9.54,1.53,12.73-2.6l-10.05-5.67,2-3.51,14.75,8.32-1.93,3.43a15.17,15.17,0,0,1-19.73,4A15.34,15.34,0,0,1,248,51.49a15.36,15.36,0,0,1,21.37-5.94C275,48.7,278.18,54.22,277.27,60.61Z"/><path d="M291.65,92.8,282,84.23l-5.83,3.22L272.29,84,301,68.3l4.35,3.88-12.26,30.31-4-3.53Zm7.45-18-13.27,7.32,7.5,6.68Z"/><path d="M338.12,110.46l-24.77,18.33-3-4,9.44-25.89-18.48,13.68-3-4,24.77-18.34,3,4-9.39,25.86,18.43-13.65Z"/><path d="M323.67,149.93a15.71,15.71,0,1,1,20.75,7.94A15.39,15.39,0,0,1,323.67,149.93Zm4-1.77c2.49,5.56,8.32,7.81,14.66,5s8.5-8.63,6-14.19-8.22-7.85-14.56-5S325.2,142.59,327.67,148.16Z"/></svg>