<svg id="OBJECT" xmlns="http://www.w3.org/2000/svg" viewBox="0 0 229.41 226.94"><defs><style>.cls-1,.cls-2{fill:#161616;}.cls-1{stroke:#161616;stroke-miterlimit:10;}</style></defs><path class="cls-1" d="M144.11,48.51c.9-.37,1.12-.29,1.27.53a8.34,8.34,0,0,1,.09,1.42c0,.36,0,.73,0,1.19,1.1-1.07,2.14-2,3.15-3A32.94,32.94,0,0,1,155,43.79a5.19,5.19,0,0,1,.81-.42.72.72,0,0,1,1,.69,10.85,10.85,0,0,1-.16,1.49l2.16-.93a39,39,0,0,1,7.84-2.53c.66-.15,1.31-.36,2-.52.87-.22,1.34.23,1.1,1.1A14.6,14.6,0,0,1,167.57,47c-.62.9-1.32,1.73-2,2.59l-.71.92a10.69,10.69,0,0,1,1,.37c1,.43,1.13.95.45,1.73a33,33,0,0,1-2.89,3,21.88,21.88,0,0,1-4.58,3l-.78.44c.38.24.7.41,1,.63a4.09,4.09,0,0,1,.87.84.91.91,0,0,1-.23,1.35,2,2,0,0,1-.52.32,28.31,28.31,0,0,1-8.63,2.63c-2.54.25-5.07.6-7.59,1a41.87,41.87,0,0,0-4.67,1,7.29,7.29,0,0,0-2,1c-.95.62-1.2.58-1.92-.33A19.43,19.43,0,0,0,133,66.08a7.27,7.27,0,0,1-1.12-1.17c-1.27-2.09-2.49-4.21-3.71-6.33a13.19,13.19,0,0,1-.7-1.47c-.38-.9-.31-1.09.51-1.64-.11-1.47-.24-2.93-.34-4.38a14.21,14.21,0,0,1,.84-5.81c.2-.54.39-1.08.59-1.63.34-.91.51-1,1.4-.39.51-1.21,1-2.43,1.54-3.63a54.05,54.05,0,0,1,4.26-7.52c.49-.74.9-.67,1.3.07.88-1,1.8-2.07,2.69-3.13a10,10,0,0,0,.69-1,5.11,5.11,0,0,1,.35-.61c.36-.42.8-.32,1,.2.07.22.12.46.17.69a10.7,10.7,0,0,0,.27,1.5,15.71,15.71,0,0,1,.54,6.17c-.09,1.14-.35,2.28-.53,3.42l-.08.62c.55-.32,1-.59,1.45-.83.77-.4,1.2-.17,1.18.69a27.25,27.25,0,0,1-.29,3.25c-.25,1.67-.59,3.33-.89,5A1.41,1.41,0,0,0,144.11,48.51Zm9.37,5a8.18,8.18,0,0,0-1,.47,48,48,0,0,0-7.39,5.44c-.18.17-.35.35-.62.63l4.12.2a1,1,0,0,1,.4,0,.5.5,0,0,1,.21.3.3.3,0,0,1-.17.23,2,2,0,0,1-.6.06c-1.29,0-2.58-.06-3.87-.15a2,2,0,0,0-1.68.52c-1.07,1-2.18,2-3.27,2.93a7.35,7.35,0,0,0-.49.6l.67-.12a22.65,22.65,0,0,1,5.44-.75,38.24,38.24,0,0,0,4.27-.27c1.25-.13,2.5-.31,3.72-.56a30.15,30.15,0,0,0,5.2-2,3.53,3.53,0,0,0-.63-.41c-.36-.12-.73-.18-1.08-.29s-1.17-.1-1.26-.82.54-.86,1-1.09.81-.34,1.21-.52a18.32,18.32,0,0,0,7-5c.23-.27.43-.57.66-.89-1.91-.58-1.91-.58-2.28-1.05.33-.44.64-.92,1-1.35A23.71,23.71,0,0,0,167.34,45a8.13,8.13,0,0,0,.32-.84c-1.2.88-2.2,1.69-3.29,2.39-3.33,2.15-6.7,4.26-10.05,6.39a9.42,9.42,0,0,0-.86.67ZM141.4,29.07c-1.53,2.74-4.23,12.21-4.39,15.27.8-1,1.42-2.22,2.71-2.81a1.8,1.8,0,0,1-.31.82c-.25.36-.53.7-.8,1a13,13,0,0,0-1.79,2.3,12.07,12.07,0,0,0-.65,2.85,28.84,28.84,0,0,0-.29,6.2c1.78-4.11,3.31-6.68,4.48-7.3-.29.53-.46.88-.67,1.2A23.6,23.6,0,0,0,137,54.1a6.18,6.18,0,0,0-.52,2.47c0,.06-.06.12-.09.2h-.51v7.38a1.71,1.71,0,0,0,.37-.63A43.82,43.82,0,0,1,140,55.85a28.53,28.53,0,0,0,1.66-3,34.1,34.1,0,0,0,2.12-6.77,20.16,20.16,0,0,0,.63-6.23c-.52.45-1,.79-1.36,1.18-.22.21-.32.53-.54.74a1,1,0,0,1-.67.31c-.34-.06-.4-.4-.36-.73.13-1.25.2-2.51.38-3.75a33,33,0,0,0-.16-5.8C141.66,30.9,141.5,30,141.4,29.07ZM134,40.19c.33-.24.55-.19.67.14.21.54.39,1.08.6,1.62.11.29.24.57.43,1A64.4,64.4,0,0,1,139,32.37c-.88.61-.77,1.81-1.7,2.14-.64-.26-.55-.83-.7-1.48-.69,1.17-1.29,2.18-1.88,3.2a32.41,32.41,0,0,0-2.79,6.22,12.37,12.37,0,0,0-.39,2.59c0,.4-.06.78-.47.93s-.76-.12-1-.51c-.09-.17-.19-.32-.37-.61a12.44,12.44,0,0,0-.75,3.49,19.59,19.59,0,0,0,1,7.74,2.55,2.55,0,0,1,.19,1.18c-.05.32-.37.59-.61,1L131.73,62a11.38,11.38,0,0,1,.84,1.52,8,8,0,0,0,2.29,2.75c0-.56,0-1,0-1.36,0-2.1,0-4.21,0-6.32,0-.85-.21-1.7-.17-2.54a4.63,4.63,0,0,0-.74-2.7c-.36-.58-.73-1.14-1.11-1.71-.27-.41-.55-.81-.89-1.31.87-.15,1,.55,1.33.89s.74.83,1.21,1.35a36.42,36.42,0,0,1,.83-7.34,2.85,2.85,0,0,0-.11-1.48C134.79,42.55,134.42,41.36,134,40.19Zm21.25,4.94-.73.47a54.45,54.45,0,0,0-8.33,7.2,10.68,10.68,0,0,1-1.06,1,.65.65,0,0,1-1.13-.41,3.22,3.22,0,0,1,0-.82c.06-.64.13-1.27.21-2-.14.11-.24.16-.28.24-1.17,2.1-2.27,4.22-3.59,6.25A41.69,41.69,0,0,0,137.92,62c-.35.75-.66,1.52-1.08,2.5l3.63-3.21c-.12-.15-.23-.29-.32-.42a.86.86,0,0,1,.17-.21,1.28,1.28,0,0,1,.37-.14,5.47,5.47,0,0,0,2.67-1.39c.4-.31.84-.58,1.21-.93a3.81,3.81,0,0,0,.86-1.1c.41-.92.7-1.9,1.08-2.84.16-.38.16-.87.78-1.16a4,4,0,0,1,0,.93c-.13.52-.33,1-.51,1.54l-.44,1.26c1.15-.71,2.18-1.32,3.17-2a2.93,2.93,0,0,0,.79-.78,12.23,12.23,0,0,0,.78-1.31c.66-1.22,1.32-2.45,2-3.66a2,2,0,0,1,1.08-1.1,12.12,12.12,0,0,1-1.27,2.86c-.39.89-.86,1.75-1.39,2.82,5.43-3.22,10.7-6.25,15.35-10.23a16,16,0,0,0-1.59.34,44.32,44.32,0,0,0-9.57,3.4c-.16.08-.46.13-.55,0a.79.79,0,0,1-.22-.6C155,46.18,155.12,45.76,155.29,45.13Z"/><path class="cls-1" d="M136.72,152.27c1,.48,1.94.92,2.88,1.44a17,17,0,0,1,2.23,1.44,4.84,4.84,0,0,1,1.19,1.36c.66,1.11.12,2-1.18,1.92a5.38,5.38,0,0,1-2.74-1,4.43,4.43,0,0,1-.79-.64c-.82-.82-1.64-1.64-2.44-2.48-.23-.25-.62-.49-.27-1a3.54,3.54,0,0,1,1.29.9c.57.49,1.11,1,1.63,1.55a5.89,5.89,0,0,0,2.83,1.54,8.58,8.58,0,0,0,1.24.09,5.81,5.81,0,0,0-.73-1A19.87,19.87,0,0,0,136,153a1.17,1.17,0,0,0-1.38.29,10.05,10.05,0,0,1-.12,4.12,4,4,0,0,1-.54,1.19c-.86,1.19-1.75,2.35-2.64,3.5a6.48,6.48,0,0,1-4.54,2.45,16.61,16.61,0,0,0-5.52,1.68c-.92.46-1.82.93-2.74,1.37a7.61,7.61,0,0,1-4.44.73c-1.79-.24-3.6-.2-5.4-.3a12.87,12.87,0,0,1-5-1.19,2.14,2.14,0,0,1-1.32-1.77,15.37,15.37,0,0,1,.84-8c1-2.39,1.92-4.78,2.85-7.19a12.46,12.46,0,0,1,4.31-5.57,20.3,20.3,0,0,1,6.82-3.55,12.83,12.83,0,0,1,5.16-.23c.81.11,1.62.18,2.41.36a9.69,9.69,0,0,1,5.23,3c-.16-2.8,1.45-4.62,3.07-6.42.46.06.7.26.57.62-.59,1.63-.19,3.31-.21,5.05l.6-.8.62-.81a13.49,13.49,0,0,1,2.89-3,3.53,3.53,0,0,1,1.09-.52c.67-.15,1,.08,1.24.74a4.47,4.47,0,0,1,.08,2.51c-.17.79-.37,1.58-.58,2.37a5.76,5.76,0,0,1-2.33,3.58c1.06-.12,2-.26,2.88-.32,1.22-.07,2.45-.1,3.67-.09.62,0,1,.38,1.56,1.21a1.29,1.29,0,0,1-.19.32c-.94.89-1.9,1.76-2.83,2.65a5.11,5.11,0,0,1-4,1.56,13.56,13.56,0,0,1-1.4-.22l-2.91-1,.35.72Zm-3.94-3.58c.25.35.5.14.74-.05,1.22-.93,2.45-1.84,3.64-2.8a3.43,3.43,0,0,0,1.15-1.88c.26-1.09.57-2.17.75-3.27a2.8,2.8,0,0,0-.18-2.08,2.69,2.69,0,0,0-1.43.79,19.33,19.33,0,0,0-4.91,6.91c-.15.42-.27.94-.82,1.07-.43-.49-.49-.67-.28-1.15s.41-.71.59-1.07a2,2,0,0,0,.33-.83c0-1.59,0-3.18,0-5a7.21,7.21,0,0,0-1.79,4.11c0,.34.14.77-.35,1,0,0,0,.06,0,.06.1.29.19.55.26.81s0,.57-.31.65-.39-.11-.49-.37a5,5,0,0,0-2.16-2.36,13,13,0,0,0-5.29-1.72,15.81,15.81,0,0,0-3.15-.1,14.73,14.73,0,0,0-6.58,2.54,13.34,13.34,0,0,0-6,7,59.1,59.1,0,0,1-2.41,5.83,15.77,15.77,0,0,0-1.18,7.67,1.64,1.64,0,0,0,1.29,1.71c.43.11.83.3,1.26.41a31.44,31.44,0,0,0,6.27.62c.48,0,1,.09,1.42.13a8.19,8.19,0,0,0,5.06-.7c.88-.51,1.82-.92,2.74-1.36a14.38,14.38,0,0,1,5.66-1.53,4.2,4.2,0,0,0,2.93-1.22c.93-.94,1.83-1.92,2.67-2.94a5.38,5.38,0,0,0,1.15-2.36,8.61,8.61,0,0,0-.51-4.89c-.37-1-.65-2-1-3a2.28,2.28,0,0,1,.16-1.61c.93-2.22,2.67-3.74,4.33-5.34.23-.22.44-.11.57.24-.17.2-.38.42-.57.65-1,1.2-2,2.4-3,3.62a3.76,3.76,0,0,0-.47,1C132.91,148.13,132.86,148.41,132.78,148.69Zm1.28,2.09c1,.29,1.88.59,2.79.81a4.55,4.55,0,0,0,5-1.46c.68-.8,1.45-1.52,2.19-2.29a1.1,1.1,0,0,0-1.13-.43c-1.79.19-3.57.38-5.35.59a9.69,9.69,0,0,0-3.82,1.56c-.46.28-.51.59-.24.89a9.4,9.4,0,0,1,3.86-.62,1.08,1.08,0,0,1,1.09.51C136.94,150.7,135.49,150.16,134.06,150.78Z"/><path class="cls-1" d="M84.82,71.31h3.26A4.94,4.94,0,0,1,92.78,74c.27.47.67.86,1,1.32a16.82,16.82,0,0,1,1,1.85c.31.67.54,1.38.82,2.06a16.51,16.51,0,0,1,1.23,5.21,16.42,16.42,0,0,1,.09,3.14,22.77,22.77,0,0,1-1.25,5.1,25.66,25.66,0,0,1-5.1,8.61c-.87,1-1.7,2-2.6,3a17.74,17.74,0,0,1-1.47,1.26.93.93,0,0,1-1.14.11,30.76,30.76,0,0,0-4-1.61,7.16,7.16,0,0,1-2.11-1.37,28.21,28.21,0,0,0-3.57-2.87,14.28,14.28,0,0,1-5.44-6.93c-.41-1.15-.94-2.26-1.36-3.4A11.79,11.79,0,0,1,71.23,77a26.27,26.27,0,0,1,3.23-2.8c.31-.26.67-.47,1.13-.79-1-.29-1.79-.58-2.64-.8a4.16,4.16,0,0,1-2.31-1.58c-.53-.68-1.56-1-1.67-2.12a13.88,13.88,0,0,1,7.69,1.15,7,7,0,0,0-.78-1.48c-1.41-1.49-1.49-3.36-1.55-5.23,0-.37-.19-.83.23-1.13a54.41,54.41,0,0,1,5.51,6.34,14.07,14.07,0,0,1,.8-5.36A10.91,10.91,0,0,1,83.94,59a.76.76,0,0,1,.37-.15,2.54,2.54,0,0,1,.43.08c0,2.87.56,5.76-.5,8.74,1.1-.58,2-1.07,2.94-1.52a6.1,6.1,0,0,1,1.43-.51c.75-.16,1.12.32.82,1a2.88,2.88,0,0,1-.54.73A19.59,19.59,0,0,1,84.82,71.31ZM86,105c.49-.45,1.14-1,1.69-1.54,1-1.07,1.93-2.2,2.9-3.3a25.07,25.07,0,0,0,4.24-6.68A16.93,16.93,0,0,0,95.77,82c-.47-1.72-1.11-3.4-1.71-5.08a3.87,3.87,0,0,0-.66-1c-.48-.62-1-1.21-1.48-1.82a4.05,4.05,0,0,0-3.33-1.68c-2,0-4-.07-5.92,0a5.58,5.58,0,0,0-3.73,1.13,1,1,0,0,1-.83.19,1.53,1.53,0,0,0-1.81.34c-1,.81-2.11,1.61-3.1,2.49a9.8,9.8,0,0,0-3.67,6.62c-.11,1.39-.08,2.79-.08,4.18a4.46,4.46,0,0,0,.18,1.31c.39,1.22.82,2.43,1.26,3.64a14.44,14.44,0,0,0,5.62,7.17,17.64,17.64,0,0,1,2.7,2.16,9.34,9.34,0,0,0,3.53,2.15ZM84.13,59.93a9.19,9.19,0,0,0-3.2,5.81c-.22,1.69-.2,3.41-.29,5.11l.22,0c.21-1,.43-1.91.64-2.86l.6-2.56a.43.43,0,0,1,.58-.4c-.2,1.54-.4,3-.59,4.52l.18.09a5.68,5.68,0,0,0,.85-1.08,10.59,10.59,0,0,0,1-3.81C84.2,63.23,84.13,61.66,84.13,59.93ZM75.27,64a4.75,4.75,0,0,0,.6,3.32c1,1.69,1.88,3.4,2.83,5.16.34-.22.74-.46,1.14-.7A4.69,4.69,0,0,0,79,68.69C77.83,67.13,76.56,65.63,75.27,64Zm-4.69,5.69c1.13,2.07,4.89,3.13,6.9,3.14A2.08,2.08,0,0,0,76.18,71,13.7,13.7,0,0,0,70.58,69.72Zm12.28,1.56A12.8,12.8,0,0,0,88,66.62a10.46,10.46,0,0,0-3.36,1.66C83.63,69,83.35,70.19,82.86,71.28Z"/><path class="cls-1" d="M155,65.75c1,.08,2,.14,3.08.26a4.7,4.7,0,0,1,3,1.45c.82.87,1.19,2.09,2,3,.15.16.14.51.15.78a24.81,24.81,0,0,1,0,2.86,8.79,8.79,0,0,1-1.62,4.54q-1.33,1.8-2.76,3.54a4.4,4.4,0,0,1-1.2,1.08,12.62,12.62,0,0,1-6.9,1.82,4.58,4.58,0,0,1-1.76-.45,10.62,10.62,0,0,1-3.75-3.24A7.57,7.57,0,0,1,144.11,76c.23-2.39,1.42-4.34,2.65-6.31a8.26,8.26,0,0,1,5.67-3.79A18.07,18.07,0,0,1,155,65.75Zm7.05,6.58a3.81,3.81,0,0,0-1.14-3,4,4,0,0,0-2.72-1.63,36,36,0,0,0-5-.18,5.88,5.88,0,0,0-4.94,2.79c-.2.31-.42.61-.63.92a11.27,11.27,0,0,0-2,6.1c-.08,2.91,2.46,5,4.54,5.78a1.43,1.43,0,0,0,.5.09,11.63,11.63,0,0,0,6.8-1.81C160.58,79.38,162,76.4,162.09,72.33Z"/><path class="cls-1" d="M161,152a3.32,3.32,0,0,0-2.51,2.78,12.52,12.52,0,0,0,.8,8.27,6.41,6.41,0,0,0,5.17,3.71,9.52,9.52,0,0,0,9.75-4.4,10.07,10.07,0,0,0,1.5-7.13,5,5,0,0,0-3-3.89,13.63,13.63,0,0,0-5.72-1.3,8.16,8.16,0,0,0-3.21.47c-.15.06-.32.18-.47.16a2.32,2.32,0,0,1-.6-.23c.11-.16.18-.41.32-.46a12.41,12.41,0,0,1,2.89-.91,13.92,13.92,0,0,1,7.17,1.14A6.22,6.22,0,0,1,177,156a11.48,11.48,0,0,1-2.24,7.78c-2.82,3.59-6.49,5.21-11.06,4.31a7.52,7.52,0,0,1-6-5.3,13.85,13.85,0,0,1-.22-7.94,4.43,4.43,0,0,1,1.64-2.63,5.28,5.28,0,0,1,1.37-.6c.13,0,.33.13.49.2Z"/><path class="cls-1" d="M105,174a3,3,0,0,1,2.1-.93c4.28-.43,7.53,2.72,8.73,5.65a7.55,7.55,0,0,1,.42,5,7,7,0,0,1-1.73,2.85,13.26,13.26,0,0,1-9.42,4.48A6.51,6.51,0,0,1,99,188.3a7.11,7.11,0,0,1-1.13-4.67,21.86,21.86,0,0,1,1-5.49,9.51,9.51,0,0,1,3.21-4.62,8.54,8.54,0,0,1,1.69-.9,1.31,1.31,0,0,1,1.28.07c-.11.12-.16.23-.23.25a6.11,6.11,0,0,0-4,3A13.34,13.34,0,0,0,98.89,182a11.88,11.88,0,0,0,0,3,5.39,5.39,0,0,0,4.31,4.59c4.2.73,7.67-.73,10.61-3.67a5,5,0,0,0,1.61-4.13,8,8,0,0,0-1.24-3.63,8.59,8.59,0,0,0-5.67-4.16,4.75,4.75,0,0,0-2.51.16C105.64,174.36,105.34,174.54,105,174Z"/><path class="cls-1" d="M120.59,94c-.69-.16-.71-.62-.67-1.07.08-.94.14-1.9.28-2.84q.76-5.24,1.57-10.46c.14-.84.39-1.65.61-2.47a.62.62,0,0,1,.65-.53,17.41,17.41,0,0,0,1.91,0,31.71,31.71,0,0,1,6.6.49c1.78.25,3.56.49,5.33.75.57.09,1,.3,1.13,1,0,.15.15.38.25.4.55.09.66.56.84.93a15.58,15.58,0,0,1,1.75,4,15.28,15.28,0,0,1,.15,2c0,.13-.14.27-.32.6-.59-1.24-.67-2.46-1.11-3.56s-.87-2.27-1.39-3.63c-.69,3.8-1.63,7.31-2.55,10.86-.54-.11-.57-.39-.52-.71.3-1.84.58-3.69.9-5.52.25-1.41.55-2.8.81-4.2a8.42,8.42,0,0,0,.08-1,1.39,1.39,0,0,0-.39-.23c-1.71-.23-3.42-.52-5.14-.65-2.2-.16-4.41-.18-6.62-.27-.47,0-.93-.1-1.52-.16-.2,1.4-.4,2.77-.6,4.14q-.47,3.16-.92,6.35c-.18,1.31-.34,2.62-.53,3.93a6.88,6.88,0,0,1-.23,1.2A3.28,3.28,0,0,1,120.59,94Z"/><path class="cls-1" d="M77,115.18A3.12,3.12,0,0,1,80,114a16.49,16.49,0,0,1,2.11.3,10.22,10.22,0,0,1,5.93,3.86,16.66,16.66,0,0,1,2.63,6.76,8.54,8.54,0,0,1,.12,2.31,4.44,4.44,0,0,1-1.28,2.5A15.67,15.67,0,0,1,84,133.75a7.11,7.11,0,0,1-7.59-1,13,13,0,0,1-5-8.82,10.19,10.19,0,0,1,.27-4.63,6.08,6.08,0,0,1,3.14-3.45,3.18,3.18,0,0,1,.75-.17c0,.64,0,1.14,0,1.64,0,.11-.21.21-.32.31-.08-.13-.23-.26-.22-.38a7.39,7.39,0,0,1,.17-1.09c-1.7,1.15-2.77,2.42-2.88,4.31a13.47,13.47,0,0,0,3.93,10.67,6.4,6.4,0,0,0,5.21,2.12,6.26,6.26,0,0,0,2.06-.48,19.86,19.86,0,0,0,5.42-3.6,4.26,4.26,0,0,0,1.29-4.09,17.89,17.89,0,0,0-2-5.71,5.79,5.79,0,0,0-1.86-2.13,12.81,12.81,0,0,0-3.9-2.14,25.55,25.55,0,0,0-2.6-.41,2.53,2.53,0,0,0-2.26.67c-.1.09-.34,0-.51.07A2.33,2.33,0,0,1,77,115.18Z"/><path class="cls-1" d="M110.75,73.88c-.52.27-.79-.11-1.07-.29a1.86,1.86,0,0,0-2-.13,11.29,11.29,0,0,0-4.77,4.18,6.15,6.15,0,0,0-1,3.28,6.81,6.81,0,0,0,5.55,6.65,5,5,0,0,0,1.91-.12A9.82,9.82,0,0,0,115,84.28,7.9,7.9,0,0,0,116.57,78a4.54,4.54,0,0,0-1.89-3.14c-.42-.33-.89-.62-1.31-1-.11-.1-.08-.35-.12-.52.15,0,.33-.11.45-.06,1.68.79,3.94,2.39,3.81,5.16a14.79,14.79,0,0,1-.21,3.45,8.25,8.25,0,0,1-2.57,4.19,11.15,11.15,0,0,1-6.83,2.87,7.46,7.46,0,0,1-6.59-4.67A8.1,8.1,0,0,1,104.06,75a21.33,21.33,0,0,1,3.23-2.11C108.6,72.2,109.78,72.6,110.75,73.88Z"/><path class="cls-1" d="M99.05,52a.79.79,0,0,1,1.07-.48,4.1,4.1,0,0,1,3.27,2.88,9.7,9.7,0,0,1,0,5.42,7,7,0,0,1-2.7,4.06A6.53,6.53,0,0,1,98,65c-1,.21-2,.36-3,.5a4.89,4.89,0,0,1-5.08-2.79,10.43,10.43,0,0,1-.61-7c.67-2.45,2.49-3.74,4.81-4.38a5.17,5.17,0,0,1,3.09-.24.84.84,0,0,1,.27.13s.08.1.15.21c-.11.07-.22.2-.32.19A7.09,7.09,0,0,0,92,53.48a4.24,4.24,0,0,0-1.47,3,11.87,11.87,0,0,0,.66,5,4.57,4.57,0,0,0,2,2.41,2.89,2.89,0,0,0,2.06.39c1.11-.15,2.22-.31,3.31-.56a4.89,4.89,0,0,0,3.67-3.47,9.23,9.23,0,0,0,.4-5,3.39,3.39,0,0,0-2.22-2.69C99.92,52.45,99.51,52.22,99.05,52Z"/><path class="cls-1" d="M159.29,175.83c-.53-.45-.19-.66.05-.89a6.4,6.4,0,0,1,6.5-1.59,7.72,7.72,0,0,1,5.49,4.17,7.58,7.58,0,0,1,.31,5,14,14,0,0,1-1.84,4.61,9.55,9.55,0,0,1-6.65,4.27,8.11,8.11,0,0,1-4.5-.49,5.83,5.83,0,0,1-3.57-4.42,10.64,10.64,0,0,1,1.67-8,6.57,6.57,0,0,1,1.81-2.05c1.22-.88,1.81-.71,2.38.77-.38.19-.41-.23-.6-.36s-.35-.31-.55-.48a4.93,4.93,0,0,0-2,1.84,11.59,11.59,0,0,0-2,5.9,6.25,6.25,0,0,0,1.42,4.56,5.26,5.26,0,0,0,3.66,1.79,8.51,8.51,0,0,0,6.63-2,8.24,8.24,0,0,0,1.58-1.85,13.19,13.19,0,0,0,1.93-5.74,5.33,5.33,0,0,0-1.52-4.39,8.5,8.5,0,0,0-5.65-2.49,5.17,5.17,0,0,0-3.68,1.22Z"/><path class="cls-1" d="M177.14,92.16c1,1.92,1.39,3.57.53,5.45a18.1,18.1,0,0,1-2.44,4,5.14,5.14,0,0,1-2.38,1.7c-1.25.42-2.49.87-3.77,1.2a9.13,9.13,0,0,1-2.22.19,1.67,1.67,0,0,1-.87-.23,16.26,16.26,0,0,1-4.14-3.1,6.51,6.51,0,0,1-1.09-7.42A13.93,13.93,0,0,1,167.28,87a11.79,11.79,0,0,1,4.09-1.14,4.26,4.26,0,0,1,3.79,1.8c.07.08.06.23.11.51a6.44,6.44,0,0,1-.71-.39,4.86,4.86,0,0,0-4.42-.79,11.57,11.57,0,0,0-7.11,5.1,9.5,9.5,0,0,0-1.53,2.85c-.8,3.26.12,5,2.61,7,.53.42,1.16.71,1.7,1.11a3,3,0,0,0,2.53.46c1.29-.28,2.57-.62,3.84-1a4.77,4.77,0,0,0,2.37-1.52,15.52,15.52,0,0,0,2.58-4.48,4.81,4.81,0,0,0,0-2.81c-.07-.33-.16-.65-.2-1C176.89,92.65,177,92.51,177.14,92.16Z"/><path class="cls-1" d="M33.65,83.94a4.52,4.52,0,0,0-2.95,3.65,8.07,8.07,0,0,0,4.12,8.61,6.19,6.19,0,0,0,4.87.16,9.56,9.56,0,0,0,5.25-4.31,5.18,5.18,0,0,0,.7-3,14.16,14.16,0,0,0-.91-4.76,8.51,8.51,0,0,0-2.82-3.68,5.35,5.35,0,0,0-4.06-1,6.56,6.56,0,0,0-3.76,1.67c-.21.2-.43.47-.84.17a1.2,1.2,0,0,1,.18-.4,6.9,6.9,0,0,1,6.94-2.14,7,7,0,0,1,4.27,3.41,9.94,9.94,0,0,1,1.5,4.29c.11,1,.15,2,.21,2.94a5.2,5.2,0,0,1-.86,3.19,11.29,11.29,0,0,1-3.93,3.93,8.24,8.24,0,0,1-5.88,1.09,6.7,6.7,0,0,1-3.46-2A8.68,8.68,0,0,1,30,87.05a5,5,0,0,1,2.71-3.27C33,83.63,33.31,83.43,33.65,83.94Z"/><path class="cls-1" d="M79.06,156c-2.8-.19-5.32-1-7.22-3.2a5.65,5.65,0,0,1-1.37-4.92A15.22,15.22,0,0,1,72,143.39a6.56,6.56,0,0,1,2.34-2.64A3.5,3.5,0,0,1,77,140.3a5.42,5.42,0,0,0,2.27,0c4.1-.66,7.13,1.07,8.45,5.08a6.78,6.78,0,0,1-.89,5.75,11.27,11.27,0,0,1-3.46,3.55A7.41,7.41,0,0,1,79.06,156Zm-7.77-7.7a4.39,4.39,0,0,0,.81,3,8.25,8.25,0,0,0,6.57,3.54c4.11.39,7.64-3.5,8.29-6.16a6.18,6.18,0,0,0-2.72-6.81,6.72,6.72,0,0,0-4.59-1c-.82.07-1.65.57-2.44-.09,0,0-.13,0-.2,0a3.61,3.61,0,0,0-3.62,1.59A11.62,11.62,0,0,0,71.29,148.32Z"/><path class="cls-1" d="M100.14,117.52c-.64,0-.71-.41-.84-.69-.37-.8-.7-1.62-1-2.43q-1.77-4.5-3.53-9a3.56,3.56,0,0,0-.3-.53,3.8,3.8,0,0,0-2.9,2.2,1.72,1.72,0,0,0-.12,1.47c1.26,3.43,2.27,7,4.2,10.12.94,1.53,1.77,3.12,2.65,4.68-.55.4-.6.39-.92-.13s-.81-1.25-1.15-1.92c-1.12-2.17-2.57-4.17-3.38-6.49-.67-2-1.37-3.9-2-5.88a3.42,3.42,0,0,1,1.85-4.16c1.17-.48,2.15-1.31,3.36-1.68a22.9,22.9,0,0,1,2.42-.68,1.88,1.88,0,0,1,2.18,1.29c.74,1.74,1.48,3.48,2.17,5.24.77,2,1.47,4,2.22,6a3.21,3.21,0,0,1,.15,1.42c-.54-.12-.55-.47-.67-.78-1.35-3.72-2.7-7.44-4.11-11.14-.58-1.53-1.14-1.73-2.76-1.22-.13,0-.26.06-.39.11l-2.23.88c.42,1.12.83,2.22,1.25,3.31s.92,2.27,1.38,3.4.94,2.18,1.32,3.3S99.86,116.35,100.14,117.52Z"/><path class="cls-1" d="M161.32,124c-.24.09-.48.19-.73.26-1.22.39-2.45.74-3.66,1.16a5.48,5.48,0,0,0-3.43,4.12,8.83,8.83,0,0,0,.86,6.21,3.25,3.25,0,0,0,2.82,1.92,20.13,20.13,0,0,0,6.19-.33,5.32,5.32,0,0,0,4.2-5.4,11.14,11.14,0,0,0-1.25-4.88,5,5,0,0,0-2.86-2.62,2.59,2.59,0,0,1-.53-.37c.26-.15.47-.38.6-.34a6.7,6.7,0,0,1,1.78.68,5.26,5.26,0,0,1,1.43,1.43,10.44,10.44,0,0,1,1.59,7.42,6,6,0,0,1-4.83,5.08,15.17,15.17,0,0,1-6.77.22,3.94,3.94,0,0,1-2.89-2.22,13.64,13.64,0,0,1-1.07-3.78,7.53,7.53,0,0,1,.45-4.08,5.6,5.6,0,0,1,3.42-3.53,22.11,22.11,0,0,1,4.27-1.22,1.11,1.11,0,0,1,.36,0C161.29,123.88,161.3,124,161.32,124Z"/><path class="cls-1" d="M170.23,109a.81.81,0,0,1,1,.62,17.21,17.21,0,0,1,.84,2.7,10.9,10.9,0,0,1,0,2.14,3.06,3.06,0,0,1-.83,1.93,9,9,0,0,1-8.12,3.6,4.76,4.76,0,0,1-4.58-4.84,11.65,11.65,0,0,1,.39-3.94,5.35,5.35,0,0,1,2.54-3.18,3.41,3.41,0,0,1,1.94-.54c.94.07,1.89.12,2.82.25a.92.92,0,0,1,.94.76,3.49,3.49,0,0,1-.57-.1,7.09,7.09,0,0,0-3.62-.2,4,4,0,0,0-3.13,3,8.4,8.4,0,0,0,0,4.53,3.69,3.69,0,0,0,2.45,2.55,7.89,7.89,0,0,0,8.52-2.58,3.87,3.87,0,0,0,.51-3,6.58,6.58,0,0,0-1.11-3.34C170.21,109.33,170.24,109.2,170.23,109Z"/><path class="cls-1" d="M55.28,84a2.08,2.08,0,0,1,.42-.46,4.41,4.41,0,0,1,4.45-.36,4.12,4.12,0,0,0,.64.3c1.79.53,2.3,2,2.52,3.58a13.82,13.82,0,0,1,.15,1.82,8.18,8.18,0,0,1-.15,1.71,11.55,11.55,0,0,1-1.47,3.86c-1.81,2.69-6.35,3.48-8.79.72a7.25,7.25,0,0,1-1.59-7.91A5.9,5.9,0,0,1,54,84.44c.22-.14.3-.12.72,0,0,.09-.08.2-.15.24a5.82,5.82,0,0,0-2.23,7.47,8.15,8.15,0,0,0,1.21,1.88c1.57,1.9,3.37,2.22,5.79,1.5a4.06,4.06,0,0,0,2.17-1.77A11,11,0,0,0,63,90.15s0-.06,0-.09a25.51,25.51,0,0,0-.73-4.59,1.65,1.65,0,0,0-.94-1c-.69-.29-1.39-.55-2.08-.83a3.85,3.85,0,0,0-2.67.21c-.37.11-.74.27-1.11.41Z"/><path class="cls-1" d="M157.14,103.61c-.53-.19-.44-.54-.43-.82.07-1.26.14-2.51.24-3.77.08-1,.23-2,.3-3,.11-1.83.19-3.67.27-5.5a7,7,0,0,0-.14-1c-1.15.14-2.22.25-3.29.39-1.71.23-3.41.47-5.12.73-2,.3-4,.38-6,1.34-.12,1.4-.25,2.88-.37,4.37-.15,1.82-.28,3.65-.42,5.48a1,1,0,0,1-.43.86c-.59-1.39.22-9.88,1.14-11.88l.46.31A13.61,13.61,0,0,1,148,89.91c2-.24,4-.52,6-.77.84-.1,1.69-.11,2.53-.25a1.86,1.86,0,0,1,1.42.52c.25.17.33.72.32,1.1,0,2,0,4.08-.18,6.11s-.41,4.19-.63,6.29A4,4,0,0,1,157.14,103.61Z"/><path class="cls-1" d="M111.73,123.05a1,1,0,0,1,.76-.84c.8-.25,1.62-.46,2.44-.67q2.4-.65,4.8-1.26a13.68,13.68,0,0,1,1.39-.28,1.32,1.32,0,0,1,1.53.85,32.65,32.65,0,0,1,1.36,4.24c.46,2.25.72,4.54,1.07,6.82.12.77.26,1.53.35,2.3a2.76,2.76,0,0,1-.07,1.42c-.46-.17-.45-.59-.5-.87-.25-1.5-.42-3-.66-4.51a41.89,41.89,0,0,0-2-8.48,1.07,1.07,0,0,0-.45-.59c.08.86.18,1.72.22,2.59s0,1.77,0,2.65,0,1.71,0,2.56a10.29,10.29,0,0,1-.12,2.54h-.28c-.08-.61-.21-1.21-.23-1.82,0-.89,0-1.78,0-2.66-.07-2-.16-4.07-.25-6.22Z"/><path class="cls-1" d="M100.52,144.25c-.1.16-.16.36-.3.46-.83.58-1.67,1.15-2.52,1.72a1.92,1.92,0,0,1-1.45.35,1.32,1.32,0,0,1-.63-.27,14.85,14.85,0,0,1-3.24-3.77A54,54,0,0,1,89,136.61c-.73-1.69-.8-1.72.69-2.71q3.23-2.15,6.51-4.2a11.08,11.08,0,0,1,1.85-.85c.16-.07.39,0,.69,0l-9.49,6.34a52.87,52.87,0,0,0,7.22,10.94c1.54-.21,2.57-1.5,3.94-2.08C100.41,144.15,100.47,144.2,100.52,144.25Z"/><path class="cls-1" d="M114.92,98.13a6.48,6.48,0,0,1-.63-.17c-2.44-.9-4.19-.54-6.07,1.65a10.5,10.5,0,0,0-2.41,5.83,6.77,6.77,0,0,0,2,5.81,4.45,4.45,0,0,0,4,1.32c1.33-.21,2.64-.57,4-.86a1.11,1.11,0,0,1,.8.09c-.16.14-.31.36-.5.42-1,.3-1.93.59-2.91.82a11,11,0,0,1-1.81.22,5.93,5.93,0,0,1-5.68-3.26,7.27,7.27,0,0,1-.72-5.51,11.61,11.61,0,0,1,3.35-6.16,5.12,5.12,0,0,1,3-1.52,5.49,5.49,0,0,1,3.4.75c.12.07.18.25.27.38Z"/><path class="cls-1" d="M60.43,147.66a5.67,5.67,0,0,1-.69.6,5.55,5.55,0,0,1-4.26.84,13.33,13.33,0,0,1-4-1.24c-3.09-1.72-4.2-4.18-3.28-7.59a8.76,8.76,0,0,1,3.7-5,2.94,2.94,0,0,1,2.91-.15c.13.05.2.23.3.35a.69.69,0,0,1-.88.15,2.11,2.11,0,0,0-2.19.44A8.23,8.23,0,0,0,48.87,141a5,5,0,0,0,1.85,5.18,10.9,10.9,0,0,0,4.73,2,5.55,5.55,0,0,0,4.13-.51C59.73,147.59,60,147.66,60.43,147.66Z"/><path class="cls-1" d="M172.77,91.76a8.7,8.7,0,0,1,1.19.69,1.2,1.2,0,0,1,.2,1.57,1.24,1.24,0,0,1-1.43.48c-.19-.09-.31-.32-.47-.48a4.57,4.57,0,0,1,.47-.42,4,4,0,0,1,.63-.28c-.36-.76-1.27-.34-1.75-1,.15-.36.32-.77.56-1.32l-1.83,1c-.59,0-.89-.89-1.75-.42.33.25.57.45.83.64.44.34,1.06.53,1.06,1.24.73.28.56,1.18,1.1,1.58.31.23.38.47.13.77a.58.58,0,0,1-.9.07,10.19,10.19,0,0,1-.77-1,4,4,0,0,1-.9.15.91.91,0,0,1-.68-.3.89.89,0,0,1,.06-.74,4.25,4.25,0,0,1,.66-.77c-.29-.21-.59-.41-.87-.64-.68-.55-.8-1.2-.33-1.75a1.25,1.25,0,0,1,1.88-.17,2.75,2.75,0,0,1,.37.43L172,89.83a2,2,0,0,1,.63-.31c.58-.13.91.23.73.81S173,91.26,172.77,91.76Z"/><path class="cls-1" d="M93.76,175.68a3.62,3.62,0,0,1-2.64,1.15,4.35,4.35,0,0,1-4.18-2.05,7.57,7.57,0,0,1-1.32-3.6,3.48,3.48,0,0,1,.25-1.59,6.22,6.22,0,0,1,2.73-3.19,1.33,1.33,0,0,1,.66-.22c.81,0,1.62,0,2.42.08.15,0,.28.15.65.36a4.15,4.15,0,0,1-.85.11,3.13,3.13,0,0,0-2.63.44,5.51,5.51,0,0,0-2.19,3s0,.06,0,.1c-.36,2.34,1.9,5.31,4.27,5.48a7.25,7.25,0,0,0,1.88-.31C93.11,175.36,93.44,175.13,93.76,175.68Z"/><path class="cls-1" d="M113.75,105.1c-.44.26-.81.5-1.2.7s-.72.2-.89-.16a1,1,0,0,1,.1-.82,5.6,5.6,0,0,1,.8-.89c-.32-.1-.67-.18-1-.32-.54-.23-.73-.57-.63-1s.42-.65,1-.6a5.91,5.91,0,0,1,.81.19c0-.52,0-1,0-1.51a1.28,1.28,0,0,1,.52-1.15c.33-.27.65-.25.85.12a3,3,0,0,1,.3,1.06c0,.71,0,1.42,0,2.16,1.42-.57,1.89-.45,1.95.55a1.64,1.64,0,0,0-1.91.38,2.29,2.29,0,0,0,.48,1.66c.71-.41.29-1,.24-1.48.55-.29.74,0,.89.44a1.61,1.61,0,0,1-.63,1.87C114.85,106.51,114.37,106.19,113.75,105.1Zm-.78-.45-.71.43.13.17.6-.58c.28,0,.43-.17.42-.5Zm.67-1.32a10.25,10.25,0,0,0,0-3.36c-.29.64-.46,1-.3,1.52s.2.77-.25,1.05Zm-1.94-.74-.06.29.94.31a1.34,1.34,0,0,1,.07-.18Z"/><path class="cls-1" d="M112.25,136.58a36,36,0,0,0,9-2.42c.33.42.07.56-.19.67-1.33.51-2.63,1.1-4,1.48-1.19.34-2.45.44-3.68.68a3.24,3.24,0,0,0-.83.32.54.54,0,0,1-.83-.3,4.49,4.49,0,0,1-.33-1.06c-.11-.84-.18-1.69-.24-2.53-.09-1.53-.16-3-.23-4.58s-.12-3.19-.18-4.78a2.26,2.26,0,0,1,.42-1.51c.34,0,.44.16.39.47a14.43,14.43,0,0,0,0,4.45c.11,1,.21,1.95.27,2.93.09,1.46.13,2.92.23,4.38C112,135.38,112.16,136,112.25,136.58Z"/><path class="cls-1" d="M79.14,117.65c-.83.82-.63,1.89-.76,2.94-.69-.16-1.2,0-1.33.7.35.27.35.27,1.82-.45.83.36.43,1.47,1.19,1.94L80.8,121l1,.32.4-1.38a1.89,1.89,0,0,1,.21,1.86c-.2.25-.34.26-1.23.07a9.83,9.83,0,0,1-.34,1c-.31.73-.91.85-1.42.24a8.6,8.6,0,0,1-.74-1.35c-.17.09-.39.24-.63.35a1.24,1.24,0,0,1-1.49-.22,1.32,1.32,0,0,1,.18-1.59,2.18,2.18,0,0,1,.47-.38,5.51,5.51,0,0,1,.59-.28,3.85,3.85,0,0,1,.63-2.3,2.88,2.88,0,0,1,.43-.56.57.57,0,0,1,1,.29,4.26,4.26,0,0,1,.06.5c0,.17.06.33.1.58a7.84,7.84,0,0,1,.79-.21,1.13,1.13,0,0,1,.45,2.22c-.13,0-.29-.06-.43-.1-.08-.55.87-.79.29-1.4-.78-.06-1,.74-1.49,1.13C78.88,119.2,79.44,118.38,79.14,117.65Z"/><path class="cls-1" d="M93.21,53.81l1.28.45c1-1.43,1-1.45,1.66-.88.51-.06,1-.29,1.31-.11.5.31.07.84,0,1.29a18.07,18.07,0,0,0-.23,2.19c0,.81-.24,1.13-1.06,1.13-.64,0-1.28-.06-1.93-.11s-.92-.36-.73-1a14.36,14.36,0,0,1,.68-1.57c-.29-.11-.6-.21-.89-.34C92.65,54.55,92.64,54.37,93.21,53.81Zm3.56.5-.13-.14-1.08.89,1,.44Zm-1.13,2.5.16-.06s0-.07,0-.08l-.6-.38c-.3-.18-.38,0-.51.27Z"/><path class="cls-1" d="M107,181.54l1.28.78c-.11.52-.53.51-.93.39a.72.72,0,0,0-.64,0c-1.08.53-1.67.17-1.74-1,0-.1,0-.2-.06-.37-.3.06-.58.13-.87.16-.86.09-1.5-.28-1.6-.9a1.51,1.51,0,0,1,1.3-1.66,2.62,2.62,0,0,1,.55,0c.16-.38.3-.8.49-1.19.35-.72,1-1.14,1.39-1,.66.29.64.9.63,1.48a.29.29,0,0,1,0,.12,6.35,6.35,0,0,1,1.21.68c.15.12.14.52.08.77-.15.68-.83.93-1.72.64,0-.73,1.18-.26,1.08-1.13-.49-.37-1,.08-1.55.2.06-.65.12-1.22.19-2a3.26,3.26,0,0,0-1,2.8l.74.23c-.05.56-.1,1.11-.15,1.63C106.44,182.48,106.51,181.67,107,181.54Zm-2.57-.84-.22-.75c-.22.1-.46.17-.67.29s-.09.22-.15.39Z"/><path class="cls-1" d="M165.91,158.64c.24-.34.42-.57.6-.81-.74-.59-.74-.62-.21-1.37.07-.11.17-.21.24-.32.34-.57.26-.86-.33-1.13a8.41,8.41,0,0,0-.88-.26,8.68,8.68,0,0,1,.15.95,2.25,2.25,0,0,1-.48,1.62.73.73,0,0,0,.05,1.15,1.21,1.21,0,0,1,.51,1.12c-.16,0-.36.11-.45,0-.54-.38-1.2-.62-1.47-1.33-.07-.18-.31-.31-.5-.43a1.33,1.33,0,0,1-.5-1.45,1.2,1.2,0,0,1,.86-1c.1,0,.24.05.44.1-.34.61-1.21,1.09-.38,1.84,1-.32,1.14-.47,1.11-1.39a13.52,13.52,0,0,0-.21-1.4c0-.21-.08-.5,0-.63s.41-.09.61,0a3.44,3.44,0,0,1,2.54,1.5c.05.09.24.11.35.18a.58.58,0,0,1,.28.77,5.33,5.33,0,0,1-1.79,2.42C166.39,158.81,166.16,158.69,165.91,158.64Z"/><path class="cls-1" d="M134.14,91.21a2.6,2.6,0,0,1-2.37.73c-2.38-.34-4.75-.75-7.13-1.11-.5-.07-1,0-1.52-.09-.68,0-1-.24-.92-.57.09-.5.53-.6.93-.63a8,8,0,0,1,1.62.07c2.81.44,5.61.9,8.42,1.36C133.5,91,133.82,91.13,134.14,91.21Z"/><path class="cls-1" d="M135,98.11a7.79,7.79,0,0,1-1.08,0A25.09,25.09,0,0,1,128,96.56a12.12,12.12,0,0,0-4-.91,6.34,6.34,0,0,1-1.21-.19c-.33-.08-.66-.22-.55-.74a7.67,7.67,0,0,1,3.09.17,31.55,31.55,0,0,1,5.39,1.45c1.21.44,2.46.75,3.69,1.13a7.06,7.06,0,0,1,.68.33C135,97.91,135,98,135,98.11Z"/><path class="cls-1" d="M34.94,85.6c0,.72-.28,1.42.48,1.82,1.12-.63,1.19-1.19.29-2.08a1.9,1.9,0,0,1-.45-.65.77.77,0,0,1,.09-.63c.2-.26.5-.16.72,0a1.94,1.94,0,0,1,.44.55.65.65,0,0,0,1,.27l.63-.33c.64-.33,1-.19,1.1.48A4,4,0,0,1,38.81,88c-.41.7-.61.77-1.4.6l-2.23-.49a1.48,1.48,0,0,1-1-1.31C34.16,86.12,34.26,85.92,34.94,85.6Zm2.24.13c-.1.63-.18,1.15-.27,1.75l.85.38a2.56,2.56,0,0,0,.49-2.41Z"/><path class="cls-1" d="M32.2,128.42a9,9,0,0,1,3.41-2.15,13.07,13.07,0,0,1,2.77-.55,3.11,3.11,0,0,1,2.81,1.55,1.79,1.79,0,0,1-.45,2.51,5.36,5.36,0,0,1-3.84,1,3.55,3.55,0,0,0-1.78.16,6.32,6.32,0,0,1-1,.27c-.63.11-1-.19-1.23-.94.07,0,.17-.07.18-.05a1.22,1.22,0,0,0,1.69.37,4.86,4.86,0,0,1,2.47-.38,4.93,4.93,0,0,0,3-.86c.92-.54,1-1.2.27-2a2.78,2.78,0,0,0-2.83-.94,13,13,0,0,0-4.38,1.8C33,128.4,32.73,128.75,32.2,128.42Z"/><path class="cls-1" d="M57.17,88.9c.54,0,1.22-.16,1.41.73.15-.48.3-1,.46-1.49-.48,0-.9-.1-.92-.78a4.26,4.26,0,0,1-.29.84.73.73,0,0,1-.45.3.49.49,0,0,1-.37-.29,6.37,6.37,0,0,1-.24-1.29c0-.44.12-.81.71-.73.13,0,.29-.1.42-.17.64-.37.9-.27,1.07.44a7.62,7.62,0,0,1,.07.76c.3.29,1,.29,1,.87-.05.39-.41.73-.64,1.11a1.83,1.83,0,0,1-.09.76,2.3,2.3,0,0,1-.8.75c-.11.07-.45-.1-.59-.25a2.73,2.73,0,0,1-.39-.72,8.48,8.48,0,0,1-1.23.2c-.68,0-1.07-.4-.93-1a1.23,1.23,0,0,1,.55-.77c.19-.1.57.07.82.21S57,88.7,57.17,88.9Z"/><path class="cls-1" d="M50.68,105.8a1.84,1.84,0,0,1-1.79-.35,5.29,5.29,0,0,1-2.07-2.82,1.85,1.85,0,0,1,0-1,.83.83,0,0,1,1.22-.52,7.3,7.3,0,0,1,2.79,1.82,18,18,0,0,1,1.32,1.79,1.22,1.22,0,0,1,.14.28,1.32,1.32,0,0,1,0,1.44,1.26,1.26,0,0,1-1.5.15c0-.79.7-.34,1-.65-.1-1.44-2.14-3.5-4.08-4.11a.73.73,0,0,0-.06.93A4.09,4.09,0,0,0,50,105.21C50.24,105.31,50.54,105.34,50.68,105.8Z"/><path class="cls-1" d="M122,68.87a6.31,6.31,0,0,1-1.3,3.46c-.28.34-.61.68-1.11.58a1.21,1.21,0,0,1-.88-1,8.22,8.22,0,0,1,0-4.32,2.93,2.93,0,0,1,1-1.23c.16-.13.58,0,.84,0A2.61,2.61,0,0,1,122,68.87ZM120.47,67c-1.2.22-1.17,1-1.16,1.82s0,1.5,0,2.24a7.31,7.31,0,0,0,.36,1.25,5.24,5.24,0,0,0,1.63-3.37A1.94,1.94,0,0,0,120.47,67Z"/><path class="cls-1" d="M56.59,142.4A11.16,11.16,0,0,1,55,142a.62.62,0,0,1-.23-1.13,3.66,3.66,0,0,1,1.54-.76,5,5,0,0,1,.26-.86,3.25,3.25,0,0,1,.58-.93.63.63,0,0,1,1.1.31,3,3,0,0,1,.14.89c0,.46-.18.88.17,1.34s-.4,1.85-.78,2.11S56.83,143.1,56.59,142.4Zm-1.28-1.23a2,2,0,0,0,0,.23,3.64,3.64,0,0,0,.85.16c.13,0,.25-.23.37-.36-.13-.11-.28-.33-.4-.31A3.46,3.46,0,0,0,55.31,141.17ZM57.53,139c-.6,1-.6,1,0,1.26Zm-.47,1.94.42,1C57.8,141.25,57.8,141.25,57.06,140.94Z"/><path class="cls-1" d="M111,77.44c.39-.56.69-1,1.05-1.5a2.39,2.39,0,0,1,.67-.6.54.54,0,0,1,.88.52,6.42,6.42,0,0,1-.3,1.28c-.13.47-.33.9,0,1.41.18.25.1.72.06,1.09s-.43.68-.86.39a5.12,5.12,0,0,1-.58-.56l-1.42-1.28c-.22.12-.35.25-.5.27a.55.55,0,0,1-.42-.16.51.51,0,0,1,0-.45C109.84,77.37,110.21,77.27,111,77.44Zm1.11.16c-.26.21-.49.39,0,.68Z"/><path class="cls-1" d="M164.61,179.6a6.06,6.06,0,0,1-.3,1,2,2,0,0,0-.15,1.54c.23.71-.15,1.1-.88,1a8.8,8.8,0,0,0-1-.25c-1-.06-1.1-.86-1.39-1.5a.68.68,0,0,1,.16-.63c.87-.38,1.3-1.26,2-1.79a1.36,1.36,0,0,1,.44-.24C164.16,178.48,164.61,178.84,164.61,179.6Zm-1.43,2.56a7.7,7.7,0,0,1-.06-1.2c0-.32.43-.58.24-1.12-.54.68-1,1.26-1.53,1.93Z"/><path class="cls-1" d="M146.37,136.34c-.14-.54,0-.81.5-.83a1.67,1.67,0,0,1,.86.22,3.71,3.71,0,0,1,1.48,4.37,2.79,2.79,0,0,1-.78,1,1.28,1.28,0,0,1-1.69.08,3.93,3.93,0,0,1-1.66-3.12,1.33,1.33,0,0,1,1-1.3c.11,0,.29.08.42.12s0,.22,0,.25c-.81.78-.8.68-.37,2a3.49,3.49,0,0,0,.74,1.2.94.94,0,0,0,1.6-.23,2.62,2.62,0,0,0-.32-3C147.7,136.53,147.26,136,146.37,136.34Z"/><path class="cls-1" d="M162.18,129.28c.51-.72,1.09-.5,1.68-.21.06.39-.15.57-.45.55a2,2,0,0,0-1.21.4,4.68,4.68,0,0,1-1.11.29v-1c-.35,0-.69-.05-1-.09-.68-.08-1-.36-1.12-.84a1.16,1.16,0,0,1,.75-1.2,1.66,1.66,0,0,1,.29-.1,1,1,0,0,0,.73-.61.86.86,0,0,1,1-.55.83.83,0,0,1,.71.87c0,.64.43,1.32-.16,2l-.62-1c-.65-.09-1.36-.48-1.92.33.24.41.65.4,1,.39A1.47,1.47,0,0,1,162.18,129.28Z"/><path class="cls-1" d="M165.19,111.81c0-.42.05-.72.1-1a1.62,1.62,0,0,1,.23-.66.76.76,0,0,1,.55-.34c.17,0,.37.27.44.46a3.6,3.6,0,0,1,.09.86c1.05,0,.58,1.13,1.11,1.41-.13.46-.23.82-.34,1.19a3.47,3.47,0,0,1-.19.57c-.19.35-.48.5-.84.25-.81-.55-1.61-1.12-2.4-1.69a1.71,1.71,0,0,1-.35-.36c-.22-.33-.11-.63.27-.66A11.75,11.75,0,0,1,165.19,111.81Zm-.53.57a1.21,1.21,0,0,1,0,.19l2,1.2v-1.5a9,9,0,0,1-1,.15C165.3,112.44,165,112.39,164.66,112.38Z"/><path class="cls-1" d="M146.32,156.94a1.28,1.28,0,0,1,2.12-.95,3,3,0,0,1,1.31,3.18,6.79,6.79,0,0,1-.89,2,1.76,1.76,0,0,1-3-.2,4.77,4.77,0,0,1-.56-2.63c.05-.5.36-.71.75-.59s.37.33.15.59c-.07.09-.24.14-.25.22a3,3,0,0,0,.88,2.49.87.87,0,0,0,1.13,0c1.06-.71,1.9-3.22.47-4.39-.72-.58-1-.62-1.73,0C146.6,156.8,146.51,156.83,146.32,156.94Z"/><path class="cls-1" d="M146.48,148.25a4.26,4.26,0,0,1-.13.62,5.2,5.2,0,0,0,0,3.1,2.72,2.72,0,0,0,.22.56c.39.69.93.77,1.47.17a6.81,6.81,0,0,0,1.33-2.71,4,4,0,0,0,.2-1.09,1.13,1.13,0,0,0-.77-1.28c-.54-.16-.84,0-1.28.61-.07.1-.26.12-.42.19,0-.85.27-1.3.85-1.45a1.71,1.71,0,0,1,1.94.78,2.83,2.83,0,0,1,.28,1.45,8.06,8.06,0,0,1-1.28,3.39,1.4,1.4,0,0,1-.09.17,1.71,1.71,0,0,1-1.59.91c-.77-.1-1.12-.69-1.31-1.39a6.4,6.4,0,0,1,0-3.5,2.47,2.47,0,0,1,.38-.61Z"/><path class="cls-1" d="M116.7,52.11a5.21,5.21,0,0,0,1.3,3.57,3.89,3.89,0,0,0,.5-.56,6,6,0,0,0,.81-2.89,1.52,1.52,0,0,0-.83-1.5c-.65-.34-.87-.31-1.64.23-.23-.63.22-1.14,1-1.09a2.32,2.32,0,0,1,2.12,2,6.09,6.09,0,0,1-.88,3.79c-.57.94-1.25,1-1.93.12a5.48,5.48,0,0,1-1-2.93c0-.22.17-.47.27-.71Z"/><path class="cls-1" d="M159.93,201.22c.11-.15.17-.32.29-.4s.49-.22.73-.35a1.53,1.53,0,0,1,1.89,0,1.92,1.92,0,0,1,.62,1.94,3.37,3.37,0,0,1-.78,1.62,6.36,6.36,0,0,1-4.61,2c-.66,0-1-.2-1.1-.68s.19-.87.74-1.19a3.24,3.24,0,0,1-.06.62c-.15.54,0,.84.52.77a6.32,6.32,0,0,0,4.12-2.19,2,2,0,0,0,.36-1.45c-.05-.92-.43-1.2-1.33-1C160.89,201.12,160.51,201.56,159.93,201.22Z"/><path class="cls-1" d="M124.26,64.74a.91.91,0,0,0,.18-1.12,3.83,3.83,0,0,1,0-2.88,1.78,1.78,0,0,1,1.47-1.26c.58,0,1.37.68,1.58,1.4a3.49,3.49,0,0,1-.8,3.43c-.4-.12-.42-.31-.28-.57a3.51,3.51,0,0,0,.43-2.15,1.93,1.93,0,0,0-.27-.85c-.46-.65-1-.58-1.4.14a3.15,3.15,0,0,0-.08,2.65,1.46,1.46,0,0,1-.65,1.91,1.1,1.1,0,0,1-.37.16c-.34.06-.64,0-.68-.42s.21-.53.59-.45A1.24,1.24,0,0,0,124.26,64.74Z"/><path class="cls-1" d="M184.51,65.63a1.54,1.54,0,0,1,.16.61,6,6,0,0,1-1,2.53,2.56,2.56,0,0,1-2.05,1.15,10,10,0,0,1-1.73,0,1.27,1.27,0,0,1-1.09-1.85,6,6,0,0,1,3.56-3.15c.46-.17.57,0,.68.71a1.34,1.34,0,0,0-1.45.36,21.46,21.46,0,0,0-1.72,1.58,2.44,2.44,0,0,0-.46,1,.53.53,0,0,0,.43.69c1.49.37,3,.19,3.77-1.49a14.59,14.59,0,0,0,.48-1.63c0-.15.1-.3.15-.45Z"/><path class="cls-1" d="M140.72,86.86a2.17,2.17,0,0,1,0,.41A99,99,0,0,1,138.32,97a2.48,2.48,0,0,1-.17.37l-.23-.1c-.08-.2-.23-.4-.21-.59a12.12,12.12,0,0,1,.3-1.9c.63-2.35,1.29-4.69,2-7C140.07,87.37,140.16,87,140.72,86.86Z"/><path class="cls-1" d="M141.66,106.26c-.42,0-.71.07-1,.08-2.45.07-4.9.12-7.34.23-.77,0-1.54.19-2.31.29a1.09,1.09,0,0,1-.4,0,.51.51,0,0,1-.24-.28.26.26,0,0,1,.11-.25,6.24,6.24,0,0,1,.76-.28,12.93,12.93,0,0,1,3.82-.43l5.4,0A1.18,1.18,0,0,1,141.66,106.26Z"/><path class="cls-1" d="M190.89,91.35c-.51.07-1.06-.52-1.13.33a3.48,3.48,0,0,0,5-1.14c.3-.75.22-1.25-.49-1.62a6.52,6.52,0,0,0-1.23-.39c-.18-.06-.36-.09-.61-.16a2.18,2.18,0,0,1,2.63.37,1.71,1.71,0,0,1,.18,2.16,3.46,3.46,0,0,1-2.81,1.91,15,15,0,0,1-2,0,1.91,1.91,0,0,1-.68-.21,1,1,0,0,1-.72-1.28,1.48,1.48,0,0,1,1.3-1c.15,0,.38.08.43.19A3.65,3.65,0,0,1,190.89,91.35Z"/><path class="cls-1" d="M108.32,61.5a2,2,0,0,1,2.24-1.89,3.76,3.76,0,0,1,2.83,3.3,7.31,7.31,0,0,1-.26,1.8,1.51,1.51,0,0,1-2.35.91A5.9,5.9,0,0,1,108.72,63c0-.09-.07-.24,0-.29a2.46,2.46,0,0,1,.41-.38c.1.11.26.22.28.35a3.8,3.8,0,0,0,1.86,2.39c.45.33,1,.07,1.29-.44a3.25,3.25,0,0,0-1.64-4.48,1.53,1.53,0,0,0-1.7.35C109,60.79,108.71,61.07,108.32,61.5Z"/><path class="cls-1" d="M182.24,95.9a3.76,3.76,0,0,0,2.91-.2,14,14,0,0,0,2.2-1.93c0,.26.07.51,0,.65a3.73,3.73,0,0,1-2.81,2.09c-.54,0-1.08.17-1.61.16s-1-.06-1.07-.58a2.48,2.48,0,0,1,.31-1.21,1.42,1.42,0,0,1,.57-.57c1-.61,2.05-1.19,3.08-1.77a1.23,1.23,0,0,1,1.27,0,2.25,2.25,0,0,1-.55.43,12.58,12.58,0,0,0-3.44,2A7.25,7.25,0,0,0,182.24,95.9Z"/><path class="cls-1" d="M155.43,106.92c.12.49-.09.6-.41.61-2.47.06-4.94.45-7.42,0a15.22,15.22,0,0,0-2.34-.07c-.29,0-.56,0-.59-.54a15.51,15.51,0,0,1,1.64-.18c2.66,0,5.31.06,8,.1C154.67,106.89,155.07,106.91,155.43,106.92Z"/><path class="cls-1" d="M136.23,118.13h-1l-3.85,0c-1.22,0-2.44,0-3.66,0a7.32,7.32,0,0,0-2.72.06c-.07,0-.18,0-.37-.09.13-.19.2-.42.33-.46a4.35,4.35,0,0,1,1.27-.26q4,0,8,0a7.82,7.82,0,0,1,1.6.23C136,117.59,136,117.83,136.23,118.13Z"/><path class="cls-1" d="M60.79,125.25a3.87,3.87,0,0,0,2.29-4.18,1,1,0,0,0-.77-.84c-.51-.13-1-.21-1.72-.34.26-.21.38-.38.54-.43a2,2,0,0,1,2.61,1.89,4.48,4.48,0,0,1-2,4.08c-1,.65-1.66.38-2-.73a1.86,1.86,0,0,1-.1-.39,13.94,13.94,0,0,1,.6-4.27,2.47,2.47,0,0,1,.15.59c-.1,1-.24,2.07-.3,3.11A1.5,1.5,0,0,0,60.79,125.25Z"/><path class="cls-1" d="M192.7,107.31c-1.3.28-2.54.55-3.78.84a2.81,2.81,0,0,0-.83.37c-.37.23-.38.56,0,.8a3.63,3.63,0,0,0,1.1.49,3.91,3.91,0,0,0,3.23-.36,1.8,1.8,0,0,0,1-2.15c.17,0,.41,0,.45.1a1.56,1.56,0,0,1,.24.84,1.82,1.82,0,0,1-.42.9,4.5,4.5,0,0,1-5.93.63c-.73-.46-.64-1.24.12-1.7a10.75,10.75,0,0,1,3.18-1,10.11,10.11,0,0,1,1.1-.19C192.49,106.87,192.74,107,192.7,107.31Z"/><path class="cls-1" d="M157.31,104.38c-.15.46-.46.48-.76.49a41.3,41.3,0,0,1-6-.29,9,9,0,0,0-3.43-.15c-.3.08-.62.08-.77-.33a2.65,2.65,0,0,1,1.59-.47,6,6,0,0,1,1.12,0l7.9.62A1.51,1.51,0,0,1,157.31,104.38Z"/><path class="cls-1" d="M184.25,83.48a1.5,1.5,0,0,1,.94,1.13c.37.92.54,1,1.44.6a5.66,5.66,0,0,0,2.87-2.91,1.64,1.64,0,0,0,.1-.38c0-.07,0-.13-.06-.23a2.59,2.59,0,0,0-2.34.28c-.34-.19-.36-.39-.15-.61a3,3,0,0,1,2.78-.32,1.12,1.12,0,0,1,.41,1.27,6.3,6.3,0,0,1-4.14,3.75.92.92,0,0,1-1.11-.5C184.74,85,184.55,84.32,184.25,83.48Z"/><path class="cls-1" d="M99.16,129.61c.29-.37.63-.29.92,0a8.63,8.63,0,0,1,1.11,1.32c1.39,2.25,2.74,4.52,4.09,6.79a1.88,1.88,0,0,1,.11.6l-.2.13a4.29,4.29,0,0,1-.72-.61,16.93,16.93,0,0,1-.91-1.46c-1.17-2-2.32-4-3.52-5.94A5.11,5.11,0,0,0,99.16,129.61Z"/><path class="cls-1" d="M178.2,124.42a1.25,1.25,0,0,1,1.48-.26,4,4,0,0,1,1.27.62,7.61,7.61,0,0,1,2.4,2.85c.39.8.18,1.16-.67,1.18a9.41,9.41,0,0,1-3.61-.43,3.55,3.55,0,0,1-2.22-2.22c-.25-.75-.15-1.18.4-1.56a8.58,8.58,0,0,0,.1,1.51,2.69,2.69,0,0,0,1.88,1.83,8.2,8.2,0,0,0,3.81.36A6.35,6.35,0,0,0,178.2,124.42Z"/><path class="cls-1" d="M140.14,200c1-1.25,2-1.11,2.59.21a3,3,0,0,1-.21,3.18,3.36,3.36,0,0,1-3.17,1.24,1.24,1.24,0,0,1-.39-.09,2.33,2.33,0,0,1-1.1-2.15,1.74,1.74,0,0,1,1.12-1.84s.06,0,.18.14c-.14.19-.27.38-.42.57a1.79,1.79,0,0,0-.21,2,1.32,1.32,0,0,0,1.81.82c2-.57,2.49-2.1,1.74-3.77-.29-.63-.39-.66-1.11-.48C140.7,199.92,140.42,200,140.14,200Z"/><path class="cls-1" d="M116.6,111a7,7,0,0,1,.49-.59c.44-.47.92-.9,1.35-1.39a5.51,5.51,0,0,0,1.16-5.59c-.13-.42-.3-.83-.42-1.25a4.79,4.79,0,0,1-.08-.72c1.21.72,1.9,4.11,1.21,5.94a7.68,7.68,0,0,1-3,3.63,1.6,1.6,0,0,1-.6.14Z"/><path class="cls-1" d="M179.77,111.48a5.7,5.7,0,0,0-4,2.83c1.62,1.09,4.9-.45,5.83-2.66.53.36.33.78.06,1.11a6.6,6.6,0,0,1-3.39,2.32,6.09,6.09,0,0,1-1.9.2,1,1,0,0,1-.86-1.67A7,7,0,0,1,179,111,.51.51,0,0,1,179.77,111.48Z"/><path class="cls-1" d="M90.53,169.87l-.59.76.93.49c-.29.56-.72.5-1.14.38a1,1,0,0,1-.59-1.08,15.33,15.33,0,0,1,.38-1.76,1.18,1.18,0,0,1,1-.85,1.1,1.1,0,0,1,1.11.73,3.68,3.68,0,0,1,.15.57c.83.21,1.16.51,1.09.94s-.67.87-1.76.81c0-.45,0-.92-.06-1.4a2.4,2.4,0,0,0-.06-.6.38.38,0,0,0-.31-.19c-.13,0-.36.16-.36.25A6,6,0,0,0,90.53,169.87Zm1.1.26.17.14.32-.37-.11-.11Z"/><path class="cls-1" d="M48.26,72.86a4.59,4.59,0,0,0,3.09,3.35c.57-.23.48-.76.51-1.21a2.84,2.84,0,0,0-1.46-2.63,1.6,1.6,0,0,0-2.28.21c-.3-.41-.07-.64.19-.8a2,2,0,0,1,2.22.07,3.62,3.62,0,0,1,1.94,3.45,3,3,0,0,1-.26,1,.89.89,0,0,1-1,.48,2.93,2.93,0,0,1-1.69-.86,5.56,5.56,0,0,1-1.45-2.07C47.93,73.46,47.82,73.11,48.26,72.86Z"/><path class="cls-1" d="M34.36,122.61c.78.22,1.38.41,2,.54a3.32,3.32,0,0,0,2.47-.27c.67-.4.68-1,0-1.41a1.06,1.06,0,0,0-.47-.19c-1,0-2,0-2.94.09-.27,0-.52.27-.78.42l-.63.34a1.65,1.65,0,0,1,1.15-1.33,8.12,8.12,0,0,1,3.33-.16,2,2,0,0,1,1.08.69,1.18,1.18,0,0,1-.26,1.91,3.06,3.06,0,0,1-2.31.55c-.6-.12-1.2-.19-1.79-.32C34.8,123.37,34.73,123.27,34.36,122.61Z"/><path class="cls-1" d="M185.17,105.74a4.32,4.32,0,0,1-2.55-.86,1.37,1.37,0,0,1-.72-1.26,1.46,1.46,0,0,1,1-1.17,4,4,0,0,1,2.78,0,2.81,2.81,0,0,1,1.43,1.37c.39.67-.3,1.76-1.14,1.91A5.64,5.64,0,0,1,185.17,105.74Zm1.36-1.06c-.13-.38-.22-.7-.35-1a1.35,1.35,0,0,0-.32-.48,3.37,3.37,0,0,0-2.92-.11c-.51.35-.59.73-.14,1.15a3.72,3.72,0,0,0,2.48,1A1.35,1.35,0,0,0,186.53,104.68Z"/><path class="cls-1" d="M124.58,177.38a1.37,1.37,0,0,1,1.17-1.6,2.23,2.23,0,0,1,2.33,1.71,6.36,6.36,0,0,1-.47,4.07,2.77,2.77,0,0,1-.47.65,1,1,0,0,1-1.37.15,4,4,0,0,1-1.59-2.06,2.16,2.16,0,0,1-.1-2c0,.23.13.45.16.69a4.7,4.7,0,0,0,1.13,2.56c.76.89,1.36.81,1.81-.26a6.09,6.09,0,0,0,.47-3.18,2.45,2.45,0,0,0-.56-1.17c-.67-.84-1.5-1-2.1.08a2,2,0,0,1-.32.39S124.61,177.38,124.58,177.38Z"/><path class="cls-1" d="M121,38.57l-.47.5c.07.06.11.12.16.13a3.18,3.18,0,0,1,2.12,3.57,4.07,4.07,0,0,1-.48,1.33c-.49.74-1,.91-1.66,0a.61.61,0,0,1-.09-.18,10.39,10.39,0,0,1-.63-4.87C120,38.36,120.25,38.26,121,38.57Zm-.57,1.13a13.2,13.2,0,0,0,.65,3.88c.07.22.31.38.51.61A2.87,2.87,0,0,0,122,41C121.68,40.32,121.37,39.69,120.39,39.7Z"/><path class="cls-1" d="M65.82,90.92c0-.1-.06-.18,0-.22.3-.44.57-1,1.19-.93s.75.68.88,1.25a4.72,4.72,0,0,1-.71,4.06,1.14,1.14,0,0,1-2.1-.14,4.56,4.56,0,0,1-.24-3,2.68,2.68,0,0,1,.41-1c.19,1.42-.76,3,.72,4.23a3.77,3.77,0,0,0,.94-4.8C66.4,90.29,66.37,91.19,65.82,90.92Z"/><path class="cls-1" d="M137.81,116.19c-.53-.51-.21-.84-.1-1.16.94-2.53,1.89-5,2.84-7.58a7.88,7.88,0,0,1,.4-.76c.4.18.46.39.35.7-.34,1-.62,2.07-1,3.08-.61,1.57-1.28,3.12-1.93,4.67C138.22,115.48,138,115.79,137.81,116.19Z"/><path class="cls-1" d="M43.69,134.33a17.39,17.39,0,0,1,3.94-2.92,2.08,2.08,0,0,1,2.8,1.64.92.92,0,0,1-.64,1.13,11.58,11.58,0,0,1-1.44.48c-.74.21-1.49.41-2.24.6a1,1,0,0,1-.37,0c.07-.56.52-.58.83-.68.8-.27,1.63-.44,2.42-.72.35-.12,1,0,.95-.57a1.79,1.79,0,0,0-.54-1,1.24,1.24,0,0,0-1.89-.16c-.92.62-1.78,1.35-2.67,2C44.57,134.27,44.33,134.63,43.69,134.33Z"/><path class="cls-1" d="M143.44,111a1.67,1.67,0,0,1,.13.51,32.78,32.78,0,0,1-2.07,7.6c-.24.6-.45,1.21-.7,1.8a4.24,4.24,0,0,1-.42.61,1,1,0,0,1-.12-1c.32-.89.66-1.78.93-2.68.63-2,1.22-4.07,1.82-6.1.07-.25.17-.48.25-.72Z"/><path class="cls-1" d="M101.59,140.29c-.18-.12-.37-.19-.46-.34a8.54,8.54,0,0,1-.51-1c-1.1-2.25-2.2-4.51-3.28-6.77a1.4,1.4,0,0,1-.14-1.49c1,1.76,1.93,3.38,2.73,5.08.64,1.37,1.21,2.78,1.8,4.18C101.76,140,101.66,140.13,101.59,140.29Z"/><path class="cls-1" d="M55.55,71.33c.72-1,1.22-1.93.74-3.12a3.45,3.45,0,0,0-2.21-1.52c-.54,1.06.09,2,.56,2.88a.76.76,0,0,1-1.08-.36c-.41-.73-1.12-1.37-.75-2.54.18.29.26.44.36.6a.16.16,0,0,0,.09,0c.05-.12.09-.25.15-.37.26-.61.61-.85,1.16-.59,1.83.83,2.58,1.37,2.4,3.59a1.72,1.72,0,0,1-.79,1.36A1.81,1.81,0,0,1,55.55,71.33Z"/><path class="cls-1" d="M130.19,106.44l-.82,1.09a49.33,49.33,0,0,0-3.53,6c-.42.74-.89,1.44-1.36,2.14-.18.26-.33.61-.85.58a1.93,1.93,0,0,1,.13-.44c1-1.83,2-3.67,3.11-5.47.7-1.16,1.48-2.27,2.26-3.37a1.77,1.77,0,0,1,.88-.76Z"/><path class="cls-1" d="M73.52,108.56a2.66,2.66,0,0,0-1.42-4.23c0-.42.22-.55.57-.48a1.71,1.71,0,0,1,.64.3,3.81,3.81,0,0,1,1.21,4.29c-.34.8-1.17,1-1.69.38a8,8,0,0,1-1.56-3.47c0-.08.08-.17.17-.37l.31.55c.38.75.75,1.51,1.16,2.25A5.34,5.34,0,0,0,73.52,108.56Z"/><path class="cls-1" d="M191.57,97.42a9.39,9.39,0,0,0-6.19,1.45c1.48,1.21,2.93.88,4.46.62-.11.12-.19.29-.32.34a4.65,4.65,0,0,1-3.83-.06.88.88,0,0,1-.27-1.55,2.34,2.34,0,0,1,.66-.47,11.91,11.91,0,0,1,4.8-1.07C191.58,96.67,191.66,96.82,191.57,97.42Z"/><path class="cls-1" d="M98,44a1.39,1.39,0,0,1,1.88-1.43,2,2,0,0,1,1.15,1.79,5.14,5.14,0,0,1-.4,2.15c-.32.78-1,.84-1.52.22a3.8,3.8,0,0,1-.68-1.23A14.64,14.64,0,0,1,98,44Zm1.87,2.61a2.9,2.9,0,0,0,.42-2.7c-.2-.5-.47-.91-1.17-.8-.15.32-.47.67-.43,1A3.74,3.74,0,0,0,99.9,46.65Z"/><path class="cls-1" d="M173.14,171.44c.18-.25.27-.52.4-.54a1.87,1.87,0,0,1,1,.06,9.45,9.45,0,0,1,1.84,1,1.88,1.88,0,0,1,.67,2.43,1.77,1.77,0,0,1-2.21,1,3.21,3.21,0,0,1-2.27-1.73c-.28-.53-.18-.79.39-1.16-.08,1.49.88,2.05,2.07,2.38a1.31,1.31,0,0,0,1.43-.51,1.13,1.13,0,0,0-.14-1.57A4.11,4.11,0,0,0,173.14,171.44Z"/><path class="cls-1" d="M55.86,105.7c.35-1,1.19-1.62.66-2.56-.16-.27-.38-.51-.68-.92a4.13,4.13,0,0,0-.25,3.62c-.45.21-.69-.12-.83-.46a3.7,3.7,0,0,1,.13-3.15,1,1,0,0,1,1.54-.4,2.18,2.18,0,0,1,.91,2A1.8,1.8,0,0,1,55.86,105.7Z"/><path class="cls-1" d="M145.67,92.8A7.6,7.6,0,0,1,145.9,94c0,1.46.09,2.93,0,4.38-.09,1.24-.39,2.46-.6,3.69,0,.29-.16.52-.55.49a1,1,0,0,1-.08-.38,47.3,47.3,0,0,0,.66-9.36Z"/><path class="cls-1" d="M62.54,137.86c.11.06.23.08.27.14a6.48,6.48,0,0,1,.71,5.34,13,13,0,0,1-2,3.63c-.25.33-.52.72-1.15.55a5.37,5.37,0,0,1,.33-.54,13.21,13.21,0,0,0,2.38-4.43,5.35,5.35,0,0,0-.33-3.55C62.63,138.65,62.25,138.33,62.54,137.86Z"/><path class="cls-1" d="M46.17,111.69a6.42,6.42,0,0,1-1.08-.19,1.15,1.15,0,0,1-.51-2,4.23,4.23,0,0,1,2.29-1.4,2.09,2.09,0,0,1,2.2.93,1,1,0,0,1-.11,1.23A3,3,0,0,1,46.17,111.69Zm2.58-2.17c-.3-.38-.51-.78-1.06-.73a4.43,4.43,0,0,0-2.52,1c-.21.17-.46.55-.4.74a1.15,1.15,0,0,0,.71.62A2.67,2.67,0,0,0,48.75,109.52Z"/><path class="cls-1" d="M137.92,122c-1.13,1-6.43.59-8.76.28a3.59,3.59,0,0,1,.78-.28c1.56-.08,3.12-.13,4.68-.21.87,0,1.75-.11,2.63-.18C137.53,121.61,137.8,121.61,137.92,122Z"/><path class="cls-1" d="M73.27,175.19c0-.46,0-.72.1-1,.09-.42.24-.84.29-1.27a1,1,0,0,0-.18-.73c-.29-.23-.56,0-.77.26a3,3,0,0,0-.46,2.86c-.42.16-.67.09-.82-.38a3.48,3.48,0,0,1,1-3.32,1.32,1.32,0,0,1,1.42-.25c.5.23.55.72.54,1.22A3.49,3.49,0,0,1,73.27,175.19Z"/><path class="cls-1" d="M128.15,123.29c-1.77-.76-4.73-4.53-4.86-6.16.41,0,.57.33.75.59a32.61,32.61,0,0,0,3.84,4.61C128.12,122.57,128.54,122.79,128.15,123.29Z"/><path class="cls-1" d="M68.2,140.73C67,142.53,67,143.2,68,144.07a2.38,2.38,0,0,0,1.58-1.69c.27-.78,0-1-.59-1.11a3.35,3.35,0,0,1-.62-.32,1.51,1.51,0,0,1,1.73.26,1.31,1.31,0,0,1,.1,1.35,3.56,3.56,0,0,1-1.27,1.8,1.18,1.18,0,0,1-2-.56,2.82,2.82,0,0,1,.38-2.7C67.48,140.82,67.75,140.53,68.2,140.73Z"/><path class="cls-1" d="M55.3,99.54a2.47,2.47,0,0,1-2,.35c-.54-.17-1.29.13-1.61-.68.46-.39.91,0,1.37.06l1.62.07c-.17-.28-.24-.54-.4-.66a4.71,4.71,0,0,0-3.61-1.28c-.12,0-.36-.08-.37-.17s.07-.38.16-.4a5.1,5.1,0,0,1,1.28-.16A4.29,4.29,0,0,1,55.3,99.54Z"/><path class="cls-1" d="M181.82,77.52a.83.83,0,0,1-.28,1.18c-.07-.27-.13-.47-.19-.7a5.82,5.82,0,0,0-3.53,2c-.64.75-.47,1.36.45,1.73a4.59,4.59,0,0,0,1,.19c.25,0,.5.07.86.11a2.35,2.35,0,0,1-3-.39,1.48,1.48,0,0,1,0-1.63A5.62,5.62,0,0,1,181.82,77.52Z"/><path class="cls-1" d="M108.22,67.71c-.4-.79-1.15-1.43-1.28-2.36l.18-.13a2.8,2.8,0,0,1,.41.35c.42.53.83,1.07,1.23,1.61a2,2,0,0,1,.33.62c.15.61-.21,1-.84.89a1.85,1.85,0,0,1-.73-.33,5.37,5.37,0,0,1-1.75-2.06c-.06-.12-.17-.26-.14-.37a1.23,1.23,0,0,1,.28-.68c.19-.16.73.24.65.54-.15.52.17.77.43,1s.71.69,1.06,1A1.29,1.29,0,0,0,108.22,67.71Z"/><path class="cls-1" d="M184.52,118.57a5.84,5.84,0,0,1-2.71-.68,1.07,1.07,0,0,1-.27-1.72,2.74,2.74,0,0,1,4.33.7,1.23,1.23,0,0,1-.93,1.69A1.47,1.47,0,0,1,184.52,118.57ZM181.67,117a4.3,4.3,0,0,0,2.79,1.08.94.94,0,0,0,.8-.44,1.21,1.21,0,0,0-.15-1C184.3,115.53,182.62,115.69,181.67,117Z"/><path class="cls-1" d="M56.42,115.9a6.6,6.6,0,0,0-1.21,3.28c.25.27.51.18.8,0A8.57,8.57,0,0,0,59,116.34c-.44-.88-.44-.88-1.63-.74.15-.2.24-.44.36-.46a2.31,2.31,0,0,1,1.08,0,1.22,1.22,0,0,1,.51,1.75A8.36,8.36,0,0,1,56,119.78a.87.87,0,0,1-1,0,1,1,0,0,1-.18-.93A4.53,4.53,0,0,1,56,116.1,1.31,1.31,0,0,1,56.42,115.9Z"/><path class="cls-1" d="M95.56,154.68c0,1-.75,1.93.42,2.54a3.45,3.45,0,0,0,1.34-2.79c0-.34-.37-.58-.74-.46s-.58.26-.94.42c.24-.8.7-1.15,1.3-1.09s.93.44,1,1.2a4.19,4.19,0,0,1-.82,2.57,1.17,1.17,0,0,1-1.48.57c-.61-.2-.85-.54-.81-1.34a5.93,5.93,0,0,1,.28-1.38C95.09,154.83,95.32,154.79,95.56,154.68Z"/><path class="cls-1" d="M53.13,127.48c-1,.94-1.09,1.84-.38,3.23A4.6,4.6,0,0,0,54.41,128c0-.15-.29-.48-.51-.64s-.38-.05-.6-.07c.28-.68.79-.84,1.18-.39a1.1,1.1,0,0,1,.32,1.29c-.41.85-.78,1.72-1.21,2.56a.8.8,0,0,1-1,.44,1.33,1.33,0,0,1-.67-.67,3.23,3.23,0,0,1,0-2.48C52.07,127.53,52.37,127.38,53.13,127.48Z"/><path class="cls-1" d="M63,109.66a2,2,0,0,0,.22-1.85,15.71,15.71,0,0,0-.81-1.51c-.24-.47-1.16-.32-1.07-1.14a3.45,3.45,0,0,1,2.38,4.38c-.14.37-.4.57-.78.45a3.11,3.11,0,0,1-1-.49,5.58,5.58,0,0,1-1.62-2.43,1.22,1.22,0,0,1,.1-.9,13.73,13.73,0,0,0,1,1.91A14.7,14.7,0,0,0,63,109.66Z"/><path class="cls-1" d="M144.62,191.45l-.36-.73c-.19.15-.31.19-.33.26-.12.47-.25,1,.22,1.31s.84,0,1.23-.22a.91.91,0,0,0,.16-.11c1.1-.81,1.2-1.46.27-2.64.31,0,.55,0,.7.07a1.43,1.43,0,0,1,.54,1.71,3,3,0,0,1-2.43,1.92c-.69.12-1.08-.08-1.27-.73a3.1,3.1,0,0,1,0-1.39.77.77,0,0,1,.93-.59C144.62,190.4,144.78,190.69,144.62,191.45Z"/><path class="cls-1" d="M55,155.5c.52-.56.87-.65,1.34-.27a1.4,1.4,0,0,1,.58.89,2.7,2.7,0,0,1-1.08,2.4,1.38,1.38,0,0,1-1.34.16,3.78,3.78,0,0,1-1.69-1.25.54.54,0,0,1,.08-.84c.26.28.48.57.75.81,1.11,1,2.09.73,2.45-.72.15-.57,0-.82-.48-1.06A5,5,0,0,0,55,155.5Z"/><path class="cls-1" d="M133.94,130.94a1.21,1.21,0,0,1,1.45-.26,2.35,2.35,0,0,1,1.33,3.17,1.36,1.36,0,0,1-1.33.78,1.25,1.25,0,0,1-1.18-.95,1.11,1.11,0,0,1,.34-1.53c0,.35.07.59.09.83,0,.63.34,1.05.74,1.06s.7-.44.71-1a1.72,1.72,0,0,0-1.32-1.82C134.53,131.08,134.28,131,133.94,130.94Z"/><path class="cls-1" d="M157.13,145.14c-.06-.23-.6-.2-.34-.59a.42.42,0,0,1,.7,0,2.19,2.19,0,0,1,.66.95,3.75,3.75,0,0,1-.34,2.46c-.32.6-.69.81-1.21.68s-.69-.46-.73-1.08a2.27,2.27,0,0,1,.82-2.26,1.46,1.46,0,0,1,.46-.15,8.53,8.53,0,0,1-.36.88,2.09,2.09,0,0,0,0,2.06,2.65,2.65,0,0,0,.7-2.58C157.44,145.35,157.24,145.25,157.13,145.14Z"/><path class="cls-1" d="M117.7,58.76c.1.11.18.15.18.2a6.34,6.34,0,0,1-1.49,4.18c-.6.73-1.25.59-1.62-.29a5.54,5.54,0,0,1-.38-3.36.9.9,0,0,1,.17-.45.64.64,0,0,1,.44-.1.4.4,0,0,1,.08.34c-.47.86-.12,1.72,0,2.58a2.65,2.65,0,0,0,.24.77.43.43,0,0,0,.8.07,5.12,5.12,0,0,0,.64-1.14c.28-.79.48-1.6.73-2.4A2.05,2.05,0,0,1,117.7,58.76Z"/><path class="cls-1" d="M179.87,165a1.34,1.34,0,0,1,1.46.29c1.23,1,1.12,2.18.55,3.37a.83.83,0,0,1-1.09.51.9.9,0,0,1-.56-1c.06-.48.31-.7.89-.77a.75.75,0,0,1,.2,0l.09,0c.25-.88-.22-1.4-.91-1.81-.2-.12-.4-.23-.59-.36C179.87,165.25,179.88,165.15,179.87,165Z"/><path class="cls-1" d="M99.11,70a2.31,2.31,0,0,1-.14.53.77.77,0,0,1-1.43.17c-.16-.2-.26-.52-.47-.6-.59-.23-.5-.66-.39-1.08a1.05,1.05,0,0,1,1.08-.76A1.47,1.47,0,0,1,99.11,70Z"/><path class="cls-1" d="M143.47,163.66c-.12.43-.18.71-.26,1a2,2,0,0,0,.78,2.13.93.93,0,0,0,1.36-.17,1.41,1.41,0,0,0,0-2.16,10.41,10.41,0,0,0-1.2-1c.27-.06.46-.17.6-.13a2.17,2.17,0,0,1,1.53,1.62,2.11,2.11,0,0,1-.78,2.28,1.78,1.78,0,0,1-2,0,2.46,2.46,0,0,1-.51-3.28C143.07,163.82,143.21,163.79,143.47,163.66Z"/><path class="cls-1" d="M124.13,53.46a10.86,10.86,0,0,0-.86,4.67c.53-.41,1-.75,1.38-1.05s.51-.93,1.22-1.17c-.06.29-.06.42-.1.52a4.83,4.83,0,0,1-2,2,.75.75,0,0,1-1.23-.62,10.27,10.27,0,0,1,.79-4.16C123.5,53.31,123.73,53.22,124.13,53.46Z"/><path class="cls-1" d="M176.09,178.61c.68.2,1.27.32,1.82.53a1.19,1.19,0,0,1,.84,1.42c-.13.51-.36,1-.93,1.1a1.35,1.35,0,0,1-1.25-.52A2.39,2.39,0,0,1,176.09,178.61Zm.64.76-.19.12a8.31,8.31,0,0,0,.55,1.12c.16.25.47.43.76.13a.6.6,0,0,0-.14-.87C177.4,179.68,177.06,179.54,176.73,179.37Z"/><path class="cls-1" d="M62,137.41c-1.59-1.46-3.05-3.12-5.56-3.06-.15-.3,0-.6.43-.66a2.78,2.78,0,0,1,1.22,0,8.06,8.06,0,0,1,3.86,2.72A.68.68,0,0,1,62,137.41Z"/><path class="cls-1" d="M191.53,124.52c-.26.75-.83.74-1.3.7a4.58,4.58,0,0,1-2.44-.92,1.3,1.3,0,0,1-.58-1.41,1.29,1.29,0,0,1,1.24-.88c.2,0,.41,0,.61,0,.39,0,.8,0,1,.42s-.05.78-.55,1c0-.27,0-.48.06-.76-.58,0-1.23-.32-1.64.44C188.48,124.33,189.77,124.84,191.53,124.52Z"/><path class="cls-1" d="M68.26,156.82a1.37,1.37,0,0,1,.56,1.5A5.88,5.88,0,0,1,67.73,161a1.15,1.15,0,0,1-1.25.49c-.5-.11-.63-.5-.77-.95a3.26,3.26,0,0,1,.07-1.7.72.72,0,0,1,.79-.62c-.35,1-.78,1.91.14,2.86C68.11,160,68.14,158.43,68.26,156.82Z"/><path class="cls-1" d="M142.86,128.22c.82,1.32,1.35,2.81,2.9,3.56.31-.77-.12-1.31-.48-1.86s-.74-1.1-1.14-1.69c.14,0,.27-.13.3-.11a4.8,4.8,0,0,1,1.89,3.11,1.27,1.27,0,0,1-.23.93c-.29.28-.7.1-1-.12a6.18,6.18,0,0,1-2.25-3.16A1.67,1.67,0,0,1,142.86,128.22Z"/><path class="cls-1" d="M134.21,91.93a2,2,0,0,1,.49.36c1.72,2.26,2.58,3.88,2.54,4.75-.36.2-.58,0-.76-.28A19.64,19.64,0,0,1,134,92.13Z"/><path class="cls-1" d="M133.3,165.73a1.74,1.74,0,0,1,2,.47,3.19,3.19,0,0,1,.72,3.43c-.49,1-1.07,1.09-1.83.4a3.26,3.26,0,0,1-1-3c.19.43.3.71.43,1,.24.48.45,1,.73,1.42.18.28.48.6.84.39a1.19,1.19,0,0,0,.46-.71,2.4,2.4,0,0,0-2-3.13C133.57,166,133.51,165.88,133.3,165.73Z"/><path class="cls-1" d="M64.23,103.66c1,0,1.79.17,2.21,1.07s1.14,1.67.43,2.76a1.27,1.27,0,0,1-1.42-.4,5.34,5.34,0,0,1-1.33-3A1.14,1.14,0,0,1,64.23,103.66Zm2.48,3.51a3.73,3.73,0,0,0-.78-2.37,1.39,1.39,0,0,0-1.27-.64A4.78,4.78,0,0,0,66.71,107.17Z"/><path class="cls-1" d="M95.63,173.28a11.53,11.53,0,0,0,.3-2.32,6.5,6.5,0,0,0-.61-2.23,19.22,19.22,0,0,0-1.39-2.14c.27,0,.5-.07.59,0a6.64,6.64,0,0,1,1.18,1.25,5.32,5.32,0,0,1,.52,4.85,4.21,4.21,0,0,1-.39.64Z"/><path class="cls-1" d="M141.53,170.24a11,11,0,0,1,1,.5,1,1,0,0,1,.36.47,2.34,2.34,0,0,1-1.47,2.56,1.87,1.87,0,0,1-.41,0c-.62-.07-.89-.45-.93-1.24,0-1.05.18-1.51.8-1.63.11,0,.25.06.52.13a1.42,1.42,0,0,0-.63,1.53c0,.18.15.44.28.48a.81.81,0,0,0,.62-.15,2.36,2.36,0,0,0,.53-.72c.3-.61.23-.79-.32-1.18-.2-.14-.39-.31-.58-.46Z"/><path class="cls-1" d="M126.41,71.15c.39-.34.77-.65,1.11-1a4.41,4.41,0,0,0,.68-.88c.14-.27.21-.59-.12-.81a.59.59,0,0,0-.82.11,3.28,3.28,0,0,0-.37.45c-.56-.51-.54-1,0-1.28a1.59,1.59,0,0,1,1.88.21,1.25,1.25,0,0,1,0,1.82,9.75,9.75,0,0,1-1.3,1.27C127.2,71.25,126.87,71.55,126.41,71.15Z"/><path class="cls-1" d="M78.14,175.62a1.79,1.79,0,0,1,1.27-1.87,1.94,1.94,0,0,1,2.1,1.72,3.52,3.52,0,0,1-.74,2.17,1.19,1.19,0,0,1-1.87.23c.08-.06.15-.17.23-.18.28,0,.64,0,.84-.1a2.47,2.47,0,0,0,.66-.86,3.21,3.21,0,0,0,.24-.87c.15-.76,0-1-.57-1.31s-.91-.23-1.43.3Z"/><path class="cls-1" d="M183.15,73.81c.48.64,1.2,0,1.82.27a1.78,1.78,0,0,1-2.14.32.89.89,0,0,1-.26-1.18,3.25,3.25,0,0,1,.75-.82,7.89,7.89,0,0,1,2.75-1.25c.06,0,.16-.05.2,0s.32.28.49.43c-.14.12-.28.34-.41.34a5.08,5.08,0,0,0-2.52,1C183.36,73.16,183.37,73.19,183.15,73.81Z"/><path class="cls-1" d="M199.39,112.56c-.49.86-1.74,1-2,2.08a1.18,1.18,0,0,0,1.52.22,10.17,10.17,0,0,0,1.46-.86c.58-.47.54-.51.22-1.27.69,0,1,.4.72,1A4,4,0,0,1,198,115.5a1.84,1.84,0,0,1-.56-.18c-.65-.32-.82-.85-.36-1.38A4.11,4.11,0,0,1,199.39,112.56Z"/><path class="cls-1" d="M191.87,71.35,193,71.2s.06,0,.1,0c.7-.15,1.37.09,1.5.53s-.14.82-.93,1.24c0-.49,0-.49.43-1.11a3.25,3.25,0,0,0-1.86.06,1,1,0,0,1-1.3-.5,1.32,1.32,0,0,1,1-.91c.42-.1.83-.25,1.26-.35s.62.12.8.51l-2.13.49A1.57,1.57,0,0,1,191.87,71.35Z"/><path class="cls-1" d="M51.38,111.82a13.78,13.78,0,0,1-1,2.25A4,4,0,0,1,49,115.19a.69.69,0,0,1-1.07-.7,2.77,2.77,0,0,1,.41-1.21A3.08,3.08,0,0,1,51.38,111.82Zm-3,2.75a1.91,1.91,0,0,0,2-2.15A2.8,2.8,0,0,0,48.42,114.57Z"/><path class="cls-1" d="M76.79,166.22c.28.13.43.15.48.24a2.09,2.09,0,0,1,.34,1.55,18.25,18.25,0,0,1-.62,2,1.86,1.86,0,0,1-.48.64.56.56,0,0,1-1-.1,1.76,1.76,0,0,1-.27-.65,4.33,4.33,0,0,1,.28-3.2c.51.69-.06,1.24,0,1.81a6.36,6.36,0,0,0,.49,1.93A4.43,4.43,0,0,0,76.79,166.22Z"/><path class="cls-1" d="M62.68,78.37c.38-.57.51-.62.89-.33a3,3,0,0,1,.69,3.42c-.19.32-.43.65-.86.61a.9.9,0,0,1-.83-.66c-.2-.71-.36-1.43-.5-2.15,0-.14.15-.31.26-.52.5,1,.12,2.14,1.1,2.81A1.84,1.84,0,0,0,62.68,78.37Z"/><path class="cls-1" d="M70.5,135.07l-.66-.92c.15-.05.32-.15.36-.11.24.22.56.44.65.73a2.15,2.15,0,0,1-1.4,2.3,1.08,1.08,0,0,1-1.13-.51A2.33,2.33,0,0,1,68,134.8c.08-.48.33-.57,1-.39a1.16,1.16,0,0,0-.19,1.61c.23.37.53.43.84.12A11.88,11.88,0,0,0,70.5,135.07Z"/><path class="cls-1" d="M63.46,150.27a8.91,8.91,0,0,0-1,1.22,2.89,2.89,0,0,0-.32,1.24.81.81,0,0,0,.41.6c.13.07.49-.08.6-.23.34-.49.62-1,.92-1.56a3.69,3.69,0,0,0,.19-.48.43.43,0,0,1,.27.66,13.26,13.26,0,0,1-1,1.78,1.08,1.08,0,0,1-1.27.41,1.25,1.25,0,0,1-.82-1.07,3,3,0,0,1,1.48-2.59A1.57,1.57,0,0,1,63.46,150.27Z"/><path class="cls-1" d="M140.88,136.63c.37.37.53.9,1,.69a.83.83,0,0,0,.35-.55c.12-.48-.23-.65-.66-.81-.13.18-.29.37-.58.75-.09-.21-.2-.33-.19-.45a1.72,1.72,0,0,1,.17-.83c.2-.27,1-.17,1.43.1a1.31,1.31,0,0,1,.54,1.52,1.46,1.46,0,0,1-1.19,1.11,1.26,1.26,0,0,1-1.13-.87C140.61,137.13,140.77,136.92,140.88,136.63Z"/><path class="cls-1" d="M129.82,185.4l.15.52c.31.92.94,1.12,1.68.52a4.83,4.83,0,0,0,.51-.5,1.93,1.93,0,0,0,.35-2,1.8,1.8,0,0,0-1.56-1c-.23,0-.46,0-.78-.07a1.16,1.16,0,0,1,1.5-.27,2,2,0,0,1,1.24,2.87A4.57,4.57,0,0,1,131.7,187a1.14,1.14,0,0,1-1.5,0C129.7,186.6,129.36,186.12,129.82,185.4Z"/><path class="cls-1" d="M103.72,94.93a7.53,7.53,0,0,1-.38,1.25,1,1,0,0,1-1.3.49,1.14,1.14,0,0,1-.67-1.32,4.51,4.51,0,0,1,.35-.95,1.13,1.13,0,0,1,1.39-.56C103.52,94,103.67,94.28,103.72,94.93Zm-.84-.4c-.38-.14-.64,0-.69.34s-.38.69,0,1,.42.21.58,0A1.6,1.6,0,0,0,102.88,94.53Z"/><path class="cls-1" d="M183.65,85.89c.23,0,.36-.07.41,0,1.31,1.12,1.91,3.65-.47,4.6a12.11,12.11,0,0,1-1.44.47c-.34.09-.57-.06-.69-.46a14.37,14.37,0,0,0,1.47-.36,3.88,3.88,0,0,0,1.07-.55,1.47,1.47,0,0,0,.52-2C184.29,87.05,184,86.54,183.65,85.89Z"/><path class="cls-1" d="M43.87,125a3.68,3.68,0,0,0,3.19-.75,1.9,1.9,0,0,0-1.25-1.63c-.74-.27-1.34.36-2.07.27a2.09,2.09,0,0,1,3.71,1.34,1.24,1.24,0,0,1-.52.81,7.43,7.43,0,0,1-1.9.68A1,1,0,0,1,43.87,125Z"/><path class="cls-1" d="M105,120.47c-1.33,1.34-3.11,1.74-4.94,2.37a1.37,1.37,0,0,1,.82-1c1.12-.55,2.25-1.06,3.39-1.56a2,2,0,0,1,.66,0C105,120.3,105,120.38,105,120.47Z"/><path class="cls-1" d="M120.3,173c0,.27.07.43.11.71a1.14,1.14,0,0,1,1.51-.08c.71.41.61,2.31.07,2.68a1,1,0,0,1-.83,0,3.19,3.19,0,0,1-1.13-3.14S120.13,173.09,120.3,173Zm1.31,3c.65-1.21.48-1.85-.53-2.14C120.53,174.75,120.66,175.32,121.61,176Z"/><path class="cls-1" d="M86.22,159.28v.83c0,.52,0,1.13.56,1.3s.9-.34,1.18-.77a5.38,5.38,0,0,0,.28-.55l-1.06-1c.23,0,.42-.15.55-.09a1.23,1.23,0,0,1,.64,2,3.4,3.4,0,0,1-1,.89,1,1,0,0,1-1.47-.4,1.91,1.91,0,0,1,0-2.23Z"/><path class="cls-1" d="M167.43,80.69l-.83.43c0,.36.1.58.42.61s.85.1,1.13-.28a6,6,0,0,0,.42-.79c.1-.19.22-.37.36-.6a1.64,1.64,0,0,1-.61,2,2.2,2.2,0,0,1-1.56.26,1,1,0,0,1-.83-.91,1.1,1.1,0,0,1,.42-1.17C166.8,80,167.09,80.18,167.43,80.69Z"/><path class="cls-1" d="M129.55,173.16c-.29-.15-.58-.36-.39-.7a1,1,0,0,1,.67-.34,1.59,1.59,0,0,1,1.75.92,1.49,1.49,0,0,1-.3,1.94c-.54-.65-1.54-.85-1.75-1.84l.36-.15,1.18,1.21a1.08,1.08,0,0,0-.53-1.33C130.16,172.59,129.79,172.73,129.55,173.16Z"/><path class="cls-1" d="M198.94,78.32c.45.66,1.36.06,1.81.69a2.07,2.07,0,0,1-2.41-.17.83.83,0,0,1,.33-1.2,3.13,3.13,0,0,1,2.26-.32c-.06.34-.12.63-.21,1.1C200,77.74,199.5,78,198.94,78.32Z"/><path class="cls-1" d="M119.86,184.2a5.45,5.45,0,0,0,1.53-2.64,2,2,0,0,0-.82-2.38,3,3,0,0,1-.28-.32c.26,0,.44-.09.58,0a1.9,1.9,0,0,1,1.12,1.46,4.39,4.39,0,0,1-1.1,3.65C120.73,184.15,120.71,184.13,119.86,184.2Z"/><path class="cls-1" d="M192.25,76.4a4.52,4.52,0,0,0-2.52,1.91c1.06-.45,2.35.11,2.67-1.46.12,0,.33,0,.4.09a.5.5,0,0,1,.07.45c-.24.31-.48.71-.81.84a10.09,10.09,0,0,1-2.06.46.78.78,0,0,1-.67-.29.85.85,0,0,1,.15-.7,4.08,4.08,0,0,1,2.16-1.43C191.82,76.21,192.05,76.35,192.25,76.4Z"/><path class="cls-1" d="M62.68,98.32c.12-.67.31-.76.9-.42s.65.65.49,1.09a1.49,1.49,0,0,1-1.3,1,1,1,0,0,1-.91-.84c-.12-.61.12-.84.84-.82a.34.34,0,0,0,0,.1l.15.49.17-.07c-.08-.16-.16-.31-.25-.46S62.71,98.33,62.68,98.32Z"/><path class="cls-1" d="M130.59,169.46c.25.61.41,1.26,1.22,1.37.52-.16.4-.61.35-1a1.17,1.17,0,0,0-1-.92,6.13,6.13,0,0,0-1.27-.11,1.7,1.7,0,0,1,2.06-.07,2.11,2.11,0,0,1,.83,1.46,1,1,0,0,1-1.1,1.13A1.28,1.28,0,0,1,130.59,169.46Z"/><path class="cls-1" d="M194.89,119.91a5.93,5.93,0,0,0,.89.25,9.34,9.34,0,0,0,1.08,0c-.58-1.41-1.91-1.22-3-1.65.3-.18.47-.38.61-.35a4,4,0,0,1,2.55,1.06c.26.3.56.61.36,1.07a1.09,1.09,0,0,1-1.21.52,2.66,2.66,0,0,1-1.31-.69A1.87,1.87,0,0,0,194.89,119.91Z"/><path class="cls-1" d="M154.82,161.59c-.21.41-.29.58-.38.74a1.36,1.36,0,0,0,.08,1.53c.58.81,1.06.85,1.82.16l.49-.41c0,.31.09.51,0,.63a1.58,1.58,0,0,1-2.5.41,2,2,0,0,1-.32-2.72A3.24,3.24,0,0,1,154.82,161.59Z"/><path class="cls-1" d="M149.33,172.69l-1-.25a.58.58,0,0,1,.86-.28,1.58,1.58,0,0,1,.57.65.71.71,0,0,1,0,.5,7,7,0,0,1-1.18,2.77,1.26,1.26,0,0,1-1.43.53,1.5,1.5,0,0,1-1.06-1.24c0-.05.07-.11.16-.25l.47.62c.48.6.95.66,1.43.1A4.8,4.8,0,0,0,149.33,172.69Z"/><path class="cls-1" d="M59,109.11c.5.07.67.32.62.71a1.83,1.83,0,0,1-1.35,1.38,3.69,3.69,0,0,1-3.11-.9c-.06,0-.06-.18-.13-.43a7.31,7.31,0,0,1,.79.26,3.73,3.73,0,0,0,1.85.45C58.57,110.53,59,110.16,59,109.11Z"/><path class="cls-1" d="M140.44,132.69a3.52,3.52,0,0,0-1.11-2.3,5.38,5.38,0,0,0-.34.68,5.3,5.3,0,0,0-.12.83,1.43,1.43,0,0,1,.08-2.09.82.82,0,0,1,.64-.12,2.85,2.85,0,0,1,1.31,2.73,2.67,2.67,0,0,1-.22.45Z"/><path class="cls-1" d="M64.93,64.69a3.08,3.08,0,0,1,0-2.46.64.64,0,0,1,1-.13,1.24,1.24,0,0,1,.37.69,13.81,13.81,0,0,1,0,1.93c0,.16-.18.32-.44.45a9.1,9.1,0,0,0,0-1.28,2.14,2.14,0,0,0-.41-1.24C65.16,63.27,65.64,64,64.93,64.69Z"/><path class="cls-1" d="M111.25,55.2c.34-.54.31-1.07.7-1.46a2.29,2.29,0,0,1-.52,2.25,3.85,3.85,0,0,1-.69-.51,11.38,11.38,0,0,1-1.4-3.23c.24.16.48.23.56.38.31.53.56,1.08.84,1.63Z"/><path class="cls-1" d="M193.94,85.93a1.17,1.17,0,0,1-1.05-1.4,1.43,1.43,0,0,1,1-1.38,4.62,4.62,0,0,1,3.14-.37,3,3,0,0,1,.52.42c-.64,0-1.07,0-1.5,0a7.57,7.57,0,0,0-1.58.27c-1.18.37-1.4,1.14-.66,2.12A1.62,1.62,0,0,1,193.94,85.93Z"/><path class="cls-1" d="M116.9,139.54c0-.08.08-.19.16-.23a6,6,0,0,1,.81-.39l4.84-1.93c.12.55-.3.62-.56.74-1.21.52-2.43,1-3.65,1.49-.49.2-1,.34-1.5.51C117,139.66,116.93,139.6,116.9,139.54Z"/><path class="cls-1" d="M95.57,143.89c.92-1.6,3.57-3.25,5.11-3.21-.45.61-1.2.59-1.7,1a12.63,12.63,0,0,1-1.65,1.17C96.76,143.14,96.5,143.93,95.57,143.89Z"/><path class="cls-1" d="M116.21,139.3c-1.61.16-2.92-.68-4.57-1.27.41-.14.62-.28.81-.25A7.06,7.06,0,0,1,116.21,139.3Z"/><path class="cls-1" d="M53.24,117a1.72,1.72,0,0,1-1.64,2,.94.94,0,0,1-1-.69,1,1,0,0,1,.68-1.2A3.51,3.51,0,0,1,53.24,117Zm-2.18,1.22c.28.11.54.32.73.27a1.46,1.46,0,0,0,1-1.11C52.16,117.49,51.44,117.28,51.06,118.19Z"/><path class="cls-1" d="M35.23,115.72c-.32-.47,0-.71.23-.91a1.82,1.82,0,0,1,2.64.77c.13.48,0,.85-.5.92a3.57,3.57,0,0,1-2-.09c.52-.68,1.41,0,1.84-.62C36.85,114.87,36.11,114.82,35.23,115.72Z"/><path class="cls-1" d="M172.18,132.85a3.84,3.84,0,0,0,2.06,1.65c-.19-1.27-1.24-1.5-2.2-1.92.64-.57,1.06-.12,1.45.08a2,2,0,0,1,1.22,2.12A2,2,0,0,1,172.18,132.85Z"/><path class="cls-1" d="M37.76,105.63c.36-.63.92,0,1.3-.27-.6-1-.48-1.28-2-.8-.24-.34.06-.47.26-.62a1.18,1.18,0,0,1,1.23-.24,2.23,2.23,0,0,1,1.22,1.65c0,.13-.15.46-.26.47C38.91,105.9,38.3,106.1,37.76,105.63Z"/><path class="cls-1" d="M130.21,180.74a2.33,2.33,0,0,0,.27-2.1l-.73.41c-.27-.47,0-.71.35-.82a.84.84,0,0,1,1.06.68,2.79,2.79,0,0,1-.84,2.44,1.74,1.74,0,0,1-1.07-2.1C129.8,179.59,129.62,180.33,130.21,180.74Z"/><path class="cls-1" d="M47.87,93.5c-.71,1.19-.7,1.58.11,2.7.62-.5.23-1.26.51-2,.15.23.3.36.32.51a2.88,2.88,0,0,1-.26,1.87.58.58,0,0,1-1,.07A2.75,2.75,0,0,1,47,94.07C47.09,93.66,47.33,93.54,47.87,93.5Z"/><path class="cls-1" d="M174.25,142a2.1,2.1,0,0,1-.45-.17,1.92,1.92,0,0,1-.3-.34c.11-.1.22-.25.35-.28a.85.85,0,0,1,1.06.7,2,2,0,0,1-1,1.86,1.1,1.1,0,0,1-.84-.08c-.17-.13-.15-.5-.27-1l.91.43Z"/><path class="cls-1" d="M67.53,134.19a1.33,1.33,0,0,1-1.6,1.36c-1-.12-1.56-1.18-1.31-2.43.34-.12.58-.08.6.36a1.87,1.87,0,0,0,.08.67.93.93,0,0,0,1.53.49C67,134.53,67.21,134.39,67.53,134.19Z"/><path class="cls-1" d="M168.88,68c1-.26,1.26-.15,1.62.51.63,1.16-.55,3.19-1.87,3.15-.11-.34.2-.43.36-.62a4.79,4.79,0,0,0,.88-1.09c.39-.78.15-1.32-.65-1.7A3.59,3.59,0,0,1,168.88,68Z"/><path class="cls-1" d="M52.48,152.5c.18.42.32.85.85.79.92-.12.88-1,1.09-1.64a1.47,1.47,0,0,1-1.73,2.19,1.91,1.91,0,0,1-.85-1.43c0-.54.37-.68,1-.4Z"/><path class="cls-1" d="M59.76,67.57c-.22-.39-.4-.73-.61-1.07s-.53-.58-.36-1.21l1.05,1.26c.25-.94.26-1.13-.1-1.71s-.67-.94-1.14-1.57A2.67,2.67,0,0,1,59.76,67.57Z"/><path class="cls-1" d="M57.43,77.91c.61.47,1,1.17,1.85,1.16.49-1-.84-1.22-1-2,.55-.19.84.15,1.12.46.7.73.79,1.28.33,1.77s-1,.34-1.73-.21C57.69,78.83,57.24,78.62,57.43,77.91Z"/><path class="cls-1" d="M165.92,144.89c.2,1.22.27,1.28,1.26,1.16.24-.91.22-1-.82-1.46.48-.4.84-.31,1.32.32a1.1,1.1,0,0,1-.25,1.67,1.25,1.25,0,0,1-1.74-.46,2.36,2.36,0,0,1-.14-1C165.55,145.07,165.77,145,165.92,144.89Z"/><path class="cls-1" d="M133.59,173.38a2.44,2.44,0,0,1,0-.73c.08-.2.25-.45.42-.49a.73.73,0,0,1,.58.28,1.4,1.4,0,0,1,.24.92l-.75-.52c.05.72.09,1.4.14,2.12-1,0-1-.72-1.31-1.33Z"/><path class="cls-1" d="M59.39,101.43c0-.66.37-1.11.92-1.11a.73.73,0,0,1,.75.77c0,.54-.56,1.28-1,1.29S59.39,102,59.39,101.43Z"/><path class="cls-1" d="M80.5,165.63l.74-1.8c.33.13.54.34.35.77a8.7,8.7,0,0,1-.72,1.43c-.38.56-.9.47-1.16-.12a3.37,3.37,0,0,1,.24-2.16c.09.62.19,1.24.28,1.86Z"/><path class="cls-1" d="M150.47,185c.73-.19.4.7,1,.67.53-.49.36-1.12-.06-1.76.62-.29.86.12,1,.46a1.8,1.8,0,0,1-.41,1.79.8.8,0,0,1-1.17,0C150.45,185.93,150.4,185.75,150.47,185Z"/><path class="cls-1" d="M68.77,99.31c1-.21,1.25-1,1.54-1.84a1.8,1.8,0,0,1,.16.58,1.9,1.9,0,0,1-1.76,1.74.82.82,0,0,1-.85-.6,1.66,1.66,0,0,1,.45-1.89C68.68,98,67.81,98.77,68.77,99.31Z"/><path class="cls-1" d="M67.75,171.85c.64-.68,1.3-1.26,1-2.3-1.12-.33-1.06.88-1.63,1.29a1,1,0,0,1,.27-1.22,2.32,2.32,0,0,1,1-.68.72.72,0,0,1,.89.48A2.18,2.18,0,0,1,68.1,172C68,172,67.9,171.91,67.75,171.85Z"/><path class="cls-1" d="M140.27,163.55a1.77,1.77,0,0,1-.11,2.07.73.73,0,0,1-1.24-.22,2.17,2.17,0,0,1,.18-2.53c.33.84-.38,1.83.64,2.49C139.92,164.73,140.09,164.14,140.27,163.55Z"/><path class="cls-1" d="M143.3,110.68a11.34,11.34,0,0,1-1.66-3.48c0-.12.12-.33.26-.66a19.93,19.93,0,0,1,1.65,3.71C143.57,110.33,143.43,110.46,143.3,110.68Z"/><path class="cls-1" d="M139.65,121.84c-.13-.06-.28-.08-.35-.16-.22-.3-.41-.62-.6-.93-.55-.89-1.09-1.78-1.71-2.8C138.07,118.28,139.7,120.76,139.65,121.84Z"/><path class="cls-1" d="M151.56,144c1.15-.21,1.77.39,1.46,1.41a.65.65,0,0,1-1.19.2A2.21,2.21,0,0,1,151.56,144Zm.8,1.27a1.67,1.67,0,0,0,0-.5,1.07,1.07,0,0,0-.2-.32l-.09.06Z"/><path class="cls-1" d="M175.49,74.18a9.3,9.3,0,0,0,1.14-.57.56.56,0,0,0,.17-.87,7.75,7.75,0,0,0-.46-.66c-.18-.2-.4-.36-.71-.64.26-.07.47-.19.56-.13a2.7,2.7,0,0,1,1.22,1.44,1.07,1.07,0,0,1-.27,1.21,1.42,1.42,0,0,1-1.44.5C175.62,74.44,175.58,74.31,175.49,74.18Z"/><path class="cls-1" d="M147.61,122.4c.5,1,1.42,1.75.8,2.86-.95-.14-1.07-.26-1.12-1.09a6.83,6.83,0,0,1,0-1.11A2.56,2.56,0,0,1,147.61,122.4Zm.25,2.21.29-.06c-.09-.27-.17-.53-.26-.79l-.16,0C147.78,124.07,147.82,124.34,147.86,124.61Z"/><path class="cls-1" d="M164.68,141.33l.72.48a.64.64,0,0,0,.11-1c-.39-.51-.88-.57-1.56-.21a.42.42,0,0,1,.2-.67,1.52,1.52,0,0,1,1.61.31,1.44,1.44,0,0,1,.41,1.46.79.79,0,0,1-.8.65C164.87,142.32,164.79,142,164.68,141.33Z"/><path class="cls-1" d="M64.54,112.82a2.15,2.15,0,0,1-1.31,2,.47.47,0,0,1-.73-.47,2.24,2.24,0,0,1,.77-1.38C63.67,112.57,64.05,112.7,64.54,112.82Zm-.47.27c-.79.39-.79.39-.83,1.1C63.54,113.84,64,113.65,64.07,113.09Z"/><path class="cls-1" d="M105.38,139.76c-.28.85-2,2.16-3.28,2.63-.35-.31-.12-.54.14-.71.79-.51,1.61-1,2.41-1.48Z"/><path class="cls-1" d="M104.92,116.88c-.09.17-.11.32-.17.34l-3.79,1A4.56,4.56,0,0,1,104.92,116.88Z"/><path class="cls-1" d="M66.2,101.22a1.4,1.4,0,0,1,1,.85.9.9,0,0,1-.37,1.19c-.35.14-.71-.07-.9-.56A1.22,1.22,0,0,1,66.2,101.22Z"/><path class="cls-1" d="M149.92,133.19l.41-.92a1.14,1.14,0,0,1,.07,1.44.68.68,0,0,1-.93.12,1.29,1.29,0,0,1-.52-1.25.86.86,0,0,1,.73-.94C150,132.15,149.29,132.75,149.92,133.19Z"/><path class="cls-1" d="M101.12,35.55a1.92,1.92,0,0,1,.2.63c0,.59-.45,1.14-.82,1.14s-.69-.43-.84-1a1.61,1.61,0,0,1,.06-1.25c.32.18.64.51,1,.2,0,0,.25.21.38.32l-1.15.49.56.84C100.79,36.34,101,35.94,101.12,35.55Z"/><path class="cls-1" d="M59.82,71.54c0-.18,0-.36,0-.6,1,.67,1.05,1,.67,1.87-.13.3-.24.6-.38,1a1.21,1.21,0,0,1-.91-1.19c0-.48,0-1,.67-1.06.2.42-.49.87.08,1.32C60.12,72.36,60.37,71.93,59.82,71.54Z"/><path class="cls-1" d="M172.3,76.82c.39,1.27.39,1.27,1.2,1.6.71-.51.3-1.51.9-2.18a2.84,2.84,0,0,1-.13,2.12.86.86,0,0,1-1.18.44,1.46,1.46,0,0,1-1-1.64C172.09,77.05,172.2,77,172.3,76.82Z"/><path class="cls-1" d="M149.92,140.36l.66.38s.13-.12.13-.19a4.26,4.26,0,0,1-.07-.7,1.79,1.79,0,0,1,.28-.52,1.45,1.45,0,0,1,.5,1.39c0,.68-.39,1-.92.95S149.76,141.2,149.92,140.36Z"/><path class="cls-1" d="M65,162.79c-.57-.14-1,.23-1.42.44s-.55.05-.69-.4a11.45,11.45,0,0,1,1.9-.52c.75-.09,1.13.42.92,1.14-.13.45-.15,1-.89,1.12C64.69,164,65.4,163.47,65,162.79Z"/><path class="cls-1" d="M145.3,103c-.06.16-.07.38-.19.48a15.87,15.87,0,0,1-3.15,2.12c.23-1,1-1.21,1.48-1.63a17.36,17.36,0,0,1,1.67-1.12Z"/><path class="cls-1" d="M64.21,116.22c.28,2.25.41,2.44,1.64,2.46l-.21-1.14a1,1,0,0,1,.56,1.1.54.54,0,0,1-.61.54,2.53,2.53,0,0,1-.87-.22A1.89,1.89,0,0,1,64.21,116.22Z"/><path class="cls-1" d="M110.18,92.06c.14.52.24.89.37,1.35.42-.84.42-.84,0-1.49a.4.4,0,0,1,.71.19,1.86,1.86,0,0,1-.16,1.56c-.28.43-.69.49-1,.08a2.53,2.53,0,0,1-.41-1.1C109.72,92.51,110,92.32,110.18,92.06Z"/><path class="cls-1" d="M119.94,58.64c-.07.56-.61,1,0,1.43a6.31,6.31,0,0,1-.52,1.15c-.16.25-.65,0-.64-.33a3.41,3.41,0,0,1,.53-2.09C119.39,58.67,119.68,58.69,119.94,58.64Z"/><path class="cls-1" d="M79.9,170.38c.3.57,0,1.26.73,1.49.61-.57-.24-.62-.37-1,.08-.05.18-.18.27-.17a1,1,0,0,1,1,.71,1.37,1.37,0,0,1-.77,1.11c-.48.08-.73-.28-1-.62S79.56,171.14,79.9,170.38Z"/><path class="cls-1" d="M67.92,127.45c-.38.72-.74.81-1.24.38a1.9,1.9,0,0,1-.2-2.33c.23-.27.5-.31.69-.17a8.88,8.88,0,0,0-.32,1.47C66.83,127.46,67.45,127.4,67.92,127.45Z"/><path class="cls-1" d="M59.12,156.8l-1,.16c-.12-.56.33-.57.62-.69a.72.72,0,0,1,1,.34,1.13,1.13,0,0,1,.15.76,2.17,2.17,0,0,1-1.07,1.41c-.12.07-.34,0-.68,0C58.66,158.17,59.34,157.8,59.12,156.8Z"/><path class="cls-1" d="M93.24,46.39a6.06,6.06,0,0,1,.13.67c0,.36.11.68.52.75s.56-.14.7-.45c0-.07.14-.11.22-.17.21.63.08,1-.39,1.21a1.19,1.19,0,0,1-1.51-.67C92.58,47.11,92.64,46.79,93.24,46.39Z"/><path class="cls-1" d="M48.86,65.13c.23.54.11,1.2,1,1.42a6.19,6.19,0,0,0-.26-.65c-.09-.19-.21-.36-.36-.61.87.17,1.25.67,1,1.29a.9.9,0,0,1-.44.48c-.36.15-.87-.14-1.13-.66S48.15,65.56,48.86,65.13Z"/><path class="cls-1" d="M66,79.48c.35.48.06,1,.18,1.46a1.58,1.58,0,0,0,.22-1.1c.44.13.63.39.54.81a1.9,1.9,0,0,1-.31.73c-.16.19-.45.41-.63.38s-.39-.35-.45-.58A2,2,0,0,1,66,79.48Z"/><path class="cls-1" d="M54.69,122.61a1,1,0,0,1-.29,1.4.88.88,0,0,1-1.28.08C53.17,123.12,53.89,122.87,54.69,122.61Z"/><path class="cls-1" d="M181.83,89.71c-.5.1-.67-.12-.8-.48a2.64,2.64,0,0,1,1.47-3,3.09,3.09,0,0,1,.73,0C181.87,87.14,180.94,88.07,181.83,89.71Z"/><path class="cls-1" d="M123.3,172.69c.17.4.33.8.49,1.2l.17,0c0-.29-.09-.59-.14-.91.3-.12.55-.05.6.27a3.45,3.45,0,0,1,0,1.11.6.6,0,0,1-.35.43.76.76,0,0,1-.61-.21,1.86,1.86,0,0,1-.39-1.78Z"/><path class="cls-1" d="M114.19,93l.66-1.1-.79.37c0-.21-.09-.35,0-.46.22-.67.75-1.1,1.13-.94s.42.64.12,1.36a2.18,2.18,0,0,1-.41.69C114.76,93,114.53,92.92,114.19,93Z"/><path class="cls-1" d="M115.12,67c.32.64-.08,1.48.66,2l1.1-1.28a1.51,1.51,0,0,1-1.11,1.73.84.84,0,0,1-.38-.11A1.77,1.77,0,0,1,115.12,67Z"/><path class="cls-1" d="M142.61,141.05l.76,1.25.17-.08c0-.24-.07-.48-.11-.76.17,0,.3,0,.35,0,.53.49.63,1,.28,1.28a1,1,0,0,1-1.34-.25A1.1,1.1,0,0,1,142.61,141.05Z"/><path class="cls-1" d="M115.37,47.52a6.92,6.92,0,0,1,.61.33c.38.29.7.2,1-.31s.06-.73-.44-.92c-.18-.06-.35-.14-.53-.21,0,0,0-.07,0-.1.9-.23,1.38-.05,1.52.57a1.23,1.23,0,0,1-.9,1.56,2,2,0,0,1-.93-.25C115.54,48.14,115.52,47.89,115.37,47.52Z"/><path class="cls-1" d="M148,164.13c1,.47,1.15,1,.68,2.18-.88.08-1.1-.19-1-1.28.59-.19.45.4.78.58C148.26,165.15,148.13,164.7,148,164.13Z"/><path class="cls-1" d="M190.67,67.61c-.28.23-.4.38-.56.43s-.48,0-.69.09c-.38.17-.76.37-.46.91,0,.09,0,.23,0,.37-.81-.38-1-.93-.42-1.44A2,2,0,0,1,190.67,67.61Z"/><path class="cls-1" d="M67.23,178.27l.63.29c.62-.22.5-.8.63-1.23s-.85-.07-.68-.69c1.18-.11,1.49.21,1.11,1.24a2.57,2.57,0,0,1-.72,1.05C67.8,179.27,67.32,178.94,67.23,178.27Z"/><path class="cls-1" d="M183.83,158.5c-.62.38-1.36.58-1.24,1.45-.43.05-.67-.09-.72-.44a1.25,1.25,0,0,1,.58-1.21C182.86,158,183.31,158,183.83,158.5Z"/><path class="cls-1" d="M53.6,70.85a1.64,1.64,0,0,1,.92,1.72c0,.35-.26.46-.58.38a2.5,2.5,0,0,1-1.22-1.75c0-.08.11-.15.22-.29.18.31.3.57.46.81a1.28,1.28,0,0,0,.69.53C54,71.86,53.81,71.46,53.6,70.85Z"/><path class="cls-1" d="M189.84,116.51c.53.73,1.17.69,1.77.8-.3.66-.77.36-1.17.23-.68-.21-1.05-.61-1-1s.6-.69,1.33-.67c.31,0,.62,0,.61.45Z"/><path class="cls-1" d="M177.58,133.49c.34-.64.62-.26.88-.24l.86.06c0-.35-.08-.62-.11-.89.12,0,.21,0,.23,0,.4.41.56,1,.33,1.25a1,1,0,0,1-1.19.3Z"/><path class="cls-1" d="M55.56,63.43c.18-.41.33-.72.52-1.16.1.27.24.47.2.6-.12.4-.15.89-.7,1a1.66,1.66,0,0,1-.68-2.63,2.16,2.16,0,0,1,.08.58A1.7,1.7,0,0,0,55.56,63.43Z"/><path class="cls-1" d="M100.06,118.32c-.36,1.45-.7,2.79-1,4.13H98.8a1.25,1.25,0,0,1-.1-.48C99.39,118.81,99.4,118.79,100.06,118.32Z"/><path class="cls-1" d="M176.56,129.85a10.63,10.63,0,0,0-1.19-1.39,9.17,9.17,0,0,0-1.52-.89C174.8,127,176.26,128.1,176.56,129.85Z"/><path class="cls-1" d="M195.42,86l.91-.22A1.89,1.89,0,0,0,198,84a.52.52,0,0,1,.37.83,2.57,2.57,0,0,1-2,1.44,4,4,0,0,1-.85,0A1.57,1.57,0,0,1,195.42,86Z"/><path class="cls-1" d="M71.41,100.69a1.26,1.26,0,0,1-.54,1.36.52.52,0,0,1-.8-.28,1.18,1.18,0,0,1,.45-1.15.68.68,0,0,1,.28,0Z"/><path class="cls-1" d="M184.56,113.35c-.55.26-1.17.19-1.36-.15a.66.66,0,0,1,0-.55,1.35,1.35,0,0,1,1.71-.25c.05,0,0,.18.06.33a2.85,2.85,0,0,1-.46.12c-.17,0-.34,0-.61,0Z"/><path class="cls-1" d="M147.53,43.12c-.05-.3.08-.47.39-.4a.72.72,0,0,1,.49,1.08c-.27.64-.43.73-1.22.69-.22-.9-.17-1.07.36-1.39,0,.32-.07.65-.12,1.12C148,43.75,148,43.43,147.53,43.12Z"/><path class="cls-1" d="M67.68,132.69a1.88,1.88,0,0,1-.28-.52c-.17-1-.16-1-.81-1.55.2-.44.5-.39.79-.13a1.92,1.92,0,0,1,.54,2.1Z"/><path class="cls-1" d="M188,107.24c-.22.09-.44.28-.65.27a2.15,2.15,0,0,1-.73-.29s0,0-.06-.08c-.18-.36.09-.81.6-1,.71-.29,1-.21,1.19.32,0,0,0,.06-.08.13-.33.1-.88-.29-1.1.42l.72,0Z"/><path class="cls-1" d="M190.49,113.76a4.7,4.7,0,0,0,.55.27,5.94,5.94,0,0,0,.71.16,1.31,1.31,0,0,1-1.76-.08.61.61,0,0,1,0-.83c.27-.39.7-.53,1.41-.47C191.44,113.46,190.53,113.12,190.49,113.76Z"/><path class="cls-1" d="M181.66,122.61c.57-.74.82-.78,1.75-.21l-1.2.18,1.56.55A1.49,1.49,0,0,1,181.66,122.61Z"/><path class="cls-1" d="M114.78,42.23c-.29-.17-.47-.22-.54-.33a2,2,0,0,1,0-1.76.34.34,0,0,1,.66.1C114.88,40.84,114.82,41.44,114.78,42.23Z"/><path class="cls-1" d="M63.59,100.44c.33.58-.38.59-.39,1.09l.5.19c-.34.29-.49.5-.68.56a.8.8,0,0,1-.64-.13.57.57,0,0,1-.08-.55A2,2,0,0,1,63.59,100.44Z"/><path class="cls-1" d="M65.92,69.29c0,.68-.32,1.48.71,1.73-.32.48-.75.46-1,.24a1.75,1.75,0,0,1-.49-1A.81.81,0,0,1,65.92,69.29Z"/><path class="cls-1" d="M40.24,117.71l.64,1.46c.12-.28.2-.44.27-.62.67.47.67.47,0,1.18C40.1,119.3,39.8,118.7,40.24,117.71Z"/><path class="cls-1" d="M65.53,86.71c-1-.85-1-1.22-.33-2.16.07.55.13,1,.19,1.43h.2c0-.23,0-.46,0-.69C66.4,85.58,66.38,86,65.53,86.71Z"/><path class="cls-1" d="M45.78,113.25c.29.2.48.38.21.68a.66.66,0,0,1-.15.14,5.15,5.15,0,0,1-2.71.6c0-.09,0-.17-.05-.26a9.44,9.44,0,0,1,1.47-.33A1.39,1.39,0,0,0,45.78,113.25Z"/><path class="cls-1" d="M119.63,182.37l.38-1.5a2.21,2.21,0,0,1-.24,2.28c-.72-.47-.72-.47-.57-1.44C119.38,182,119.52,182.19,119.63,182.37Z"/><path class="cls-1" d="M64.58,165.47a1.56,1.56,0,0,1-2.53.16c.16-.12.38-.34.42-.31a1.78,1.78,0,0,0,1.73.05C64.28,165.35,64.39,165.42,64.58,165.47Z"/><path class="cls-1" d="M140.21,126.84l.4-.06a.39.39,0,0,1-.09.69.8.8,0,0,1-.73-.06,1.56,1.56,0,0,1-.56-1.72C139.85,125.85,139.66,126.58,140.21,126.84Z"/><path class="cls-1" d="M158.59,169.93l-1,.33s-.14-.06-.16-.11c-.28-.68-.25-1.11.07-1.27S158.35,169.18,158.59,169.93Z"/><path class="cls-1" d="M134.69,128.53l-.43.67.54.51a.54.54,0,0,1-.89.14c-.51-.4-.29-.9-.22-1.52Z"/><path class="cls-1" d="M122.19,134.91c.89.21,1.78.17,2.45.93A2.06,2.06,0,0,1,122.19,134.91Z"/><path class="cls-1" d="M162.46,148c.68.2,1.26.76,1.92.23l-.15-.57c.14,0,.29-.06.32,0s.38.41.33.54a1.23,1.23,0,0,1-.53.65C163.68,149.08,163,148.78,162.46,148Z"/><path class="cls-1" d="M173.25,82c-.24.86-1.3,1.32-1.86.86-.1-.09-.08-.33-.11-.44Z"/><path class="cls-1" d="M151.41,154.75c-.06-.31-.11-.63-.18-1.07.23.11.5.17.52.26a6.28,6.28,0,0,1,0,1.3c0,.12-.21.28-.35.3a.51.51,0,0,1-.41-.2,1.11,1.11,0,0,1-.08-1.25l.39.7Z"/><path class="cls-1" d="M174.44,129l2.08,1.62c-.17.06-.38.22-.53.17A2.13,2.13,0,0,1,174.44,129Z"/><path class="cls-1" d="M56.43,109c.82-.73,1.58-.42,2.33-.42C58.4,109.24,58,109.32,56.43,109Z"/><path class="cls-1" d="M137.09,173.9a9.26,9.26,0,0,1,0-1.53c0-.17.36-.28.56-.42.08.19.24.39.23.58a3.2,3.2,0,0,1-.23,1C137.62,173.64,137.4,173.7,137.09,173.9Z"/><path class="cls-1" d="M141.76,181.16l-.62.43c.05.06.07.09.09.09l1,.14c-.7.53-1.11.6-1.47.21a.77.77,0,0,1-.18-.7C140.8,181,141.15,180.84,141.76,181.16Z"/><path class="cls-1" d="M70.46,132.22,69.15,130c.31,0,.56,0,.68.08A2.24,2.24,0,0,1,70.46,132.22Z"/><path class="cls-1" d="M146.49,126.22l1.16,1.61c0,.11-.11.32-.18.54A2,2,0,0,1,146.49,126.22Z"/><path class="cls-1" d="M44,112.75A3.08,3.08,0,0,0,41.65,114a1.18,1.18,0,0,1,.77-1.36A1.16,1.16,0,0,1,44,112.75Z"/><path class="cls-1" d="M125.17,68.32a2.65,2.65,0,0,1,.2,2.14A1.42,1.42,0,0,1,125.17,68.32Z"/><path class="cls-1" d="M149,170c-.54,0-1.05,0-1.55,0-.09,0-.25-.22-.23-.3a.82.82,0,0,1,.27-.49C147.82,169,148.72,169.44,149,170Z"/><path class="cls-1" d="M77.87,159.84l.27.48c.6-.23,0-.68.12-1,.44,0,.62.23.81.56a3.7,3.7,0,0,1-.24.54c-.21.31-.45.65-.89.46S77.56,160.26,77.87,159.84Z"/><path class="cls-1" d="M193.81,81.06c-.63,0-1-.16-1.09-.69,0-.32.41-.6,1-.68a2.6,2.6,0,0,1,.39,0c.06,0,.12,0,.23.1-.11.48-.59.31-.93.54C193.5,80.49,193.63,80.72,193.81,81.06Z"/><path class="cls-1" d="M97.63,38.39a2.42,2.42,0,0,1-.3,2C96.82,39.69,96.88,39.14,97.63,38.39Z"/><path class="cls-1" d="M149.4,143.59c.31,1.2-.3,2-1.23,1.75a.91.91,0,0,1-.4-.28.31.31,0,0,1,0-.28.29.29,0,0,1,.24-.13c.91.09.9.09,1.13-.7A2.31,2.31,0,0,1,149.4,143.59Z"/><path class="cls-1" d="M186.47,77.86l1.4-.19c-.75.75-1.14.79-1.9.27a1.39,1.39,0,0,1,1.1-1.16Z"/><path class="cls-1" d="M103.15,40.45c.17.59.31,1,.39,1.46,0,.11-.12.32-.24.37a.5.5,0,0,1-.44-.09C102.6,41.93,102.73,41,103.15,40.45Z"/><path class="cls-1" d="M183.8,107.39a3.45,3.45,0,0,1-.8-.35.78.78,0,0,1-.27-.59c0-.13.27-.33.43-.34a1.39,1.39,0,0,1,.64.19s.08.23,0,.25C183.36,106.82,184,107,183.8,107.39Z"/><path class="cls-1" d="M65.83,148.77l.75.79a1.89,1.89,0,0,1-.2.43c-.3.37-.7.32-.8-.11a5.06,5.06,0,0,1,0-1Z"/><path class="cls-1" d="M109.71,50.75c.06-.58.3-.73.69-.7a1.82,1.82,0,0,1,1.24,1.7C111,51.4,111,50,109.71,50.75Z"/><path class="cls-1" d="M72.9,165.82c.35.64.25,1-.12,1.27a.73.73,0,0,1-.63,0c-.38-.18-.32-.53-.15-.94C72.37,166.52,72.69,166.5,72.9,165.82Z"/><path class="cls-1" d="M54.28,113.44a1.66,1.66,0,0,0-.68.81,1.43,1.43,0,0,1-.33-.15,2.73,2.73,0,0,1-.36-.3C53.36,112.86,53.67,112.79,54.28,113.44Z"/><path class="cls-1" d="M171.7,69.29a3.72,3.72,0,0,0,0,1.17,4.27,4.27,0,0,0,.67,1c-.51.11-.71,0-1-.52A1.2,1.2,0,0,1,171.7,69.29Z"/><path class="cls-1" d="M40.92,109.61l-.92.51c.08.13.14.3.23.31a5.05,5.05,0,0,0,.79,0c-.12.47-.38.63-.8.51a.77.77,0,0,1-.64-.79C39.66,109.75,40,109.58,40.92,109.61Z"/><path class="cls-1" d="M83.32,162.9c-.28-.68-.85-1.29-.53-2.14A2.3,2.3,0,0,1,83.32,162.9Z"/><path class="cls-1" d="M181.5,152.2c-.56-.22-1-.36-1.34-.54a.35.35,0,0,1-.12-.33.51.51,0,0,1,.34-.27C180.86,151,181.24,151.35,181.5,152.2Z"/><path class="cls-1" d="M65.63,174.13a1.29,1.29,0,0,0,1.68-.32c.21.62-.21.81-.55.95C66.27,175,65.87,174.76,65.63,174.13Z"/><path class="cls-1" d="M163.86,145.72c0,.62-.39.69-.71.91l-1.29-.93c.32-.08.53-.18.59-.13A1.11,1.11,0,0,0,163.86,145.72Z"/><path class="cls-1" d="M74.28,161.69c0,.81-.09,1.08-.43,1-.52-.08-.6-.45-.49-1Z"/><path class="cls-1" d="M168,197.68l-1.45,1.1c-.22-.49,0-.71.28-.92S167.4,197.25,168,197.68Z"/><path class="cls-1" d="M57.57,152.33a3.22,3.22,0,0,1,.22.89c0,.14-.3.27-.46.41-.13-.17-.38-.35-.36-.49a3.33,3.33,0,0,1,.35-.83Z"/><path class="cls-1" d="M164.07,145.05a6.12,6.12,0,0,1-.81-.69c-.11-.13-.06-.4-.09-.6a1.43,1.43,0,0,1,.51.14,1.86,1.86,0,0,1,.49.48C164.35,144.62,164.38,144.87,164.07,145.05Z"/><path class="cls-1" d="M56.67,151.47l-.9-1.28c.07-.44.42-.34.63-.13a3,3,0,0,1,.52.94C57,151.09,56.79,151.26,56.67,151.47Z"/><path class="cls-1" d="M113.89,49.82c0-.3-.29-.66.24-.9a3.2,3.2,0,0,1,.21.85.89.89,0,0,1-.3.68c-.31.15-.56-.06-.66-.49Z"/><path class="cls-1" d="M181.79,81.65a2.65,2.65,0,0,1,1.37-1.48A2.29,2.29,0,0,1,181.79,81.65Z"/><path class="cls-1" d="M115.86,102.06c.17-1,.46-1.24,1.25-1.19A2.22,2.22,0,0,1,115.86,102.06Z"/><path class="cls-1" d="M190.3,99.92a2.18,2.18,0,0,1,1.68-1A2,2,0,0,1,190.3,99.92Z"/><path class="cls-1" d="M102.09,139.66h2.09A1.62,1.62,0,0,1,102.09,139.66Z"/><path class="cls-1" d="M144.77,134.29c-.87.37-1,.27-1.05-.58C144.16,133.77,144.55,133.82,144.77,134.29Z"/><path class="cls-1" d="M145.8,182.4c.51.22.73.53.57.9a.49.49,0,0,1-.36.25c-.09,0-.24-.2-.26-.32a4,4,0,0,1,0-.77S145.78,182.42,145.8,182.4Z"/><path class="cls-1" d="M171.52,128.16l.39,1.07c-.59.23-.68-.22-.81-.5S171.15,128.24,171.52,128.16Z"/><path class="cls-1" d="M68.11,162.49a1.83,1.83,0,0,1,0,1.45C67.57,163.14,67.57,163,68.11,162.49Z"/><path class="cls-1" d="M186,127.07h-1.3C185.47,126.35,185.6,126.35,186,127.07Z"/><path class="cls-1" d="M142.11,123.89c.78.17.83.3.49,1.13A1.64,1.64,0,0,1,142.11,123.89Z"/><path class="cls-1" d="M160.38,169.88c.09.21.25.41.2.53a1.27,1.27,0,0,1-.42.48.41.41,0,0,1-.24-.11,1.77,1.77,0,0,1,.1-.61C160.05,170.07,160.21,170,160.38,169.88Z"/><path class="cls-1" d="M50.75,63.93l.94.88c-.19.07-.4.22-.5.17A.79.79,0,0,1,50.75,63.93Z"/><path class="cls-1" d="M92.65,153.79c.52.33.52.33.11.89C92.5,154.3,92.5,154.3,92.65,153.79Z"/><path class="cls-1" d="M98.72,75c-.46.28-.77.32-1.07-.08C98,74.47,98.33,74.47,98.72,75Z"/><path class="cls-1" d="M76.11,175.21c.15.49.11.84-.49,1A1,1,0,0,1,76.11,175.21Z"/><path class="cls-1" d="M185.7,83.22c-.22-.62,0-.74.55-.53C186,82.9,185.86,83.06,185.7,83.22Z"/><path class="cls-1" d="M178.32,168.15c-.16-.17-.3-.25-.3-.33a.41.41,0,0,1,.19-.31c.08,0,.3.1.3.15A1.57,1.57,0,0,1,178.32,168.15Z"/><path class="cls-1" d="M133.84,200.16c.06-.15.12-.29.19-.43l.16.06c-.05.15-.11.29-.17.44Z"/><path class="cls-1" d="M153.46,53.56c1.34-.52,2.53-.1,3.85.62-.87.42-1.44-.17-2.07-.19s-1.27,0-2,0c.14-.23.2-.34.27-.44Z"/><path class="cls-1" d="M129.08,146c-.18.44-.44.45-.72.34a6.1,6.1,0,0,0-3.8,0,32.68,32.68,0,0,0-7.34,2.64,18.35,18.35,0,0,0-5.89,4.94c-1.25,1.52-2.53,3-3.79,4.54a7.23,7.23,0,0,0-2,3.7,2,2,0,0,0,1.58,0c.91-.36,1.81-.74,2.71-1.12.27-.11.51-.36.91-.05a2.24,2.24,0,0,1-.42.36c-1.11.5-2.23,1-3.35,1.46a1.36,1.36,0,0,1-.28.11c-1.43.3-1.94-.32-1.54-1.75a6.64,6.64,0,0,1,1.66-2.77,66.48,66.48,0,0,0,4.65-5.54,16.64,16.64,0,0,1,7.08-5.32,43,43,0,0,1,7.13-2.31A3.42,3.42,0,0,1,129.08,146Z"/><path class="cls-1" d="M131,149.57a3.55,3.55,0,0,1-.81,1.59,27.49,27.49,0,0,1-4.82,4.82,8.66,8.66,0,0,1-3.91,1.62,27.67,27.67,0,0,0-4.41,1.12,7,7,0,0,1-1,.16,1.19,1.19,0,0,1,.9-.69c1.69-.47,3.38-1,5.07-1.4a9,9,0,0,0,3.28-1.56,16.75,16.75,0,0,0,3.56-3.62c.44-.64.94-1.25,1.43-1.85a2.38,2.38,0,0,1,.51-.37Z"/><path class="cls-1" d="M119.71,163.81c-.24,0-.47.07-.62,0a2.53,2.53,0,0,1-.9-2.22c0-.12.16-.28.25-.28a.56.56,0,0,1,.41.18,2.54,2.54,0,0,1,.19.57C119.23,162.58,119.43,163.1,119.71,163.81Z"/><path class="cls-1" d="M118.42,142.94c.66.38.72,1.08.85,1.66s.54,1.12,0,1.86a6.15,6.15,0,0,1-.39-.75A8.78,8.78,0,0,1,118.42,142.94Z"/><path class="cls-1" d="M114.45,161.79c.4-.21.65,0,.76.35.17.58.29,1.17.41,1.77a.39.39,0,0,1-.15.33c-.14,0-.39,0-.45,0a1.91,1.91,0,0,1-.4-.79C114.52,162.89,114.51,162.36,114.45,161.79Z"/><path class="cls-1" d="M121.51,160.79l1,2c-.78.09-.87.06-1.24-.75C121.12,161.71,120.68,161.26,121.51,160.79Z"/><path class="cls-1" d="M123.43,142.06a1.72,1.72,0,0,1-.14,2C122.52,143.55,122.55,142.79,123.43,142.06Z"/><path class="cls-1" d="M113.48,149.73c-1.1.15-1.83-.61-2.84-.51.23-.51.55-.59.83-.52A3,3,0,0,1,113.48,149.73Z"/><path class="cls-1" d="M117,147.28a3.37,3.37,0,0,1-1.13-2.49c.89.55,1,1.36,1.34,2C117.21,146.89,117.06,147.06,117,147.28Z"/><path class="cls-1" d="M124,159.32a3.38,3.38,0,0,1,.37.35c.25.27.49.53.71.82.08.09.15.28.1.34a.54.54,0,0,1-.38.23,1.36,1.36,0,0,1-1.13-1.15C123.7,159.74,123.89,159.56,124,159.32Z"/><path class="cls-1" d="M110.78,151.82a1.33,1.33,0,0,1-1.83-.29.47.47,0,0,1,.17-.76Z"/><path class="cls-1" d="M107.47,153.53c.22-.66.74-.1,1.07-.33a6.81,6.81,0,0,1,1.09-.5c.28.5-.07.65-.36.81A1.62,1.62,0,0,1,107.47,153.53Z"/><path class="cls-1" d="M129.72,156.32c-.26.64-.48.79-.89.65s-.57-.47-.35-1.13Z"/><path class="cls-1" d="M125.11,142.79c.69.39.51.78.33,1.13s-.3.63-.84.33C124.76,143.79,124.92,143.32,125.11,142.79Z"/><path class="cls-1" d="M111,162c.65.72.61,1-.1,2C110.45,163.32,111,162.8,111,162Z"/><path class="cls-1" d="M125.67,158.11c.66-.32,1.18.2,1.81.21C126.9,159.05,126.36,159,125.67,158.11Z"/><path class="cls-1" d="M115.5,146.79c-.42.35-.67.16-.85-.09s-.59-.49-.2-1Z"/><path class="cls-1" d="M130,154.32l1-.79c.49.52,0,.75-.2,1S130.22,154.86,130,154.32Z"/><path class="cls-1" d="M105.45,156.76c.61-.78.87-.8,1.21-.08A1.58,1.58,0,0,1,105.45,156.76Z"/><path class="cls-1" d="M78,75.59a5,5,0,0,0-.86,3.27,45,45,0,0,0,1.91,10.23,22.08,22.08,0,0,0,3.11,6.67,15,15,0,0,1,1.37,2.6c.09.19.33.5-.16.76-.19-.26-.42-.53-.6-.83-.68-1.21-1.4-2.4-2-3.64a38.06,38.06,0,0,1-2.93-7.85c-.55-2.33-1-4.69-1.42-7a5.82,5.82,0,0,1,.37-3.39,2.93,2.93,0,0,1,.58-.81C77.44,75.47,77.68,75.56,78,75.59Z"/><path class="cls-1" d="M85.57,103.85c-1.15-.57-1.16-1.88-1.86-2.78.58-.15.58-.15,1.82,1.52,2.27-4,2.78-8.45,2.93-13.12.2.27.38.4.39.54,0,.85,0,1.7-.06,2.54s-.28,1.6-.31,2.41a20.91,20.91,0,0,1-1.17,5.42c-.26.83-.57,1.65-.88,2.48C86.21,103.43,86.2,103.42,85.57,103.85Z"/><path class="cls-1" d="M88.11,84.18a4.44,4.44,0,0,1-.3-.57c-.55-1.59-1.07-3.2-1.64-4.78a14.81,14.81,0,0,0-.89-2,3.46,3.46,0,0,0-1.54-1.58,2.86,2.86,0,0,1-.87-.83c-.08-.1,0-.37.08-.61a7.23,7.23,0,0,1,3.67,4.46q.81,2.61,1.58,5.23a2.5,2.5,0,0,1,0,.67Z"/><path class="cls-1" d="M76.9,83.14a6.31,6.31,0,0,1-.93.45l-4.12,1.12c.37-.77.62-.93,2.46-1.57A2.59,2.59,0,0,1,76.9,83.14Z"/><path class="cls-1" d="M87.94,76.89c0-.06.07-.15.11-.16a2.66,2.66,0,0,1,.49-.1l4.29-.4C92.11,77.25,89,77.63,87.94,76.89Z"/><path class="cls-1" d="M73.64,90.06c.13-.33.15-.46.21-.51.88-.62,1.76-1.25,2.67-1.85.3-.2.69-.39.91.26A9.69,9.69,0,0,1,73.64,90.06Z"/><path class="cls-1" d="M75.77,80.37c-.3.28-.42.49-.56.51-.87.12-1.74.22-2.61.27a1.23,1.23,0,0,1-.74-.38A7.25,7.25,0,0,1,75.77,80.37Z"/><path class="cls-1" d="M92.85,91.55a10.54,10.54,0,0,1-2.71-1.5c-.08,0,0-.28-.07-.46A3.68,3.68,0,0,1,92.85,91.55Z"/><path class="cls-1" d="M92.43,80.31a4.3,4.3,0,0,1-3.1.47c.2-.2.32-.42.48-.45C90.63,80.17,91.45,79.62,92.43,80.31Z"/><path class="cls-1" d="M75.63,93c-.21-.78.44-1.53,1.81-2.16C77.6,91.42,77.6,91.42,75.63,93Z"/><path class="cls-1" d="M93.39,83.85a3.52,3.52,0,0,1-2.23.76c-.11,0-.25-.2-.29-.34s.07-.32.13-.33c.68-.13,1.36-.24,2-.33C93.12,83.6,93.2,83.71,93.39,83.85Z"/><path class="cls-1" d="M86.81,75.16c-.11-.63.38-.82.75-1s.72-.64,1-.11-.32.58-.59.76S87.34,75.37,86.81,75.16Z"/><path class="cls-1" d="M77.81,96.4a3.94,3.94,0,0,1,1-1.85.55.55,0,0,1,.44,0,.4.4,0,0,1,0,.35c-.33.54-.68,1.06-1,1.57C78.23,96.5,78,96.43,77.81,96.4Z"/><path class="cls-1" d="M81.15,97.31a.93.93,0,0,1,0,1.1c-.25.5-.25,1.15-.89,1.48A4.64,4.64,0,0,1,81.15,97.31Z"/><path class="cls-1" d="M91.52,94.59A1.64,1.64,0,0,1,90,93.81C90.73,93.45,91,93.62,91.52,94.59Z"/><path class="cls-1" d="M92.47,86.69a5.18,5.18,0,0,1-.89-.16c-.1,0-.15-.33-.13-.49a.46.46,0,0,1,.4-.12,5.33,5.33,0,0,1,.72.44C92.54,86.47,92.51,86.58,92.47,86.69Z"/><path class="cls-1" d="M90.5,97.2c-.34.46-.56.24-.76.08s-.4-.45-.11-.91Z"/><path class="cls-1" d="M155,72.14a6.76,6.76,0,0,1,1.86-2.56,3.8,3.8,0,0,1,.57-.42c.68-.34,1.29,0,1.18.8a6.79,6.79,0,0,1-.42,1.35c-.13.34-.28.68-.42,1a8.19,8.19,0,0,1,.87.6,3.65,3.65,0,0,1,.72.85c.24.42.12,1.06-.25,1.16a2.52,2.52,0,0,0-1.41,1.19,1,1,0,0,1-1.53.15,4.8,4.8,0,0,1-.47-.53c-.66.42-1.28,1-2.12.49-.6-.4-.34-1-.18-1.51l-1.06-.48a1,1,0,0,1-.71-1.11,1.3,1.3,0,0,1,.87-1.15,5,5,0,0,1,.71-.14c.14-.39.09-.92.63-1Zm.26,2.08c1-.67,1.3-.55,1.58.62a2.93,2.93,0,0,0,.28.59,3.37,3.37,0,0,1,.19-1.11c.13-.23.49-.32.82-.51a7,7,0,0,1-1.37-.69c-.52-.41,0-1-.05-1.69-.83,1.46-2.13,1.65-3.64,1.74C153.88,73.61,154.85,73.27,155.21,74.22Z"/><path class="cls-1" d="M78.14,144.31a5.46,5.46,0,0,1,.7-.34c.65-.21,1,.11,1,.81a1.5,1.5,0,0,1-1.69,1.47l1.1-1.49-.19-.17-1.18,1.09c-1-.48-.23-1.47-.73-2.14a5,5,0,0,0-.35,2.67c.25.15.55.23.68.42a2.42,2.42,0,0,1,.17.86A1.68,1.68,0,0,1,79.3,147a.45.45,0,0,0,.34-.1c.32-.26.5-.08.6.2a.46.46,0,0,1-.29.66,1.24,1.24,0,0,1-.69,0,.73.73,0,0,0-1,.38c0,.09-.12.17-.17.25-.17.3-.33.64-.76.51S77,148.31,77,148s0-.47,0-.74c-.77.21-1.48.88-2.2.08a1.42,1.42,0,0,1-.12-1.54c.21-.59.51-.7,1.42-.65.1-.56.17-1.13.32-1.68a2.93,2.93,0,0,1,.5-1,.51.51,0,0,1,.91.1,3.68,3.68,0,0,1,.23.88C78.08,143.72,78.1,144,78.14,144.31Zm-2.77,2.77,1-.45c-.31-.3-.38-.76-1-.59C75.4,146.31,75.39,146.59,75.37,147.08Z"/><path class="cls-2" d="M185.36,176.39c-.07.77-.6,1.12-.93,1.56-1.57,2.06-3.13,4.12-4.79,6.1s-3.52,4.06-5.38,6-3.85,3.93-5.92,5.72a58.3,58.3,0,0,1-5.05,3.59c-1.83,1.26-3.69,2.46-5.5,3.76a9.41,9.41,0,0,1-2.88,1.41c-2.92.86-5.82,1.76-8.75,2.6-1.69.48-3.4.88-5.1,1.31a3.31,3.31,0,0,1-.55.08l-4.89.22c-.09,0-.19,0-.27,0s-.26-.15-.26-.21a.58.58,0,0,1,.21-.36c.08-.07.23-.05.35-.07l5.09-.83a62.73,62.73,0,0,0,8.42-2.08c1.76-.55,3.54-1,5.32-1.51a6.23,6.23,0,0,0,2.79-1.55,29.33,29.33,0,0,1,4.54-3.34c2-1.27,4-2.52,5.92-4a53.11,53.11,0,0,0,4.57-4,96.14,96.14,0,0,0,9.07-9.75q1.51-1.92,3.08-3.81A8.77,8.77,0,0,1,185.36,176.39Z"/><path class="cls-2" d="M192.43,172c-.41-.12-.46-.36-.38-.61a9.1,9.1,0,0,1,.57-1.45,17.82,17.82,0,0,1,3.19-4.28c.45-.46.91-.92,1.39-1.35.1-.1.32-.06.49-.08,0,.16.06.38,0,.49-.34.43-.75.82-1.09,1.25-.94,1.21-1.9,2.42-2.79,3.67a18,18,0,0,0-1,2A2.39,2.39,0,0,1,192.43,172Z"/><path class="cls-2" d="M116.59,211.85a2.63,2.63,0,0,1,.63-.41,14.23,14.23,0,0,1,2.28-.69,25.07,25.07,0,0,1,2.75-.21.76.76,0,0,1,.37,0c.14.08.34.22.35.35a.5.5,0,0,1-.3.38,6,6,0,0,1-1.19.16,11.76,11.76,0,0,0-4.15.71A.5.5,0,0,1,116.59,211.85Z"/><path class="cls-2" d="M227.86,116.5c-.15,3.6-.18,7.12-.46,10.63A66.82,66.82,0,0,1,223.17,146c-1.68,4.35-3.28,8.73-5.08,13A120.65,120.65,0,0,1,209,175.92a122.73,122.73,0,0,1-13.68,18.21c-1.8,2-3.67,3.84-5.58,5.69q-3.28,3.21-6.68,6.29a39.17,39.17,0,0,1-6,4.53c-.43.26-.82.56-1.22.85a52.68,52.68,0,0,1-10.55,5.57,90.71,90.71,0,0,1-12.92,4.52,115.42,115.42,0,0,1-15.76,2.84,91.12,91.12,0,0,1-11.56.53c-4.23-.09-8.45-.41-12.67-.79a132.42,132.42,0,0,1-24.33-4.71,142,142,0,0,1-19.81-7.26,156.46,156.46,0,0,1-14-7.18,68.55,68.55,0,0,1-8.07-5.58A99.78,99.78,0,0,1,35,189.17c-3.7-3.9-7.2-8-10.72-12a59.21,59.21,0,0,1-5.62-8.38A109.28,109.28,0,0,1,6.76,140.11C5.93,137.05,5,134,4.44,130.87c-.66-3.74-1.28-7.49-1.61-11.27a153.25,153.25,0,0,1-.48-18.8,76.89,76.89,0,0,1,1.7-14.9,129.76,129.76,0,0,1,4-13.49,145.19,145.19,0,0,1,7.43-17.86A110.93,110.93,0,0,1,31,31.67,92.7,92.7,0,0,1,43.16,20.12a16.28,16.28,0,0,0,1.52-1.35,23.77,23.77,0,0,1,6.14-4.44c4.23-2.18,8.5-4.26,12.93-6A73,73,0,0,1,77.29,4.53c3.43-.63,6.87-1.17,10.33-1.64a75.36,75.36,0,0,1,12.65-.78,112.94,112.94,0,0,1,17.41,1.7A148,148,0,0,1,136.3,8.63c6.52,2.15,12.9,4.64,19.16,7.42,3.95,1.76,7.78,3.77,11.7,5.6,2.71,1.26,5.45,2.47,8.23,3.58a65.44,65.44,0,0,1,11.73,5.91,62,62,0,0,1,9.41,7.19A90.06,90.06,0,0,1,205.84,49a113.45,113.45,0,0,1,11.09,17.62,84.14,84.14,0,0,1,5.4,13c.61,2,1,4.13,1.5,6.2.65,2.93,1.27,5.85,1.86,8.78.33,1.67.51,3.36.86,5a48.88,48.88,0,0,1,.92,7.52C227.62,110.28,227.73,113.42,227.86,116.5ZM5.62,109c.06,2.19.09,4.38.19,6.57s.19,4.45.43,6.66c.33,3,.67,6,1.25,9,.69,3.58,1.56,7.12,2.48,10.64a96,96,0,0,0,8.52,22.25,90,90,0,0,0,7,11.35c1.89,2.47,3.95,4.82,5.93,7.23A102.89,102.89,0,0,0,40,192.25c.39.37.88.64,1.27,1,1.3,1.23,2.53,2.53,3.87,3.72a49.68,49.68,0,0,0,8.62,5.91,150.08,150.08,0,0,0,17,8.37,158.79,158.79,0,0,0,26,8.33A109,109,0,0,0,112.36,222c2.62.19,5.24.33,7.86.48a100.66,100.66,0,0,0,14.63-.31,118.47,118.47,0,0,0,11.81-1.77,101.21,101.21,0,0,0,20.91-6.8c4.82-2.08,9.16-5,13.56-7.79a8.81,8.81,0,0,0,1.55-1.32c1.63-1.64,3.23-3.32,4.85-5a145.64,145.64,0,0,0,19.38-24.19A117.77,117.77,0,0,0,216,158.75c1.55-3.63,2.91-7.34,4.35-11a87,87,0,0,0,3.18-9.47,92.55,92.55,0,0,0,2.77-22.84c0-2.62-.09-5.25-.16-7.87a28.36,28.36,0,0,0-.23-3.33c-.47-3-1-5.9-1.56-8.83s-1.35-5.76-2.05-8.64c-.54-2.18-1-4.4-1.69-6.54a91.94,91.94,0,0,0-7.81-16.77,117.79,117.79,0,0,0-12.71-17.88A58.37,58.37,0,0,0,189,35.34a89.52,89.52,0,0,0-13.64-7.83c-4.6-2.11-9.06-4.5-13.68-6.58-4.87-2.2-9.73-4.41-14.73-6.3a185.07,185.07,0,0,0-23.27-7.4,99.52,99.52,0,0,0-17.76-2.47,74.31,74.31,0,0,0-10,0c-2.3.19-4.62.35-6.91.65-2.93.39-5.85.91-8.78,1.39A84.29,84.29,0,0,0,66,10.37a145.89,145.89,0,0,0-14.92,6.31,20.2,20.2,0,0,0-4.65,2.86A136.5,136.5,0,0,0,33.87,31.88,106.51,106.51,0,0,0,17.63,56.37,131.5,131.5,0,0,0,9,80.38,83.54,83.54,0,0,0,6.27,94.65C5.87,99.42,5.58,104.2,5.62,109Z"/><path class="cls-2" d="M220.52,121.91c0,3.75-.28,7.48-.62,11.2-.19,2.15-.45,4.3-.78,6.43a23.45,23.45,0,0,1-.9,3.58,17.85,17.85,0,0,1-1,2.18c-.11.25-.26.49-.36.74a155.15,155.15,0,0,1-11.39,23.27,173,173,0,0,1-10.44,16,69.07,69.07,0,0,1-8.22,9.29c-1.54,1.42-3.16,2.75-4.78,4.08-2.06,1.67-4.09,3.38-6.24,4.92a85.39,85.39,0,0,1-22.39,11.5,10.82,10.82,0,0,1-3.12.7,10.57,10.57,0,0,0-2.4.65,53.89,53.89,0,0,1-8.4,1.87c-1.34.19-2.7.32-4,.39-3.64.18-7.28.35-10.93.45-2.56.06-5.12,0-7.68,0A71.7,71.7,0,0,1,94.13,215c-5.92-2.11-11.9-4-17.84-6.12a109.4,109.4,0,0,1-17.14-7.19A74.38,74.38,0,0,1,50.3,196a9,9,0,0,0-1.41-.88,32.51,32.51,0,0,1-6-3.93c-.75-.64-1.53-1.25-2.33-1.83a31.71,31.71,0,0,1-7.79-8.85,52.09,52.09,0,0,1-4.62-9,19.24,19.24,0,0,0-1.32-2.65,101.8,101.8,0,0,1-5.06-10.2c-.85-1.88-1.8-3.73-2.66-5.61-.77-1.68-1.52-3.37-2.22-5.08-.79-1.94-1.53-3.9-2.28-5.85a46.77,46.77,0,0,1-2.23-8.65c-.31-1.73-.63-3.46-.86-5.2-.2-1.5-.31-3-.41-4.52-.11-1.82-.16-3.64-.24-5.46-.16-3.48-.34-7-.47-10.46,0-1.26.05-2.53.08-3.79,0-1,0-2,0-3.06A55,55,0,0,1,11.9,89.05c.75-3.25,1.55-6.48,2.19-9.75a73.94,73.94,0,0,1,2.3-8.49A87.05,87.05,0,0,1,20.85,59,97.32,97.32,0,0,1,30,43.19a76.49,76.49,0,0,1,14.83-14.7A87.72,87.72,0,0,1,66.42,16.74c1.4-.55,2.76-1.23,4.19-1.71a34.73,34.73,0,0,1,5-1.39c3.62-.66,7.25-1.18,10.88-1.73,2.45-.37,4.89-.71,7.35-1a60.6,60.6,0,0,1,11.74-.35c1.66.14,3.34.17,5,.39,2.42.33,4.84.66,7.21,1.19,6.77,1.51,13.53,3.11,20.15,5.18,3.53,1.1,7,2.51,10.44,3.77l6.45,2.33a11.84,11.84,0,0,1,1.09.5c6.67,3.31,13.33,6.63,19.73,10.44a26.07,26.07,0,0,0,2.65,1.31,48.48,48.48,0,0,1,7.13,3.93c.41.27.86.47,1.29.7.1.06.26.1.3.18.45,1,1.51,1.42,2.22,2.18.39.43.87.78,1.28,1.2,2.56,2.6,5.14,5.17,7.64,7.83a75.13,75.13,0,0,1,8.17,10.62c1.57,2.44,2.89,5,4.32,7.54a52.24,52.24,0,0,1,4.13,10.67c1.24,4,2.39,8.12,3.58,12.18a42.14,42.14,0,0,1,1.55,10.41c.14,4.2.26,8.4.4,12.6C220.34,117.78,220.44,119.84,220.52,121.91ZM96.78,214c.33-.19.55-.43.77-.43.68,0,1.35.13,2,.17,1.78.09,3.57.24,5.36.21,1,0,2,.1,3,.18a18.65,18.65,0,0,0,5.17-.08,12.6,12.6,0,0,1,5,.07c.88.18,1.72.51,2.6.63,1.35.19,2.7.27,4.06.36a10.9,10.9,0,0,0,5-.84,17.19,17.19,0,0,1,3.38-1A73.21,73.21,0,0,0,146,209.6a68.55,68.55,0,0,1,9.09-2.88,15.08,15.08,0,0,0,3.6-1.42,58.72,58.72,0,0,0,9.31-6.37c2.42-2,4.77-4.12,7-6.29s4.51-4.5,6.7-6.8c1.64-1.73,3.16-3.56,4.78-5.3q6.45-6.93,12.33-14.34c3.2-4,6.2-8.17,9.3-12.26a65.51,65.51,0,0,0,6.89-11.3,20.3,20.3,0,0,0,2.23-8.33,15.91,15.91,0,0,1,.28-2.85,44.49,44.49,0,0,0,.74-7.54c.09-2.47.05-4.94,0-7.42q-.07-6.68-.2-13.34a34.28,34.28,0,0,0-1.1-8.25c-.49-1.85-1-3.69-1.55-5.53Q213.34,82.2,211.16,75a9.4,9.4,0,0,0-.9-2.22c-1.69-2.81-3.37-5.62-5.17-8.35a115.7,115.7,0,0,0-11.43-14.22A66.9,66.9,0,0,0,183.89,41a30.87,30.87,0,0,0-4.83-3.24c-2-.94-3.92-2-5.87-3L162.12,29.2l-4.54-2.3c-1.71-.87-3.38-1.8-5.13-2.59-2.59-1.16-5.22-2.22-7.84-3.32,0,0-.1,0-.15,0v.38a3.3,3.3,0,0,1-.47,0,21.72,21.72,0,0,0-3.15-.64c-3.46-.21-6.91-.38-10.37-.45-2.9-.06-5.81,0-8.71.09-3.45.16-6.9.46-10.35.71-1.2.08-2.4.18-3.6.28-1.88.14-3.76.27-5.63.45s-3.69.33-5.52.6a39.91,39.91,0,0,0-12.14,4.08c-2.42,1.23-4.9,2.35-7.32,3.57a109.05,109.05,0,0,1-10.08,4.46c-.75.28-1.48.61-2.21.94-4.11,1.88-8,4.16-11.95,6.34a54.46,54.46,0,0,0-7.07,4.59,85.42,85.42,0,0,0-12.22,12c-2.32,2.7-4.53,5.47-6.58,8.38C25.58,68.88,24,71,22.63,73.21A42.53,42.53,0,0,0,18.49,83.3,13.86,13.86,0,0,0,18,85.92c-.29,3-.42,6-.95,9-.47,2.61-.83,5.24-1.31,7.85a29.8,29.8,0,0,0-.57,8.1c.22,2.49.5,5,.81,7.46s.66,5.08,1.07,7.61c.24,1.49.7,2.94.93,4.43.42,2.77.73,5.56,1.11,8.35a19.76,19.76,0,0,0,1.57,6c1.68,3.5,3.25,7.07,5,10.55a102.38,102.38,0,0,0,8.1,14,68.88,68.88,0,0,0,9.51,11.09,70.5,70.5,0,0,0,9.16,7.07c3.91,2.55,7.86,5,11.55,7.9a110.82,110.82,0,0,0,13.88,8.89c2.59,1.44,5.2,2.86,7.69,4.47A52.49,52.49,0,0,0,96.78,214ZM85.19,210.7l.1-.12c-.56-.33-1.1-.67-1.67-1q-4.14-2.28-8.3-4.52a108.7,108.7,0,0,1-12.78-7.86c-3.36-2.47-6.78-4.86-10.18-7.27A80,80,0,0,1,41,180.42c-1.52-1.58-2.94-3.25-4.37-4.91a73.34,73.34,0,0,1-6.17-8.21,108.49,108.49,0,0,1-10.74-21.7c-.1-.29-.15-.67-.36-.83a3.37,3.37,0,0,1-.95-1.75A39.5,39.5,0,0,1,16.79,135a52.55,52.55,0,0,0-.93-5.84c-.45-1.82-.7-3.69-1-5.55-.58-3.81-1.25-7.61-1.53-11.47a34.79,34.79,0,0,1,.37-8c.29-1.86.61-3.71.88-5.57.2-1.47.34-3,.5-4.42.21-1.84.39-3.68.59-5.52.15-1.38.19-2.79.47-4.14a46.66,46.66,0,0,1,3.68-10.36,17.74,17.74,0,0,1,1.64-2.79c2.17-3,4.35-5.92,6.59-8.83a126,126,0,0,1,8.26-9.63,67.85,67.85,0,0,1,10.39-9.06c3.3-2.3,6.78-4.31,10.26-6.3,2.55-1.46,5.05-3,7.71-4.24C69.49,31,74.31,28.85,79.26,27c.92-.35,1.84-.72,2.74-1.13a67.69,67.69,0,0,1,10.13-3.76,75.68,75.68,0,0,1,12.24-1.84c1.63-.17,3.26-.3,4.89-.45l5.25-.49c1.6-.14,3.2-.31,4.8-.42,2.46-.17,4.93-.33,7.39-.41,1.58-.05,3.15.07,4.73.08a49.56,49.56,0,0,1,6.55.52c.76.11,1.53.17,2.29.25a1.28,1.28,0,0,0-.58-.35,66,66,0,0,0-10.16-2.75c-4.72-.89-9.46-1.72-14.2-2.57a90.87,90.87,0,0,0-11.42-1.13c-5.59-.3-11.08.56-16.59,1.36-2.56.37-5.13.73-7.72,1a74.85,74.85,0,0,0-8.3,1.39,3,3,0,0,0-.6.24c-4.72,2.36-9.47,4.67-14.07,7.28A94.87,94.87,0,0,0,45.1,31.84,71.44,71.44,0,0,0,32.16,44.67,90.84,90.84,0,0,0,18.85,69.14,85.23,85.23,0,0,0,15.69,80c-.62,3-1.24,5.91-2,8.85a80.82,80.82,0,0,0-2.17,11.43,56.52,56.52,0,0,0-.09,8.33c.19,3.36.46,6.72.68,10.07.16,2.41.27,4.81.42,7.22.06.89.16,1.78.27,2.67.2,1.65.41,3.3.64,4.95A38.89,38.89,0,0,0,14.73,140a62.13,62.13,0,0,0,5.39,12.14c1,1.79,2,3.61,3,5.44,1.68,3.2,3.21,6.48,5.11,9.56a24.36,24.36,0,0,1,1.69,3.09,57.22,57.22,0,0,0,6.46,11.1,35.78,35.78,0,0,0,4.82,5.73c1.6,1.46,3.19,2.93,4.8,4.38a2.83,2.83,0,0,0,.75.53A37.09,37.09,0,0,1,53,195.74a100.24,100.24,0,0,0,15.69,8.73c3.95,1.73,8,3.18,12.11,4.57C82.28,209.55,83.73,210.14,85.19,210.7Zm15.22,4.2s0,.09,0,.14a4.4,4.4,0,0,0,.65.26c.93.21,1.87.4,2.81.59a55.24,55.24,0,0,0,7.89,1c3,.16,5.93.46,8.88.43,5,0,10.07-.28,15.1-.45a37.92,37.92,0,0,0,7.44-.9c3.54-.82,7.07-1.71,10.6-2.58a31.65,31.65,0,0,0,7.23-2.46,99.57,99.57,0,0,0,14.86-9.19c1.63-1.27,3.23-2.57,4.82-3.88s3.16-2.58,4.65-4a77.45,77.45,0,0,0,9.14-10.34c3.23-4.3,6.14-8.81,8.93-13.41A154.72,154.72,0,0,0,213.8,149.6c.22-.53.41-1.07.62-1.6a2.48,2.48,0,0,0-.51.67c-1.08,1.8-2.1,3.64-3.27,5.38-1.64,2.44-3.42,4.77-5.08,7.19a144.7,144.7,0,0,1-12.86,15.93c-1.94,2.12-3.94,4.18-6,6.22-2.94,3-5.91,5.89-8.87,8.82-.68.67-1.42,1.29-2.14,1.92-1.23,1.08-2.47,2.14-3.7,3.21s-2.22,2.06-3.41,3c-2.37,1.83-4.78,3.6-7.19,5.37a17.78,17.78,0,0,1-7.21,3.24,12.32,12.32,0,0,0-1.61.44c-2.62.91-5.27,1.77-7.86,2.76a66.34,66.34,0,0,1-10.24,2.9c-1.41.3-2.83.62-4.22,1.05a13,13,0,0,1-4.55.64,32.14,32.14,0,0,1-7.24-.87,9.89,9.89,0,0,0-4.33-.24,24.94,24.94,0,0,1-6.63-.05c-.8-.08-1.6-.14-2.4-.21l-.83-.07Z"/><path class="cls-2" d="M67.35,38.93c-.56.72-1.1,1.34-1.58,2a6.38,6.38,0,0,1-2.49,2.15,12.36,12.36,0,0,1-2.12.92,23.94,23.94,0,0,0-7,3.72,12.85,12.85,0,0,0-3.54,3.73A31,31,0,0,0,48.14,56a16.57,16.57,0,0,1-1.41,2.49,5.31,5.31,0,0,1-2.65,2.09,14.28,14.28,0,0,0-3.59,2.07Q38.66,64,36.74,65.16A17.36,17.36,0,0,0,30.54,72a2.47,2.47,0,0,1-.41.46.73.73,0,0,1-.09-1,16.42,16.42,0,0,1,3.35-4.94c1.36-1.29,2.67-2.66,4.13-3.85,1.81-1.48,3.66-2.94,6.1-3.31a3.69,3.69,0,0,0,2.57-1.66,16.87,16.87,0,0,0,1.43-2.47,26.1,26.1,0,0,1,4-6.26,18.07,18.07,0,0,1,2.72-2.36c.89-.71,1.84-1.35,2.77-2a13.7,13.7,0,0,1,3.32-1.8c.61-.22,1.2-.5,1.8-.75a7.41,7.41,0,0,0,2.5-1.72,5.94,5.94,0,0,1,1.93-1.4C66.94,38.83,67.15,38.75,67.35,38.93Z"/><path class="cls-2" d="M51.22,45.15a1.21,1.21,0,0,1-.12.45c-.82,1.09-1.61,2.19-2.48,3.23-1.44,1.73-2.93,3.42-4.43,5.11a21.68,21.68,0,0,1-5.92,4.54,21.3,21.3,0,0,0-3.57,2.3,18.34,18.34,0,0,1-2.23,1.48,10.05,10.05,0,0,0-2.59,2.49A20.65,20.65,0,0,0,26.82,71a31.62,31.62,0,0,1-3,6.14c-.46.8-1.06,1.52-1.48,2.34a21.56,21.56,0,0,0-.94,2.39c-.1.27-.05.71-.46.68s-.32-.48-.29-.75a7.42,7.42,0,0,1,1-3.41c.85-1.32,1.59-2.71,2.39-4.06.32-.53.65-1.06,1-1.55a10,10,0,0,0,1.34-2.62,22.1,22.1,0,0,1,3.47-6.47,18.69,18.69,0,0,1,3.37-3.16,4.6,4.6,0,0,0,.67-.49,20.85,20.85,0,0,1,4.36-2.94A22,22,0,0,0,43.49,53c1.93-2.12,3.93-4.19,5.92-6.25C49.94,46.17,50.57,45.71,51.22,45.15Z"/><path class="cls-2" d="M66.15,44.64a1.35,1.35,0,0,1-.1.47,9.47,9.47,0,0,1-3,2.85,37.5,37.5,0,0,1-5.63,2.55c-.63.25-1.26.49-1.88.77a5.29,5.29,0,0,0-2.34,2c-.43.67-.88,1.33-1.33,2a5.45,5.45,0,0,1-.57.59,3.53,3.53,0,0,1,.08-.61c.37-.77.76-1.54,1.13-2.31A5,5,0,0,1,55,50.49c1.14-.53,2.31-1,3.49-1.47a25.58,25.58,0,0,0,4.54-2.25c.75-.48,1.42-1.08,2.12-1.63.25-.2.49-.43.73-.64Z"/><path class="cls-2" d="M24.48,86.42c-.4-.2-.32-.51-.26-.76.41-1.76.79-3.53,1.28-5.28a11.35,11.35,0,0,1,1-2.16c.12-.24.29-.57.72-.43,0,.09.05.2,0,.26a29.76,29.76,0,0,0-1.91,6c-.17.65-.35,1.3-.56,1.94C24.72,86.19,24.57,86.3,24.48,86.42Z"/><path class="cls-2" d="M71.46,39.31a3.21,3.21,0,0,1,2.31-1.72c-.07.31-.06.47-.13.52-.59.44-1.19.86-1.8,1.27C71.78,39.42,71.63,39.34,71.46,39.31Z"/></svg>