<svg id="Layer_1" data-name="Layer 1" xmlns="http://www.w3.org/2000/svg" viewBox="0 0 137.88 137.65"><defs><style>.cls-1{fill:#fff;}</style></defs><path class="cls-1" d="M89.18,118.17q-6.71-8.81-9.22-23.3A81.42,81.42,0,0,1,78.7,84.32c-.2-3.59-.34-7.17-.42-10.72s-.12-7.07-.12-10.54v-4c0-.32-.08-.65-.1-1-.32-6-4.27-2.55-5.28-1.55a16,16,0,0,0-1,1.44,47.46,47.46,0,0,0-4.49,11,119.89,119.89,0,0,0-3.06,14.14Q63,90.7,62.14,97.46t-1.5,11.74q-.6,5-1.2,6.06a5.43,5.43,0,0,1-2.4,2.63A8.89,8.89,0,0,1,53.42,119a11,11,0,0,1-4-.36,6.52,6.52,0,0,1-3.18-1.86,20.83,20.83,0,0,1-4.43-8.32A43.11,43.11,0,0,1,40.06,98q-.48-12.7-1.86-26-.91-8.86-2.46-17.26c-.2-.63-.39-1.29-.59-2C33.68,47.34,30.67,50,29.73,51c-.36.6-.73,1.28-1.11,2a41.91,41.91,0,0,0-2.1,5.27,47.71,47.71,0,0,0-1.52,7c-.47,3-.89,6.23-1.25,9.83s-.68,7.35-1,11.26S22.23,94,22,97.56s-.36,6.75-.48,9.59-.22,5-.3,6.53a1,1,0,0,1,0,.37,65.88,65.88,0,0,0,79.44,12.47A24,24,0,0,1,89.18,118.17Z"/><path class="cls-1" d="M8.55,73.12Q9.51,68,11,62.46a96.46,96.46,0,0,1,3.66-11,38.31,38.31,0,0,1,5.15-9.28,17.26,17.26,0,0,1,7-5.57A10.35,10.35,0,0,1,29.26,36c15.5-19.46,42.8-25,63.34-12a45.33,45.33,0,0,1,11.7,10.69c2.56.57,10.56,2.21,13.22,11.78.16.57.37.36-.25.25a17.53,17.53,0,0,1-7.59-3.1,47.1,47.1,0,0,1,2.51,6.81l.09.07c1.8,1.21,7.93,4.9,8.45,13.3a25,25,0,0,1,0,3v.07a73.32,73.32,0,0,1-4.33,18.35l-1-.4a72.68,72.68,0,0,0,4.3-18.7,16.67,16.67,0,0,1-5.71-6,51.66,51.66,0,0,1,0,5.28c1.31,2.47,2.89,7.14-2,12.42a52.32,52.32,0,0,1-4,10.1l-1-.52A50,50,0,0,0,111.16,77c-4-6.61.49-11.49,1.7-13h0a47.74,47.74,0,0,0-5.8-22.85,16.22,16.22,0,0,1-2.3-3.75,44.32,44.32,0,0,0-9.6-10.16,15.92,15.92,0,0,1,3.38,12.37c-.06.6.21.48-.31.14A16.36,16.36,0,0,1,90.42,24a44,44,0,0,0-12-4.77A15.23,15.23,0,0,1,87,29.4c.17.57.38.35-.24.25-10-1.6-12.59-8.75-13.47-11.28a45.8,45.8,0,0,0-11.1.07,15.13,15.13,0,0,1,11.26,6.08c.35.46.48.18-.14.32-10,2.24-15-3.33-16.75-5.34a48,48,0,0,0-11.94,4.78,15.54,15.54,0,0,1,12.93,1.06c.5.27.51,0,0,.34-8.63,6-15.42,2.85-17.79,1.73a49.43,49.43,0,0,0-6.33,5.5,16.07,16.07,0,0,1,11.48-2.36c.57.09.49-.2.09.32a18.82,18.82,0,0,1-8,6.42A11.89,11.89,0,0,1,41.38,42a40.2,40.2,0,0,1,3.71,9.82,98.24,98.24,0,0,1,2.22,12.52q.78,6.78,1.14,13.24t.42,12q.06,5.51.18,8.74c.63-1.68,1.37-4,2.21-6.89s1.8-6.15,2.88-9.7,2.27-7.23,3.59-11,2.78-7.43,4.38-10.9a71.51,71.51,0,0,1,5.15-9.41,22.79,22.79,0,0,1,5.87-6.35,10,10,0,0,1,6.65-1.85c2.35.2,4.84,1.53,7.49,4q2.63,2.52,4.37,8.09a103.63,103.63,0,0,1,3,12.64q1.26,7,2.21,14.86t2,14.61q1,6.84,2.22,11.93t3.11,6.89a13.66,13.66,0,0,0,5.51,3.65c.53.16,1,.29,1.53.41A65.8,65.8,0,1,0,6.05,88.09c.37-2.33.73-4.55,1.06-6.64S7.91,76.52,8.55,73.12Zm94.58,6.09a41.93,41.93,0,0,0,2.68-17.81,17.21,17.21,0,0,1-.69-17.5,1.29,1.29,0,0,0,.14-.51,1.74,1.74,0,0,0,.22.48c1.22,2,5.79,8.79,1.48,17.77a43,43,0,0,1-2.78,18Zm7.94-46.83c.25.53.43.28-.2.29-10.7,0-14.2-7.19-15.3-9.2a1.35,1.35,0,0,0-.31-.4c-.11-.05-.1-.08,0,0a1.54,1.54,0,0,0,.52.09C98.19,23.27,106.72,23.26,111.07,32.38ZM96,17.88c.44.37.51.08-.08.34-10,4.34-16.06-.8-17.87-2.17a1.7,1.7,0,0,0-.44-.24h0a1.52,1.52,0,0,0,.52-.12C80.38,14.83,88.36,11.39,96,17.88ZM59.67,15.56a1.37,1.37,0,0,0,.45-.3c1.87-1.65,8.21-7.75,17.71-4.61.54.19.51-.11,0,.34-7.92,7.68-15.5,5.22-17.69,4.63a1.46,1.46,0,0,0-.51-.06C59.55,15.61,59.54,15.58,59.67,15.56ZM41.22,22.65a1.77,1.77,0,0,0,.31-.46C42.66,20,46.3,11.94,56.41,11.05c.58-.05.44-.3.17.29C52.05,21.42,44,22.17,41.72,22.5a1.52,1.52,0,0,0-.5.15C41.13,22.74,41.11,22.71,41.22,22.65ZM28.37,33.41a1.91,1.91,0,0,0,.14-.52c.39-2.45,1.35-11.14,10.77-15.3.55-.23.32-.42.25.22C38.37,28.7,30.89,32.05,28.8,33.11a1.28,1.28,0,0,0-.43.3C28.3,33.53,28.28,33.51,28.37,33.41Z"/></svg>