<svg xmlns="http://www.w3.org/2000/svg" viewBox="0 0 164.23 190.12"><defs><style>.cls-1{isolation:isolate;}.cls-2{mix-blend-mode:multiply;}.cls-3{fill:#010101;}</style></defs><g class="cls-1"><g id="OBJECT"><g class="cls-2"><path class="cls-3" d="M62.28,159.63l-.08.32a1.87,1.87,0,0,0,.85,2.07,4.71,4.71,0,0,0,3,.5,39.84,39.84,0,0,1,4.09,0c3.7.16,7.39.15,11.09.22a95.45,95.45,0,0,1,10.42.55c3.76.47,7.46.28,11.22.58,2.37.19,2.36-3.48,0-3.67-3.52-.28-7,0-10.52-.49a74.74,74.74,0,0,0-9.8-.6c-3.44,0-6.89,0-10.32-.15-1.62-.09-3.26-.24-4.89-.18-.56,0-1.93.4-2.38.09l.84,2.07.09-.31c.58-2.29-3-3.27-3.57-1Z"/><path class="cls-3" d="M65,159.63a8.31,8.31,0,0,1-.42-3.63,31.35,31.35,0,0,0-.07-3.36c0-2.72.14-5.43,0-8.16-.07-1-.32-2-.44-3.09a9.47,9.47,0,0,0-.42-3.13,4,4,0,0,0-1.42-1.59,20.63,20.63,0,0,1-2.91-2.45c-3.55-3.58-7.58-6.63-10.75-10.56a34.29,34.29,0,0,1-6.31-13c-.36-1.32-.44-2.69-.77-4a18.07,18.07,0,0,1-.69-3.56c-.11-2.35,0-4.68-.29-7-.28-2.09-.87-4.31-.49-6.43a24.6,24.6,0,0,1,2.43-7c2.32-4.34,4.15-8.86,7.53-12.54,1.46-1.6,2.57-3.55,4.19-5,1.84-1.66,3.6-3.43,5.54-5A32.64,32.64,0,0,1,66,55.86a25.7,25.7,0,0,1,6-1.63c1.86-.36,3.75-.66,5.57-1.19,2.52-.75,5-1.71,7.55-2.22A29,29,0,0,1,93,50.64a36.43,36.43,0,0,1,8.32,1.22c2.15.68,4.43.92,6.53,1.72A21.3,21.3,0,0,1,114,57.4,64.47,64.47,0,0,1,124.75,69,70.58,70.58,0,0,1,129,75.34c1.28,2.31,2.27,4.79,3.32,7.2,2.08,4.75,2.11,10.3,2.06,15.41a32.26,32.26,0,0,1-1,7.45c-.62,2.53-1.09,5.1-1.84,7.6-1.53,5.1-4.92,9.82-8.47,13.74a28.91,28.91,0,0,1-6.51,5,32,32,0,0,1-3.76,2c-1.06.47-2,1.17-3.06,1.57-1.9.71-4.71.73-5.6,2.84a8.79,8.79,0,0,0-.32,3.15c-.06,1.35-.27,2.75-.45,4.09-.35,2.67-.57,5.37-.94,8-.2,1.4,0,2.82,0,4.23,0,.83,0,2.51-.42,3.26-1.23,2,2,3.88,3.19,1.85.93-1.53.92-4.09.95-5.8,0-2.75.24-5.4.54-8.14.28-2.5.77-5,.87-7.53a9.21,9.21,0,0,1,0-1.39c.11-.49-.2-.24.55-.26a12,12,0,0,0,3.65-1.19,52.54,52.54,0,0,0,12.66-7.83,38.38,38.38,0,0,0,4.71-5.31,39.82,39.82,0,0,0,4.22-6.78,27.61,27.61,0,0,0,2.32-6.37c.67-2.73,1.43-5.53,1.89-8.31A58.89,58.89,0,0,0,137.39,87a23.66,23.66,0,0,0-2.12-6.91,60.25,60.25,0,0,0-3.75-7.76,74,74,0,0,0-10.26-13.12c-3.41-3.42-7-6.85-11.47-8.77-2.24-1-4.62-1.21-6.93-1.92a39.08,39.08,0,0,0-8.48-1.44A39,39,0,0,0,86,47a46.6,46.6,0,0,0-8.31,2.17C73.49,50.51,69,50.64,65,52.32c-4.48,1.87-8.24,5.28-11.7,8.56-.82.78-1.76,1.45-2.53,2.29s-1.4,1.84-2.11,2.75-1.71,1.88-2.53,2.86a34.48,34.48,0,0,0-2.38,3.48c-1.48,2.23-2.38,4.59-3.64,6.93a34.39,34.39,0,0,0-3,7.1A16.17,16.17,0,0,0,36.33,93,68,68,0,0,1,37,100.5c0,5.71,1.6,11.29,3.53,16.63a34.47,34.47,0,0,0,10,14c2.28,2,4.45,4,6.59,6.12.44.44.87.9,1.35,1.3A16.89,16.89,0,0,1,60,139.61c.62.67.47,2.48.62,3.48.5,3.16.18,6.36.23,9.55,0,1.38.07,2.66,0,4a10.72,10.72,0,0,0,.64,3.92c.73,2.24,4.3,1.28,3.57-1Z"/><path class="cls-3" d="M76,157.23a3.45,3.45,0,0,1,.28-.26l2.53.65c-.69-1-.18-3.16-.12-4.27.14-2.34.15-4.68.22-7,.14-4.56,0-9-.25-13.59-.51-8.82-.41-17.74-1.51-26.51-.23-1.9-.65-3.76-1-5.63a12.26,12.26,0,0,0-1.83-5.29c-2-2.66-5.44-2.83-8.32-1.56-3.21,1.41-5.23,3.93-4.68,7.57a11.61,11.61,0,0,0,1.61,4.75A19.33,19.33,0,0,0,67,110c5.92,4.72,14.36,7.16,21.85,5.58A98.56,98.56,0,0,0,100.78,112a21.23,21.23,0,0,0,9-6.26c2-2.26,3.81-6.37,3-9.43s-4.31-5-7.41-5.25a10.09,10.09,0,0,0-8.83,3.75c-2.61,3-3.78,6.37-4.77,10.13-1.18,4.48-.75,9.35-.9,14-.16,4.81-.2,9.62-.34,14.43s-.68,10-1.13,14.95c-.22,2.46-.42,4.85-.41,7.31,0,1.94-.22,4.23.32,6.09.66,2.27,4.22,1.3,3.57-1a16.57,16.57,0,0,1-.21-4.17c0-1.81,0-3.58.16-5.37.34-3.68.51-7.37.84-11,.64-7.06.67-14.15.9-21.23.11-3.44,0-6.94.31-10.36a27.2,27.2,0,0,1,1.3-5.19A14.8,14.8,0,0,1,98,99c1.69-2.5,3.7-4.42,6.9-4.28a5.35,5.35,0,0,1,3.7,1.5c1.24,1.3.49,3,0,4.54-1,2.74-3.79,5.34-6.33,6.72C99.42,109,96,109.65,93,110.62c-3.58,1.15-7.17,2.15-11,1.65a27.34,27.34,0,0,1-9.26-2.9A20.25,20.25,0,0,1,69.2,107a14.25,14.25,0,0,1-3.38-3.28A6.72,6.72,0,0,1,65,99.32c.46-1.49,2-2.25,3.46-2.6,3.63-.87,3.78,3.32,4.3,5.8a73.29,73.29,0,0,1,1.28,10.77c.51,8.15.88,16.33,1.24,24.48.19,4.16-.07,8.33-.16,12.48,0,2.68-1.16,6.82.49,9.22a1.91,1.91,0,0,0,2.53.66,2.23,2.23,0,0,0,1-1c1.09-2.09-2.1-4-3.19-1.85Z"/><path class="cls-3" d="M47.81,122.09c-1-.78-1.24-2.46-2-3.5a30.66,30.66,0,0,1-3-4.8,39.85,39.85,0,0,1-3-11.26,26.68,26.68,0,0,1-.74-5c.06-2,.07-3.91,0-5.92,0-1-.2-2.08-.14-3.1a29.63,29.63,0,0,1,.51-2.94,23.43,23.43,0,0,1,1.88-5.88,44.94,44.94,0,0,1,6.68-10.12c2.37-2.89,5-5.63,7.55-8.33s6.57-4.7,10.05-6.44a36.3,36.3,0,0,1,5.81-2.19c1.76-.54,3.61-.66,5.39-1.14a39.55,39.55,0,0,1,6-.67c.79-.09,1.57-.3,2.36-.41a23,23,0,0,1,3.8,0,36.08,36.08,0,0,1,12,1.86c1.73.65,3.58,1.16,5.25,1.9s3.46,1.55,5.19,2.34c3,1.38,5.59,3.89,8.08,6A36.92,36.92,0,0,1,126.28,71c1.79,2.81,4.43,5.34,5.52,8.53a33.23,33.23,0,0,1,1.78,5.83,42.9,42.9,0,0,1,0,6.21c0,4.12,0,8.23-.34,12.34-.2,2.47-.57,4.89-.9,7.34-.14,1.11-.19,2.23-.32,3.34a13.08,13.08,0,0,1-.87,2.79,26.06,26.06,0,0,1-7.54,10.36,15.47,15.47,0,0,1-4.5,3c-1.74.69-3.34,1.66-5,2.43s-3.65,1.43-5.44,2.23-3,1-3.73,2.77c-.92,2.17,2.65,3.12,3.57,1-.29.68.15.26.56.1s.64-.29,1-.44c.87-.39,1.79-.69,2.66-1.08,1.82-.83,3.71-1.48,5.5-2.34a44.38,44.38,0,0,0,4.58-2.42,31.25,31.25,0,0,0,4.47-3.41,30,30,0,0,0,6.9-9.54,16.08,16.08,0,0,0,1.61-5.06c.18-2.31.52-4.58.81-6.87a101,101,0,0,0,.8-13.8c0-4.45.41-8.84-1.07-13.13a28.42,28.42,0,0,0-1.86-4.82,33.19,33.19,0,0,0-3.19-4.61c-2.55-3.18-4.31-6.85-7.21-9.77-5.32-5.34-11.53-9.9-18.87-12-1.87-.54-3.61-1.38-5.5-1.86A37.31,37.31,0,0,0,93,46.85c-2.16-.14-4.35-.18-6.51-.22a63.11,63.11,0,0,0-6.42.63,57.67,57.67,0,0,0-6,1.13,42.86,42.86,0,0,0-6.19,1.48,52.58,52.58,0,0,0-11.66,6A22.25,22.25,0,0,0,52,59.6c-1.42,1.57-3,3-4.39,4.62a74.22,74.22,0,0,0-7.68,10.14,34,34,0,0,0-4.59,13,36.08,36.08,0,0,0,.14,7.27c.12,2-.31,4,.13,6.09.46,2.23.71,4.48,1.19,6.7a52.2,52.2,0,0,0,2.28,7,26.3,26.3,0,0,0,3.31,5.77,13.53,13.53,0,0,1,1.34,2.44,5.46,5.46,0,0,0,1.51,2.13c1.85,1.42,4.49-1.15,2.61-2.6Z"/><path class="cls-3" d="M63.53,173.81a37.69,37.69,0,0,1,9.63-1.36c3.15-.17,6.3-.42,9.46-.4a59.33,59.33,0,0,1,9.22.87c3,.48,6.3,1.4,9.35,1.18-.43-1-.87-2.08-1.31-3.12-.61.78-2,1-2.94,1.28-1.57.54-3.16,1-4.75,1.52-3.53,1.05-7.06,2.08-10.58,3.17S74.82,179,71.42,180l-5,1.45c-1.61.45-3.57,1.32-5.24,1.28.16,1.2.33,2.4.49,3.6,3.12-1,6.43-1,9.68-1.24,3.45-.22,6.9-.39,10.35-.28a38.63,38.63,0,0,1,10.19,1.6c2.49.75,5.94,2.2,8.37.71,2-1.24.16-4.42-1.87-3.17-1,.62-3.51-.47-4.56-.79a44.12,44.12,0,0,0-4.8-1.29,53.82,53.82,0,0,0-9.41-.76c-3.21,0-6.42.2-9.63.4s-6.3.29-9.3,1.29a1.84,1.84,0,0,0,.49,3.6,18.7,18.7,0,0,0,5.25-1.15c1.79-.49,3.56-1,5.34-1.51q5.79-1.68,11.55-3.47c3.74-1.16,7.52-2.22,11.27-3.37,1.56-.48,3.11-1,4.66-1.53a6.62,6.62,0,0,0,3.3-1.8c.87-1.12.47-3.26-1.31-3.13-3.17.22-6.59-.8-9.73-1.27a61.24,61.24,0,0,0-9.56-.79c-3.41,0-6.8.32-10.2.48a35.41,35.41,0,0,0-9.15,1.42c-2.26.71-1.3,4.25,1,3.53Z"/><path class="cls-3" d="M63.67,159.79c-.28-.87-.29-1.88-.49-2.79a10.35,10.35,0,0,1-.22-2.83c.06-1,.19-1.91.16-2.87s-.2-1.91-.22-2.87.13-1.87.12-2.81-.24-1.84-.32-2.76,0-1.8-.07-2.7a10.62,10.62,0,0,0-.14-1.25,2.54,2.54,0,0,0-.14-.47c-.1-.36-.12-.35-.07,0l-3.38.44.18.35c1.11,2.09,4.3.24,3.2-1.85a3.9,3.9,0,0,1-.19-.35c-.82-1.54-2.82-.9-3.38.44-.34.82,0,1.49.19,2.29a17.11,17.11,0,0,1,.07,2.68c.05,1.06.33,2.1.35,3.16s-.15,1.87-.12,2.81.19,1.91.22,2.87-.14,2.19-.18,3.29a12.42,12.42,0,0,0,.29,3,28.76,28.76,0,0,0,.58,3.21c.72,2.24,4.29,1.28,3.56-1Z"/></g><g class="cls-2"><path class="cls-3" d="M54.17,58C49.58,63.48,45,69,41.75,75.36A57.5,57.5,0,0,0,35.89,95.1c-.73,7.1.77,13.86,3.27,20.48a34.25,34.25,0,0,0,12.28,15.63c1.92,1.4,3.77-1.78,1.87-3.17a34.17,34.17,0,0,1-6.88-6.6A31.7,31.7,0,0,1,42,112.73a38.88,38.88,0,0,1-2.38-18.3,53.64,53.64,0,0,1,5.58-17.8c3-5.9,7.3-11,11.54-16,1.52-1.8-1.09-4.41-2.61-2.59Z"/></g><g class="cls-2"><path class="cls-3" d="M81.66,8.72a12.63,12.63,0,0,0-.41,4c0,1.31,0,2.61-.08,3.91-.13,2.79-.36,5.58-.58,8.36a1.85,1.85,0,0,0,1.85,1.83A1.87,1.87,0,0,0,84.29,25c.21-2.68.44-5.36.56-8,.06-1.31.12-2.63.1-3.94a10.35,10.35,0,0,1,.28-3.28c.69-2.26-2.88-3.23-3.57-1Z"/></g><g class="cls-2"><path class="cls-3" d="M4.85,39.29a15.67,15.67,0,0,1,4,2.81c1.5,1.26,3.08,2.38,4.69,3.51q5.09,3.59,10,7.42a1.9,1.9,0,0,0,2.61,0,1.82,1.82,0,0,0,0-2.59q-5.23-4.14-10.71-8c-1.58-1.11-3.09-2.23-4.56-3.47a19.27,19.27,0,0,0-5-3.22A1.86,1.86,0,0,0,3.56,37a1.89,1.89,0,0,0,1.29,2.26Z"/></g><g class="cls-2"><path class="cls-3" d="M141.52,57.16c6.6-4.82,13-9.89,19.14-15.29,1.78-1.57-.85-4.16-2.62-2.59-5.88,5.19-12,10.08-18.38,14.71a1.84,1.84,0,1,0,1.86,3.17Z"/></g><g class="cls-2"><path class="cls-3" d="M85,4.47l.09-.3-3.63-.49A101.34,101.34,0,0,1,81.77,16c-.21,4.14-.58,8.26-.54,12.41,0,2.36,3.72,2.36,3.7,0,0-4.15.33-8.27.54-12.41a101.34,101.34,0,0,0-.33-12.32,1.86,1.86,0,0,0-3.63-.49l-.09.31c-.66,2.27,2.91,3.24,3.56,1Z"/></g><g class="cls-2"><path class="cls-3" d="M2,37.16c-.12,1.83,1.6,3.11,3,3.9a37.28,37.28,0,0,0,4.74,2l.36.14c.32.11-.36-.2-.11,0,.6.37,1.3.63,1.94.95,1.29.64,2.58,1.3,3.85,2a49.08,49.08,0,0,1,7.17,4.64,1.93,1.93,0,0,0,2.62,0,1.83,1.83,0,0,0,0-2.59A64.7,64.7,0,0,0,11.76,40c-1.16-.52-2.48-.93-3.53-1.39a16.17,16.17,0,0,1-2.1-1.11A3.48,3.48,0,0,0,5.54,37c.23.12,0-.1.1.21-.13-.34,0,.37,0,0,.15-2.35-3.54-2.34-3.7,0Z"/></g><g class="cls-2"><path class="cls-3" d="M147.22,52.73l.59-.46.29-.23c-.15.12,0,0,.07,0l1.26-.93c.82-.58,1.65-1.15,2.49-1.69q2.55-1.65,5.22-3.1a1.85,1.85,0,0,0,.66-2.51,1.9,1.9,0,0,0-2.53-.66,75,75,0,0,0-10.66,7,1.82,1.82,0,0,0,0,2.59,1.9,1.9,0,0,0,2.61,0Z"/></g><g class="cls-2"><path class="cls-3" d="M56.16,136.22c-.21-.1,0,0,.08.2s.23.66.34,1c.28.83.67,1.62,1,2.43a34,34,0,0,1,1.88,6.4c.45,2.37.69,4.76.95,7.16.22,2.06.18,4.4,1.32,6.22,1.27,2,4.47.15,3.2-1.85a6.22,6.22,0,0,1-.65-2.79l-.42-3.84a63.25,63.25,0,0,0-1.21-7.62,41.88,41.88,0,0,0-2.25-6.43c-.58-1.38-.85-3.34-2.38-4a1.92,1.92,0,0,0-2.53.66,1.84,1.84,0,0,0,.67,2.51Z"/></g></g></g></svg>