<svg xmlns="http://www.w3.org/2000/svg" viewBox="0 0 73.06 106.94"><defs><style>.cls-1{isolation:isolate;}.cls-2{mix-blend-mode:multiply;}.cls-3{fill:#ee3d96;stroke:#ee3d96;stroke-miterlimit:10;stroke-width:0.78px;}</style></defs><g class="cls-1"><g id="Graphic_Elements" data-name="Graphic Elements"><g class="cls-2"><path class="cls-3" d="M22.26,3.25A25.43,25.43,0,0,0,18.34,5.6a17,17,0,0,0-1.59,1.59,13,13,0,0,1-1.88,1.59,23.89,23.89,0,0,0-3.41,3.41A26.88,26.88,0,0,0,8.4,16C7.61,17.26,7,18.67,6.33,20a44.27,44.27,0,0,0-2,4.52C3.18,27.82,3.21,31.43,3,34.85a23.13,23.13,0,0,0,1,8.91,19.92,19.92,0,0,0,3.81,6.5A28.35,28.35,0,0,0,21,58.39a38.64,38.64,0,0,0,8.8,1.53c1.79.11,3.58.09,5.37.1a42.93,42.93,0,0,0,5.56-.19,30.72,30.72,0,0,0,8.23-2,13.89,13.89,0,0,0,3.48-2.06,13.25,13.25,0,0,0,1.44-1.56,9.55,9.55,0,0,1,1.93-1.32,13.83,13.83,0,0,0,2.9-3.51A19.65,19.65,0,0,0,60.92,45,21.25,21.25,0,0,0,61.83,40c.17-1.68.57-3.32.71-5a35.45,35.45,0,0,0-1-10.15,21.08,21.08,0,0,0-3.66-8.66A37,37,0,0,0,43.68,4.85a36.79,36.79,0,0,0-8.79-2.62,25,25,0,0,0-10,.6c-3.07.73-6.44,1.23-9.16,2.89a21.77,21.77,0,0,0-3.6,2.88,29,29,0,0,0-3.59,3.68c-4,5.37-5.8,12-6.56,18.46a30.6,30.6,0,0,0,.51,10.58c.34,1.46.82,2.9,1.29,4.32a14,14,0,0,0,1.7,3.71,16.44,16.44,0,0,0,3.4,3.26,34.3,34.3,0,0,0,4,2.72,36,36,0,0,0,9,3.74,40.79,40.79,0,0,0,19.49.3,24.17,24.17,0,0,0,9.15-3.72A32.77,32.77,0,0,0,57.69,49a21.28,21.28,0,0,0,2.23-4.12c.61-1.4,1.28-2.8,1.79-4.24A25.82,25.82,0,0,0,63,31.16a26.18,26.18,0,0,0-1.76-9.36A28.39,28.39,0,0,0,56,13.61a45.33,45.33,0,0,0-7.56-6.68,25.45,25.45,0,0,0-8.71-3.15A55.69,55.69,0,0,0,29.47,2.35a31.13,31.13,0,0,0-5.2.12,21.15,21.15,0,0,0-5,1.45,21.29,21.29,0,0,0-4.43,1.75,9.49,9.49,0,0,0-2.53,2.86c-.71,1.09,1,2.1,1.74,1A6.52,6.52,0,0,1,16.62,7c1.44-.67,3.07-1.11,4.56-1.65,3.19-1.14,6.46-1.1,9.8-.9A55.8,55.8,0,0,1,40.33,6a19.67,19.67,0,0,1,8,3.33,58.83,58.83,0,0,1,6.9,6.39,15.83,15.83,0,0,1,2.6,3.75,31.75,31.75,0,0,1,2,4.11c1.74,5.5,1.86,12.16-.39,17.53-1.13,2.69-2.2,5.57-4.15,7.79a32.48,32.48,0,0,1-7.09,6,17.89,17.89,0,0,1-4.37,1.77,40.24,40.24,0,0,1-4.32,1.11,39.06,39.06,0,0,1-9,.65,36,36,0,0,1-17.33-5.22,31.21,31.21,0,0,1-3.75-2.73,10.6,10.6,0,0,1-2.72-3.06A21.16,21.16,0,0,1,5.3,43.75,35.92,35.92,0,0,1,4.14,39.3a31.82,31.82,0,0,1,.05-10,39.75,39.75,0,0,1,2.32-9,29.38,29.38,0,0,1,2-4.16,19.17,19.17,0,0,1,2.34-3.49c2-2.14,4.31-4.5,7-5.8A20.94,20.94,0,0,1,22.09,5.6c1.52-.38,3-.79,4.57-1.12a22.07,22.07,0,0,1,9.33,0,32.94,32.94,0,0,1,15.08,7.45A34.9,34.9,0,0,1,56.79,18a21.85,21.85,0,0,1,3,8.37,29.92,29.92,0,0,1,.6,9.48c-.2,1.55-.51,3.06-.66,4.61a16,16,0,0,1-1.06,4.68,19.05,19.05,0,0,1-2.35,4A15.13,15.13,0,0,1,55,50.87,10.68,10.68,0,0,1,53.23,52c-1.08.75-1.7,2-2.81,2.72a14.51,14.51,0,0,1-3.53,1.69A29.63,29.63,0,0,1,38.82,58a80.86,80.86,0,0,1-10-.15c-9.4-.77-20.22-5.61-23.14-15.26a23.6,23.6,0,0,1-.61-8.7c.23-3.22.24-6.38,1.43-9.43.55-1.43,1.26-2.8,1.93-4.18a33.49,33.49,0,0,1,1.94-3.71,29.92,29.92,0,0,1,3-3.49A21.63,21.63,0,0,1,16.67,10c1.08-.8,1.84-1.87,2.86-2.72A20.6,20.6,0,0,1,23.28,5c1.15-.61.13-2.35-1-1.73Z"/></g><g class="cls-2"><path class="cls-3" d="M24.74,8.38a19.31,19.31,0,0,0-3.23,2,14.27,14.27,0,0,0-1.28,1.3A16.13,16.13,0,0,1,18.54,13a22.73,22.73,0,0,0-2.68,2.78,18,18,0,0,0-2.42,3.08,38,38,0,0,0-3.28,7.17,15.37,15.37,0,0,0-.6,3.75c-.08,1.55-.25,3.11-.31,4.67a16.34,16.34,0,0,0,4.23,12.11,23.29,23.29,0,0,0,10.8,6.3A31.45,31.45,0,0,0,31.56,54a46.08,46.08,0,0,0,8.71-.2A23,23,0,0,0,46.78,52a10,10,0,0,0,2.59-1.71,14.07,14.07,0,0,1,1.27-1.4,10.7,10.7,0,0,0,1.58-1,15.82,15.82,0,0,0,3.88-6.6,24.33,24.33,0,0,0,.58-4c.16-1.43.5-2.8.55-4.24a30.49,30.49,0,0,0-.95-7.89,16.62,16.62,0,0,0-3-6.67,29.77,29.77,0,0,0-11.53-9,29.21,29.21,0,0,0-7.22-2,20.52,20.52,0,0,0-7.91.62c-2.49.6-5.16,1-7.34,2.42A21,21,0,0,0,16.32,13a19.47,19.47,0,0,0-2.78,3A31.86,31.86,0,0,0,8.38,31.23a24.15,24.15,0,0,0,.67,8.42c.56,2.09,1.16,4.6,2.62,6.28,3.33,3.83,8.55,6.32,13.42,7.5a32.49,32.49,0,0,0,15.65,0,19,19,0,0,0,6.94-3,25.78,25.78,0,0,0,5.66-5.27,17.79,17.79,0,0,0,1.76-3.31c.53-1.21,1.11-2.42,1.53-3.67a21.2,21.2,0,0,0,.93-7.67A20.15,20.15,0,0,0,56,23a23.25,23.25,0,0,0-4.26-6.48,34.18,34.18,0,0,0-6.08-5.31,20.93,20.93,0,0,0-6.93-2.45,43.52,43.52,0,0,0-8.19-1.13,25.41,25.41,0,0,0-4.09.09,18,18,0,0,0-4.07,1.16,18.16,18.16,0,0,0-3.52,1.39,7.68,7.68,0,0,0-2.15,2.39c-.71,1.09,1,2.1,1.74,1a4.87,4.87,0,0,1,1.92-1.95,37.38,37.38,0,0,1,3.88-1.41,19.48,19.48,0,0,1,7.6-.62,44.15,44.15,0,0,1,7.3,1.22,15.54,15.54,0,0,1,6.35,2.66,45.53,45.53,0,0,1,5.31,4.89,12.54,12.54,0,0,1,2,2.81,27,27,0,0,1,1.69,3.46,20.8,20.8,0,0,1-.24,13.82A21.36,21.36,0,0,1,50.88,45a26.2,26.2,0,0,1-5.45,4.56,19.92,19.92,0,0,1-6.56,2.23,30.77,30.77,0,0,1-7.29.58,28.48,28.48,0,0,1-13.67-4c-1.82-1.11-4.12-2.56-5.2-4.44a21.3,21.3,0,0,1-2.05-6.26,28.27,28.27,0,0,1,1.66-15,19.56,19.56,0,0,1,9-10.92,14.49,14.49,0,0,1,3.3-1c1.2-.3,2.39-.62,3.6-.89a17.49,17.49,0,0,1,7.45-.09,26.1,26.1,0,0,1,12,5.88,27.46,27.46,0,0,1,4.5,4.77,16.7,16.7,0,0,1,2.41,6.4,24.74,24.74,0,0,1,.59,7.37c-.12,1.2-.4,2.36-.52,3.56a15.64,15.64,0,0,1-.68,3.72,14.06,14.06,0,0,1-1.67,3.16c-.32.47-.67.92-1,1.37a5.37,5.37,0,0,1-1.63,1.26c-.86.54-1.32,1.47-2.12,2.08a10.14,10.14,0,0,1-2.89,1.48c-4.49,1.58-9.5,1.54-14.2,1.19-7.39-.55-16-4.21-18.48-11.75a17.74,17.74,0,0,1-.59-6.88c.17-2.54.15-5.11,1.05-7.53,1.65-4.43,4.2-8.8,8.07-11.68.88-.66,1.51-1.52,2.35-2.23a16.86,16.86,0,0,1,3-1.75c1.15-.62.13-2.35-1-1.73Z"/></g><g class="cls-2"><path class="cls-3" d="M43.7,61.59a6,6,0,0,0-.5-3.32c-.55-1-2.27-.31-1.85.78a47.31,47.31,0,0,0,2.58,5.13c.94,1.75,1.67,3.6,2.56,5.37s1.91,3.76,2.89,5.62c.79,1.48,1.48,3.41,2.75,4.57a3.53,3.53,0,0,0,3.93.39,3.3,3.3,0,0,0,1.64-3.35,3.2,3.2,0,0,0-.51-1.84A13.59,13.59,0,0,1,56,72.87c-.4-.83-.91-1.61-1.31-2.43a16.34,16.34,0,0,1-1-3,20.55,20.55,0,0,0-1.09-2.86c-.43-1-.71-2-1.19-3S50.25,59.89,49.77,59s-.91-2-1.39-3.06l-1.74,1c1.09,1.55,1.61,3.39,2.5,5,.48.9,1,1.75,1.49,2.65s.87,2.06,1.31,3.09c.82,1.94,2,3.73,2.79,5.66s1.62,4,2.52,6c0-.4.11-.81.16-1.21a3.41,3.41,0,0,1-2.35.58c-.83,0-1.67,0-2.51,0-1.09,0-1.55-.86-2.12-1.72-.72-1.06-1.42-2.16-2-3.28a45.2,45.2,0,0,1-3-7.1,29.74,29.74,0,0,0-1.52-3.29,39.29,39.29,0,0,1-1.44-3.84c-.36-1-2-.93-2,.26a2.47,2.47,0,0,0,.74,1.76c.89.94,2.32-.48,1.43-1.42,0-.11-.1-.23-.14-.34l-2,.27a44.55,44.55,0,0,0,1.57,4.17,45.16,45.16,0,0,1,1.86,4.29,40.16,40.16,0,0,0,3.84,8.08A15.32,15.32,0,0,0,50.2,80a4.06,4.06,0,0,0,2.77.82c1.87,0,4.45.37,5.87-1.14A1,1,0,0,0,59,78.42c-.88-1.93-1.61-3.91-2.45-5.85s-2.08-3.93-2.93-6A55.47,55.47,0,0,0,51,61.16c-.94-1.71-1.47-3.61-2.6-5.22a1,1,0,0,0-1.74,1,28.88,28.88,0,0,0,2.1,4.2,26.3,26.3,0,0,1,2.1,4.38c.7,1.54,1,3.18,1.59,4.74s1.44,2.68,2,4.08a16.91,16.91,0,0,0,1,1.69,2.49,2.49,0,0,1,.14,1.53c-.22,1.25-1.82,1.18-2.46.33a32.2,32.2,0,0,1-2.42-4.43q-1.25-2.37-2.45-4.77c-.84-1.67-1.54-3.4-2.39-5.06a54.09,54.09,0,0,1-2.63-5.14l-1.85.78a4.26,4.26,0,0,1,.23,2.3,1,1,0,0,0,2,0Z"/></g><g class="cls-2"><path class="cls-3" d="M53.47,77.82c-1.93-.1-4.56,1.64-4.46,3.77a7.53,7.53,0,0,0,1.44,3.23c.76,1.19,1.65,2.3,2.51,3.42a30.22,30.22,0,0,1,4.25,7.55c.47,1.2.93,2.4,1.44,3.57a18.44,18.44,0,0,0,.93,2c.35.61.85,1.11,1.25,1.69s.57,1.6,1.48,2c1.2.49,2.33-.28,3.4-.73,1.81-.77,4.49-1.32,5-3.52a12.93,12.93,0,0,0,.21-3,3.6,3.6,0,0,0-1.54-2.9,6.09,6.09,0,0,1-1-.85,9.63,9.63,0,0,1-.91-1.85c-.65-1.43-1.23-2.88-2-4.25-1.34-2.41-2.15-5.06-3.36-7.53a14.3,14.3,0,0,1-.87-2.93c-.22-.8-.87-1.89-1.83-1.9s-2.07.92-2.85,1.32c-1.36.7-2.76,1.31-4.09,2.06a6.28,6.28,0,0,0-2.53,2,3.44,3.44,0,0,0-.08,2.91,12.42,12.42,0,0,0,1.32,2.43c.73,1.12,1.4,2.27,2.1,3.4a62.73,62.73,0,0,1,4.17,7.63c.59,1.34,1.15,2.69,1.7,4,.38,1,.66,2.27,1.65,2.8,1.79,1,4-.74,5.51-1.57,1.83-1,4.6-1.57,4-4.22-.46-2.11-2.08-4-3.1-5.91A89.38,89.38,0,0,1,63.35,83c-1-2.35-1.87-5-3.84-6.76a1,1,0,0,0-1.43,0c-1.14,1.24-2.48,2.19-3.7,3.35a8.56,8.56,0,0,1-2,1.44,5.1,5.1,0,0,0-1.59,1.25c-.88,1.08-.64,2.22-.15,3.42.65,1.58,1.43,3.1,2.22,4.62s1.57,3.25,2.33,4.9,1.64,3.19,2.21,4.69.91,4.51,2.93,5a1,1,0,0,0,1.14-.46,10.36,10.36,0,0,1,.5-.93,1,1,0,0,0-1.75-1c-.18.31-.34.62-.5.94l1.14-.46c-.51-.13-.83-1.47-1-1.92a23.32,23.32,0,0,0-.77-2.27c-1.35-3-2.68-6-4.16-8.84-.7-1.35-1.43-2.68-2-4.06a5.81,5.81,0,0,1-.7-1.81c0-.57.48-.91,1-1.18s1.07-.52,1.55-.87,1.07-1,1.63-1.46a35.53,35.53,0,0,0,3.22-2.91H58.08A12.68,12.68,0,0,1,61,82.63c1,2.32,1.82,4.67,2.74,7a39.89,39.89,0,0,0,3,5.87c.35.57.71,1.12,1,1.7.23.42.89,1.42.71,1.93s-1.55.89-2,1.11c-.77.36-1.49.79-2.23,1.2-.55.31-1.46,1-2.12.92s-1-1.75-1.24-2.31a70.2,70.2,0,0,0-3-6.63c-1.09-2.07-2.35-4-3.57-6-.86-1.4-2.21-3-2.61-4.58-.22-.93.31-1.24,1.07-1.71,1-.64,2.16-1.19,3.27-1.73,1-.46,1.89-.93,2.83-1.43a3.44,3.44,0,0,0,.71-.38l.1-.06c-.64-.16-.79-.1-.44.17a5.51,5.51,0,0,0,.26,1.19c.38,2,1.6,3.82,2.32,5.73.82,2.19,1.94,4.15,2.91,6.27.89,2,1.49,4,3.21,5.41a2.07,2.07,0,0,1,.93,2.11c0,.68.13,1.71-.29,2.3s-1.62.85-2.33,1.16c-1,.42-2,.77-3,1.29h-.24c.13.14.16.15.1,0s-.2-.52-.3-.72a6.49,6.49,0,0,0-.8-1.14,13.49,13.49,0,0,1-1.84-3.4,66.06,66.06,0,0,0-3.09-7.18c-1.26-2.24-3-4.14-4.46-6.24-.35-.51-.69-1-1-1.57-.22-.39-.74-1.1-.64-1.56s.57-.74.85-1a1.91,1.91,0,0,1,1.58-.56c1.3.07,1.3-1.94,0-2Z"/></g><g class="cls-2"><path class="cls-3" d="M61,77a4.92,4.92,0,0,1-.69-1.25c-.48-1.08-2.09-.29-1.85.77a19.65,19.65,0,0,0,2.4,5.1,38.36,38.36,0,0,1,2.48,6.13c.72,2.06,1.52,4.09,2.27,6.15.35,1,.69,1.9,1.09,2.83a6.81,6.81,0,0,1,1,2.83h2a2.53,2.53,0,0,1,0-.28c0-1.28-2.07-1.29-2,0v.28a1,1,0,0,0,2,0c0-1.91-1.24-3.75-1.88-5.51-.79-2.16-1.63-4.3-2.4-6.48A48.73,48.73,0,0,0,63,81.46C62.11,79.63,60.86,78,60.38,76l-1.84.77a6.28,6.28,0,0,0,1,1.66c.86,1,2.28-.45,1.43-1.42Z"/></g></g></g></svg>