<svg id="OBJECT" xmlns="http://www.w3.org/2000/svg" viewBox="0 0 196.23 227.1"><defs><style>.cls-1,.cls-2{fill:#010101;}.cls-1{fill-rule:evenodd;}</style></defs><path d="M113.24,2.57c3.27.61,6.59.9,9.79,1.91,3.47,1.09,8.23,1.83,11.58,3.5,1.3.64,9.32,4.89,10.41,6.07,1.36,1.47,2.42,8.31,2.18,13.44,1,3.4-.09,11.64,0,19.39.15,18.25.14,36.52.49,54.77.44,23.3,1.23,46.59,1.75,69.89.22,9.34.21,18.69.13,28a12.48,12.48,0,0,1-3.56,8.89c-2.31,2.35-10.86,9.1-10.88,9.92-6.28,3.54-6.28,3.54-10.9,5.09-8.49,2.86-8,1.43-16.7,2.24-1,.1-8.8,0-12.34,0-3.21-.61-8.67-1.8-11.86-2.56-6.48-1.54-8.25-1.28-14.28-4.77-2-1.17-9.84-6.61-11.19-7.42-4-2.39-5.83-6.55-6-12.35q-.84-29-1.9-57.88c-1.07-29.77-1.6-59.56-1.41-89.37,0-2.77-.54-13.16-.22-16.22.35-3.36-.64-8.88.18-11.19,1.28-3.54,5.72-7.59,8.2-9.59,4.85-3.93,20.45-9.19,26-9.92,4.88-.65,9.79-1,14.68-1.53a11.76,11.76,0,0,0,1.51-.35Zm29.57,129.37c-.5.53-.89.92-1.27,1.33-2.09,2.23-4.15,4.5-6.29,6.64-.44.43-1.19.32-1.79.46.16-.77.13-1.82.5-2.28a100.25,100.25,0,0,1,6.69-7.71c2.56-2.55,3.18-4.84,1.89-8.86-2.75,2.66-5.48,5.37-8.27,8a7.18,7.18,0,0,1-2,1l-.29-.66c.6-.86,1.15-1.79,1.8-2.58,2.58-3.09,5.21-6.11,7.77-9.24a6.15,6.15,0,0,0,.66-6.45c-2.26,2.35-4.54,4.7-6.79,7.08-1.12,1.18-1.95,1.05-2.56-.93a17.54,17.54,0,0,1,1.15-1.57c2.16-2.35,4.33-4.69,6.52-7,2-2.11,2.4-4.17,1.18-7.56-.56.52-1.12,1-1.66,1.53-2.08,2-4.14,4-6.26,5.94-.37.34-1,.17-1.52.24a13.36,13.36,0,0,1,.32-2,3.5,3.5,0,0,1,.79-1.18c2.17-2.44,4.31-4.93,6.53-7.29s2.48-3.59,1.61-7.45l-1.61,1.72c-1.87,2-3.71,4-5.65,5.89-.42.4-1.19.15-1.8.21,0-1-.33-2.16,0-2.79a26.85,26.85,0,0,1,2.7-3.77c1.74-2.29,3.52-4.53,5.23-6.86.89-1.22,1.39-2.66.54-5.14a11.46,11.46,0,0,1-.75,1.71c-1.28,1.8-2.56,3.61-3.93,5.3-.31.38-1.28.56-1.38.36a5.12,5.12,0,0,1-.51-2.39,3.57,3.57,0,0,1,.92-1.58c1.54-2,3-4.15,4.68-6s1.66-4.3,1.3-7.13c-3.23,3.13-5.94,6.77-9.53,8.76a4.31,4.31,0,0,1,.93-2.1c2.59-3.18,5.16-6.42,7.84-9.46,1.55-1.76,1.37-3.67.86-6.18a26.7,26.7,0,0,0-2.06,2c-1.79,2.1-3.5,4.34-5.36,6.35-.5.54-1.38.46-2.09.66a8.24,8.24,0,0,1,.68-2.45c2.71-3.68,5.47-7.28,8.26-10.85a5.41,5.41,0,0,0,.78-5.57c-1.62,2-3.08,4-4.7,5.79s-3,3.79-5.78,3.13c.67-1,1.05-1.6,1.49-2.15,2.68-3.4,5.37-6.77,8-10.16a4.81,4.81,0,0,0,.3-5.87c-.46.54-.92,1.06-1.36,1.61-2.31,2.92-4.61,5.86-6.92,8.78-.29.36-.58.85-.93,1a4.78,4.78,0,0,1-1.56.05,7.57,7.57,0,0,1,.13-1.81,7.93,7.93,0,0,1,1-1.84c2.12-3.26,4.27-6.5,6.39-9.75.64-1,2.94-11.64,2.5-13-.49-1.49-7.39,2.71-8.37,3.2-7.85,3.83-17,2.23-29.87,3.69-8.72-.26-23.7.46-32.44.46-7.5,0-15-5-15.21-3.19-.11,1.13.35,9.88,0,15.66-.45,7.13,0,15.71,0,22.86.08,15.09.23,30.19.65,45.27.32,11.68,1.15,23.34,1.67,35,.71,15.66,1.43,31.33,1.94,47,.11,3.65,1.29,5.89,3.57,7.23,5.1,3,10.12,6.36,15.42,8.58,13.6,5.68,27.54,5.79,41.54,3.07,8.46-1.64,15.82-6.64,22.57-13.36a5.24,5.24,0,0,0,1.56-5c-1.57,1.61-3,3.26-4.51,4.57s-2.62,3.41-4.7,3.24a6.69,6.69,0,0,1,1-2.35c2.14-2.95,4.15-6.09,6.49-8.71,2.54-2.82,2.46-6.12,1.86-10.13-.73.69-1.35,1.2-1.9,1.82-1.68,1.92-3.33,3.9-5,5.84a8.14,8.14,0,0,1-1.62,1.64,4.67,4.67,0,0,1-1.72.34,8.4,8.4,0,0,1,.25-2.31,8.65,8.65,0,0,1,1.6-2.31c2.46-2.7,5-5.32,7.44-8,.42-.46,1-1.09,1-1.67.1-3.1,0-6.22,0-9.84-2.78,2.87-5.22,5.45-7.72,7.91a13.57,13.57,0,0,1-2.41,1.59,16.11,16.11,0,0,1,1.28-3.57c2.52-3.6,5.09-7.15,7.79-10.51,2-2.5,1.38-5.23,1.06-8.25-3.34,2.4-5.24,7-9,8.37a8.82,8.82,0,0,1,1.18-3.5,58.2,58.2,0,0,1,5.32-7.36c3.08-3.3,2.52-7.46,2.25-12.18-.87.93-1.51,1.6-2.14,2.3-2.13,2.41-4.21,4.88-6.39,7.19-.47.49-1.28.42-1.93.61a7.49,7.49,0,0,1,.63-2.47,67,67,0,0,1,6.77-8c2.87-2.63,3.76-5.77,2.81-10A3.86,3.86,0,0,0,142.81,131.94ZM127.52,25.22c3.48-.58,15.32-.53,15.32-7.33-1.94-3.12-11.67-4.21-12.34-4.48a75.55,75.55,0,0,0-9.2-2.84c-10.83-2.55-20.64-.35-31.62.15-6.57.29-15.23.5-21.14,4.29-1.13.72-13.29,4.08-14.25,10.23,1.18,2.25,11.1,2,12.31,2.25,10.81,2.35,17.89,1.44,28.8,1.12,0,0,17.69-.93,18.4-1.12"/><path class="cls-1" d="M12.07,182.74c-2.41-5.07-3.22-10.29-3.42-16-1.93-18.46-5.08-34.37-6.26-44.66C2.27,100.2,3.86,86.89,7.75,64.29c.67-3.88,2.86-13.74,3.34-17.66.16-1.31,1.55-1.39,1.9-.17a18.5,18.5,0,0,1,.91,4c.22,3.3-1.86,12.47-1.84,15.81-3.19,19.19-4.92,33-4.95,49.35,0,19,5.7,37.61,6.68,56.49C14,177.08,14,177.08,12.07,182.74Z"/><path class="cls-1" d="M25.58,69c.4,10.11-2.16,15.6-1.94,24.22.3,11.64-.92,19.12,0,30.74.59,7.54,4.41,22.57,4.4,30.24a12.79,12.79,0,0,1-.77,3.62,1.36,1.36,0,0,1-2.58.09,20.18,20.18,0,0,1-.94-4.61c-.17-3.65-3.78-25-4.09-29.66-1.14-17,.18-28.25,2.46-45.31A19.52,19.52,0,0,1,25.58,69Z"/><path class="cls-1" d="M180.59,44.09c2.62,4.8,3.69,9.83,4.19,15.32,2.88,17.85,6.81,33.15,8.51,43.08,1.31,21.32.48,34.34-2.07,56.53-.44,3.81-2,13.52-2.29,17.36-.08,1.27-1.43,1.42-1.84.26a18.48,18.48,0,0,1-1.1-3.8c-.39-3.21,1.13-12.23.93-15.48,2.07-18.83,3-32.35,2.14-48.25-1-18.46-7.59-36.26-9.56-54.56C179,49.7,179,49.7,180.59,44.09Z"/><path class="cls-1" d="M175.28,156.2c-.94-9.81,1.26-15.28.57-23.65-.92-11.3-.14-18.64-1.67-29.89-1-7.3-5.51-21.71-5.91-29.16a12.31,12.31,0,0,1,.54-3.57,1.33,1.33,0,0,1,2.51-.22,19.25,19.25,0,0,1,1.16,4.43c.36,3.54,5,24.13,5.59,28.61,2,16.46,1.36,27.48.06,44.2A19,19,0,0,1,175.28,156.2Z"/><path class="cls-2" d="M98.87,124.42a.62.62,0,0,0-.23.23.57.57,0,0,1-.35.23,1.68,1.68,0,0,1-.64,0,3.18,3.18,0,0,1-1-.56l-2.31-1.52c-.76-.51-1.57-1.08-2.44-1.73s-1.8-1.39-2.83-2.25-2.19-1.91-3.48-3.12q-1.83,1.81-3.55,3.77c-1.15,1.31-2.23,2.48-3.24,3.53A24.34,24.34,0,0,1,76,125.46a3,3,0,0,1-2.13.79c-.31-.07-.35-.53-.13-1.37A20.67,20.67,0,0,1,75,121.61q.92-2,2.33-4.57t3.2-5.25a3.6,3.6,0,0,1,.71-.91,44.19,44.19,0,0,1-3.22-3.8,28.48,28.48,0,0,1-2.26-3.45,4,4,0,0,1-1.16.71,1.94,1.94,0,0,1-1.07.1,1.87,1.87,0,0,1-1.24-2.31,2.23,2.23,0,0,1,1.09-1.29,3,3,0,0,1,2-.23,5.52,5.52,0,0,1,2.72,1.7c.54.54,1.33,1.31,2.38,2.31s2.18,2,3.4,3.17a36.55,36.55,0,0,1,3.7-3q2-1.41,4.13-2.58a37.4,37.4,0,0,1,4.16-2,22,22,0,0,1,3.78-1.2,8.69,8.69,0,0,1,3-.15,2.44,2.44,0,0,1,1.83,1.17,1.71,1.71,0,0,1,0,1.72,7,7,0,0,1-1.57,1.9,20.9,20.9,0,0,1-2.66,2c-1,.67-2.16,1.35-3.32,2s-2.35,1.34-3.55,2-2.31,1.31-3.33,2a3.9,3.9,0,0,1-.5.36,5.16,5.16,0,0,0-.51.35c1.15,1,2.14,2,3,2.77s1.56,1.52,2.2,2.18,1.23,1.28,1.75,1.87,1.06,1.23,1.6,1.9a6.74,6.74,0,0,1,1.32,2.26C99,124,99,124.35,98.87,124.42Z"/><path class="cls-2" d="M89.41,88.5a23,23,0,0,1,2.33.41,14.53,14.53,0,0,1,2.08.63,8.18,8.18,0,0,1,1.65.84,2.87,2.87,0,0,1,1,1A11.9,11.9,0,0,1,97,92.84a4.15,4.15,0,0,1,.21,1.67,1.5,1.5,0,0,1-.71,1.19,2.86,2.86,0,0,1-2.21,0,20.82,20.82,0,0,0-2.16-.35c-.86-.1-1.79-.16-2.78-.18s-2,0-3,.08a17.34,17.34,0,0,0-2.76.38,7.8,7.8,0,0,0-2.16.76,2.29,2.29,0,0,0-1.14,1.19,3,3,0,0,0,.1,2.53,6.57,6.57,0,0,0,1.88,2,3.7,3.7,0,0,1,.94.86,1.26,1.26,0,0,1,.33.84q-.06.33-.66.33a5.78,5.78,0,0,1-2-.66,9.68,9.68,0,0,1-2.59-1.8,8.73,8.73,0,0,1-1.75-2.43,8,8,0,0,1-.73-2.87,7.16,7.16,0,0,1,.46-3,6.39,6.39,0,0,1,1.44-2.49,6.19,6.19,0,0,1,2.51-1.49A15.87,15.87,0,0,1,84,88.58,48.59,48.59,0,0,1,89.41,88.5Z"/><path class="cls-2" d="M104.62,90.6A2.44,2.44,0,0,1,106,92.3a4.58,4.58,0,0,1-1.09,4.11,1.85,1.85,0,0,1-1.7.63,3.12,3.12,0,0,1-2-1.29,4.62,4.62,0,0,1-.64-3.27,1.87,1.87,0,0,1,.46-1.09,3.35,3.35,0,0,1,1-.79,3,3,0,0,1,1.29-.33A2.54,2.54,0,0,1,104.62,90.6Z"/><path class="cls-2" d="M75.08,94.56a.89.89,0,0,0,.56-.89c0-.42,0-.92,0-1.49a9.22,9.22,0,0,1,.38-2,5.79,5.79,0,0,1,1.55-2.33,6,6,0,0,1,2.92-1.32c1.43-.34,3.12-.65,5-.94s4-.57,6.19-.84,4.29-.58,6.29-.93a45,45,0,0,0,5.35-1.27,8,8,0,0,0,3.42-1.85,5.51,5.51,0,0,0,1.7-3.17,4.23,4.23,0,0,0-.79-2.82,9.55,9.55,0,0,0-2.68-2.48,29.73,29.73,0,0,0-4-2.18,47.82,47.82,0,0,0-4.62-1.85c-1.61-.56-3.16-1.07-4.67-1.53s-2.87-.86-4.1-1.21-2.21-.67-2.92-.94c.91,0,2.15-.06,3.7-.08s3.25-.07,5.07-.17,3.7-.27,5.61-.49a42.43,42.43,0,0,0,5.3-.93,16.88,16.88,0,0,0,4.16-1.58A4.61,4.61,0,0,0,110.84,59a5.18,5.18,0,0,0,0-3.83,7.3,7.3,0,0,0-2.36-3A16.34,16.34,0,0,0,104.6,50,42.73,42.73,0,0,0,100,48.44c-1.57-.43-3.08-.77-4.51-1s-2.61-.48-3.53-.61l-3.35-.53A30.48,30.48,0,0,0,85,45.9,22.23,22.23,0,0,0,81.4,46a9.36,9.36,0,0,0-3.17.91,2.71,2.71,0,0,0-1.37,1.42,4.41,4.41,0,0,0-.36,1.93A3.45,3.45,0,0,0,77,52a1.55,1.55,0,0,0,1.24.78L81,52.9l4.06.2c1.5.09,3.09.19,4.74.31s3.25.25,4.77.4,2.91.33,4.16.54a19,19,0,0,1,2.94.66,17.87,17.87,0,0,1,2.23.88l.87.47c.43.4,1.55,1.68-.74,2.3-.31.08-.6.16-.86.25q-3.55.65-7.31,1-5.59.59-11,.79a17.89,17.89,0,0,0-4.43.76A8.9,8.9,0,0,0,77,63.37a2.75,2.75,0,0,0-.78,1.35A4.53,4.53,0,0,0,76,66.39a3.8,3.8,0,0,0,.48,1.55,2.33,2.33,0,0,0,1.12,1,9.71,9.71,0,0,0,2.56.51l5,.63c1.91.26,3.94.55,6.09.89a52.14,52.14,0,0,1,6,1.29,20.22,20.22,0,0,1,4.67,1.91,5.35,5.35,0,0,1,.61.4c.42.43,1.9,2.1-.66,2.23l-.43,0h-1.7c-1.47,0-3,0-4.47,0s-3,.1-4.54.18a36.22,36.22,0,0,0-4.46.53,22.26,22.26,0,0,0-9.86,3.91,10.42,10.42,0,0,0-4.14,7.81,7.1,7.1,0,0,0,.18,2.28,7.25,7.25,0,0,0,.71,1.78,3.16,3.16,0,0,0,1,1A1,1,0,0,0,75.08,94.56Z"/><path class="cls-2" d="M86.44,155.49s-9.39.84-10.15,8.17l-1.07.26L75,158.68l6-3.89Z"/><path class="cls-1" d="M116.06,156.86Z"/><path class="cls-1" d="M92,179.51c5,2.92,12.13.17,14-5.47,3.58-10.69-8.66-19.32-20.48-16.24,0,0-7.26,1.29-10.16,7.17-5.83,11.82-.43,26.09,9.93,31.8,18.88,10.39,41.64-5.83,38.1-27.3-.91-5.55-3.75-10.93-8.42-14l1,1.35c-.48-.62-1.21-1.58.75.89,12.87,16.22.25,41.23-20.54,39.09-13.14-1.36-24.56-15.23-19.57-28.46a12.21,12.21,0,0,1,4.37-6l.65-.4a9.39,9.39,0,0,1,5.51-1.06C82,171.15,89.78,177.8,89.78,177.8A13,13,0,0,0,92,179.51Zm7.28-6.7c-1.6,3.36-4.4,3.19-6.8,2.33h0C86.7,172.85,87.35,164,87.75,161,94.57,161.92,101.19,168.8,99.3,172.81Z"/><path class="cls-2" d="M80.6,170c0,11.24,8,20.39,17.72,20.39a15.68,15.68,0,0,0,5.83-1.14,5.58,5.58,0,0,0,6.54-1.18c.16-.16.19,0,0-.14a6.05,6.05,0,0,0-3-.59,19.36,19.36,0,0,0,2.16-1.81h0a6,6,0,0,0,5.33-2.76,7.55,7.55,0,0,0,.59-1s0,0,0,0a31.72,31.72,0,0,0,2.31-7.32l-.41-.09a30.85,30.85,0,0,1-2.39,7.43,5.91,5.91,0,0,0-3,.81,20.5,20.5,0,0,0,1.09-1.8c.91-.57,2.35-1.84,1.87-4.74a22.84,22.84,0,0,0,.73-4.4l-.41,0a23.06,23.06,0,0,1-.78,4.53,4.46,4.46,0,0,0-2.06,4.87v0a18.58,18.58,0,0,1-6.4,6.65,5.68,5.68,0,0,0-1.48.8,15.25,15.25,0,0,1-5.07,1.41,6.17,6.17,0,0,0,3.55-3.55c.1-.22.16-.12-.07-.11a6.11,6.11,0,0,0-5.62,3.72,15.53,15.53,0,0,1-4.75-1,5.39,5.39,0,0,0,4.76-1.62c.16-.16.18,0,0-.14a5.53,5.53,0,0,0-6.51.95,17.13,17.13,0,0,1-3.49-2.47,5.2,5.2,0,0,0,4.77.37c.2-.08.19,0,0-.14-2.73-3-5.41-2.15-6.36-1.83a20,20,0,0,1-2.81-4.29,5.69,5.69,0,0,0,4.29,2.48c.22,0,.16.12.06-.13-1.51-4-4.3-4.37-5.27-4.51a20.79,20.79,0,0,1-.89-3.3,6.28,6.28,0,0,0,3.15,3.35c.19.09.11.17.09-.09-.31-4.16-2.64-5.62-3.6-6.16,0-.46,0-.91,0-1.37"/><path class="cls-2" d="M106.26,186.2a.53.53,0,0,1-.06.21.71.71,0,0,1,.17-.13,7,7,0,0,0,4-5.83,18.57,18.57,0,0,0,2.72-6.84l-.41-.1a17.91,17.91,0,0,1-2.72,6.77A7.16,7.16,0,0,0,106.26,186.2Z"/><path class="cls-2" d="M99,191.26a.39.39,0,0,1,.18.08,5.61,5.61,0,0,0,6.68.16c.18-.13.19,0,0-.14a5.51,5.51,0,0,0-6.67-.18A.56.56,0,0,1,99,191.26Z"/><path class="cls-2" d="M99,191.26Z"/><path class="cls-2" d="M91.94,189.88s0,0,0,0Z"/><path class="cls-2" d="M92.13,189.89a.48.48,0,0,1-.19,0,.61.61,0,0,1,.14.16c.55.8,2.38,3.75,6.08,3.17.21,0,.17.08,0-.14C95.91,189.37,93,189.82,92.13,189.89Z"/><path class="cls-2" d="M86.24,186s0,0,0,0Z"/><path class="cls-2" d="M86.41,186.12a.43.43,0,0,1-.17-.09.68.68,0,0,1,.08.21c.26,1,1,4.49,4.67,5.49.21.05.14.15.08-.11C90.11,187.22,87.22,186.4,86.41,186.12Z"/><path class="cls-2" d="M84.42,186.82A7.58,7.58,0,0,0,82,179.68a.63.63,0,0,1-.13-.16.66.66,0,0,1,0,.22c-.09,1-.55,4.61,2.47,7.14C84.48,187,84.38,187.08,84.42,186.82Z"/><path class="cls-2" d="M81.83,179.52c0-.05,0-.05,0,0Z"/><path class="cls-2" d="M80,173.16a.57.57,0,0,1-.07-.2,2.12,2.12,0,0,1-.06.21,8.13,8.13,0,0,0,.34,7.67c.12.21,0,.22.12,0A8,8,0,0,0,80,173.16Z"/><path class="cls-2" d="M79.93,173c0-.06,0-.06,0,0Z"/><path class="cls-2" d="M75.73,164.55a.9.9,0,0,0,.56-.89c0-.42,0-.92,0-1.49a7.92,7.92,0,0,1,.45-1.79,6,6,0,0,1,1.66-2.22,7.64,7.64,0,0,1,3.32-1.58c1.43-.33,2.53-.69,4.46-1s4-.57,6.18-.84,4.3-.58,6.29-.93a44.55,44.55,0,0,0,5.35-1.27,8,8,0,0,0,3.43-1.85,5.63,5.63,0,0,0,1.7-3.17,4.23,4.23,0,0,0-.79-2.82,9.59,9.59,0,0,0-2.69-2.48,29.12,29.12,0,0,0-4-2.18,48.68,48.68,0,0,0-4.61-1.85q-2.42-.84-4.67-1.52c-1.5-.46-2.87-.87-4.11-1.22s-2.2-.67-2.91-.94c.91,0,2.14-.06,3.7-.08s3.24-.07,5.07-.17,3.69-.27,5.6-.49a42.43,42.43,0,0,0,5.3-.93,16.73,16.73,0,0,0,4.16-1.58,4.61,4.61,0,0,0,2.23-2.33,5.13,5.13,0,0,0,0-3.83,7.36,7.36,0,0,0-2.35-3,16.67,16.67,0,0,0-3.93-2.18,43.47,43.47,0,0,0-4.64-1.54c-1.58-.43-3.08-.77-4.52-1l-.12,0,.84.93c.53.6,1.09,1.26,1.64,1.95A7.81,7.81,0,0,1,100,123a4.08,4.08,0,0,1,.17,1.07,2.61,2.61,0,0,1,0,.42,17.39,17.39,0,0,1,4.45,1.42c.33.17.62.33.88.48s1.77,1.7-.68,2.36h0c-2.66.52-5.41.93-8.23,1.22q-5.61.59-11,.79a18,18,0,0,0-4.44.76,8.78,8.78,0,0,0-3.52,1.87,2.69,2.69,0,0,0-.79,1.35,4.72,4.72,0,0,0-.15,1.67,3.8,3.8,0,0,0,.48,1.55,2.29,2.29,0,0,0,1.12,1,9.5,9.5,0,0,0,2.56.51l5,.63c1.91.26,3.93.55,6.08.89a52.33,52.33,0,0,1,6,1.29,20.59,20.59,0,0,1,4.66,1.9,5.77,5.77,0,0,1,1.29,1c.43.6.74,1.45-.67,1.67l-2.8,0c-1.47,0-3,0-4.46.05s-3,.1-4.54.18a34.18,34.18,0,0,0-4.46.53A22.36,22.36,0,0,0,77,151.52a10.41,10.41,0,0,0-4.13,7.81,7,7,0,0,0,.89,4.06,3.14,3.14,0,0,0,1,1A1,1,0,0,0,75.73,164.55Z"/><path class="cls-2" d="M88.09,119.71c-.79-.66-1.66-1.43-2.6-2.3-.89.92-1.76,1.86-2.6,2.82s-1.62,1.8-2.38,2.61l1.18,0,4.06.2c1.5.09,3.08.19,4.74.31.94.06,1.86.14,2.76.22-.71-.48-1.46-1-2.26-1.61S89.13,120.58,88.09,119.71Z"/></svg>