<svg id="Capa_1" data-name="Capa 1" xmlns="http://www.w3.org/2000/svg" viewBox="0 0 113.29 227.1"><defs><style>.cls-1{fill:#fff;}</style></defs><g id="OBJECT"><path class="cls-1" d="M10.3,50.38c-.74-4.89-3.75-8.83-2.43-13.94,1.24-4.75,4-8.58,6.54-12.72,2.05-3.4,5.66-5.13,8.84-7.35,3.34-2.33,6.74-4.7,10.64-6C43.46,7.17,54.72,7,64.7,7.82c5.26.41,8.47,3.44,12.75,6.08,3.73,2.32,8,3.83,11.17,7a71.16,71.16,0,0,1,15.14,23.64,40.44,40.44,0,0,1,.58,26.77A49.19,49.19,0,0,1,99.2,82.86a19.75,19.75,0,0,1-3.85,4.6c-1.82,1.53-4.17,2.16-6.13,3.47-3.36,2.23-6.29,5.46-9,8.43a29.43,29.43,0,0,0-5.91,10.2c-2.93,8.31-2.84,17.41-3.22,26.1q-.41,8.93-.79,17.85c-.2,4.72.82,9.85-.79,14.38l1.85-1.83c-3.27.79-6.91.07-10.19-.29a77.83,77.83,0,0,0-8.64-.21,24.35,24.35,0,0,1-4.35-.22c-1.65-.3-1.69-.83-1.55-2.43.34-3.81-1.25-7.29-1.25-11.07,0-4.49.78-8.94.65-13.44-.12-4.2-1.39-8.5-1.1-12.68a32,32,0,0,0,.31-5.7c-.24-2.13-1.14-4.13-1.35-6.28-.37-3.8,1.57-6.11,4.29-8.47q3.82-3.3,7.6-6.64c2.82-2.5,6.08-4.48,8.92-7,5.61-4.91,9-12.87,9.79-20.16.45-4.06.35-8.2.59-12.27.23-3.82.32-7.87-1.2-11.46-2.2-5.23-7.45-7.89-12.76-9.1a63.51,63.51,0,0,0-10-1.3c-3.48-.25-7.13-.69-10.59,0a15.82,15.82,0,0,0-9.16,6A12,12,0,0,0,29,48.45c-.4,2.26.31,4.57-.46,6.75l2.56-1.92c-2.65.17-5.2-.26-7.85.11a62,62,0,0,1-7.69.75c-1.76,0-4,.42-5.71-.12-2-.64-2.35-3.41-2.62-5.23C5.64,38.26,12.61,28.63,20.44,22.37c1.87-1.49,3.83-2.9,5.66-4.45s3.45-3.67,5.38-5.29c3.91-3.29,10-3.77,14.89-4.11a46.53,46.53,0,0,1,15,1.41c5.07,1.32,9.59,3.56,14.32,5.72,2.21,1,4.61,1.54,6.81,2.57a23.22,23.22,0,0,1,6,4.66C92,26.25,96.39,29.16,99,33.36c5.45,8.83,7.42,20.29,7,30.46-.23,5.14.63,10.62-3.08,14.67a94.31,94.31,0,0,1-10.57,10.2c-4.15,3.32-8.6,6.19-12.93,9.25a73.21,73.21,0,0,1-6.19,4.28,22.74,22.74,0,0,0-5.72,4c-3.06,3.3-4.24,7.86-4.86,12.18a86.83,86.83,0,0,0-.8,14.77c.15,6,1.84,11.83,2.15,17.88.34,6.48-.48,12.95-.8,19.42h5.3L70,138c.22-5,.61-10,.67-15,0-2.41-1.16-6.64.31-8.72l-3,1.21c3.58.7,7.66-.5,9.23-4,1.35-3.06-3.21-5.74-4.58-2.65a2.76,2.76,0,0,1-3.24,1.63,2.78,2.78,0,0,0-3,1.2c-1.89,2.65-1.21,6.63-1.08,9.66.22,4.84-.32,9.78-.53,14.62q-.78,17.28-1.54,34.57c-.15,3.38,5.14,3.37,5.3,0,.3-6.15,1.06-12.3.84-18.46s-1.93-11.86-2.18-17.9a79.22,79.22,0,0,1,.68-15c.68-4.59,2-8.79,6.17-11.28,4.88-2.9,9.47-6.22,14.13-9.47a97.55,97.55,0,0,0,13.4-10.75c3.21-3.2,7.47-6.85,8.85-11.29.78-2.52.61-5.35.71-8,.12-3.17.36-6.34.27-9.51a61.22,61.22,0,0,0-3-16.7c-1.66-5.16-3.66-10.53-7.28-14.67a59.47,59.47,0,0,0-5.71-5.4c-2.12-1.85-4.07-3.89-6.23-5.69a21.29,21.29,0,0,0-6.33-3.65c-2.92-1.1-5.68-2.26-8.51-3.58C64.21,4.43,53.56,2.22,42.4,3.7c-5.16.67-10.24,1.52-14.34,5-2,1.7-3.67,3.83-5.71,5.56s-4.49,3.48-6.69,5.29C6.4,27.12-.4,39.39,2.35,51.58c.54,2.36,1.47,4.8,3.48,6.3,1.85,1.37,4.15,1.54,6.39,1.57a55.45,55.45,0,0,0,8.35-.35c1.57-.22,3.14-.59,4.73-.7,1.93-.14,3.83.25,5.77.13a2.78,2.78,0,0,0,2.55-1.93c.73-2.08.41-4,.49-6.18A8,8,0,0,1,37,45c3.12-2.88,6.56-2.84,10.59-2.61,6,.34,13.63.27,18.71,4,3,2.27,3.59,5.84,3.58,9.41,0,4.71-.25,9.57-.59,14.27A31.49,31.49,0,0,1,65.16,83c-2.22,3.83-5.81,6.29-9.3,8.91-3.21,2.4-6,5.23-9.09,7.75-2.73,2.22-5.67,4.53-7.17,7.79-1.92,4.16-.59,8.21.27,12.41.43,2.12-.19,4.2-.27,6.32a52.81,52.81,0,0,0,.78,7.53c.56,4.95.16,9.72-.16,14.67a32.29,32.29,0,0,0,.06,6.52c.32,2.25,1.26,4.47,1.2,6.76-.09,3.41-.34,6.45,3.33,8.14,2.94,1.35,6.65,1.07,9.8,1a92.42,92.42,0,0,1,10.52.67c3.07.27,8.3,1,9.62-2.49s.88-8,.8-11.8c-.1-4.77.32-9.58.53-14.35.37-8.35.2-17,1.66-25.24a33.47,33.47,0,0,1,3.57-10.75c2-3.46,5-6.27,7.85-9,3-3,7.12-4,10.22-6.85a31.09,31.09,0,0,0,6.69-9.55,50.69,50.69,0,0,0,5.4-24.51C111,48,108.2,40.1,103.78,32.38a100.1,100.1,0,0,0-8-11.18,31.17,31.17,0,0,0-9.36-8.35C82.63,10.67,79,8.49,75.31,6.05A23.56,23.56,0,0,0,62.87,2.47c-9.77-.36-20.11-.26-29.56,2.58a39.25,39.25,0,0,0-10.72,5.39,105.2,105.2,0,0,0-9.29,6.43c-2.86,2.43-4.92,6.35-6.88,9.62A28,28,0,0,0,2.14,38.87c-.25,4.6,2.38,8.47,3.05,12.9C5.7,55.1,10.8,53.69,10.3,50.38Z"/><path class="cls-1" d="M7,54.91a75.67,75.67,0,0,0,11.75,3.23c3.62.78,6.93,1.94,10.7,1.59A2.82,2.82,0,0,0,32,57.8c1.23-3.11.6-6.65,2.37-9.56a11,11,0,0,1,6.47-5c3.68-1,7.56-.79,11.33-.62,2.94.13,6.12-.07,8.82,1.29,2.31,1.17,5.16,3,6.16,5.44,1.18,2.91,1.21,6.54,1.66,9.6,1,7.17.66,13.6-2.75,20.11C62.54,85.8,56.9,90.63,51.26,95.6c-4.79,4.22-10.18,7-11,13.84-.44,3.61-.06,7.26-.17,10.89-.13,4.12-.37,8.24-.55,12.35-.36,8-1.59,16-1.74,24-.1,5.15-.17,13.23,5.67,15.54,6.62,2.62,13.5-2.34,20.21-1.31,3.33.52,4.77-4.54,1.4-5.06a27.86,27.86,0,0,0-9.8.61c-2.84.56-6.23,1.75-9.15,1.1-2.27-.5-2.52-2.94-2.78-4.9a55.73,55.73,0,0,1,.12-12.18c.75-8.36,1.31-16.66,1.68-25,.18-4,.19-8,.19-12s.49-6.82,3.7-9.42c11.07-9,23.31-18.65,25.41-33.64a39.5,39.5,0,0,0-.23-10.75c-.45-3.34-.73-6.82-1.49-10.1-1.27-5.47-6.48-9.77-11.81-11.36-3.81-1.13-8.21-.93-12.15-1s-8.24.21-11.93,1.88A16.54,16.54,0,0,0,30.2,45c-2.48,3.59-1.79,7.56-3.32,11.42l2.55-1.93c-3.59.34-6.77-.88-10.24-1.59a66.25,66.25,0,0,1-10.8-3C5.22,48.61,3.84,53.68,7,54.91Z"/><path class="cls-1" d="M66.84,181.64c-6.46-.23-13.66-.57-19.24,3.31-5,3.48-5.14,8.86-6.65,14.17-1.6,5.58-6,11.06-1.49,16.55,3.48,4.21,10.28,7.63,15.82,7.33a23.78,23.78,0,0,0,9.25-2.83c2.66-1.31,5.61-2.48,8-4.23,4.49-3.28,5.59-8.34,5.72-13.6a20.63,20.63,0,0,0-7.7-16.52,14.05,14.05,0,0,0-7.82-3,51.83,51.83,0,0,0-8.72-.17,16.47,16.47,0,0,0-12.89,7.76c-2.93,4.76-2.95,10.19-3.48,15.56-.28,2.94-.35,6.09,1.09,8.77a15.07,15.07,0,0,0,6.92,6A26.92,26.92,0,0,0,55.07,223c3.39.24,7,.65,10-1.23,2.49-1.56,3.78-4.16,5.11-6.64s3.34-4,4.83-6.2,1.68-5.3,1.91-8a12,12,0,0,0-2-8.35,16.16,16.16,0,0,0-7.1-5.58c-2.71-1.1-5.62-1.23-8.5-1.53-6.11-.62-11.83-.54-16.86,3.41-4.16,3.26-6,8.22-7.62,13-.85,2.48-2.05,4.8-1.28,7.46A20.58,20.58,0,0,0,39,217.91c4.56,4.28,10.28,6,16.41,6.44,3.11.25,6.24.44,9.35.66S71,224.58,73,222.1a12.13,12.13,0,0,0,3.06-8.28c-.26-3.35-5.56-3.38-5.3,0,.15,1.86-.85,4.54-2.53,5.54s-4.74.23-6.72.1c-4.59-.32-9.38-.17-13.71-2a16.39,16.39,0,0,1-6-4.21A18,18,0,0,1,39.62,210a6.76,6.76,0,0,1-1.15-2.65,9.24,9.24,0,0,1,.88-2.61c.38-1,.73-2.09,1.1-3.14a29.87,29.87,0,0,1,2.35-5.34,12,12,0,0,1,9.59-6,49.75,49.75,0,0,1,7.42.41A20.93,20.93,0,0,1,66,191.86a10.32,10.32,0,0,1,5,4.43c1,1.94.57,4.34.32,6.44a6.92,6.92,0,0,1-2,4.56,25.5,25.5,0,0,0-4.07,5.55c-.92,1.76-1.81,4-3.82,4.71-2.27.86-5.6.25-8,0-4-.48-10-2.4-10.75-7-.36-2.31.13-4.76.36-7.07a42.21,42.21,0,0,1,.67-5.93c.87-3.6,2.88-6.94,6.34-8.6a12.51,12.51,0,0,1,5.69-1.08,64.17,64.17,0,0,1,7.07.25c4.4.55,7.81,4.74,9.22,8.7,1.24,3.5,1.27,8.64-.38,12.06a8.4,8.4,0,0,1-3.89,3.72c-2.25,1.19-4.58,2.32-6.89,3.41a14.72,14.72,0,0,1-7,1.73,15,15,0,0,1-6.25-2.2c-1.66-.93-3.72-2.11-4.7-3.79-1.07-1.84,0-4.28.8-6A36.57,36.57,0,0,0,46.41,199a47.51,47.51,0,0,1,1.41-6c1.56-4.4,6.54-5.88,10.85-6.19a76.79,76.79,0,0,1,8.17.07c3.41.13,3.4-5.12,0-5.25Z"/></g></svg>