<svg id="Capa_1" data-name="Capa 1" xmlns="http://www.w3.org/2000/svg" viewBox="0 0 344.5 344.5"><defs><style>.cls-1{fill:#259d92;}.cls-2{fill:#fff;}.cls-3{fill:none;stroke:#fff;stroke-linecap:round;stroke-miterlimit:10;stroke-width:2px;}</style></defs><circle class="cls-1" cx="172.25" cy="172.25" r="172.25"/><path class="cls-2" d="M269.1,228.21l24.06-53.91a4,4,0,0,0-3.61-5.86H269.32V111.82a4.05,4.05,0,0,0-4-4H119.67a4.05,4.05,0,0,0-4,4v68.76h-8.09V119.91a4.05,4.05,0,0,0-4-4H71.13a4.06,4.06,0,0,0-4,3.43l-7.56,49.15H55a4.05,4.05,0,0,0-4.05,4.05l10.93,55.72M241,168.44a4.1,4.1,0,0,0-2.43.81l-15.1,11.33h-2.69V164.4h40.44v4Zm-68.76,12.14V164.4H212.7v16.18Zm-48.54-40.45h40.45v16.18H123.71Zm137.52,16.18H220.79V140.13h40.44Zm-48.53,0H172.25V140.13H212.7ZM261.23,132H220.79V115.86h40.44Zm-48.53,0H172.25V115.86H212.7Zm-89-16.18h40.45V132H123.71Zm0,48.54h40.45v16.18H123.71ZM74.6,124H99.44v50.91l-5.23-5.23a4,4,0,0,0-2.86-1.19H67.76ZM79,221.4l-.9.16c-.47.08-.91.17-1.35.27-.28.06-.57.14-.84.21s-.81.22-1.22.34l-.73.24c-.41.13-.78.28-1.16.43l-.58.23c-.45.19-.88.39-1.3.59l-.28.12q-.76.38-1.47.75L59,176.53H89.68l10.95,10.95a4,4,0,0,0,2.86,1.19H224.83a4.08,4.08,0,0,0,2.43-.81l15.1-11.33H283L262.13,221h-1.92"/><path class="cls-2" d="M87.31,128h-4a4,4,0,0,0,0,8.09h4a4,4,0,0,0,0-8.09Z"/><path class="cls-2" d="M87.31,204.85h4a4,4,0,1,0,0-8.09h-4a4,4,0,1,0,0,8.09Z"/><path class="cls-2" d="M107.53,204.85h4a4,4,0,0,0,0-8.09h-4a4,4,0,0,0,0,8.09Z"/><path class="cls-2" d="M127.76,204.85h4a4,4,0,1,0,0-8.09h-4a4,4,0,1,0,0,8.09Z"/><path class="cls-2" d="M148,204.85h4a4,4,0,1,0,0-8.09h-4a4,4,0,0,0,0,8.09Z"/><path class="cls-2" d="M168.2,204.85h4.05a4,4,0,0,0,0-8.09H168.2a4,4,0,0,0,0,8.09Z"/><path class="cls-2" d="M188.43,204.85h4a4,4,0,1,0,0-8.09h-4a4,4,0,1,0,0,8.09Z"/><path class="cls-2" d="M208.65,204.85h4a4,4,0,0,0,0-8.09h-4a4,4,0,0,0,0,8.09Z"/><path class="cls-2" d="M228.88,204.85h4a4,4,0,1,0,0-8.09h-4a4,4,0,1,0,0,8.09Z"/><path class="cls-2" d="M249.1,204.85h4.05a4,4,0,0,0,0-8.09H249.1a4,4,0,0,0,0,8.09Z"/><rect class="cls-2" x="61.39" y="220.38" width="207.7" height="7.84"/><path class="cls-2" d="M82,86.46a1.77,1.77,0,0,1-.45-1.26V59.28a1.63,1.63,0,0,1,.47-1.2,1.77,1.77,0,0,1,1.26-.45H93c3,0,5.43.74,7.12,2.23a8,8,0,0,1,2.54,6.31,8.07,8.07,0,0,1-2.56,6.36A10.35,10.35,0,0,1,93,74.8H84.89V85.2a1.77,1.77,0,0,1-.45,1.26,1.87,1.87,0,0,1-2.48,0ZM92.69,72q6.65,0,6.64-5.82t-6.64-5.73h-7.8V72Z"/><path class="cls-2" d="M130.61,85.57a1.27,1.27,0,0,1-.47,1,1.75,1.75,0,0,1-2.58-.43L122,77.4a6.6,6.6,0,0,0-2.23-2.33,6.43,6.43,0,0,0-3.13-.64h-5.2V85.2a1.77,1.77,0,0,1-.46,1.26,1.59,1.59,0,0,1-1.19.47,1.64,1.64,0,0,1-1.24-.47,1.73,1.73,0,0,1-.46-1.26V59.28a1.6,1.6,0,0,1,.48-1.2,1.74,1.74,0,0,1,1.26-.45h10.23c3.16,0,5.58.7,7.24,2.11a7.61,7.61,0,0,1,2.5,6.19,7.78,7.78,0,0,1-2,5.57,9.13,9.13,0,0,1-5.72,2.55A5,5,0,0,1,124,75.13a9.5,9.5,0,0,1,1.65,2.06l4.7,7.43A1.68,1.68,0,0,1,130.61,85.57ZM119.8,71.62a7.77,7.77,0,0,0,5.06-1.4A5.27,5.27,0,0,0,126.53,66a5.1,5.1,0,0,0-1.65-4.17,7.88,7.88,0,0,0-5.08-1.36h-8.33V71.62Z"/><path class="cls-2" d="M141.36,85.24a11.92,11.92,0,0,1-4.6-5.16,18.05,18.05,0,0,1-1.61-7.88,18.46,18.46,0,0,1,1.59-8,11.63,11.63,0,0,1,4.58-5.15,14.82,14.82,0,0,1,14.16,0,11.63,11.63,0,0,1,4.58,5.15,18.37,18.37,0,0,1,1.59,7.91,18.17,18.17,0,0,1-1.61,7.9,11.94,11.94,0,0,1-4.61,5.18,14.58,14.58,0,0,1-14.07,0Zm14.24-4.19q2.58-3.12,2.58-8.89t-2.56-8.88a9.93,9.93,0,0,0-14.42,0q-2.58,3.12-2.58,8.86T141.2,81a9.87,9.87,0,0,0,14.4,0Zm-7.16-25.69a.89.89,0,0,1-.64-.25.74.74,0,0,1-.27-.57.91.91,0,0,1,.29-.66l4.09-4.46a2,2,0,0,1,1.44-.7,1.43,1.43,0,0,1,1,.41,1.33,1.33,0,0,1,.43,1,1.86,1.86,0,0,1-1,1.53L149,55.2A1.13,1.13,0,0,1,148.44,55.36Z"/><path class="cls-2" d="M188.71,85.32a1.44,1.44,0,0,1-.49,1.11,1.64,1.64,0,0,1-1.16.46,1.57,1.57,0,0,1-1.19-.58l-9.41-12-9.45,12a1.43,1.43,0,0,1-1.2.58,1.56,1.56,0,0,1-1.11-.48,1.47,1.47,0,0,1-.5-1.09,1.51,1.51,0,0,1,.37-1l9.91-12.42-9.37-11.8A1.58,1.58,0,0,1,164.7,59a1.45,1.45,0,0,1,.47-1.07,1.55,1.55,0,0,1,1.1-.45,1.48,1.48,0,0,1,1.19.61l9,11.39,8.95-11.39a1.49,1.49,0,0,1,1.2-.61,1.66,1.66,0,0,1,1.61,1.61,1.43,1.43,0,0,1-.37,1l-9.41,11.8,9.86,12.42A1.47,1.47,0,0,1,188.71,85.32Z"/><path class="cls-2" d="M193.83,86.46a1.77,1.77,0,0,1-.45-1.26v-26a1.77,1.77,0,0,1,.45-1.26,1.84,1.84,0,0,1,2.48,0,1.77,1.77,0,0,1,.45,1.26v26a1.77,1.77,0,0,1-.45,1.26,1.87,1.87,0,0,1-2.48,0Z"/><path class="cls-2" d="M231,57.9a1.8,1.8,0,0,1,.43,1.26V85.28a1.72,1.72,0,0,1-.41,1.2,1.48,1.48,0,0,1-1.15.45,1.37,1.37,0,0,1-1.12-.45,1.91,1.91,0,0,1-.37-1.2V64.19l-9,17.17a1.83,1.83,0,0,1-1.7,1.2,1.89,1.89,0,0,1-1.69-1.2l-9-17V85.28a1.76,1.76,0,0,1-.4,1.2,1.42,1.42,0,0,1-1.13.45,1.5,1.5,0,0,1-1.16-.45,1.76,1.76,0,0,1-.41-1.2V59.16a1.73,1.73,0,0,1,.46-1.26,1.6,1.6,0,0,1,1.23-.48,1.85,1.85,0,0,1,1.65,1.2l10.49,20.1,10.35-20.1a2.34,2.34,0,0,1,.73-.93,1.58,1.58,0,0,1,.92-.27A1.55,1.55,0,0,1,231,57.9Z"/><path class="cls-2" d="M243.78,85.24a11.92,11.92,0,0,1-4.6-5.16,18.05,18.05,0,0,1-1.61-7.88,18.46,18.46,0,0,1,1.59-8,11.63,11.63,0,0,1,4.58-5.15,14.82,14.82,0,0,1,14.16,0,11.63,11.63,0,0,1,4.58,5.15,18.37,18.37,0,0,1,1.59,7.91,18.17,18.17,0,0,1-1.61,7.9,11.94,11.94,0,0,1-4.61,5.18,14.58,14.58,0,0,1-14.07,0ZM258,81.05q2.58-3.12,2.58-8.89T258,63.28a9.93,9.93,0,0,0-14.42,0Q241,66.42,241,72.16T243.62,81a9.87,9.87,0,0,0,14.4,0Z"/><path class="cls-2" d="M113.5,283a3.36,3.36,0,0,1-1.26,2.65,4.21,4.21,0,0,1-2.86,1.09,3.71,3.71,0,0,1-2-.56A3.86,3.86,0,0,1,106,284.5l-2.13-4.78H88.5l-2.18,4.78a3.66,3.66,0,0,1-3.46,2.27A4.41,4.41,0,0,1,80,285.68a3.31,3.31,0,0,1-1.3-2.65,4,4,0,0,1,.43-1.75l12.5-25.66a4.32,4.32,0,0,1,1.82-2,5.29,5.29,0,0,1,2.67-.69,5.38,5.38,0,0,1,2.66.69,4.31,4.31,0,0,1,1.84,2l12.5,25.66A4.17,4.17,0,0,1,113.5,283Zm-12.6-9.84-4.73-10.56-4.74,10.56Z"/><path class="cls-2" d="M146.07,283.51a3.13,3.13,0,0,1-1.26,2.53,4.45,4.45,0,0,1-2.91,1,4.5,4.5,0,0,1-3.83-2.09l-6.16-9a4.86,4.86,0,0,0-1.39-1.4,3.26,3.26,0,0,0-1.73-.45h-3.08v8.48a4.36,4.36,0,0,1-1.13,3.15,4.2,4.2,0,0,1-3.13,1.16,4,4,0,0,1-4.31-4.31V257.28a3.63,3.63,0,0,1,4-4h11.88q6.06,0,9.11,2.63c2,1.75,3.06,4.29,3.06,7.6a10,10,0,0,1-2.09,6.42,10.18,10.18,0,0,1-5.87,3.52,6.51,6.51,0,0,1,2.73,1,10,10,0,0,1,2.29,2.42l2.94,4.21A4.39,4.39,0,0,1,146.07,283.51ZM135.82,266.7a3.36,3.36,0,0,0,1.25-2.94,3.46,3.46,0,0,0-1.25-3,7.11,7.11,0,0,0-4.14-.93h-6.06v7.77h6.06A7.3,7.3,0,0,0,135.82,266.7Z"/><path class="cls-2" d="M179.54,283.51a3.15,3.15,0,0,1-1.25,2.53,4.49,4.49,0,0,1-2.91,1,4.5,4.5,0,0,1-3.84-2.09l-6.15-9a5,5,0,0,0-1.4-1.4,3.26,3.26,0,0,0-1.73-.45h-3.08v8.48a4.36,4.36,0,0,1-1.13,3.15,4.2,4.2,0,0,1-3.13,1.16,4,4,0,0,1-4.31-4.31V257.28a3.65,3.65,0,0,1,4-4h11.88q6.06,0,9.12,2.63c2,1.75,3.05,4.29,3.05,7.6a10.07,10.07,0,0,1-2.08,6.42,10.24,10.24,0,0,1-5.87,3.52,6.52,6.52,0,0,1,2.72,1,9.77,9.77,0,0,1,2.29,2.42l2.94,4.21A4.39,4.39,0,0,1,179.54,283.51ZM169.29,266.7a3.36,3.36,0,0,0,1.26-2.94,3.47,3.47,0,0,0-1.26-3,7.09,7.09,0,0,0-4.14-.93h-6.06v7.77h6.06A7.28,7.28,0,0,0,169.29,266.7Z"/><path class="cls-2" d="M185.25,285.76a4.25,4.25,0,0,1-1.16-3.15V257.28a4.15,4.15,0,0,1,1.16-3.1,4.21,4.21,0,0,1,3.14-1.16,4.37,4.37,0,0,1,3.22,1.16,4.13,4.13,0,0,1,1.19,3.1v25.33a4.23,4.23,0,0,1-1.19,3.15,4.41,4.41,0,0,1-3.22,1.16A4.25,4.25,0,0,1,185.25,285.76Z"/><path class="cls-2" d="M225.75,272.31a8.45,8.45,0,0,1,1.56,5.18,8.16,8.16,0,0,1-1.44,4.81,9.44,9.44,0,0,1-4.12,3.2,16.13,16.13,0,0,1-6.27,1.13h-12.6a3.63,3.63,0,0,1-4-4V257.28a3.63,3.63,0,0,1,4-4H215a13.58,13.58,0,0,1,8.36,2.35,7.53,7.53,0,0,1,3.1,6.32,7.74,7.74,0,0,1-1.37,4.52,7.83,7.83,0,0,1-3.84,2.86A8.51,8.51,0,0,1,225.75,272.31Zm-18.42-5.94h6.2a6.58,6.58,0,0,0,3.6-.76,2.68,2.68,0,0,0,1.14-2.41,2.92,2.92,0,0,0-1.14-2.56,6.28,6.28,0,0,0-3.6-.81h-6.2Zm10.77,12.85a3.86,3.86,0,0,0,0-5.44,6.37,6.37,0,0,0-3.71-.83h-7.06v7.1h7.06A6.29,6.29,0,0,0,218.1,279.22Z"/><path class="cls-2" d="M238.75,285a14.3,14.3,0,0,1-5.8-6,21.18,21.18,0,0,1,0-18.14,14.2,14.2,0,0,1,5.8-5.94,20,20,0,0,1,17.75,0,14.15,14.15,0,0,1,5.78,5.94,19.41,19.41,0,0,1,2,9.07,19.17,19.17,0,0,1-2,9.07,14.36,14.36,0,0,1-5.8,6,19.61,19.61,0,0,1-17.7,0Zm14.79-7.24c1.42-1.79,2.13-4.38,2.13-7.79s-.72-6-2.15-7.77a7.94,7.94,0,0,0-11.82,0q-2.13,2.63-2.13,7.79t2.13,7.81a7.92,7.92,0,0,0,11.84,0Z"/><line class="cls-3" x1="101.47" y1="36.5" x2="243.03" y2="36.5"/><line class="cls-3" x1="101.47" y1="306" x2="243.03" y2="306"/></svg>