<svg id="OBJECT" xmlns="http://www.w3.org/2000/svg" viewBox="0 0 164.23 190.12"><defs><style>.cls-1,.cls-2{fill:#fff;}.cls-2{fill-rule:evenodd;}</style></defs><g id="Capa_2" data-name="Capa 2"><path class="cls-1" d="M125.93,102.7a.35.35,0,0,0-.15.15.34.34,0,0,1-.23.15,1,1,0,0,1-.41,0,2.29,2.29,0,0,1-.66-.37l-1.49-1c-.49-.33-1-.7-1.57-1.12s-1.17-.9-1.84-1.45-1.42-1.24-2.25-2c-.78.78-1.55,1.6-2.29,2.44s-1.45,1.6-2.1,2.28a14.46,14.46,0,0,1-1.81,1.62,1.85,1.85,0,0,1-1.37.51c-.2,0-.23-.34-.09-.88a14.17,14.17,0,0,1,.81-2.12c.39-.86.89-1.85,1.51-2.95s1.3-2.24,2.06-3.4a2.58,2.58,0,0,1,.46-.59,28.88,28.88,0,0,1-2.08-2.46A17.74,17.74,0,0,1,111,89.25a2.49,2.49,0,0,1-.76.46,1.2,1.2,0,0,1-.68.07,1.11,1.11,0,0,1-.66-.49,1.07,1.07,0,0,1-.15-1,1.48,1.48,0,0,1,.71-.83,1.92,1.92,0,0,1,1.33-.15,3.54,3.54,0,0,1,1.75,1.1c.35.35.86.85,1.54,1.49s1.41,1.33,2.2,2a24.94,24.94,0,0,1,2.39-1.9,30.45,30.45,0,0,1,2.68-1.67,23.56,23.56,0,0,1,2.69-1.3,13.78,13.78,0,0,1,2.44-.77,5.49,5.49,0,0,1,1.94-.1,1.57,1.57,0,0,1,1.18.76,1.08,1.08,0,0,1,0,1.11,4.49,4.49,0,0,1-1,1.23,13.18,13.18,0,0,1-1.73,1.3c-.67.43-1.39.87-2.15,1.31s-1.52.87-2.29,1.3-1.49.84-2.15,1.26a3.29,3.29,0,0,1-.33.23,2.19,2.19,0,0,0-.33.23c.75.68,1.39,1.27,1.92,1.79s1,1,1.43,1.41.79.83,1.13,1.21.68.79,1,1.23a4.4,4.4,0,0,1,.86,1.46C126,102.43,126,102.66,125.93,102.7Z"/><path class="cls-1" d="M119.81,79.47a13.55,13.55,0,0,1,1.51.26,9.59,9.59,0,0,1,1.34.41,5.6,5.6,0,0,1,1.07.54,1.9,1.9,0,0,1,.64.66,8.37,8.37,0,0,1,.34.93,2.67,2.67,0,0,1,.14,1.09,1,1,0,0,1-.46.77,1.89,1.89,0,0,1-1.43,0c-.37-.08-.84-.16-1.39-.23s-1.16-.1-1.81-.11-1.29,0-1.93,0A11.58,11.58,0,0,0,116,84a5.32,5.32,0,0,0-1.4.5,1.43,1.43,0,0,0-.73.77A1.93,1.93,0,0,0,114,87a4.18,4.18,0,0,0,1.22,1.28,2.26,2.26,0,0,1,.6.55.78.78,0,0,1,.22.55c0,.14-.17.21-.43.21a3.64,3.64,0,0,1-1.31-.43A6.06,6.06,0,0,1,112.59,88a5.59,5.59,0,0,1-1.13-1.58,5.05,5.05,0,0,1-.47-1.85,4.66,4.66,0,0,1,.29-2,4.18,4.18,0,0,1,.94-1.61,4,4,0,0,1,1.62-1,10,10,0,0,1,2.48-.46A29.77,29.77,0,0,1,119.81,79.47Z"/><path class="cls-1" d="M129.65,80.83a1.55,1.55,0,0,1,.88,1.1,2.94,2.94,0,0,1-.7,2.65,1.18,1.18,0,0,1-1.1.41,2,2,0,0,1-1.3-.83A3,3,0,0,1,127,82a1.16,1.16,0,0,1,.3-.7,2,2,0,0,1,.64-.51,1.93,1.93,0,0,1,.83-.22A1.52,1.52,0,0,1,129.65,80.83Z"/><path class="cls-1" d="M110.54,83.39a.58.58,0,0,0,.36-.58c0-.27,0-.59,0-1a5.67,5.67,0,0,1,.24-1.28,3.84,3.84,0,0,1,1-1.51,3.78,3.78,0,0,1,1.89-.85c.93-.22,2-.43,3.26-.61s2.58-.37,4-.54,2.77-.38,4.06-.61a27.65,27.65,0,0,0,3.46-.82,5.21,5.21,0,0,0,2.22-1.2,3.57,3.57,0,0,0,1.1-2.05,2.77,2.77,0,0,0-.51-1.82A6.22,6.22,0,0,0,129.93,69a19.89,19.89,0,0,0-2.57-1.41c-1-.43-2-.83-3-1.19s-2-.69-3-1l-2.65-.79c-.8-.22-1.43-.43-1.89-.6.59,0,1.39,0,2.39,0s2.1-.05,3.28-.12,2.39-.17,3.63-.31a27.08,27.08,0,0,0,3.43-.6,11.63,11.63,0,0,0,2.69-1,3,3,0,0,0,1.44-1.51,3.32,3.32,0,0,0,0-2.48A4.69,4.69,0,0,0,132.18,56a11.13,11.13,0,0,0-2.54-1.41,29.48,29.48,0,0,0-3-1c-1-.27-2-.5-2.92-.67s-1.68-.31-2.28-.39l-2.16-.35a22.41,22.41,0,0,0-2.33-.23,16,16,0,0,0-2.31.08,6,6,0,0,0-2,.6,1.72,1.72,0,0,0-.89.91,2.92,2.92,0,0,0-.23,1.25,2.14,2.14,0,0,0,.35,1.1,1,1,0,0,0,.8.51l1.79.08,2.62.13c1,0,2,.12,3.07.2s2.1.16,3.08.26,1.88.21,2.69.34a14.52,14.52,0,0,1,1.91.43,12.69,12.69,0,0,1,1.44.57c.21.11.4.21.56.31.28.26,1,1.08-.48,1.48l-.55.16c-1.54.29-3.11.51-4.73.68-2.42.25-4.78.42-7.1.51A11.82,11.82,0,0,0,114,62a5.74,5.74,0,0,0-2.28,1.21,1.8,1.8,0,0,0-.51.87,3.09,3.09,0,0,0-.1,1.09,2.49,2.49,0,0,0,.31,1,1.56,1.56,0,0,0,.72.65,6.27,6.27,0,0,0,1.66.33l3.22.41c1.23.16,2.54.36,3.93.57a32.73,32.73,0,0,1,3.87.84,13.16,13.16,0,0,1,3,1.23c.14.08.27.17.4.26.27.28,1.23,1.36-.43,1.45l-.28,0h-1.1l-2.89,0c-1,0-2,.06-2.93.12a22.6,22.6,0,0,0-2.89.34A14.41,14.41,0,0,0,111.38,75,6.7,6.7,0,0,0,108.71,80a4.25,4.25,0,0,0,.11,1.48,4.16,4.16,0,0,0,.46,1.14,2.07,2.07,0,0,0,.62.68A.66.66,0,0,0,110.54,83.39Z"/><path class="cls-1" d="M117.89,122.8s-6.07.54-6.57,5.29l-.69.16-.17-3.39,3.87-2.51Z"/><path class="cls-2" d="M137.05,123.69Z"/><path class="cls-2" d="M121.5,138.34a6.46,6.46,0,0,0,9.07-3.54c2.31-6.92-5.61-12.5-13.25-10.5,0,0-4.7.83-6.57,4.63a15.94,15.94,0,0,0,6.42,20.57c12.21,6.72,26.94-3.77,24.65-17.66a13.23,13.23,0,0,0-5.45-9c.33.43.54.71.68.88-.31-.4-.79-1,.48.57,8.33,10.49.16,26.67-13.28,25.29-8.5-.88-15.89-9.85-12.66-18.41a7.82,7.82,0,0,1,2.83-3.9l.42-.26a6.07,6.07,0,0,1,3.56-.69,8.9,8.9,0,0,0,1.65,10.94A8.36,8.36,0,0,0,121.5,138.34Zm4.7-4.34c-1,2.18-2.84,2.07-4.39,1.51h0c-3.75-1.48-3.33-7.21-3.07-9.17C123.15,127,127.43,131.41,126.2,134Z"/><path class="cls-1" d="M114.11,132.17c0,7.27,5.14,13.18,11.46,13.18a10.17,10.17,0,0,0,3.78-.73,3.6,3.6,0,0,0,4.22-.76c.11-.11.12,0,0-.09a3.94,3.94,0,0,0-2-.39,11.89,11.89,0,0,0,1.4-1.17h0a3.88,3.88,0,0,0,3.45-1.79,6.63,6.63,0,0,0,.39-.67s0,0,0,0a20.33,20.33,0,0,0,1.49-4.73l-.26-.06a19.93,19.93,0,0,1-1.54,4.81,3.77,3.77,0,0,0-1.94.52c.25-.37.49-.76.71-1.16a2.77,2.77,0,0,0,1.21-3.07,15.7,15.7,0,0,0,.47-2.85l-.27,0a14.83,14.83,0,0,1-.5,2.93,2.87,2.87,0,0,0-1.33,3.15h0a12.07,12.07,0,0,1-4.15,4.3,3.65,3.65,0,0,0-.95.52,9.77,9.77,0,0,1-3.28.91,4,4,0,0,0,2.29-2.29c.07-.15.11-.08,0-.08a4,4,0,0,0-3.63,2.41,10,10,0,0,1-3.08-.64,3.47,3.47,0,0,0,3.08-1c.1-.1.12,0,0-.09a3.58,3.58,0,0,0-4.21.62,11,11,0,0,1-2.26-1.6,3.37,3.37,0,0,0,3.09.24c.13,0,.12,0,0-.09a3.6,3.6,0,0,0-4.11-1.19,12.52,12.52,0,0,1-1.82-2.77,3.67,3.67,0,0,0,2.77,1.6c.14,0,.11.08,0-.08a4,4,0,0,0-3.41-2.91,15,15,0,0,1-.59-2.14,4.14,4.14,0,0,0,2,2.16c.13.07.08.12.06-.06a4.53,4.53,0,0,0-2.33-4c0-.29,0-.59,0-.88"/><path class="cls-1" d="M130.71,142.66a.29.29,0,0,1,0,.14.38.38,0,0,1,.11-.08,4.55,4.55,0,0,0,2.6-3.78,12,12,0,0,0,1.76-4.42l-.26-.06a11.76,11.76,0,0,1-1.76,4.37A4.65,4.65,0,0,0,130.71,142.66Z"/><path class="cls-1" d="M126,145.94a.24.24,0,0,1,.12.05,3.62,3.62,0,0,0,4.31.1c.12-.08.13,0,0-.09a3.54,3.54,0,0,0-4.31-.11Z"/><path class="cls-1" d="M126,145.94Z"/><path class="cls-1" d="M121.44,145Z"/><path class="cls-1" d="M121.57,145.05a.24.24,0,0,1-.13,0,.65.65,0,0,1,.09.11,4,4,0,0,0,3.94,2c.14,0,.11.05,0-.09A3.75,3.75,0,0,0,121.57,145.05Z"/><path class="cls-1" d="M117.76,142.56s0,0,0,0Z"/><path class="cls-1" d="M117.87,142.62l-.11-.06a.7.7,0,0,1,0,.13,4.5,4.5,0,0,0,3,3.55c.14,0,.09.1,0-.07A4.26,4.26,0,0,0,117.87,142.62Z"/><path class="cls-1" d="M116.58,143.06a4.88,4.88,0,0,0-1.59-4.61.39.39,0,0,1-.08-.11.71.71,0,0,1,0,.15,5.06,5.06,0,0,0,1.6,4.61C116.62,143.2,116.56,143.24,116.58,143.06Z"/><path class="cls-1" d="M114.91,138.34s0,0,0,0Z"/><path class="cls-1" d="M113.72,134.23c0-.06,0-.11,0-.13a.34.34,0,0,1,0,.14,5.25,5.25,0,0,0,.22,5c.08.13,0,.14.08,0A5.15,5.15,0,0,0,113.72,134.23Z"/><path class="cls-1" d="M113.67,134.1s0,0,0,0Z"/><path class="cls-1" d="M111,128.66a.58.58,0,0,0,.36-.57c0-.28,0-.6,0-1a5.31,5.31,0,0,1,.3-1.15,3.65,3.65,0,0,1,1.07-1.44,5,5,0,0,1,2.15-1,29.24,29.24,0,0,1,2.88-.64c1.25-.18,2.58-.36,4-.54s2.78-.38,4.07-.61a27.65,27.65,0,0,0,3.46-.82,5.11,5.11,0,0,0,2.22-1.19,3.69,3.69,0,0,0,1.1-2,2.78,2.78,0,0,0-.51-1.83,6.49,6.49,0,0,0-1.74-1.6,18.42,18.42,0,0,0-2.58-1.41,31.92,31.92,0,0,0-3-1.2c-1-.36-2.05-.69-3-1s-1.86-.56-2.66-.79-1.42-.43-1.88-.61c.59,0,1.38,0,2.39,0s2.1,0,3.28-.11,2.39-.17,3.63-.31a28.75,28.75,0,0,0,3.42-.61,10.64,10.64,0,0,0,2.69-1,3,3,0,0,0,1.45-1.51,3.3,3.3,0,0,0,0-2.47,4.64,4.64,0,0,0-1.52-1.92,10.49,10.49,0,0,0-2.55-1.41,24.54,24.54,0,0,0-3-1c-1-.28-2-.5-2.92-.68h-.08c.19.2.38.4.55.6.34.39.7.81,1.06,1.26a5.2,5.2,0,0,1,1,1.77,2.94,2.94,0,0,1,.11.69,2,2,0,0,1,0,.27,11.31,11.31,0,0,1,1.43.34,11.74,11.74,0,0,1,1.45.58c.21.1.4.21.57.31s1.14,1.09-.44,1.52h0q-2.58.49-5.32.78-3.63.38-7.11.51a12,12,0,0,0-2.87.49,5.75,5.75,0,0,0-2.28,1.22,1.72,1.72,0,0,0-.5.87,2.84,2.84,0,0,0-.1,1.08,2.34,2.34,0,0,0,.31,1,1.49,1.49,0,0,0,.72.66,6.94,6.94,0,0,0,1.66.32l3.21.41c1.24.17,2.55.36,3.94.58a32.78,32.78,0,0,1,3.87.83,13.16,13.16,0,0,1,3,1.23,3.8,3.8,0,0,1,.83.65c.28.39.48.94-.43,1.08h-1.81c-1,0-1.92,0-2.89,0s-2,.06-2.94.11a22.65,22.65,0,0,0-2.88.34,14.48,14.48,0,0,0-6.38,2.53,6.76,6.76,0,0,0-2.68,5,4.48,4.48,0,0,0,.12,1.48,4.24,4.24,0,0,0,.46,1.15,1.93,1.93,0,0,0,.62.67A.66.66,0,0,0,111,128.66Z"/><path class="cls-1" d="M119,99.65c-.52-.42-1.08-.92-1.68-1.48-.58.59-1.14,1.2-1.69,1.82s-1,1.17-1.53,1.69l.76,0,2.62.13c1,.06,2,.12,3.07.2l1.78.14c-.45-.31-.94-.65-1.46-1S119.63,100.22,119,99.65Z"/><path class="cls-1" d="M162.1,143c-.43-19.06-1.07-38.11-1.43-57.18-.29-14.93-.28-29.87-.4-44.81-.05-6.34.81-13.08,0-15.86.2-4.2-.67-9.79-1.78-11-.9-1-7.45-4.44-8.52-5-2.74-1.36-6.63-2-9.47-2.86a68.65,68.65,0,0,0-8-1.56H120.73a11.11,11.11,0,0,1-1.24.29c-4,.41-8,.72-12,1.25-4.52.6-17.27,4.9-21.25,8.11-2,1.64-5.66,5-6.7,7.85-.68,1.89.13,6.41-.15,9.16-.26,2.5.2,11,.18,13.27q-.12,18.66.2,37.31h4.73q-.17-10.83-.21-21.68c0-5.85-.38-12.87,0-18.7.3-4.73-.08-11.89,0-12.82.14-1.48,6.31,2.62,12.45,2.62,7.15,0,19.4-.59,26.54-.38,10.49-1.19,18,.12,24.43-3,.81-.4,6.45-3.84,6.85-2.62s-1.52,9.81-2,10.61c-1.74,2.66-3.5,5.31-5.24,8a6.6,6.6,0,0,0-.8,1.51,6.41,6.41,0,0,0-.11,1.48,3.91,3.91,0,0,0,1.28,0c.28-.1.52-.5.75-.8l5.67-7.18c.36-.45.74-.88,1.11-1.32a3.93,3.93,0,0,1-.24,4.8c-2.19,2.78-4.4,5.54-6.59,8.32-.36.45-.67,1-1.22,1.75,2.26.54,3.47-1.2,4.73-2.56s2.52-3.08,3.85-4.74a4.43,4.43,0,0,1-.64,4.56c-2.28,2.92-4.55,5.87-6.76,8.88a6.91,6.91,0,0,0-.56,2c.58-.17,1.31-.1,1.72-.55,1.51-1.64,2.91-3.47,4.38-5.19a20.42,20.42,0,0,1,1.68-1.61c.42,2.05.57,3.61-.7,5.05-2.2,2.5-4.29,5.14-6.42,7.74a3.56,3.56,0,0,0-.75,1.72c2.93-1.63,5.15-4.61,7.79-7.17.3,2.32.4,4.23-1.07,5.84s-2.56,3.24-3.82,4.89a2.84,2.84,0,0,0-.75,1.3,4.08,4.08,0,0,0,.41,2c.08.16.88,0,1.13-.3,1.12-1.38,2.17-2.86,3.22-4.33a9,9,0,0,0,.61-1.4,4.09,4.09,0,0,1-.44,4.2c-1.4,1.91-2.86,3.74-4.28,5.62a22.07,22.07,0,0,0-2.21,3.08,6.22,6.22,0,0,0,0,2.28c.5,0,1.13.16,1.47-.17,1.59-1.53,3.09-3.19,4.63-4.81l1.31-1.42c.72,3.17.43,4.24-1.31,6.1s-3.58,4-5.35,6a2.7,2.7,0,0,0-.64,1,10,10,0,0,0-.27,1.67c.42-.06.94.08,1.25-.2,1.73-1.56,3.42-3.23,5.12-4.86.44-.42.9-.82,1.36-1.25,1,2.77.69,4.46-1,6.19s-3.56,3.79-5.33,5.71a13.29,13.29,0,0,0-.94,1.29c.5,1.61,1.18,1.72,2.09.76,1.85-2,3.71-3.88,5.55-5.8a5,5,0,0,1-.54,5.28c-2.09,2.56-4.24,5-6.35,7.56-.53.64-1,1.4-1.47,2.11l.24.53a5.39,5.39,0,0,0,1.61-.8c2.28-2.13,4.52-4.34,6.77-6.53,1.05,3.29.55,5.17-1.55,7.26-1.92,1.92-3.69,4.13-5.47,6.3a5.57,5.57,0,0,0-.41,1.87c.49-.11,1.11,0,1.46-.38,1.76-1.75,3.44-3.61,5.15-5.43l1-1.09.17.46c.77,3.49,0,6.07-2.3,8.22a53.72,53.72,0,0,0-5.54,6.52,6.08,6.08,0,0,0-.52,2c.54-.16,1.2-.1,1.58-.5,1.78-1.89,3.49-3.92,5.23-5.88.51-.58,1-1.13,1.75-1.89.22,3.86.68,7.26-1.84,10a47,47,0,0,0-4.35,6,7,7,0,0,0-1,2.86c3.06-1.15,4.61-4.88,7.34-6.85.27,2.47.77,4.71-.86,6.75-2.21,2.75-4.32,5.65-6.38,8.6a13.19,13.19,0,0,0-1,2.92,10.58,10.58,0,0,0,2-1.3c2-2,4-4.12,6.32-6.47,0,3,0,5.51,0,8.05,0,.48-.51,1-.85,1.37-2,2.2-4.08,4.34-6.09,6.55a7.08,7.08,0,0,0-1.31,1.89,7,7,0,0,0-.2,1.89,3.64,3.64,0,0,0,1.4-.28,6.26,6.26,0,0,0,1.33-1.34c1.37-1.58,2.72-3.2,4.1-4.78.45-.51,1-.92,1.55-1.49.49,3.28.56,6-1.52,8.29a86.16,86.16,0,0,0-5.3,7.13,5.23,5.23,0,0,0-.83,1.92c1.7.14,2.65-1.63,3.85-2.65s2.41-2.42,3.69-3.74a4.3,4.3,0,0,1-1.28,4.12c-5.52,5.5-11.54,9.59-18.46,10.94-11.45,2.22-22.86,2.13-34-2.52-4.33-1.81-8.44-4.57-12.61-7-1.87-1.1-2.83-2.93-2.93-5.91-.26-8.06-.59-16.1-.94-24.15H81.49q.42,12.4.78,24.83c.14,4.75,1.66,8.16,4.91,10.11,1.1.66,7.5,5.11,9.15,6.07,4.93,2.86,6.38,2.64,11.68,3.9,2.62.63,7.08,1.6,9.71,2.1,2.9,0,9.27.07,10.1,0,7.13-.67,6.71.5,13.66-1.83,3.78-1.27,3.78-1.27,8.91-4.17,0-.67,7-6.19,8.9-8.12a10.21,10.21,0,0,0,2.92-7.27C162.27,158.24,162.28,150.59,162.1,143ZM144.2,23.25,133,25.1c-.57.16-15,.91-15,.91-8.93.27-14.72,1-23.57-.91-1-.22-9.11,0-10.07-1.84.79-5,10.73-7.78,11.66-8.37,4.83-3.1,11.92-3.27,17.3-3.51,9-.41,17-2.21,25.86-.13a62.81,62.81,0,0,1,7.53,2.33c.55.22,8.51,1.12,10.1,3.66C156.73,22.8,147,22.77,144.2,23.25Z"/><path class="cls-1" d="M62.53,48.69c.5-1.13.84-2,1.27-2.88a7.68,7.68,0,0,1,11.68-2.68,15.36,15.36,0,0,1,5.34,8.7c.85,3.31,1.39,6.71,2.06,10.06a11,11,0,0,0,.73,2.66,9.44,9.44,0,0,1,.5-1.28A19.44,19.44,0,0,1,86,60a6.11,6.11,0,0,1,9.19-.56c2.32,2.1,3.27,4.93,4,7.84a93.55,93.55,0,0,1,2.5,18.92,218.88,218.88,0,0,1-.62,23.75,64.94,64.94,0,0,1-3,16.53c-2.36,6.9-6,12.87-12.16,17.1a29.89,29.89,0,0,1-12.41,4.74,63.42,63.42,0,0,1-20,.45,27.53,27.53,0,0,1-10.7-4c-1.66-1.06-2.08-2.33-1.2-3.7a2.8,2.8,0,0,1,4.16-.88A20.77,20.77,0,0,0,56,143.68a66,66,0,0,0,7.57.15c4.81-.24,9.62-.58,14.21-2.17,6.36-2.21,10.59-6.74,13.49-12.65a45.86,45.86,0,0,0,4.14-17q.67-9.24.86-18.5a124.3,124.3,0,0,0-1.41-21.28,61.59,61.59,0,0,0-1.56-6.51A5.21,5.21,0,0,0,92.4,64c-1-1.34-2.3-1.27-2.93.26a16.11,16.11,0,0,0-1.14,4.18c-.75,6.76-1.4,13.53-2.08,20.3-.15,1.55-.25,3.11-.41,4.66a2.49,2.49,0,0,1-2.59,2.27c-1.67,0-2.79-.84-2.89-2.32-.18-2.68-.17-5.37-.42-8-.48-5.23-1-10.47-1.65-15.68-.5-4-1.14-8.05-1.89-12a58.4,58.4,0,0,0-1.9-7A7.24,7.24,0,0,0,73,48.33a2.92,2.92,0,0,0-3-1,2.48,2.48,0,0,0-1.72,2.27A76.51,76.51,0,0,0,67,58.15c-.28,5.31-.25,10.63-.35,15.95s-.2,10.34-.36,15.51a2.53,2.53,0,0,1-2.86,2.72,2.59,2.59,0,0,1-2.66-2.69q-.93-10.76-1.82-21.52c-.4-4.82-.67-9.66-1.21-14.47a23.34,23.34,0,0,0-1.56-5.91c-1.23-3.11-3.87-4-6.58-2.54-1.84,1-2.1,2.76-2,4.52.25,5.17.54,10.35,1,15.51.76,8.46,1.67,16.92,2.52,25.38a2.69,2.69,0,0,1-2.46,3.24,2.58,2.58,0,0,1-3-2.52c-.62-4.92-1.11-9.86-1.83-14.77a113.26,113.26,0,0,0-4-19.1c-.06-.18-.12-.35-.19-.53-1.16-2.84-3.18-3.19-5.26-.87-1.64,1.82-2,4.13-2.19,6.44A108.83,108.83,0,0,0,33.55,88c.79,4.93,1.86,9.81,2.63,14.74a14.79,14.79,0,0,1-.71,7.27,10,10,0,0,1-7.85,6.89c-3.57.66-7.24.82-10.87,1.14A13,13,0,0,0,9,120.87c-3.15,2.7-3.11,6.29.23,8.79a22,22,0,0,0,10.48,4.19c4.56.57,9.18.72,13.77,1,1.16.08,1.79.5,1.92,1.46s-.2,1.41-1.08,1.52c-6.31.84-12.63,1.74-19,.48a21.37,21.37,0,0,1-9-3.95c-9-7-5-16.4,1.8-19.9,3.74-1.91,7.83-2.26,11.92-2.6,1.6-.13,3.21-.18,4.8-.34,4.29-.45,6.32-3,5.63-7.27s-1.68-8.69-2.34-13.07c-.73-4.82-1.38-9.67-1.81-14.53a69.5,69.5,0,0,1,.25-16,17.47,17.47,0,0,1,3.33-8.07c2.79-3.72,8.14-4.84,11.39-2.31.1.09.27.09.54.17-.08-6,2.29-10.19,8.46-11.39a9.11,9.11,0,0,1,8,2.11C60.59,43.06,61.57,45.74,62.53,48.69Z"/><path class="cls-1" d="M71.44,121.57a2.27,2.27,0,0,1-1.29,2.62,2.38,2.38,0,0,1-2.9-.81c-.56-.79-1-1.66-1.56-2.45a22.34,22.34,0,0,0-15.09-9.68c-1.69-.27-3.36-.65-5-1-.84-.16-1.52-.53-1.54-1.47s.82-1.14,1.53-1.34a14.76,14.76,0,0,1,8.15.28,28.13,28.13,0,0,1,17.2,12.68A8.7,8.7,0,0,1,71.44,121.57Z"/></g></svg>