<svg id="Layer_1" data-name="Layer 1" xmlns="http://www.w3.org/2000/svg" viewBox="0 0 64 64"><defs><style>.cls-1{fill:#fff;}</style></defs><path class="cls-1" d="M59.79,26.44C58.85,16.7,55.51,7,44.37,2.36S21.7.88,16.17,3.92A24.44,24.44,0,0,0,4,24.49C3.56,35.09,10.1,45,10.1,45S6.44,59.33,6.44,59.79,10.1,64,10.64,64s15.19-7,15.19-7a45.93,45.93,0,0,0,12.93-.7c6.85-1.4,12.38-4.6,16-9.67s5.92-10.44,5-20.18ZM55.19,40.7C52.93,46.08,45,50.49,44.34,50.81s-2.59.88-2.59.88-.73-1.51-1-1.61-1,.36-.94.57.73,1,.52,1.3-1.61.31-1.61.31A12.63,12.63,0,0,0,37.38,50c-.3-.15-1.19.16-1.09.42a14.15,14.15,0,0,1,1.09,2.34,8,8,0,0,1-2.13.31,17,17,0,0,0-1.45-2.75c-.26-.16-1.4.1-1.4.36a26.47,26.47,0,0,0,1.3,2.7,6.82,6.82,0,0,1-1.77.06,20.87,20.87,0,0,0-1.71-3c-.31-.16-1.25.1-1.25.36s1,2.7,1,2.7l-1.5-.21-1.87-3s-1-.05-.94.31,1.2,2.65,1.09,2.81-.41.41-.62.31-2-2.39-2.13-2.44-.88.21-.83.52,1.87,1.92,1.66,2.23-1.61,1.25-1.82,1-2-2.65-2.18-2.75-1.19.57-1.09.72,1.56,2.6,1.56,2.6l-1.66.57a21.66,21.66,0,0,0-1.87-2.18c-.21,0-1,.57-.94.78s1.72,1.5,1.46,1.71a10.65,10.65,0,0,1-1.3.68s-1.3-1.41-1.61-1.41-.47.47-.47.63a9.8,9.8,0,0,0,.83,1.3s-5.92,2.7-6.38,2.39-.94-.94-.81-1.22,3.51-14.19,3.51-14.19S5.66,34.23,5.89,26,11.58,8.52,15.71,5.48,33,.11,40.71,2.29,55.19,12,57.45,20.13s0,15.2-2.26,20.57Zm-25-36.23c-6.75.67-11.48,2.8-15.63,8.57S8.83,23.69,9.92,30.91s6.23,13.66,6.33,13.87-3.81,9.49-4.1,10,.67,1.09,1.3,1.09,11.37-8.26,11.73-8.37a47.07,47.07,0,0,0,6.23.63A34.35,34.35,0,0,0,45,45.72c5.14-2,10.12-6.34,10.69-14.86S54.1,16.31,48.13,10.18,37,3.79,30.22,4.47Zm20,10.85C55.3,21.61,55,30.6,53.27,35.48s-5.5,8.21-11.21,9.82S31.52,47.06,29.6,46.65s-3.9-.88-4.37-.88-8.82,6.07-9.6,6.44c-.14.06,2.91-6.7,2.85-7.17s-4.83-6.39-6-10.65a26.31,26.31,0,0,1,1.72-17.56c3-5.87,11.89-10,18.07-10.08a22.28,22.28,0,0,1,18,8.57ZM32.09,23.38c.47-.73-.42-3.22-3-6.55s-5-3.7-6.08-2.91-4.93,4.52-4.31,9.25,6.7,13.35,11.11,18.13,10.49,3,13,1.56S47,38.8,47.09,37s-6.59-7.9-7-8.11-4.37,3.43-4.78,3.38S30.63,25.35,30.69,25s.93-.94,1.4-1.66ZM33.54,34c1.46,1,1.2,1.3,1.92.89s3.79-3.95,4.36-3.74,5.87,5,5.61,5.71-1.14,2.55-1.4,2.39S42.21,36,41.28,36.05s-.78.78-.68,1.09,2.18,2.5,2,2.76a1.4,1.4,0,0,1-.68.36,34,34,0,0,0-2-2.91c-.16,0-1.14.31-1,.62s2,2.34,1.66,2.6-.93.62-1.09.42l-2-2.76s-1.35.11-1.14.47,1.55,2.24,1.29,2.24-2.49.67-6.8-3.43-9.91-10-10.28-14.29,2.18-8.1,3.9-7.89c.39,0,6.28,6,5.4,6.7s-3.12,2.44-2.24,3.74,4.52,7.17,6,8.21ZM23.83,17.35c-1.45.47-2.07,4.31-2.07,4.94s1.92.72,2.18.67,0-.26,0-1.35a8.27,8.27,0,0,1,.67-3.17c.26-.31-.14-1.29-.78-1.09Z"/></svg>