<svg id="OBJECT" xmlns="http://www.w3.org/2000/svg" viewBox="0 0 189.65 190.12"><path d="M123.25,164.6q-9.5-12.45-13-32.94a117.24,117.24,0,0,1-1.77-14.91q-.44-7.62-.6-15.16t-.17-14.91c0-1.92,0-3.81,0-5.68-.06-.45-.11-.93-.14-1.45-.45-8.56-6-3.61-7.46-2.19a24.06,24.06,0,0,0-1.35,2A67.33,67.33,0,0,0,92.33,95,170.15,170.15,0,0,0,88,115q-1.7,10.75-3,20.33t-2.12,16.6c-.56,4.69-1.13,7.54-1.69,8.55a7.7,7.7,0,0,1-3.39,3.73,12.62,12.62,0,0,1-5.17,1.61,15.66,15.66,0,0,1-5.59-.51,9.12,9.12,0,0,1-4.48-2.62,29.33,29.33,0,0,1-6.27-11.78,60.9,60.9,0,0,1-2.54-14.82q-.69-18-2.63-36.67Q49.86,86.85,47.68,75c-.27-.88-.55-1.83-.83-2.86-2.08-7.66-6.33-3.91-7.66-2.48-.51.85-1,1.81-1.57,2.9a58.59,58.59,0,0,0-3,7.45,66.25,66.25,0,0,0-2.2,9.83q-1,6.27-1.78,13.89c-.5,5.08-1,10.39-1.35,15.92s-.74,10.81-1,15.84S27.79,145,27.63,149s-.32,7.09-.43,9.23a4.34,4.34,0,0,1-.07.52A93.09,93.09,0,0,0,139.45,176.4,33.68,33.68,0,0,1,123.25,164.6Z"/><path d="M9.24,100.91q1.37-7.2,3.48-15.07a138,138,0,0,1,5.16-15.5,54.64,54.64,0,0,1,7.29-13.13,24.26,24.26,0,0,1,9.91-7.88,14.73,14.73,0,0,1,3.45-1C60.43,20.84,99,13,128.07,31.43a64.17,64.17,0,0,1,16.54,15.11c3.62.81,14.94,3.12,18.7,16.66.22.8.52.5-.35.34a24.88,24.88,0,0,1-10.74-4.37,66.24,66.24,0,0,1,3.55,9.62l.13.1c2.55,1.71,11.22,6.93,11.94,18.81a30.13,30.13,0,0,1,0,4.24c0,.13,0,.15,0,.09-.6,8.51-3.89,20.41-6.13,26l-1.47-.57c2.37-5.87,5.71-18.33,6.07-26.44a23.92,23.92,0,0,1-8.07-8.42,71.2,71.2,0,0,1,.18,7.45c1.85,3.49,4.09,10.1-2.76,17.56a72.51,72.51,0,0,1-5.79,14.27l-1.39-.73a70.68,70.68,0,0,0,5.86-14.73C148.71,97,155,90.12,156.72,88a.13.13,0,0,0,0,0,67.51,67.51,0,0,0-8.2-32.3,22.48,22.48,0,0,1-3.25-5.31A62.18,62.18,0,0,0,131.73,36c3,3.73,5.72,9.36,4.78,17.49-.1.84.29.67-.45.19-11.56-7.56-11.32-18-11.06-22.18a62.61,62.61,0,0,0-17-6.75,21.61,21.61,0,0,1,12.2,14.34c.23.8.53.5-.35.36-14.18-2.26-17.79-12.38-19-15.95a64.85,64.85,0,0,0-15.69.1A21.33,21.33,0,0,1,101,32.2c.51.65.68.26-.2.46-14.19,3.16-21.21-4.72-23.68-7.56a69,69,0,0,0-16.87,6.76,21.93,21.93,0,0,1,18.27,1.5c.72.39.74,0,0,.49-12.19,8.5-21.8,4-25.15,2.44a70.47,70.47,0,0,0-8.95,7.78,22.74,22.74,0,0,1,16.23-3.35c.81.13.69-.28.13.46A26.73,26.73,0,0,1,49.5,50.26,16.82,16.82,0,0,1,55.66,57a57.09,57.09,0,0,1,5.25,13.89A137.2,137.2,0,0,1,64,88.55q1.11,9.57,1.61,18.71t.6,16.94q.07,7.8.25,12.37,1.35-3.56,3.13-9.74t4.07-13.72q2.28-7.55,5.08-15.59T85,82.11a101,101,0,0,1,7.29-13.3,32.22,32.22,0,0,1,8.3-9,14,14,0,0,1,9.4-2.62q5,.42,10.59,5.67,3.72,3.56,6.18,11.44A148.94,148.94,0,0,1,131,92.19q1.77,10,3.13,21t2.79,20.67q1.44,9.66,3.14,16.85t4.4,9.74a19.33,19.33,0,0,0,7.79,5.17c.75.22,1.47.41,2.17.58A93,93,0,1,0,5.71,122.08c.52-3.29,1-6.43,1.5-9.4S8.34,105.71,9.24,100.91ZM143,109.52a59.32,59.32,0,0,0,3.78-25.18c-7.37-11.88-2.31-21.79-1-24.75a2.11,2.11,0,0,0,.21-.71,2.32,2.32,0,0,0,.3.68c1.74,2.84,8.18,12.43,2.1,25.13a60.9,60.9,0,0,1-3.93,25.36Zm11.22-66.2c.36.74.6.39-.29.4-15.12.07-20.07-10.17-21.63-13a1.68,1.68,0,0,0-.44-.57c-.16-.07-.13-.12,0,0a2.38,2.38,0,0,0,.74.13C136,30.44,148,30.42,154.19,43.32ZM132.81,22.81c.62.53.72.12-.12.48-14.12,6.14-22.7-1.12-25.25-3.06a2.21,2.21,0,0,0-.63-.34c-.18,0-.17,0,0,0a2.18,2.18,0,0,0,.74-.17C110.79,18.5,122.07,13.63,132.81,22.81ZM81.52,19.54a2.52,2.52,0,0,0,.64-.43c2.64-2.33,11.6-11,25-6.51.77.26.72-.16,0,.48-11.19,10.85-21.9,7.37-25,6.54a1.77,1.77,0,0,0-.72-.08C81.35,19.61,81.34,19.56,81.52,19.54Zm-26.09,10a2.17,2.17,0,0,0,.44-.64c1.6-3.14,6.75-14.5,21-15.75.82-.07.62-.43.24.41-6.41,14.24-17.78,15.3-21,15.77a2.44,2.44,0,0,0-.71.21C55.3,29.68,55.28,29.64,55.43,29.55ZM37.26,44.77a2.42,2.42,0,0,0,.21-.74c.55-3.46,1.9-15.75,15.22-21.62.77-.34.46-.6.36.31C51.41,38.11,40.82,42.84,37.87,44.34a2.23,2.23,0,0,0-.61.43C37.17,44.93,37.14,44.91,37.26,44.77Z"/><path d="M131.83,30.15c-.13-.12-.16-.07,0,0Z"/><path d="M106.81,19.89c-.17,0-.18,0,0,0Z"/><path d="M81.52,19.54c-.18,0-.17.07,0,0Z"/><path d="M55.43,29.55c-.15.09-.13.13,0,0Z"/><path d="M37.26,44.77c-.12.14-.09.16,0,0Z"/></svg>