<svg id="OBJECT" xmlns="http://www.w3.org/2000/svg" viewBox="0 0 196.23 190.12"><path d="M82.8,2.21c20.84.52,37.78,7.86,52.65,20.3,12.39,10.36,21.3,23.14,25.92,38.76a4.46,4.46,0,0,0,1.72,2.18,82.72,82.72,0,0,1,22,21.41c12.1,17.56,13.21,36.12,4.38,55.26-2.42,5.26-5.89,10-9.09,14.92a3.78,3.78,0,0,0-.56,4c1.82,4.72,3.5,9.5,5.18,14.28,2,5.66-1.88,10.18-7.77,9.05-7.39-1.42-14.76-2.94-22.16-4.34a4.5,4.5,0,0,0-2.74.35c-39.69,21.51-82.51,1.59-99.57-32.64-1.54-3.08-6.26-5.3-9.63-4.5q-12.84,3-25.67,6.1c-2.69.64-5,.17-6.89-2a6.37,6.37,0,0,1-1-7.11c2.5-6,4.93-12,7.48-17.91a2.68,2.68,0,0,0-.31-3c-6.3-8.69-11.24-18-13.46-28.63C-.06,72.69,3.1,57.89,12,44.48,26.72,22.25,47.15,8.18,73.51,3.17A92.85,92.85,0,0,1,82.8,2.21ZM26.2,132c6-1.48,11.46-2.78,16.9-4.19a9.63,9.63,0,0,1,6.55.6c4.06,1.77,8.14,3.54,12.35,4.9,10.34,3.35,20.94,5.33,31.81,3.4,19.44-3.46,34.95-13.51,46.46-29.39C153,89.75,154,71.13,143.42,52.16c-8.27-14.76-20.54-25.26-36.06-31.87-10.78-4.59-22-6.48-33.64-4C53.14,20.81,36.78,31.91,24.51,48.9,16,60.67,12.71,73.71,16.44,88.08c2.35,9.1,7,17,12.79,24.31,2.41,3.06,3,6,1.24,9.54C28.92,125.06,27.72,128.35,26.2,132Zm142.88,35.69c-1.24-3.39-2.31-6.42-3.47-9.41a6.93,6.93,0,0,1,1.63-7.94A53.47,53.47,0,0,0,179,131.25c2.74-7.52,4.12-15.22,2.36-23.21-2.36-10.68-8.51-19-16.26-26.37-.43-.41-.93-.75-1.5-1.2-2.11,23.4-14.08,40.73-32.39,54s-38.62,19.08-61.58,14.29c.44.69.61,1,.82,1.27,17.83,23.17,49.38,32.55,77.43,15.79a8.92,8.92,0,0,1,7-1.13C159.52,165.77,164.14,166.65,169.08,167.68Z"/></svg>