<svg id="Graphic_Elements" data-name="Graphic Elements" xmlns="http://www.w3.org/2000/svg" viewBox="0 0 121.41 99.59"><defs><style>.cls-1{fill:#fff;}.cls-1,.cls-2{fill-rule:evenodd;}.cls-2{fill:#ee3d96;}</style></defs><path class="cls-1" d="M14.84,81.94c-1.39.91-1.3,2.23-1.1,3.86a12.3,12.3,0,0,0,2.13.24A1.13,1.13,0,0,0,17,84.49C16.7,83.31,16.29,82.17,14.84,81.94Z"/><path class="cls-2" d="M74.9,73.13c7.07,4.51,8.51,8.13,6.55,16.1a9.76,9.76,0,0,1-2.74,4.62c-4.57,4.69-10.26,5.22-16.11,4-4-.85-7.26-3.5-7.84-9a17,17,0,0,1,2.68-11.33,18.09,18.09,0,0,0,1-2.18C47.24,75.13,36.54,75,26,76.56a56.38,56.38,0,0,1,2.86,7.31c1.55,6.39-1,10.94-7.23,13.28-.43.16-.87.28-1.31.4-4.72,1.33-9,0-13.15-2.14a6.6,6.6,0,0,1-2.55-2.53,20.74,20.74,0,0,1-2.22-11c.13-3,1.59-5.06,3.42-7.22S8.71,70.1,8,67.08a54.48,54.48,0,0,1-1-7.23C6.11,52.59,4.85,45.39,3.53,38.2c-.63-3.44-1.3-6.87-1.74-10.34-.53-4.21.08-4.81,4.31-4.86,1.53,0,3.05.08,4.58.05,2.13,0,4.26-.13,6.38-.25,2.89-.17,5.77-.54,8.66-.56,9-.07,18,0,27,0a57.75,57.75,0,0,1,6.83.46A169.27,169.27,0,0,0,80,24.37c1,0,2.06-.15,3.13-.24.37-.86.71-1.54.95-2.25,1.81-5.17,3.59-10.35,5.38-15.53C91,2,91.85,1.21,96.41,1.36c7,.22,14,.7,21,1.11a2.17,2.17,0,0,1,2.36,2.26,23.37,23.37,0,0,1-1,9.47,3.22,3.22,0,0,1-2.93,2.5c-1.21.11-2.44.11-3.66.11-5.64,0-11.27-.09-16.91-.1-1.35,0-2.7.11-3.85.17-.37.47-.65.68-.72.95C85.89,36.24,80,54.32,74.18,72.3A4.4,4.4,0,0,0,74.9,73.13ZM33.69,39.71c3.4,1.37,7.07.58,10.63.81s7.17,1.21,10.71.58c1.08-3.17,2.48-12.2,2.33-14.79-3.38-.65-17.9-.76-23.67-.11ZM28.45,25.88c-5.56,1.16-11.21.69-16.82.86-1.5.05-3,.19-4.68.3-.61,4.85.74,9.17,1.77,13.88,3.56-.47,7-1.07,10.38-1.32s6.67-.11,9.89-.15a28,28,0,0,0,.68-13.29A3,3,0,0,0,28.45,25.88Zm2.71,30.41c4.06,1.68,12.59,2.15,21.72,1.24,1.45-1.73,1-4,1.39-6s.39-3.88.58-6.05a106,106,0,0,0-21.94-1.33C32.08,48.3,31,52.22,31.16,56.29ZM59.45,40.84c3.65.69,14.8.79,18.88.2A61,61,0,0,0,81.8,27.83c-3.51-.76-7-.12-10.4-.38s-6.62-.59-10.4-.94C60.45,31.61,60,36.23,59.45,40.84Zm-2,16.52c2.94.9,5.68.34,8.35.51l8.12.48c1.41-2.67,2.29-6.76,2.73-12.83-1.76-.93-3.74-.4-5.62-.48s-3.94,0-5.9,0-3.9,0-6.33.08C58.32,49.52,57.89,53.38,57.45,57.36ZM28.91,43.77c-3.76-1-7.38-.7-10.9-.36-2.78.26-5.8.33-8.23,2.79.54,3-.35,6.36,1.18,9.51,4.93.37,9.75.74,14.56,1.08A4.83,4.83,0,0,0,27,56.37C27.65,52,28.26,48,28.91,43.77ZM65.71,77a6,6,0,0,0-5.5,3.47,12.78,12.78,0,0,0-1.63,7c.24,3.48,2,5.91,5.32,6.53,4,.74,7.87.53,11.2-2.34A9.86,9.86,0,0,0,77,79.3,25.73,25.73,0,0,0,75.14,77C71.79,77,68.75,77,65.71,77ZM50.12,71.39A25.3,25.3,0,0,0,52.06,62c-3.53-.93-7-.33-10.42-.49S35,61.31,31.51,61.2c-.79,3.6-.4,7-.28,10.65ZM12.35,76.2a5.85,5.85,0,0,0-5.88,5.24,17.19,17.19,0,0,0,.37,7.18,6.43,6.43,0,0,0,5,4.7,31.33,31.33,0,0,0,5.88.75,6.77,6.77,0,0,0,2.56-.7,4.87,4.87,0,0,0,1.09-.82c1.69-1.27,3.64-2.36,3.75-4.85.12-2.64-.18-5.18-1.86-7.36-1-1.32-2.06-2.61-3.3-4.15C17.22,76.19,14.78,76.13,12.35,76.2Zm14.27-3.8c.93-3.87.52-7.47.42-11-3.37-1.19-11.32-1.84-15.59-1.25a48.08,48.08,0,0,0,1.83,11.39C17.78,72.83,22.15,72.31,26.62,72.4ZM115.55,5.74c-6.94-.34-13.8-1.71-21.09-.87a29,29,0,0,0-2,7.59c3.61.68,18.5.66,22.4,0C115.7,10.4,116.46,8.31,115.55,5.74ZM73.36,62.48A9.13,9.13,0,0,0,71,61.65c-4.69-.06-9.39,0-14,0A20.19,20.19,0,0,0,55.08,71c3,.75,8.94.89,15,.35C72.38,68.92,72.56,65.74,73.36,62.48Z"/><path class="cls-1" d="M69.38,82.13A3.46,3.46,0,0,1,72,85.84c-.09,1.87-.61,3.63-2.42,4.58-1.61.83-3.88.17-5.33-1.41C63,87.65,62.9,86.26,64,84.45c.62-1,1.44-1.9,2.25-3A24.69,24.69,0,0,1,69.38,82.13Z"/><path class="cls-2" d="M10.93,85.58a2.68,2.68,0,0,1-.56-2.92c.85-2.65,2-3.45,4.73-2.84a9.78,9.78,0,0,1,3.65,1.63A4.93,4.93,0,0,1,20.5,87.1a2.43,2.43,0,0,1-2.72,1.7C15.16,89,12.89,87.64,10.93,85.58Zm2.81.22a12.3,12.3,0,0,0,2.13.24A1.13,1.13,0,0,0,17,84.49c-.28-1.18-.69-2.32-2.14-2.55C13.45,82.85,13.54,84.17,13.74,85.8Z"/><path class="cls-2" d="M63.13,85.58a2.67,2.67,0,0,1-.57-2.92c.86-2.65,2-3.45,4.74-2.84A9.85,9.85,0,0,1,71,81.45,5,5,0,0,1,72.7,87.1,2.43,2.43,0,0,1,70,88.8C67.36,89,65.09,87.64,63.13,85.58Zm2.8.22a12.41,12.41,0,0,0,2.13.24,1.14,1.14,0,0,0,1.12-1.55c-.29-1.18-.7-2.32-2.14-2.55C65.65,82.85,65.74,84.17,65.93,85.8Z"/></svg>