<svg id="OBJECT" xmlns="http://www.w3.org/2000/svg" viewBox="0 0 273.88 227.1"><defs><style>.cls-1{fill:#fff;}</style></defs><path d="M271.76,76.44v6.32c-2.25,8.59-8.19,13.35-16.42,15.61a60,60,0,0,1-8.5,1.67c-5.45.68-5.46.59-6,6-.06.52-.08,1-.09,1.57-.2,10.35-.59,20.7-.56,31,0,23.52.36,47,.44,70.55a114.71,114.71,0,0,1-1,11.52c-.14,1.56-.93,2.19-2.62,2.07-3.06-.21-6.14-.23-9.21-.21q-98.05.45-196.1.93h-4.5c-.76-41.29.68-82.22.9-123.3A30.12,30.12,0,0,1,13.16,96c-5.93-3.5-9.33-8.79-11-15.34v-7.9c2-4.24,3.94-8.57,6.16-12.72,10-18.62,20-37.18,30-55.82a3.66,3.66,0,0,1,3.84-2.27c45.79.44,91.58.9,137.37,1.14,16.13.09,32.28-.12,48.4-.73,3.94-.15,6.31.77,8.12,4,.26.46.62.86.87,1.32,5.56,10,11.44,19.91,16.59,30.16C259.9,50.51,265.7,63.54,271.76,76.44ZM220,92.94c-.77,1.09-1.71,2.46-2.69,3.79-4.69,6.42-10.27,11.93-18.57,12.55a69.51,69.51,0,0,1-16.7-1.12,35.25,35.25,0,0,1-19.54-10.39,74.14,74.14,0,0,1-5.58,6.11c-7,6.19-15.44,8.06-24.51,7.23-10.27-1-20.08-3-25-13.77-15.2,18.12-45.2,18.49-56.65-4-3,1.93-6,4-9.22,5.75a3,3,0,0,0-2,3.15c.11,8.78.13,17.55.12,26.33q0,37-.15,74c0,3.12-.26,6.25-.42,9.79,26.34,2.17,52.38.17,78.74-.52V116.61h97.54c-1.45,32.06-2.88,63.48-4.32,95.25,4.14-.29,8.23-.69,12.33-.83,3-.11,4.2-1.6,4.11-4.45,0-.7.09-1.4.1-2.1.36-14.39.85-28.77,1-43.15.26-20.45.3-40.89.42-61.34,0-1.16.28-2.27-1.35-3C225.13,96,222.78,94.46,220,92.94Zm-91.69,34.73c-.54,28.24,1,56.13,1.31,84.2h72.13V127.2H164.45l2.75,6.68,18.85-4.67c2.61,11.17,5.23,22.37,7.87,33.69l-47.77,10.81c-2.88-11.21-5.77-22.48-8.72-34l17-3.42c-.22-3.13-.43-6-.62-8.61ZM117.41,13.42c-.43,7.48-.81,14.74-1.25,22-.92,15.13-2,30.26-2.75,45.4-.4,7.74,3.59,13.75,10.78,16.66,7.67,3.11,15.6,3.11,23.46.94a13.31,13.31,0,0,0,10.1-10.71,44.54,44.54,0,0,0,1-11.72c-1.11-15-2.54-30-3.94-45-.51-5.48-1.25-10.94-1.87-16.32l-34.65-1.3A6,6,0,0,0,117.41,13.42Zm42.69,1.41c.1,1.12.15,2,.26,2.82,1,7.56,2,15.12,2.95,22.68,1.58,12.34,2.93,24.71,4.77,37,2.18,14.53,10.27,21.67,24.68,22.42,12.29.64,19.65-7.83,17-19.51-2.13-9.2-4.11-18.45-6.44-27.61-3-11.7-6.27-23.32-9.35-35-.64-2.46-2-3.3-4.5-3.18-5.78.27-11.57.29-17.35.36C168.14,14.87,164.22,14.83,160.1,14.83ZM78.75,13.55c-.4,1.33-.86,2.74-1.25,4.16Q69.18,48.38,60.87,79.08c-2.15,7.92.86,15.31,7.71,18.44a24,24,0,0,0,17.19,1.3C94.62,96.18,98.7,89.38,100.62,81A317.46,317.46,0,0,0,108,21.82c.1-2.78,0-5.57,0-8.27Zm-8.62.31c-8.14,0-15.85.12-23.55-.06-3.22-.07-5,1.19-6.56,4q-13.59,25-27.51,49.92a15.57,15.57,0,0,0-1.83,9.81,12.54,12.54,0,0,0,9.79,11.36,56.77,56.77,0,0,0,8,1.48c4.7.51,9-.75,12.14-4.35a72.39,72.39,0,0,0,7.71-10.26C59.75,56.69,65,35.46,70.13,13.86Zm132.17.36c1.51,3.56,3.14,6.68,4.18,10,2.76,8.85,5.26,17.79,7.88,26.69,2.74,9.33,5.29,18.75,10.31,27.19,4.62,7.76,11.39,12.16,20.66,11.37,7.25-.63,13.47-3.41,16.5-10.7,1.23-3,1.71-6,0-9.1C252.14,52.78,242.37,36,233,18.92c-2.11-3.83-4.22-5.6-8.77-5.19-5.74.52-11.56.17-17.35.23C205.39,14,203.92,14.13,202.3,14.22ZM150.21,147.73c.88,3.85,1.76,7.4,2.49,11,.42,2.06,1.47,2.33,3.36,1.88,7.56-1.8,15.16-3.46,22.74-5.19.65-.14,1.28-.41,2.16-.69-1-4.28-1.94-8.4-2.9-12.59Z"/><path class="cls-1" d="M220,92.94c2.81,1.52,5.16,3,7.7,4.09,1.63.69,1.36,1.8,1.35,3-.12,20.45-.16,40.89-.42,61.34-.19,14.38-.68,28.76-1,43.15,0,.7-.12,1.4-.1,2.1.09,2.85-1.09,4.34-4.11,4.45-4.1.14-8.19.54-12.33.83,1.44-31.77,2.87-63.19,4.32-95.25H117.8v95.22c-26.36.69-52.4,2.69-78.74.52.16-3.54.41-6.67.42-9.79q.12-37,.15-74c0-8.78,0-17.55-.12-26.33a3,3,0,0,1,2-3.15c3.2-1.72,6.18-3.82,9.22-5.75,11.45,22.47,41.45,22.1,56.65,4,5,10.77,14.78,12.82,25,13.77,9.07.83,17.5-1,24.51-7.23a74.14,74.14,0,0,0,5.58-6.11A35.25,35.25,0,0,0,182,108.16a69.51,69.51,0,0,0,16.7,1.12c8.3-.62,13.88-6.13,18.57-12.55C218.26,95.4,219.2,94,220,92.94Z"/><path class="cls-1" d="M128.28,127.67h25.49c.19,2.64.4,5.48.62,8.61l-17,3.42c2.95,11.53,5.84,22.8,8.72,34l47.77-10.81c-2.64-11.32-5.26-22.52-7.87-33.69l-18.85,4.67-2.75-6.68h37.27v84.67H129.59C129.32,183.8,127.74,155.91,128.28,127.67Z"/><path class="cls-1" d="M117.41,13.42a6,6,0,0,1,.86-.09l34.65,1.3c.62,5.38,1.36,10.84,1.87,16.32,1.4,15,2.83,30,3.94,45a44.54,44.54,0,0,1-1,11.72,13.31,13.31,0,0,1-10.1,10.71c-7.86,2.17-15.79,2.17-23.46-.94C117,94.57,113,88.56,113.41,80.82c.77-15.14,1.83-30.27,2.75-45.4C116.6,28.16,117,20.9,117.41,13.42Z"/><path class="cls-1" d="M160.1,14.83c4.12,0,8,0,12,0,5.78-.07,11.57-.09,17.35-.36,2.54-.12,3.86.72,4.5,3.18,3.08,11.68,6.38,23.3,9.35,35,2.33,9.16,4.31,18.41,6.44,27.61,2.7,11.68-4.66,20.15-17,19.51-14.41-.75-22.5-7.89-24.68-22.42-1.84-12.3-3.19-24.67-4.77-37-1-7.56-2-15.12-2.95-22.68C160.25,16.8,160.2,16,160.1,14.83Z"/><path class="cls-1" d="M78.75,13.55H108c0,2.7.09,5.49,0,8.27A317.46,317.46,0,0,1,100.62,81c-1.92,8.4-6,15.2-14.85,17.84a24,24,0,0,1-17.19-1.3C61.73,94.39,58.72,87,60.87,79.08Q69.21,48.41,77.5,17.71C77.89,16.29,78.35,14.88,78.75,13.55Z"/><path class="cls-1" d="M70.13,13.86C65,35.46,59.75,56.69,48.31,75.73A72.39,72.39,0,0,1,40.6,86c-3.15,3.6-7.44,4.86-12.14,4.35a56.77,56.77,0,0,1-8-1.48A12.54,12.54,0,0,1,10.68,77.5a15.57,15.57,0,0,1,1.83-9.81Q26.49,42.87,40,17.77c1.51-2.78,3.34-4,6.56-4C54.28,14,62,13.86,70.13,13.86Z"/><path class="cls-1" d="M202.3,14.22c1.62-.09,3.09-.24,4.57-.26,5.79-.06,11.61.29,17.35-.23,4.55-.41,6.66,1.36,8.77,5.19,9.38,17,19.15,33.86,28.8,50.74,1.75,3.06,1.27,6.14,0,9.1-3,7.29-9.25,10.07-16.5,10.7-9.27.79-16-3.61-20.66-11.37-5-8.44-7.57-17.86-10.31-27.19-2.62-8.9-5.12-17.84-7.88-26.69C205.44,20.9,203.81,17.78,202.3,14.22Z"/><path class="cls-1" d="M150.21,147.73l27.85-5.61c1,4.19,1.91,8.31,2.9,12.59-.88.28-1.51.55-2.16.69-7.58,1.73-15.18,3.39-22.74,5.19-1.89.45-2.94.18-3.36-1.88C152,155.13,151.09,151.58,150.21,147.73Z"/></svg>