<?xml version="1.0" encoding="utf-8"?>
<!-- Generator: Adobe Illustrator 25.4.1, SVG Export Plug-In . SVG Version: 6.00 Build 0)  -->
<svg version="1.1" id="Graphic_Elements" xmlns="http://www.w3.org/2000/svg" xmlns:xlink="http://www.w3.org/1999/xlink" x="0px"
	 y="0px" viewBox="0 0 105 99.6" style="enable-background:new 0 0 105 99.6;" xml:space="preserve">
<style type="text/css">
	.st0{fill:#EE3D96;}
	.st1{fill:#FFFFFF;}
</style>
<path class="st0" d="M30.7,46.7h-0.2C30.2,46.7,30.7,46.7,30.7,46.7c0,0-0.2,0-0.4-0.1l-0.4-0.1c-0.1,0-0.5-0.2-0.2-0.1
	s-0.1,0-0.2-0.1l-0.4-0.2c-0.3-0.1-0.5-0.3-0.8-0.4c-0.5-0.3-1-0.6-1.5-1l-0.6-0.5c-0.3-0.2,0.3,0.2,0,0L25.9,44
	c-0.2-0.2-0.5-0.4-0.7-0.6l-0.3-0.3c-0.1-0.1-0.2-0.3-0.3-0.4c0.1,0,0.4,0.5,0,0c-0.1-0.1-0.2-0.2-0.3-0.3L24,42.2l-0.6-0.7
	l-0.6-0.7c-0.2-0.2,0.1,0.1,0.1,0.1c0-0.1-0.1-0.1-0.1-0.2l-0.3-0.4c-0.4-0.5-0.7-1-1-1.6c0-0.1-0.1-0.1-0.1-0.2
	c-0.1-0.2,0.1,0.2,0.1,0.2s-0.1-0.3-0.2-0.4c-0.1-0.3-0.2-0.6-0.4-0.9c-0.2-0.6-0.4-1.1-0.5-1.7c0-0.1,0-0.1,0-0.2
	c0-0.2,0,0.2,0,0.2c0-0.1,0-0.3-0.1-0.4c0-0.3-0.1-0.7-0.1-1c0-0.7-0.1-1.3-0.1-2c0-0.7,0-1.2,0-1.8c0-0.3,0-0.6,0-0.9
	c0-0.1,0-0.3,0-0.4c0,0,0,0.4,0,0.2c0-0.1,0-0.2,0-0.3c0.1-1.2,0.4-2.4,0.7-3.6c0.1-0.6,0.3-1.2,0.5-1.8c0.1-0.3,0.2-0.6,0.3-0.8
	c0-0.1,0.1-0.1,0.1-0.2l-0.1,0.2c0.1-0.2,0.1-0.3,0.2-0.5c0.5-1.2,1-2.5,1.4-3.8c0.1-0.3,0.2-0.5,0.3-0.8c0-0.1,0-0.1,0.1-0.2
	c0.1-0.2-0.1,0.1-0.1,0.1c0.1-0.1,0.1-0.3,0.2-0.5c0.3-0.6,0.5-1.2,0.9-1.7c0.1-0.3,0.3-0.5,0.4-0.8l0.2-0.4
	c0.1-0.1,0.3-0.3,0.3-0.4s-0.2,0.3-0.1,0.1l0.1-0.2c0.1-0.1,0.2-0.2,0.3-0.3s0.4-0.4,0.6-0.6c0.1-0.1,0.2-0.2,0.3-0.3
	c0-0.1,0.4-0.3,0.1-0.1l0.2-0.1l0.4-0.3c0.5-0.4,1-0.7,1.5-1s1.1-0.6,1.7-0.9l0.4-0.2l0.2-0.1c-0.2,0.1,0.2-0.1,0.2-0.1l0.5-0.2
	c1.2-0.5,2.4-0.8,3.6-1.3c1.1-0.5,2.3-0.9,3.5-1.2l0.5,0c0.2,0-0.2,0-0.2,0h0.2c0.3,0,0.6-0.1,0.9-0.1c0.6-0.1,1.2-0.1,1.8-0.1
	s1.3,0,1.9,0c0.3,0,0.7,0,1,0.1h-0.2c0.1,0,0.2,0,0.2,0l0.5,0.1c1.2,0.2,2.5,0.4,3.7,0.8l0.9,0.2L51,8c0,0,0.3,0.1,0,0s0,0,0.1,0
	c0.5,0.2,1,0.5,1.5,0.8c0.2,0.1,0.4,0.3,0.7,0.4s-0.2-0.1-0.2-0.1l0.2,0.1l0.4,0.3l1.3,1c0.3,0.2,0.7,0.5,1,0.7l0.2,0.1
	c0,0-0.3-0.2-0.2-0.1l0.4,0.3c0.4,0.4,0.8,0.8,1.1,1.2s0.9,0.8,1.3,1.2c0.2,0.2,0.4,0.4,0.6,0.6c0,0,0.1,0.2,0.2,0.2
	s-0.2-0.3-0.1-0.1s0.2,0.3,0.3,0.4c0.7,1,1.2,2.1,1.8,3.2c0.1,0.3,0.3,0.5,0.5,0.8s0.2,0.2,0.2,0.4s0.1,0.3,0,0s0,0,0,0.1
	c0.3,0.6,0.4,1.2,0.7,1.8c0.5,1.2,1,2.4,1.3,3.7c0.1,0.3,0.1,0.6,0.2,0.9c0,0.1,0,0.1,0,0.2c0,0-0.1-0.4,0-0.2s0,0.4,0.1,0.5
	c0.1,0.6,0.2,1.3,0.2,1.9c0,0.3,0,0.6,0,0.9c0,0.1,0,0.1,0,0.2c0,0.2,0-0.2,0-0.2c0,0.2-0.1,0.3-0.1,0.5c-0.1,0.6-0.3,1.2-0.5,1.8
	c-0.2,0.6-0.4,1.2-0.6,1.8c-0.1,0.3-0.2,0.6-0.3,0.9s0-0.1,0.1-0.2c0,0.1-0.1,0.1-0.1,0.2l-0.2,0.5c-0.2,0.4-0.3,0.8-0.4,1.2
	l-0.2,0.5c0,0.1,0,0.1-0.1,0.2c-0.1,0.2,0,0,0-0.1c-0.1,0.3-0.2,0.5-0.3,0.8c-0.1,0.3-0.3,0.6-0.4,0.8c-0.3,0.5-0.6,1-0.9,1.6
	c-0.2,0.2-0.3,0.5-0.5,0.8l-0.2,0.4L59.7,41c-0.2,0.2,0.2-0.3,0.1-0.1c-0.7,1-1.5,2-2.3,2.9l-0.6,0.6c-0.3,0.3,0.3-0.2,0,0l-0.4,0.2
	c-0.6,0.4-1.2,0.8-1.8,1.2L54,46.5c-0.3,0.3,0.3-0.2,0,0l-0.4,0.3c-0.5,0.4-1,0.7-1.5,1L51.7,48l-0.2,0.1l0.2-0.1l-0.8,0.3
	c-0.5,0.2-1.1,0.4-1.6,0.6c-1.2,0.4-2.3,0.7-3.5,1l-0.9,0.2c-0.3,0.1,0.4-0.1,0.1,0h-0.2L44,50.2c-0.6,0.1-1.3,0.2-1.9,0.2
	c-1.3,0.1-2.6,0.1-3.9,0.1h-0.5c-0.4,0,0.4,0,0,0l-1-0.1c-0.6-0.1-1.3-0.1-1.9-0.3c-0.6-0.1-1.1-0.3-1.7-0.5c0,0,0.4,0.2,0.2,0.1
	l-0.2-0.1l-0.4-0.2C32.4,49.2,32,49,31.5,49c-0.3-0.1-0.6-0.1-0.8-0.2s0.1,0,0.2,0.1c-0.1,0-0.1-0.1-0.2-0.1l-0.5-0.2
	c-0.3-0.1-0.5-0.3-0.8-0.4c-0.3-0.1-0.6-0.3-0.9-0.5c0,0,0.3,0.2,0.1,0.1l-0.2-0.1l-0.3-0.3c-0.2-0.2-0.5-0.4-0.7-0.6
	c-0.4-0.4-0.8-0.8-1.2-1.3c-0.8-0.9-1.6-1.8-2.5-2.6c-0.5-0.5-0.9-1-1.3-1.5l-0.6-0.7c0,0-0.1-0.1-0.1-0.2l0.1,0.1
	c-0.1-0.1-0.2-0.3-0.3-0.4c-0.1-0.1-0.1-0.2-0.2-0.3c0-0.1-0.1-0.1-0.1-0.2c0,0,0.2,0.4,0.1,0.2s-0.2-0.5-0.3-0.8
	c-0.2-0.5-0.3-1-0.5-1.5c-0.4-1.2-1-2.3-1.7-3.4c-0.3-0.5-0.6-1-0.9-1.5l-0.2-0.4l-0.1-0.2l0.1,0.2c-0.1-0.3-0.2-0.5-0.3-0.8
	s-0.2-0.5-0.2-0.8c0-0.1,0-0.1,0-0.2c0-0.2,0,0.2,0,0.2c0-0.2,0-0.3-0.1-0.5c-0.1-0.7-0.1-1.4-0.2-2.1S17,26.9,17,26.3
	c0-0.1,0-0.3,0-0.4s0-0.1,0-0.2c0-0.2,0,0.2,0,0.2c0.1-0.3,0.1-0.6,0.2-0.9c0.1-0.3,0.1-0.5,0.2-0.8s0.1-0.3,0.1-0.4
	s0.1-0.1,0.1-0.2c0,0.1-0.1,0.4,0,0.1c0.2-0.5,0.5-1.1,0.8-1.6c0.6-1.1,1.4-2.1,2.1-3.1l0.2-0.3l0.1-0.2l-0.1,0.1
	c0.2-0.2,0.4-0.5,0.5-0.7c0.4-0.5,0.8-0.9,1.2-1.3c0.5-0.4,0.9-0.8,1.3-1.2c0.2-0.2,0.4-0.4,0.7-0.7c0.1-0.1,0.3-0.2,0.3-0.3
	l-0.1,0.1l0.2-0.2c1-0.8,1.9-1.8,2.9-2.7l0.3-0.3c0.2-0.1-0.1,0.1-0.1,0.1c0.1,0,0.1-0.1,0.2-0.1c0.3-0.2,0.5-0.4,0.8-0.5l1.7-1
	c1.1-0.7,2.2-1.3,3.4-1.9l0.8-0.4L35,7.1L35.2,7c0.3-0.1-0.3,0.2-0.1,0c0.6-0.2,1.2-0.5,1.8-0.7s1.2-0.4,1.9-0.5l0.9-0.2l0.4-0.1
	h0.2c0.3-0.1-0.4,0.1-0.1,0c1.2-0.2,2.5-0.3,3.8-0.4C44.5,5,45.1,5,45.7,5h0.9h0.2h-0.2l0.5,0.1c0.6,0.1,1.1,0.2,1.7,0.3l0.8,0.2
	L50,5.8c0.2,0.1-0.2-0.1-0.2-0.1l0.3,0.1c0.5,0.2,1,0.5,1.5,0.7L52.3,7l0.3,0.2l0.2,0.1c-0.1-0.1-0.3-0.2-0.1-0.1
	c1,0.7,1.9,1.5,2.7,2.3c0.4,0.4,0.8,0.8,1.2,1.3c0,0.1,0.1,0.1,0.1,0.2l-0.1,0c0.1,0.1,0.2,0.2,0.3,0.3c0.2,0.2,0.4,0.5,0.5,0.7
	c0.7,1,1.4,2,2,3c0.1,0.1,0.1,0.3,0.2,0.4c0,0-0.2-0.4-0.1-0.1c0,0.1,0.1,0.1,0.1,0.2c0.1,0.3,0.3,0.6,0.4,1l0.5,1l0.2,0.4
	c0,0-0.2-0.3-0.1-0.1s0.2,0.3,0.2,0.5c0.5,1.2,1.1,2.5,1.6,3.7c0.4,1.2,0.7,2.4,0.9,3.6l0.1,0.5c0,0.2,0-0.2,0-0.2
	c0,0.1,0,0.2,0,0.2c0,0.3,0.1,0.7,0.1,1s0,0.6,0,0.9s0.1-0.3,0,0.1c0,0.2,0,0.3-0.1,0.5c-0.2,1.2-0.5,2.3-0.9,3.5
	c-0.1,0.3-0.2,0.5-0.3,0.8s0.1-0.3,0,0c-0.1,0.2-0.1,0.3-0.2,0.5c-0.2,0.5-0.5,1.1-0.7,1.6C61,36,60.5,37,59.9,38
	c-1.2,2-2.6,4-3.9,5.9c-0.2,0.3,0.2-0.3,0,0l-0.2,0.3c-0.2,0.2-0.4,0.4-0.6,0.7l-0.3,0.3c0,0-0.4,0.3-0.2,0.2s-0.1,0.1-0.2,0.2
	l-0.4,0.3c-0.9,0.8-2,1.5-3.1,2.1c-0.1,0.1-0.3,0,0.1,0l-0.2,0.1c-0.1,0.1-0.3,0.1-0.4,0.2c-0.3,0.1-0.6,0.2-0.9,0.3
	c-0.6,0.2-1.2,0.3-1.9,0.4c-1.3,0.3-2.6,0.6-3.9,0.9c-0.7,0.2-1.3,0.3-2,0.5h-0.2c0,0,0.4-0.1,0.2,0l-0.4,0.1l-1,0.1
	c-0.6,0-1.2,0-1.8,0c-0.2,0,0.2,0,0.2,0c-0.1,0-0.1,0-0.2,0l-0.4-0.1c-0.3-0.1-0.6-0.1-1-0.2c-0.5-0.1-1.1-0.3-1.6-0.5l-0.7-0.2
	l-0.2-0.1c0.3,0.1,0,0-0.1-0.1s0.2,0.1,0.2,0.1s-0.2-0.2,0,0s0-0.1-0.1-0.2c-0.1-0.3-0.3-0.5-0.5-0.8c-0.2-0.2-0.4-0.4-0.6-0.6
	c-0.1-0.1-0.2-0.2-0.3-0.2s0.2,0.2,0.2,0.2c0-0.1-0.1-0.1-0.1-0.2c-0.9,1-1.8,1.9-2.7,2.9l0.2,0.1c-0.2-0.2-0.3-0.2-0.1-0.1
	c0.1,0.1,0.2,0.2,0.3,0.2l0.8,0.6c0.6,0.5,1.3,1,2,1.4c1,0.5,2.2,0.2,2.8-0.8c0.5-1,0.2-2.2-0.8-2.8l0,0L35.1,49
	c-0.1-0.1-0.2-0.2-0.4-0.3c0.2,0.2,0.2,0.2,0.1,0l-0.2-0.1l-0.4-0.3c-0.5-0.5-1.1-0.9-1.8-1.3c-1-0.5-2.3-0.2-2.8,0.8
	c-0.4,0.7-0.3,1.4,0.1,2.1c0.2,0.3,0.4,0.6,0.7,0.8l0.3,0.2c0.1,0.1,0.4,0.4,0.2,0.2s0,0,0.1,0.1l0.2,0.3c0.3,0.4,0.6,0.8,1,1.1
	c0.6,0.4,1.3,0.7,2.1,0.9c0.6,0.2,1.1,0.3,1.7,0.5c2.8,0.7,5.8,0.6,8.6-0.2c1.4-0.3,2.8-0.7,4.1-1c1.3-0.2,2.5-0.5,3.8-1
	c1.3-0.6,2.5-1.4,3.6-2.3c1.1-0.8,2.1-1.8,3-2.9c3.1-4.2,6-8.7,7.7-13.6c0.4-1.2,0.7-2.4,0.9-3.6c0.2-0.8,0.2-1.6,0.2-2.4
	c0-0.8-0.2-1.6-0.3-2.4c-0.2-1.3-0.5-2.6-0.9-3.8c-0.2-0.6-0.5-1.2-0.8-1.9s-0.5-1.3-0.8-2c-0.2-0.4-0.4-0.8-0.6-1.2
	c0,0-0.2-0.3,0-0.1s0-0.1,0-0.1L64.1,15c-0.3-0.7-0.6-1.5-1-2.2c-0.6-1.1-1.3-2.1-2.1-3c-1.5-2.1-3.4-4-5.5-5.5
	c-1.1-0.8-2.2-1.5-3.5-2c-1.3-0.5-2.6-0.9-3.9-1.1c-2.7-0.3-5.4-0.2-8.1,0.3c-1.4,0.2-2.9,0.6-4.2,1c-1.4,0.5-2.8,1.1-4.1,1.8
	c-1.2,0.6-2.4,1.3-3.6,2c-1.3,0.7-2.4,1.5-3.5,2.4c-0.5,0.4-0.9,0.9-1.3,1.3c-0.2,0.2-0.4,0.4-0.6,0.6c0,0-0.2,0.2,0,0s0,0-0.1,0.1
	L22.2,11c-0.6,0.5-1.2,1-1.7,1.6c-0.4,0.4-0.9,0.9-1.4,1.3c-1,1-1.8,2.1-2.5,3.2c-0.8,1-1.5,2.1-2.1,3.2c-0.7,1.2-1.2,2.5-1.5,3.9
	c-0.2,1.4-0.2,2.9,0,4.3c0.1,1.4,0.3,2.9,0.7,4.3c0.5,1.2,1.1,2.4,1.8,3.6c0.3,0.5,0.6,1,0.9,1.5c0,0.1,0.1,0.4,0.2,0.4
	s-0.2-0.4-0.1-0.2c0,0.1,0,0.1,0.1,0.2c0.1,0.3,0.2,0.6,0.3,0.9c0.3,1.2,0.8,2.4,1.5,3.5c0.4,0.6,1,1.2,1.5,1.8s0.9,1,1.4,1.5
	c0.9,0.9,1.7,1.8,2.6,2.8c0.9,1,2,2,3.1,2.7c0.5,0.3,1.1,0.6,1.7,0.9c0.4,0.2,0.8,0.4,1.2,0.5c0.3,0.1,0.6,0.1,1,0.2
	c0,0,0.2,0.1,0.2,0s-0.4-0.2-0.2,0s0.2,0.1,0.4,0.2c0.4,0.2,0.8,0.4,1.2,0.5c0.6,0.2,1.2,0.4,1.8,0.5c1.4,0.3,2.9,0.4,4.4,0.5
	c2.9,0.1,5.7-0.2,8.5-0.8c2.6-0.5,5.1-1.4,7.4-2.6c0.6-0.3,1.1-0.6,1.6-1c0.3-0.3,0.7-0.5,1-0.8l0.3-0.3l0.2-0.1
	c0,0,0.3-0.3,0.1-0.1s0,0,0.1,0l0.2-0.1l0.4-0.2c0.3-0.1,0.6-0.3,0.8-0.5c0.6-0.5,1.2-1,1.7-1.5c1.8-2,3.3-4.2,4.6-6.6
	c0.3-0.7,0.6-1.4,0.9-2.2c0.1-0.3,0.2-0.5,0.3-0.8s-0.2,0.3,0,0.1c0-0.1,0.1-0.1,0.1-0.2c0.1-0.2,0.1-0.3,0.2-0.5
	c0.5-1.4,0.9-2.8,1.4-4.2c0.5-1.3,0.6-2.8,0.5-4.2c-0.2-1.5-0.5-3-0.8-4.4c-0.4-1.3-0.8-2.5-1.3-3.8c-0.3-0.8-0.6-1.5-0.9-2.2
	c-0.3-0.6-0.7-1.1-0.9-1.7c-0.5-1.2-1.2-2.3-2-3.4c-0.5-0.6-1-1.2-1.7-1.7c-0.4-0.4-0.8-0.8-1.2-1.2c-0.4-0.4-0.8-0.8-1.2-1.2
	L58,7.7c-0.1,0-0.1-0.1-0.2-0.1c0,0,0.3,0.2,0.2,0.1s-0.5-0.4-0.8-0.6c-1-0.8-2-1.5-3.1-2.2c-1.2-0.6-2.6-1.1-3.9-1.4
	c-1.3-0.3-2.6-0.6-3.9-0.7c-2.9-0.3-5.8-0.2-8.6,0.5c-1.3,0.4-2.5,0.9-3.7,1.4c-1.3,0.5-2.6,0.8-3.8,1.4c-2.6,1-5,2.6-7,4.6
	c-1.8,2.2-3.2,4.7-4,7.5c-0.1,0.3-0.2,0.6-0.3,0.8s-0.1,0.3-0.2,0.5s0.1-0.1,0.1-0.2c0,0.1-0.1,0.2-0.1,0.3
	c-0.3,0.7-0.6,1.4-0.9,2.2c-0.5,1.2-0.8,2.4-1.1,3.7c-0.6,2.6-0.8,5.3-0.7,8c0,1.5,0.2,2.9,0.6,4.3c0.4,1.3,1,2.6,1.6,3.8
	c0.7,1.2,1.6,2.3,2.6,3.3c0.1,0.1,0.2,0.2,0.4,0.4l0.2,0.2c-0.2-0.3,0.3,0.3,0.3,0.3l0.1,0.2c0.1,0.1,0.2,0.3,0.4,0.4
	c0.5,0.4,0.9,0.8,1.5,1.2c2.2,1.6,4.4,3.2,7.2,3.2c1.1,0,2-1,2-2.1C32.7,47.5,31.8,46.7,30.7,46.7L30.7,46.7z"/>
<path class="st0" d="M20.9,44.5l0.2-0.2c0.8-0.2,1-0.2,0.6-0.2h-0.2c-0.3,0-0.7,0-1,0.1c-0.5,0.1-0.9,0.2-1.4,0.4
	c-1,0.4-1.9,1-2.8,1.6c-1.6,1.2-3.1,2.5-4.4,4c-0.6,0.7-1.2,1.5-1.8,2.2c-0.7,0.8-1.4,1.6-1.9,2.6c-0.2,0.4-0.4,0.7-0.6,1.1
	c0,0-0.3,0.4-0.1,0.1s-0.1,0.1-0.1,0.1L7,56.9c-0.6,0.9-1.2,1.8-1.7,2.7c-0.6,1-1.1,2-1.4,3c-0.3,0.9-0.5,1.8-0.7,2.8
	c-0.6,2-1.2,4-1.7,6c-0.4,2.2-0.5,4.4-0.4,6.6c0,1,0,2,0.1,3s0.3,2.1,0.3,3.2c0,2.4,0.3,4.9,0.8,7.3c0.2,1,0.6,2,0.8,3.1
	c0.1,1.3,1.1,2.3,2.3,2.7c1.1,0.2,2.2-0.4,2.5-1.5c0.2-1.1-0.4-2.2-1.5-2.5c-0.3-0.1,0.3,0.1,0.4,0.2s0.5,0.6,0.3,0.3
	c0,0,0.2,0.5,0.1,0.2c0-0.1,0-0.1-0.1-0.2C7.1,93.5,7,93.2,7,92.9c-0.2-0.9-0.5-1.9-0.7-2.8c0-0.1,0-0.2-0.1-0.4
	c-0.1-0.3,0.1,0.5,0,0l-0.1-0.6c-0.1-0.5-0.1-1-0.2-1.6c-0.1-1-0.2-2-0.2-3c0-1-0.1-2-0.2-3c-0.1-1-0.2-2-0.2-3c0-1-0.1-2-0.1-3
	c0-0.5,0-1,0-1.4c0-0.1,0-0.2,0-0.3c-0.1,0.5,0,0.1,0,0c0-0.3,0.1-0.6,0.1-0.8c0.4-2,0.9-3.9,1.6-5.8c0.3-0.9,0.5-1.8,0.7-2.7
	c0-0.2,0.1-0.4,0.2-0.5c0-0.1,0.1-0.2,0.1-0.3c0.1-0.3-0.2,0.5,0,0s0.4-0.9,0.7-1.3c0.5-0.8,0.9-1.7,1.4-2.4l0.2-0.2
	c0.2-0.3,0,0-0.1,0.1c0.1-0.2,0.3-0.4,0.4-0.6c0.4-0.5,0.7-1,1-1.5s0.4-0.7,0.6-1.1c0-0.1,0.1-0.2,0.1-0.2c-0.1,0.3-0.2,0.2-0.1,0.1
	l0.5-0.6c0.6-0.7,1.1-1.4,1.7-2.1c0.7-0.8,1.4-1.5,2.1-2.3c0.4-0.3,0.7-0.7,1.1-1c0.1-0.1,0.2-0.2,0.3-0.2l-0.2,0.2l0.2-0.2l0.6-0.4
	c0.4-0.3,0.8-0.6,1.3-0.9c0.2-0.1,0.4-0.2,0.6-0.3s-0.1,0-0.1,0c0.1-0.1,0.3-0.1,0.4-0.2c0.2-0.1,0.5-0.2,0.8-0.2h0.1
	c0.2,0,0.2,0-0.1,0c0,0,0.3,0,0.3,0c0.8,0,1.6-0.3,2.2-0.9c0.8-0.8,0.7-2.1-0.1-2.9C22.9,43.6,21.6,43.6,20.9,44.5L20.9,44.5z"/>
<path class="st0" d="M5.9,93.1c-0.4,0.1-0.8,0.4-1.2,0.7c-0.7,0.7-0.7,1.9-0.1,2.7c0.7,0.8,1.8,1,2.7,0.4c0.4-0.3-1,0.1-0.5,0.2h0.3
	L8,97h1.8c1.2,0,2.4-0.1,3.6-0.2c2.3-0.2,4.6-0.4,7-0.4c1.1,0,2.3,0,3.4-0.1s2.3-0.2,3.5-0.1h0.5c0.1,0,0.4,0-0.1,0
	c0.3,0,0.6,0.1,0.9,0.1l1.8,0.3c1.2,0.2,2.3,0.3,3.5,0.5c2.4,0.4,4.8,0.4,7.2,0.3c1.2-0.1,2.3-0.3,3.5-0.3c0.6,0,1.1,0,1.7,0h0.4
	c0.5,0-0.5-0.1,0.1,0c0.3,0.1,0.6,0.1,0.9,0.1c2.4,0.2,4.7,0.3,7.1,0.2c1.3,0,2.6-0.2,3.8-0.5l0.8-0.2c0.3-0.1,0.6-0.2,0.9-0.2
	c0,0-0.5,0.1-0.1,0h0.5l0.9-0.1c1.4-0.2,2.7-0.3,4.1-0.5c0.3-0.1,0.6-0.1,0.9-0.2c0.5-0.1-0.4,0,0,0c0.2,0,0.3,0,0.5,0
	c0.6,0,1.2,0,1.8,0c0.2,0,0.5-0.1,0.7-0.1l0.3-0.1c-0.3,0-0.3,0.1-0.1,0l0.9-0.1c0.6,0,1.2,0,1.8-0.2c0.3,0,0.6-0.1,0.8-0.2h0.2
	c0.2,0,0.1,0-0.2,0c0.3-0.1,0.6-0.1,0.9-0.1c0.4,0,0.8,0,1.2-0.1l0.3-0.1c0.2-0.1,0.6-0.1,0-0.1c1.1,0,2-1,2-2.1s-1-2-2.1-2
	c-0.4,0-0.8,0.1-1.1,0.2c-0.1,0-0.1,0-0.2,0.1h0.3h-0.2c-0.7,0-1.3,0.1-2,0.2C72,91,71.8,91,71.7,91h0.3h-0.3l-0.8,0.1
	c-0.6,0-1.1,0-1.7,0.1c-0.3,0-0.6,0.1-0.8,0.2h-0.2c-0.2,0.1-0.2,0,0.1,0c0,0.1-0.6,0-0.7,0c-0.5,0-1,0-1.5,0
	c-0.4,0.1-0.9,0.2-1.3,0.2c-0.1,0-0.2,0-0.3,0.1c-0.5,0.1,0.5-0.1-0.1,0s-1.1,0.2-1.7,0.2c-1.2,0.1-2.5,0.2-3.7,0.4
	c-0.6,0.1-1.1,0.3-1.7,0.4l-0.8,0.2c-0.5,0.1,0.5-0.1-0.1,0h-0.5C54.9,93,53.8,93,52.6,93s-2.3,0.1-3.4,0h-0.5c-0.5,0,0.3,0,0,0
	l-0.9-0.1c-0.7-0.1-1.4-0.2-2.2-0.2c-1.2,0-2.3,0.1-3.5,0.2c-1.2,0.1-2.3,0.3-3.5,0.3c-0.6,0-1.1,0-1.7-0.1h-0.3c-0.1,0-0.6,0-0.1,0
	c-0.3,0-0.6-0.1-0.9-0.1c-2.3-0.3-4.7-0.7-7-0.9c-2.4-0.1-4.9-0.1-7.3,0.1c-1.3,0-2.7,0-4,0.1s-2.6,0.2-3.9,0.3s-2.7,0.2-4.1,0.2
	L7.5,93c-0.8-0.1-1.6,0.1-2.3,0.5l2.6,3.1L7.2,97c1.1-0.3,1.7-1.5,1.3-2.6C8.1,93.4,7,92.8,5.9,93.1L5.9,93.1z"/>
<path class="st0" d="M61.2,47c0-0.1,0-0.1,0-0.2l-1.4,1.5c0.3-0.1-0.1,0-0.2,0c0.3,0-0.2,0-0.2,0c0.3,0-0.2,0-0.2-0.1
	c0.1,0,0.1,0.1,0.2,0.1c0.3,0.2,0.5,0.4,0.8,0.5s0.6,0.3,0.9,0.5l0.4,0.3l0.2,0.1c0.2,0.2-0.4-0.3-0.1,0c0.6,0.5,1.1,0.9,1.7,1.5
	c0.6,0.5,1.2,1.1,1.7,1.6c0.1,0.1,0.3,0.3,0.4,0.4c0,0-0.3-0.4-0.1-0.1l0.2,0.2c0.3,0.3,0.5,0.7,0.8,1c0.5,0.7,1,1.4,1.4,2
	s0.9,1.3,1.2,2c0.2,0.3,0.4,0.7,0.5,1s-0.2-0.4,0-0.1l0.1,0.2c0.1,0.2,0.2,0.4,0.3,0.7c0.6,1.6,1.1,3.1,1.6,4.7
	c0.5,1.7,0.8,3.4,1.2,5.1c0.2,0.8,0.4,1.7,0.6,2.5c0,0.2,0.1,0.4,0.1,0.6c0,0.1,0.1,0.2,0.1,0.3c0-0.5,0-0.2,0-0.1
	c0.1,0.5,0.1,1,0.2,1.4s0.2,1,0.3,1.6l0.1,0.6l0.1,0.3c0,0.1,0,0.2,0,0.2c0-0.1,0-0.2,0-0.2c0,0.2,0,0.4,0.1,0.6
	c0,0.2,0.1,0.4,0.1,0.6c0.1,0.5,0.1,0.9,0.2,1.4c0.2,1.9,0.3,3.9,0.3,5.8c0,1,0.1,2,0.1,3c0,0.5,0,0.9,0.1,1.4c0,0.1,0,0.2,0,0.3
	s0,0.2,0,0s0-0.2,0,0c-0.1,0.2-0.2,0.4-0.2,0.6c-0.2,1.1,0.6,2.2,1.7,2.3c1,0.1,2-0.4,2.3-1.4c0.1-0.5,0.2-0.9,0.3-1.4
	c0-0.4,0-0.9-0.1-1.3c0-0.9-0.1-1.9-0.1-2.8c-0.1-1.8-0.1-3.6-0.2-5.4C78.7,79,78.4,77,78,75.1c0-0.1-0.1-0.4,0,0.1
	c0-0.1,0-0.2,0-0.3s-0.1-0.4-0.1-0.6c-0.1-0.6-0.2-1.2-0.3-1.8c-0.2-0.9-0.4-1.8-0.6-2.6c-0.5-1.8-0.8-3.6-1.3-5.4
	c-0.4-1.7-1-3.4-1.6-5c-0.7-1.7-1.5-3.3-2.5-4.8c-1-1.6-2.1-3-3.3-4.4c-0.6-0.7-1.3-1.3-2-2c-0.6-0.6-1.3-1.2-2-1.7
	c-0.8-0.5-1.6-1-2.4-1.5c-1-0.8-2.2-1-3.4-0.6c-0.7,0.2-1.2,0.8-1.4,1.5c0,0.1,0,0.1,0,0.2c-0.1,0.5,0,1.1,0.3,1.6
	c0.3,0.4,0.8,0.8,1.3,0.9C59.8,48.7,60.8,48,61.2,47z"/>
<path class="st0" d="M58.4,42.1l-0.2,0.1c-0.8,0.3-1.3,0.9-1.4,1.8c-0.1,0.8,0.3,1.6,1.1,2c0.5,0.3,0.9,0.5,1.5,0.7l0.5,0.2
	c-0.6-0.2,0.1,0,0.2,0.1c0.3,0.2,0.7,0.4,1,0.6s-0.3-0.2-0.1-0.1l0.2,0.2c0.2,0.1,0.4,0.3,0.6,0.5c0.3,0.3,0.6,0.5,0.9,0.8
	c0.1,0.1,0.2,0.3,0.4,0.4l0.2,0.3c0.2,0.2-0.3-0.3,0,0c0.5,0.7,1,1.3,1.5,2s0.9,1.4,1.3,2.1c0.2,0.3,0.4,0.7,0.5,1l0.1,0.2
	c0.2,0.4-0.1-0.3,0,0s0.2,0.4,0.3,0.6c0.4,0.8,0.8,1.7,1.1,2.5c0.1,0.4,0.2,0.8,0.4,1.2c0.2,0.5,0.4,1.1,0.7,1.6
	c0.1,0.2,0.2,0.3,0.2,0.5c-0.2-0.3-0.1-0.2,0-0.1l0.1,0.3c0.2,0.4,0.2,0.9,0.4,1.3c0.3,0.8,0.5,1.6,0.7,2.5c0.2,0.9,0.4,1.7,0.7,2.6
	c0.1,0.4,0.2,0.8,0.3,1.2c0,0.1,0,0.2,0.1,0.4c0.1,0.3,0-0.4,0-0.1s0.1,0.5,0.1,0.8c0.1,0.9,0.3,1.8,0.4,2.7l0.2,0.9
	c0,0.1,0,0.2,0,0.3c0-0.3,0-0.3,0-0.2c0,0.1,0,0.2,0,0.4c0.1,0.4,0.1,0.9,0.1,1.4c0.1,1,0.2,2,0.4,3c0,0.2,0.1,0.4,0.2,0.7
	s0,0.2,0.1,0.3s-0.1,0.2,0-0.1c0,0.2,0,0.4,0.1,0.6c0,0.2,0,0.5,0,0.8c0.1,1.1,0.3,2.3,0.5,3.4c0,0.1,0.1,0.2,0.1,0.3
	c0.1,0.5,0-0.4,0,0.1c0,0.2,0,0.5,0,0.8c0,0.5,0,1,0,1.5l0.2,6.4c0.1,1.2,1,2,2.2,2c1.2-0.1,2-1,2-2.2c-0.1-2-0.2-3.9-0.2-5.8
	c0-0.9,0-1.9-0.1-2.8c0-0.6-0.1-1.1-0.3-1.6c0-0.1-0.1-0.2-0.1-0.3c0,0.1,0,0.2,0,0.2c0-0.1,0-0.2,0-0.2c0-0.2-0.1-0.5-0.1-0.8
	c-0.1-1-0.2-2-0.3-2.9c-0.1-0.5-0.2-1-0.3-1.4c-0.1-0.2-0.1-0.5-0.2-0.7c0,0,0.1,0.5,0,0.1c0-0.2,0-0.3,0-0.5
	c-0.1-0.9-0.1-1.8-0.3-2.8l-0.1-0.7c0.1,0.5,0,0.2,0,0.1l-0.1-0.7c-0.1-0.5-0.2-1-0.2-1.5c-0.2-1-0.2-2.1-0.5-3.1s-0.5-1.8-0.7-2.6
	s-0.4-1.7-0.6-2.6c-0.1-0.4-0.3-0.8-0.4-1.2s-0.2-0.8-0.4-1.2s-0.5-1-0.7-1.5c0-0.1-0.1-0.2-0.1-0.2c0.2,0.4,0.1,0.2,0.1,0.1
	s-0.2-0.5-0.2-0.7c-0.3-0.9-0.6-1.7-1-2.5c-0.7-1.7-1.6-3.4-2.6-5c-0.5-0.8-1.1-1.6-1.7-2.3c-0.6-0.8-1.3-1.6-2-2.4
	c-0.8-0.7-1.7-1.4-2.6-1.9c-0.5-0.3-1.1-0.5-1.6-0.7l-0.2-0.1c-0.2-0.1,0.4,0.2,0,0c-0.2-0.1-0.4-0.2-0.6-0.3
	c-0.1,1.3-0.2,2.5-0.3,3.8l0.2,0c1.1-0.3,1.7-1.5,1.3-2.6C60.7,42.4,59.5,41.8,58.4,42.1L58.4,42.1z"/>
<path class="st0" d="M8.8,93c-0.6-0.6-1.5-0.9-2.3-0.7c-0.6,0.1-1.1,0.3-1.4,0.7c-0.4,0.4-0.6,0.9-0.6,1.5c0.1,1.1,1,2,2.1,2
	C7.8,96.4,8.9,96,10,96s2.1,0.2,3.2,0.1c0.6,0,1.1,0,1.7,0c0.1,0,0.4,0-0.1,0c0.2,0,0.3,0,0.5,0.1l0.9,0.1c1.2,0.1,2.4,0.2,3.6,0.1
	l3.4-0.1H24c0.3,0,0.5,0,0.8,0h-0.2h0.2h0.4c0.4,0.1,0.9,0.1,1.3,0.1s1,0,1.6-0.1s-0.5-0.1,0.1,0h0.3l1.3,0.1
	c1.1,0.1,2.2,0.1,3.3,0.1c1.1,0,2.2,0.2,3.3,0.1s2.2-0.1,3.3-0.2s2.3-0.1,3.5-0.1c0.2,0,0.5,0,0.8,0s-0.5,0,0,0l0.8,0.1
	c0.5,0,1.1,0,1.6,0c2.3-0.1,4.5-0.2,6.8-0.3s4.4,0,6.6-0.2c0.8-0.1,1.5-0.2,2.2-0.3c0.4-0.1,0,0-0.1,0c0.2-0.1,0.4-0.1,0.6-0.1
	c0.3,0,0.6,0,1,0c0.6,0,1.2,0,1.8-0.1c0.4,0,0.8-0.1,1.3-0.2c0.1,0,0.3-0.1,0.4-0.1c-0.3,0.1-0.3,0.1-0.2,0h0.2c1.3,0,2.7-0.1,4-0.2
	l0.8-0.2c0,0.1-0.5,0-0.1,0h0.6h1.8c1.1,0,2-1,2-2.1s-1-2-2.1-2l0,0c-1.2,0-2.4,0-3.7,0.3L69.9,91c-0.4,0.2,0.3,0,0.1,0
	s-0.5,0-0.7,0h-1.6c-0.7,0-1.3,0.1-2,0.2c-0.2,0.1-0.5,0.1-0.7,0.1c0.3,0,0.3,0,0.1,0s-0.4,0-0.6,0c-0.5,0-1.1,0-1.6,0
	c-0.3,0-0.5,0-0.8,0.1h-0.3L61,91.6c-0.2,0-0.2,0,0.1,0c-0.3,0-0.5,0.1-0.8,0.1l-0.8,0.1c-0.6,0.1-1.2,0.1-1.7,0.1
	c-1.1,0-2.2,0-3.3,0.1c-2.2,0-4.5,0.1-6.7,0.2l-1.6,0.1c-0.6,0-1.1,0-1.7,0c0.6,0,0.1,0,0,0l-0.7-0.1c-0.2,0-0.5,0-0.8,0
	c-0.6,0-1.2,0-1.8,0l-3.5,0.2c-1.1,0.1-2.2,0.1-3.3,0c-1.1-0.1-2.2,0-3.4-0.1c-0.5,0-1,0-1.5-0.1h-0.3c0.6,0.1,0,0-0.1,0
	c-0.4,0-0.9-0.1-1.3-0.1s-1,0.1-1.6,0.1H26c-0.3,0,0.5,0.1,0,0S25.1,92,24.7,92c-1.1-0.1-2.3,0.1-3.4,0.1s-2.5,0.2-3.8,0.1
	c-0.1,0-0.2,0-0.3,0c0.3,0,0.3,0,0.1,0h-0.2l-0.8-0.1c-0.8-0.1-1.5-0.2-2.3-0.2c-0.6,0-1.3,0.1-1.9,0.1s-1.3,0-1.9,0
	c-1.2-0.1-2.5,0.3-3.7,0.3l0.2,4.1c0.1,0,0.2,0,0.3,0H6.6C6.4,96.4,6.2,96.2,6,96c0.8,0.8,2.1,0.9,2.9,0.1C9.7,95.3,9.8,94,9,93.2
	C9,93.1,8.9,93.1,8.8,93L8.8,93z"/>
<path class="st0" d="M5.8,94.9C6,95,6.1,95.1,5.9,95c0.4,0.4,0.6,1.1,0.5,1.7c-0.2,0.3-0.3,0.6-0.5,0.9c-0.1,0.1-1,0.7-1,0.5h0.4
	c0.3,0,0.7,0,1,0c0,0-0.4-0.1-0.2,0h0.2l0.4,0.1c0.3,0.1,0.6,0.2,0.9,0.2c1.4,0.2,2.8,0.3,4.2,0.3c1.3,0,2.7,0,4,0
	c0.7,0,1.4,0,2.1,0s1.3-0.1,2-0.1c0.1,0,0.3,0,0.4,0c0,0-0.4-0.1-0.2,0h0.2c0.5,0.1,0.9,0.1,1.3,0.1s0.7,0,1,0s-0.3,0,0.1,0l0.5,0.1
	c0.8,0.1,1.6,0.2,2.4,0.2c0.7,0,1.4,0,2.1,0c2.7,0.1,5.4,0.5,8.1,0.6c1.4,0,2.8-0.1,4.2-0.2s2.8,0.1,4.1,0.1c2.8,0,5.6-0.2,8.3-0.3
	s5.6-0.2,8.4-0.3c2.7,0,5.5-0.1,8.2-0.5c0.6-0.1,1.3-0.1,1.9-0.2c0.4-0.1,0.9-0.1,1.3-0.2h-0.2h0.2c0.2,0,0.3,0,0.5,0
	c0.8,0,1.5-0.1,2.3-0.3c0.1,0,0.1,0,0.2-0.1c0.2-0.1-0.2,0-0.2,0s0.2,0,0.2,0c0.2,0,0.4,0,0.7-0.1c0.8,0,1.5-0.3,2.1-0.8
	c0.8-0.7,1.1-1.8,0.7-2.9c-0.1-0.2-0.1-0.4-0.2-0.6c0-0.1-0.1-0.4,0-0.1s0,0.1,0,0s0-0.2,0-0.3c-0.1-0.4-0.1-0.8-0.3-1.2
	c0-0.1-0.1-0.2-0.1-0.3v-0.2c-0.1-0.3,0,0.1,0,0.2c-0.1-0.4-0.2-0.9-0.4-1.3c0-0.1-0.1-0.2-0.1-0.4c0-0.1,0-0.1-0.1-0.2
	c0,0,0.1,0.5,0,0.2l-4.1,0.2c0,0.3,0,0.6,0,0.8c0.1,1.1,1.1,2,2.3,1.9c1-0.1,1.8-1,1.9-2c0-0.3,0-0.6,0-0.8c-0.1-1.1-1.1-2-2.3-1.9
	c-1,0.1-1.8,1-1.9,2c0,0.4,0.1,0.8,0.3,1.2c0,0.1,0.1,0.5,0.1,0.2s0,0.2,0,0.3c0.1,0.4,0.1,0.8,0.2,1.2l0.2,0.4l0.1,0.2
	c0.1,0.2,0,0,0-0.2c0,0.4,0.1,0.8,0.2,1.2c0.1,0.2,0.1,0.5,0.2,0.7c0.1,0.2,0-0.3,0-0.3s0,0.3,0-0.1c0.1-0.4,0.3-0.8,0.7-1.1
	c-0.1,0.1,0.3-0.1,0.3-0.1l-0.2,0.1c-0.3,0.1,0.5-0.1,0.1,0c-0.6,0-1.2,0.1-1.8,0.2l-0.4,0.1c0,0-0.2,0-0.2,0.1c0.1-0.1,0.4,0,0.1,0
	h-1c-0.4,0-0.9,0.1-1.3,0.2l-0.4,0.1c-0.1,0-0.3,0.1,0,0s0,0-0.1,0c-0.7,0.1-1.4,0.1-2.1,0.2c-2.8,0.3-5.5,0.5-8.3,0.4
	c-2.8,0.1-5.7,0.2-8.5,0.3s-5.7,0.3-8.5,0.3c-1.4,0-2.8-0.1-4.2,0s-2.9,0.2-4.3,0.1c-2.8-0.1-5.5-0.6-8.3-0.5h-1h-0.5h-0.3
	c-0.4,0,0.1,0,0.1,0c-0.3-0.1-0.6-0.1-0.9-0.1l-1.5-0.2h-0.9c-0.4,0,0.1,0,0.1,0c-0.1,0-0.1,0-0.2,0L21,94.6c-0.8-0.1-1.5-0.1-2.3,0
	c-1.4,0.1-2.8,0-4.2,0s-2.7,0.1-4,0.1c-0.3,0-0.6,0-1,0l0,0c-0.2,0-0.3-0.1-0.5-0.1c-0.6-0.1-1.2-0.3-1.8-0.4
	c-1.6-0.3-4.3-0.4-4.8,1.7c-0.1,0.6,0,1.2,0.3,1.7c0.3,0.4,0.7,0.8,1.2,1c0.5,0.3,1.1,0.3,1.6,0.2c0.5-0.2,0.9-0.5,1.2-1
	c0.3-0.5,0.3-1.1,0.2-1.6C6.6,95.6,6.2,95.2,5.8,94.9L5.8,94.9z"/>
<path class="st0" d="M2.3,92c0,0.7,0,1.4,0.1,2.1c0,0.4,0.1,0.9,0.2,1.3c0,0.1,0.1,0.3,0.1,0.4s0,0.2,0-0.1c0,0.1,0,0.2,0,0.3
	c0.1,1.1,1.1,2,2.3,1.9c1-0.1,1.8-1,1.9-2c0-0.6,0-1.2-0.1-1.8c-0.1-0.5-0.3-1-0.6-1.4l-0.1-0.2c-0.1-0.2,0.2,0.5,0.1,0.1
	c-0.1-0.2-0.1-0.3-0.2-0.5c0-0.1-0.1-0.2-0.1-0.2c-0.1-0.3,0,0,0,0.1c0-0.2,0-0.4,0-0.5l-4.1,0.2c0,1,0.1,2,0.3,2.9
	c0,0.2,0,0.4,0.1,0.6C2,95,2,94.6,2,95v0.2c0,0.3,0,0.6,0,0.9c0,1.5,1.1,2.7,2.6,2.7c0.8,0,1.6-0.1,2.4-0.1l2.7-0.1
	c0.3,0,0.7-0.1,1-0.1h0.3c0.4,0-0.1,0-0.2,0c0.2,0.1,0.4,0.1,0.6,0.1c1,0.1,1.9,0.1,2.9,0c0.2,0,0.4,0,0.6,0s-0.4-0.1-0.1,0h0.2
	c0.5,0.1,1,0.2,1.5,0.2c0.9,0,1.9-0.1,2.8-0.2c0.5,0,0.9,0,1.4,0c0.3,0,0.5,0,0.8,0c0.1,0,0.2,0,0.3,0h-0.2h0.3
	c0.5,0.1,1.1,0,1.6-0.3c1-0.5,1.3-1.8,0.8-2.7c-0.3-0.5-0.8-0.9-1.4-1c-1.8-0.2-3.6-0.2-5.4-0.1l-1,0.1h-0.3c-0.3,0,0-0.1,0.2,0
	c-0.2-0.1-0.3-0.1-0.5-0.1c-0.9-0.1-1.9-0.1-2.8,0h-0.6h-0.3c-0.2,0,0.2,0,0.2,0c-0.1-0.1-0.3-0.1-0.5-0.1c-0.3-0.1-0.7-0.1-1-0.1
	c-0.7,0-1.5,0.1-2.2,0.1s-1.7,0-2.6,0.1L5,94.6H4.5c-0.3,0.1-0.2-0.4,0.8,0.2c0.4,0.2,0.7,0.6,0.8,1c0.1,0.4,0-0.1,0-0.2v-0.4
	c0-0.5-0.1-1-0.2-1.5c0-0.2-0.1-0.4-0.1-0.6s0,0.2,0,0.2c0-0.1,0-0.3,0-0.4c0-0.5,0-0.9,0-1.4c0-1.1-1-2-2.1-2c-1.1,0.1-2,1-2,2.1
	c0,0.9,0.2,1.8,0.6,2.6c0.1,0.3,0.2,0.5,0.4,0.8c0,0.1,0.1,0.1,0.1,0.2c0.2,0.3-0.1-0.3,0-0.1c0,0.1,0.1,0.3,0,0s0,0.1,0,0.2
	c0,0.2,0,0.5,0,0.8l4.1-0.2c0-0.5-0.1-0.9-0.2-1.4c0-0.1-0.1-0.3-0.1-0.4c0,0.3,0.1,0.4,0,0.1c0-0.1,0-0.2,0-0.2
	c0-0.7,0-1.4-0.1-2.1c0-1.1-1-2-2.1-2C3.2,89.9,2.3,90.9,2.3,92L2.3,92z"/>
<path class="st0" d="M78.7,95.3L78.7,95.3c-0.1,0.1-0.1,0.3-0.2,0.4c0,0,0-0.1,0-0.1l-0.3,0.4l0.1-0.1l-0.4,0.3
	c0.1-0.1,0.3-0.2,0.4-0.2c0.4-0.2,0.8-0.6,1-1c0.3-0.7,0.4-1.5,0.2-2.3c-0.1-0.6-0.1-1.2-0.1-1.7s0-1.3-0.1-2
	c-0.1-1.1-1.1-2-2.3-1.9c-1,0.1-1.9,1-1.9,2c0,0.9,0.1,1.7,0.1,2.6c0,0.4,0.1,0.8,0.1,1.1c0.1,0.3,0.1,0.7,0.1,1c0-0.2,0-0.4,0-0.5
	c0,0.1,0,0.1,0,0.2c0.1-0.2,0.1-0.3,0.2-0.5c0,0,0,0.1-0.1,0.1c0.1-0.1,0.2-0.3,0.3-0.4c0,0-0.1,0.1-0.1,0.1l0.4-0.3
	c-0.2,0.1-0.3,0.2-0.5,0.3c-0.6,0.4-1,0.9-1.1,1.6c-0.2,1.1,0.4,2.2,1.5,2.5C77.3,97.2,78.4,96.5,78.7,95.3L78.7,95.3z"/>
<g>
	<path d="M100.6,69.8c0-0.3,0-0.6-0.2-0.9c-6.4-10.1-15.7-16.2-27.8-11.3c-10.3,4.1-16.1,17.7-9.7,27.6c2.6,4,7.5,9.8,12,11.7
		c4.2,1.8,11.2,0.6,15.2-1.2c4.2-1.9,8.4-6,10.4-10.1C103.1,80,102.2,75.3,100.6,69.8z"/>
	<path class="st1" d="M98.2,82.6c-1.3,3.6-4.7,7.6-8,9.6c-3.1,1.9-8,2.9-11.6,2.3c-4.9-0.7-8.4-5.1-11.4-8.7c-6.6-7.8-4-20.1,5-24.8
		c4.7-2.4,11.4-2.9,16.3-0.7c3.7,1.7,7,6.4,9.1,9.8C98.8,74.5,99.8,78.1,98.2,82.6z"/>
	<g>
		<path d="M69.6,60c-0.2-4.4-0.5-9.3,2.8-12.8c2.3-2.5,6.3-4.7,9.5-5.6C94.6,37.9,91.9,56,92,63.3c0,1.9,3.1,2,3,0
			c-0.1-8,2.8-26.3-10.5-25.6C79.9,38,74,41.4,70.7,44.6c-4.3,4.1-4.5,9.8-4.1,15.4C66.7,61.9,69.7,61.9,69.6,60L69.6,60z"/>
	</g>
	<g>
		<path d="M82.5,73.1c0.7,0.4,0.9,1.2,0.7,2c-0.4,1.3-1.3,1.5-2.5,1c-1-0.4-1.4-0.5-1.4-1.6c0-0.5-0.1-1,0.3-1.3
			c0.4-0.3,1-0.1,1.5,0c1.9,0.2,1.9-2.8,0-3c-2.7-0.3-4.6,0.9-4.8,3.7c-0.1,1.1-0.1,2.4,0.6,3.3c0.7,1,1.9,1.5,3,1.8
			c2.5,0.9,5,0,6-2.6c0.9-2.2,0.2-4.7-1.9-6C82.4,69.4,80.8,72,82.5,73.1L82.5,73.1z"/>
	</g>
	<g>
		<path d="M79.7,79.3c0,0.7,0,1.5,0,2.2c0,1.9,3,2,3,0c0-0.7,0-1.5,0-2.2C82.7,77.3,79.7,77.3,79.7,79.3L79.7,79.3z"/>
	</g>
</g>
</svg>
