<svg id="Layer_1" data-name="Layer 1" xmlns="http://www.w3.org/2000/svg" viewBox="0 0 404.23 138.35"><defs><style>.cls-1,.cls-2{fill:#fff;}.cls-2{fill-rule:evenodd;}</style></defs><path class="cls-1" d="M206.9,67.87a1.77,1.77,0,0,1,.59.92,3.79,3.79,0,0,1-.13,1.64,8.05,8.05,0,0,1-1.44,2.63c-1.31,2-2.63,4-3.94,6s-2.8,4.07-4.46,6.3-3.61,4.68-5.84,7.35-4.92,5.67-8.07,9q4.72,4.72,9.77,9.19t9.13,8.4a59.75,59.75,0,0,1,6.49,7.22q2.43,3.27,2,5.51c-.18.79-1.36.89-3.55.33A54.3,54.3,0,0,1,199,129.1q-5.19-2.35-11.82-6t-13.58-8.27a9.38,9.38,0,0,1-2.36-1.83,113.88,113.88,0,0,1-9.84,8.33,70.22,70.22,0,0,1-8.93,5.84,10.51,10.51,0,0,1,1.84,3,5,5,0,0,1,.26,2.76,4.82,4.82,0,0,1-6,3.21,5.9,5.9,0,0,1-3.35-2.82,7.79,7.79,0,0,1-.59-5.32c.4-2.14,1.86-4.48,4.4-7q2.1-2.08,6-6.17t8.2-8.79a97.4,97.4,0,0,1-7.61-9.58A118.75,118.75,0,0,1,149,85.72,99.44,99.44,0,0,1,143.77,75a56.14,56.14,0,0,1-3.08-9.78,22.07,22.07,0,0,1-.4-7.74,6.27,6.27,0,0,1,3-4.72,4.4,4.4,0,0,1,4.46.06,18.73,18.73,0,0,1,4.93,4.07,53.87,53.87,0,0,1,5.18,6.89q2.63,4.07,5.25,8.6t5.18,9.18q2.56,4.67,5.06,8.6a14.3,14.3,0,0,1,.92,1.31,11.69,11.69,0,0,0,.92,1.32q4.06-4.47,7.15-7.68c2-2.15,3.94-4,5.64-5.71s3.33-3.17,4.86-4.53,3.17-2.73,4.92-4.13a17,17,0,0,1,5.84-3.41A3.3,3.3,0,0,1,206.9,67.87Z"/><path class="cls-1" d="M113.36,91.76q.39-3.15,1-6A38.14,38.14,0,0,1,116,80.34a23.24,23.24,0,0,1,2.17-4.27,10.62,10.62,0,0,1,2.33-2.64,9.38,9.38,0,0,1,3.87-1.71,13.28,13.28,0,0,1,4.5-.11A3.92,3.92,0,0,1,132,73.45c.7,1.09.66,3-.13,5.71a50.14,50.14,0,0,0-.92,5.58,71.9,71.9,0,0,0-.46,7.21c0,2.59,0,5.17.2,7.75a48.22,48.22,0,0,0,1,7.15,21.25,21.25,0,0,0,2,5.58,5.84,5.84,0,0,0,3.09,2.95,7.68,7.68,0,0,0,6.56-.26,16.64,16.64,0,0,0,5.12-4.86,9.1,9.1,0,0,1,2.23-2.43,3.17,3.17,0,0,1,2.16-.85c.57.09.86.66.86,1.71a14.94,14.94,0,0,1-1.71,5.25,25.12,25.12,0,0,1-4.66,6.69,21.55,21.55,0,0,1-6.3,4.53,20.38,20.38,0,0,1-7.41,1.9,19,19,0,0,1-7.88-1.18,16.49,16.49,0,0,1-6.43-3.74,16.09,16.09,0,0,1-3.87-6.5,41.35,41.35,0,0,1-1.84-9.91A126.63,126.63,0,0,1,113.36,91.76Z"/><path class="cls-1" d="M118.79,52.4a6.28,6.28,0,0,1,4.4-3.54A11.72,11.72,0,0,1,129,49a11.6,11.6,0,0,1,4.86,2.69,4.75,4.75,0,0,1,1.64,4.4,8.24,8.24,0,0,1-3.35,5.18c-1.88,1.45-4.7,2-8.46,1.64a4.86,4.86,0,0,1-2.82-1.18,8.28,8.28,0,0,1-2-2.56,7.72,7.72,0,0,1-.85-3.34A6.18,6.18,0,0,1,118.79,52.4Z"/><path class="cls-1" d="M117.75,126.28a17.56,17.56,0,0,0,5.12,1c1.49.09,2.78.13,3.87.13a2.33,2.33,0,0,1,2.3,1.44,2.64,2.64,0,0,1-.33,2.56,8,8,0,0,1-2.69,2.5,18,18,0,0,1-10.5,2.3q-12.87-1.06-20.21-10.7T85.2,100a88.89,88.89,0,0,1-1.37-11.55q-.33-5.91-.46-11.75t-.14-11.54c0-1.49,0-3,0-4.41,0-.35-.08-.72-.1-1.12-.36-6.63-4.68-2.8-5.79-1.7a16,16,0,0,0-1,1.58,51.57,51.57,0,0,0-4.92,12.08A129.86,129.86,0,0,0,68,87q-1.32,8.34-2.3,15.75t-1.64,12.86c-.44,3.64-.87,5.84-1.31,6.63a6,6,0,0,1-2.62,2.89,9.76,9.76,0,0,1-4,1.25,12.06,12.06,0,0,1-4.33-.4,7.12,7.12,0,0,1-3.48-2,22.85,22.85,0,0,1-4.85-9.12,47.23,47.23,0,0,1-2-11.49Q41,89.46,39.46,75q-1-9.7-2.7-18.92c-.21-.67-.42-1.41-.64-2.21-1.61-5.93-4.91-3-5.94-1.92-.39.66-.8,1.4-1.22,2.25a44.29,44.29,0,0,0-2.29,5.77A50.88,50.88,0,0,0,25,67.54q-.78,4.86-1.38,10.76t-1,12.34c-.3,4.29-.57,8.38-.78,12.27s-.4,7.4-.53,10.5-.24,5.49-.33,7.16a4.06,4.06,0,0,1-2,3.21,8.76,8.76,0,0,1-4.4,1.38,11.21,11.21,0,0,1-5-.92A6.94,6.94,0,0,1,5.8,120.7a24.42,24.42,0,0,1-2.36-8.21,59,59,0,0,1-.33-9.25A82.15,82.15,0,0,1,4,93.92q.72-4.59,1.38-8.66Q5.94,81.72,7,76.14T9.67,64.46a109.77,109.77,0,0,1,4-12,42.39,42.39,0,0,1,5.65-10.17A18.72,18.72,0,0,1,27,36.18a13.3,13.3,0,0,1,9.9.13c2.37.87,4.38,2.8,6,5.77A44,44,0,0,1,47,52.84a107.54,107.54,0,0,1,2.43,13.72q.86,7.41,1.25,14.5t.45,13.13c0,4,.11,7.21.2,9.58.7-1.84,1.51-4.35,2.43-7.55s2-6.74,3.15-10.63,2.49-7.92,3.94-12.08,3-8.13,4.79-11.94a78.8,78.8,0,0,1,5.64-10.3,25.14,25.14,0,0,1,6.43-7,10.91,10.91,0,0,1,7.29-2q3.87.33,8.2,4.4,2.88,2.74,4.79,8.86a113.28,113.28,0,0,1,3.28,13.84q1.38,7.74,2.43,16.27t2.16,16q1.13,7.47,2.43,13.06S111,123.81,117.75,126.28Z"/><path class="cls-2" d="M290.26,22.8Z"/><path class="cls-2" d="M348.89,85c7.56-13,.44-31.38-14.16-36.26-27.68-9.27-49.71,22-42.54,53.14,0,0,3.33,18.31,19.07,26.16,30.51,15.19,67.52,1.09,82.27-25.71,26.9-48.86-15.06-107.77-70.64-98.61-14.36,2.36-28.28,9.72-36.11,21.79l3.48-2.7c-1.59,1.23-4.1,3.13,2.3-1.94,42-33.33,106.72-.64,101.17,53.15-3.51,34-39.41,63.57-73.66,50.64-7.53-2.84-12.53-6.79-15.59-11.31-.36-.56-.71-1.12-1-1.68a24.16,24.16,0,0,1-2.74-14.25c26.54,13.59,43.74-6.6,43.74-6.6A33.35,33.35,0,0,0,348.89,85ZM331.54,66.18c8.7,4.13,8.25,11.37,6,17.58h0c-5.94,15-28.84,13.34-36.71,12.29C303.37,78.4,321.16,61.26,331.54,66.18Z"/><path class="cls-1" d="M324.19,114.55C353.28,114.55,377,94,377,68.7A40.34,40.34,0,0,0,374,53.61c.94-2.39,4-9.78-3.05-16.91-.42-.42-.11-.49-.36.07a15.76,15.76,0,0,0-1.55,7.81A46.28,46.28,0,0,0,364.37,39s0-.06,0-.11a15.5,15.5,0,0,0-7.14-13.79,22.56,22.56,0,0,0-2.7-1.54c-.08-.06-.08-.08-.06,0a83.18,83.18,0,0,0-18.95-6l-.23,1.05c4.69.78,13.94,3.42,19.24,6.18a15.21,15.21,0,0,0,2.1,7.75c-1.5-1-3.06-2-4.66-2.83-1.47-2.35-4.77-6.06-12.26-4.84A59.77,59.77,0,0,0,328.3,23l-.09,1.07a57.45,57.45,0,0,1,11.71,2c3.68,6.66,10.6,5.55,12.62,5.33h0A48.35,48.35,0,0,1,369.79,48a15.29,15.29,0,0,0,2.06,3.82,39.55,39.55,0,0,1,3.66,13.1c-1.15-3.12-3.64-6.73-9.18-9.17-.58-.25-.31-.41-.3.19.14,9.45,6.89,13.15,9.63,14.52a39.44,39.44,0,0,1-2.56,12.3c.53-3.35.1-7.85-4.2-12.3-.42-.43-.1-.49-.36.07-4.28,9,.69,14.82,2.46,16.85a44.24,44.24,0,0,1-6.38,9,13.48,13.48,0,0,0,.95-12.35c-.21-.52.11-.48-.37,0-7.73,7-5.54,14-4.74,16.45a51.66,51.66,0,0,1-11.08,7.28,14.73,14.73,0,0,0,6.4-11.11c.05-.56.32-.41-.32-.17-10.31,3.93-11.33,11.13-11.67,13.64a58,58,0,0,1-8.54,2.33,16.41,16.41,0,0,0,8.65-8.16c.25-.51.46-.3-.23-.25-10.76.81-14.54,6.83-15.94,9.34-1.17.07-2.35.11-3.54.11"/><path class="cls-1" d="M366.19,48.15a1.64,1.64,0,0,1,.54.15,1.49,1.49,0,0,1-.32-.43A18.19,18.19,0,0,0,351.3,37.45a48.15,48.15,0,0,0-17.69-7l-.26,1.05a46.63,46.63,0,0,1,17.51,7C355.44,47.14,363.77,47.84,366.19,48.15Z"/><path class="cls-1" d="M379.28,67a1.17,1.17,0,0,1,.21-.47c1.27-2,6.13-9,.42-17.28-.33-.48,0-.49-.37,0-6.13,8.71-1.62,15.33-.45,17.27A1.28,1.28,0,0,1,379.28,67Z"/><path class="cls-1" d="M379.28,67c0,.12,0,.12,0,0Z"/><path class="cls-1" d="M375.71,85.22c-.07.11,0,.12,0,0Z"/><path class="cls-1" d="M375.75,84.74a1.14,1.14,0,0,1,0,.48,1.81,1.81,0,0,1,.41-.36c2.08-1.43,9.71-6.17,8.21-15.74-.09-.55.21-.45-.35-.1C374.39,74.93,375.55,82.55,375.75,84.74Z"/><path class="cls-1" d="M365.76,100c-.11.07-.09.09,0,0Z"/><path class="cls-1" d="M366,99.53a1.44,1.44,0,0,1-.24.44,2,2,0,0,1,.53-.21c2.54-.68,11.62-2.69,14.21-12.08.15-.55.39-.36-.28-.21C368.82,90,366.72,97.43,366,99.53Z"/><path class="cls-1" d="M367.79,104.68c-11.62-1.51-16.87,4.67-18.47,6.37a1.87,1.87,0,0,1-.42.33,2.25,2.25,0,0,1,.58,0c2.64.23,11.92,1.41,18.47-6.39C368.33,104.52,368.48,104.77,367.79,104.68Z"/><path class="cls-1" d="M348.9,111.38c-.14,0-.12.06,0,0Z"/><path class="cls-1" d="M332.43,116.11a1.85,1.85,0,0,1-.51.2,2.24,2.24,0,0,1,.55.14c2.42,1,10.77,4.68,19.86-.87.53-.32.57,0-.05-.32C341.84,110.57,334.58,115,332.43,116.11Z"/><path class="cls-1" d="M331.92,116.31c-.14,0-.14,0,0,0Z"/><path class="cls-1" d="M289.55,111.54s4.31,12.62,14.45,14a25.25,25.25,0,0,0,3.87.13,2.32,2.32,0,0,1,2.3,1.45,2.62,2.62,0,0,1-.33,2.55,7.9,7.9,0,0,1-2.69,2.5,17.9,17.9,0,0,1-4.59,1.84,17.64,17.64,0,0,1-5.91.46q-12.87-1.07-20.21-10.7T266.33,98.29A90.66,90.66,0,0,1,265,86.74q-.33-5.91-.46-11.74c-.08-3.9-.13-7.75-.13-11.55,0-2.47,0-4.88-.05-7.25-.57-3.66-2.77-2.84-4.32-1.72a14.48,14.48,0,0,0-2.58,3.32,51.57,51.57,0,0,0-4.92,12.08,129.86,129.86,0,0,0-3.35,15.48q-1.32,8.34-2.3,15.75T245.2,114c-.44,3.64-.87,5.85-1.31,6.63a6,6,0,0,1-2.62,2.89,9.81,9.81,0,0,1-4,1.25,12,12,0,0,1-4.33-.4,7.12,7.12,0,0,1-3.48-2,22.79,22.79,0,0,1-4.85-9.12,47.15,47.15,0,0,1-2-11.49q-.52-13.9-2-28.41-1.14-11-3.15-21.31v0c-1.72-6.32-5.34-2.62-6.11-1.74-.4.67-.81,1.42-1.24,2.28a46.39,46.39,0,0,0-2.29,5.77A43.55,43.55,0,0,0,206.42,64a5.88,5.88,0,0,0-1.08-.11,10.79,10.79,0,0,0-2.77.44,20.33,20.33,0,0,0-7.08,4c-1.79,1.43-3.49,2.86-5.05,4.25-.77.68-1.57,1.4-2.39,2.17l.06-.32q1-5.58,2.69-11.68a107.68,107.68,0,0,1,4-12,42.39,42.39,0,0,1,5.65-10.17,18.72,18.72,0,0,1,7.68-6.1q4.4-1.84,9.9.13c2.37.87,4.38,2.8,6,5.77a44,44,0,0,1,4.07,10.76,107.54,107.54,0,0,1,2.43,13.72q.85,7.41,1.24,14.5t.46,13.13c0,4,.11,7.21.2,9.58.7-1.84,1.51-4.35,2.43-7.55s2-6.74,3.15-10.63S240.54,76,242,71.85s3-8.14,4.79-11.95a78.8,78.8,0,0,1,5.64-10.3,25.14,25.14,0,0,1,6.43-7,10.9,10.9,0,0,1,7.29-2q3.87.33,8.2,4.4,2.88,2.75,4.79,8.86a113.28,113.28,0,0,1,3.28,13.84q1.38,7.74,2.43,16.28S286.78,103.52,289.55,111.54Z"/><path class="cls-1" d="M194.11,95.18c-1.7,2-3.69,4.29-5.93,6.72,2.37,2.3,4.81,4.56,7.28,6.74s4.68,4.19,6.76,6.15c0-.93.08-1.94.13-3.05q.19-4.65.53-10.5c.21-3.89.48-8,.78-12.27q.27-3.64.57-7.14c-1.23,1.83-2.62,3.79-4.16,5.85C198.37,90,196.36,92.49,194.11,95.18Z"/></svg>