<svg id="Layer_1" data-name="Layer 1" xmlns="http://www.w3.org/2000/svg" viewBox="0 0 381.18 131.29"><defs><style>.cls-1{fill:#e8308a;}.cls-2,.cls-3{fill:#ffce00;}.cls-2{fill-rule:evenodd;}</style></defs><path class="cls-1" d="M194.43,63.61a1.71,1.71,0,0,0,.56.56,1.38,1.38,0,0,1,.55.86,3.67,3.67,0,0,1-.12,1.55,7.61,7.61,0,0,1-1.36,2.48q-1.86,2.85-3.72,5.64t-4.21,6q-2.35,3.15-5.52,6.94c-2.11,2.52-4.64,5.35-7.62,8.48q4.47,4.47,9.23,8.68t8.62,7.93a57.46,57.46,0,0,1,6.13,6.81c1.53,2.07,2.17,3.8,1.92,5.21-.17.74-1.28.84-3.35.31a52,52,0,0,1-8-3c-3.26-1.49-7-3.38-11.15-5.7s-8.45-4.91-12.83-7.8a9.14,9.14,0,0,1-2.23-1.74,106.88,106.88,0,0,1-9.29,7.87,67.1,67.1,0,0,1-8.43,5.51,9.67,9.67,0,0,1,1.74,2.85,4.72,4.72,0,0,1,.25,2.61,4.56,4.56,0,0,1-5.64,3,5.54,5.54,0,0,1-3.16-2.66,7.38,7.38,0,0,1-.56-5c.37-2,1.76-4.23,4.15-6.63q2-2,5.64-5.82t7.75-8.31a90.06,90.06,0,0,1-7.19-9A115.14,115.14,0,0,1,140.28,81a94.74,94.74,0,0,1-4.89-10.16,52.85,52.85,0,0,1-2.92-9.23,20.77,20.77,0,0,1-.37-7.31A5.9,5.9,0,0,1,135,49.86a4.13,4.13,0,0,1,4.21.06,17.44,17.44,0,0,1,4.65,3.84,50.37,50.37,0,0,1,4.89,6.5q2.49,3.85,5,8.12c1.65,2.85,3.29,5.74,4.89,8.67s3.21,5.64,4.78,8.12a11.12,11.12,0,0,1,.86,1.24,11.69,11.69,0,0,0,.87,1.24q3.84-4.22,6.76-7.25c1.93-2,3.71-3.82,5.32-5.39s3.14-3,4.59-4.28,3-2.58,4.64-3.9a16.28,16.28,0,0,1,5.52-3.22C193.42,63.2,194.26,63.2,194.43,63.61Z"/><path class="cls-1" d="M106.67,86.72a53.62,53.62,0,0,1,1-5.7,34.37,34.37,0,0,1,1.55-5.08,21.59,21.59,0,0,1,2-4,7.19,7.19,0,0,1,2.48-2.42,34.28,34.28,0,0,1,3.53-1.3,10.24,10.24,0,0,1,4.09-.49,3.68,3.68,0,0,1,2.91,1.73q1,1.54-.12,5.39a48.46,48.46,0,0,0-.87,5.27,67.33,67.33,0,0,0-.43,6.81c0,2.44,0,4.88.18,7.31A47.35,47.35,0,0,0,124,101a19.7,19.7,0,0,0,1.86,5.26,5.57,5.57,0,0,0,2.91,2.79,7.27,7.27,0,0,0,6.2-.25,15.8,15.8,0,0,0,4.83-4.58,8.61,8.61,0,0,1,2.11-2.3,2.93,2.93,0,0,1,2-.8c.54.08.81.62.81,1.61a14.21,14.21,0,0,1-1.61,5,24.07,24.07,0,0,1-4.4,6.32,20.65,20.65,0,0,1-5.95,4.27,19.41,19.41,0,0,1-7,1.8,18,18,0,0,1-7.44-1.12,15.58,15.58,0,0,1-6.07-3.53,15.09,15.09,0,0,1-3.65-6.13,38.89,38.89,0,0,1-1.74-9.36A120.18,120.18,0,0,1,106.67,86.72Z"/><path class="cls-1" d="M111.8,49.56A5.92,5.92,0,0,1,116,46.22a11.17,11.17,0,0,1,10,2.66A4.48,4.48,0,0,1,127.54,53a7.88,7.88,0,0,1-3.16,4.9c-1.78,1.36-4.44,1.87-8,1.55a4.69,4.69,0,0,1-2.66-1.12,7.88,7.88,0,0,1-1.92-2.42,7.36,7.36,0,0,1-.81-3.16A5.86,5.86,0,0,1,111.8,49.56Z"/><path class="cls-1" d="M121.47,121.72a2.18,2.18,0,0,0-2.16-1.36c-1,0-2.26,0-3.66-.13a21.5,21.5,0,0,1-4.83-.93,14,14,0,0,1-5.7-3.77c-1.32-1.24-2.4-3.62-3.22-7.13s-1.59-7.62-2.29-12.33-1.39-9.75-2-15.12-1.43-10.48-2.29-15.36a107.45,107.45,0,0,0-3.1-13.07c-1.2-3.85-2.71-6.63-4.52-8.37Q83.56,40.31,79.9,40A10.32,10.32,0,0,0,73,41.92,23.64,23.64,0,0,0,67,48.49a73.22,73.22,0,0,0-5.32,9.73C60,61.81,58.47,65.57,57.1,69.49s-2.6,7.73-3.71,11.4-2.11,7-3,10-1.63,5.39-2.29,7.12c-.08-2.23-.15-5.24-.19-9s-.18-7.93-.43-12.39-.64-9-1.18-13.69A100,100,0,0,0,44,50a41.15,41.15,0,0,0-3.84-10.16q-2.36-4.22-5.7-5.46a12.63,12.63,0,0,0-9.36-.12A17.93,17.93,0,0,0,17.88,40a40.2,40.2,0,0,0-5.32,9.6A100.5,100.5,0,0,0,8.78,60.94Q7.22,66.7,6.24,72T4.75,80.58c-.41,2.56-.85,5.29-1.3,8.18a75.14,75.14,0,0,0-.87,8.8,56.11,56.11,0,0,0,.31,8.73A23.05,23.05,0,0,0,5.12,114a6.54,6.54,0,0,0,3.47,3.34,10.5,10.5,0,0,0,4.71.87,8.14,8.14,0,0,0,4.15-1.3,3.83,3.83,0,0,0,1.92-3c.08-1.56.19-3.82.31-6.75s.29-6.23.5-9.91.45-7.54.74-11.59.62-7.93,1-11.65.81-7.1,1.3-10.16a48.44,48.44,0,0,1,1.61-7.18A43.62,43.62,0,0,1,27,51.22c.4-.8.78-1.5,1.15-2.13,1-1,4.09-3.79,5.61,1.82.2.76.4,1.45.6,2.09,1.07,5.8,1.92,11.74,2.56,17.86q1.41,13.68,1.92,26.82a44.23,44.23,0,0,0,1.86,10.84,21.59,21.59,0,0,0,4.58,8.62,6.72,6.72,0,0,0,3.28,1.92,11.63,11.63,0,0,0,4.09.37,9.3,9.3,0,0,0,3.78-1.18,5.67,5.67,0,0,0,2.48-2.72c.41-.75.82-2.83,1.24-6.26s.93-7.48,1.55-12.15S63,87.5,63.86,82.26A121.29,121.29,0,0,1,67,67.63a49.54,49.54,0,0,1,4.64-11.4c.32-.54.65-1,1-1.49,1-1,5.13-4.66,5.47,1.6,0,.38,0,.73.1,1.06,0,1.38,0,2.76,0,4.16q0,5.39.12,10.91c.09,3.67.23,7.37.44,11.09a84.52,84.52,0,0,0,1.3,10.9q2.59,15,9.54,24.1t19.08,10.1a16.75,16.75,0,0,0,5.58-.43,16.53,16.53,0,0,0,4.33-1.74,7.38,7.38,0,0,0,2.54-2.35A2.49,2.49,0,0,0,121.47,121.72Z"/><path class="cls-2" d="M273.69,21.62Z"/><path class="cls-3" d="M305.72,108.24c27.47,0,49.81-19.42,49.81-43.29a38.14,38.14,0,0,0-2.78-14.25c.9-2.26,3.81-9.24-2.88-16-.39-.4-.1-.46-.34.07a14.81,14.81,0,0,0-1.45,7.37,44.62,44.62,0,0,0-4.42-5.26.36.36,0,0,1,0-.11,14.65,14.65,0,0,0-6.73-13,24.13,24.13,0,0,0-2.55-1.45c-.08-.06-.08-.08-.06,0a78.47,78.47,0,0,0-17.89-5.63l-.22,1a75.79,75.79,0,0,1,18.16,5.83,14.36,14.36,0,0,0,2,7.32q-2.13-1.44-4.4-2.67c-1.39-2.22-4.5-5.73-11.58-4.58A56.35,56.35,0,0,0,309.6,21.8l-.09,1a54.64,54.64,0,0,1,11.06,1.9c3.48,6.29,10,5.24,11.91,5h0a45.49,45.49,0,0,1,16.25,15.65,14.47,14.47,0,0,0,2,3.61,37.21,37.21,0,0,1,3.45,12.37c-1.08-2.94-3.44-6.36-8.67-8.66-.54-.24-.29-.39-.28.18.14,8.93,6.51,12.42,9.09,13.71a37.28,37.28,0,0,1-2.42,11.62c.5-3.17.1-7.42-4-11.62-.39-.41-.09-.46-.34.07-4,8.52.66,14,2.33,15.9a41.87,41.87,0,0,1-6,8.53,12.72,12.72,0,0,0,.9-11.66c-.2-.5.1-.45-.35,0-7.3,6.65-5.24,13.2-4.47,15.53a49.08,49.08,0,0,1-10.47,6.87,13.88,13.88,0,0,0,6.05-10.49c0-.52.3-.38-.3-.16-9.74,3.72-10.7,10.52-11,12.88a53.14,53.14,0,0,1-8.06,2.2,15.49,15.49,0,0,0,8.17-7.7c.24-.48.43-.28-.22-.23-10.16.75-13.73,6.44-15.05,8.81-1.11.07-2.22.11-3.34.11"/><path class="cls-3" d="M345.37,45.55a1.61,1.61,0,0,1,.51.13,1.42,1.42,0,0,1-.3-.4,17.15,17.15,0,0,0-14.26-9.83,45.62,45.62,0,0,0-16.71-6.64l-.24,1a44.12,44.12,0,0,1,16.53,6.64C335.23,44.59,343.09,45.25,345.37,45.55Z"/><path class="cls-3" d="M357.73,63.34a1.22,1.22,0,0,1,.2-.45c1.19-1.91,5.79-8.49.4-16.3-.32-.46,0-.47-.35,0-5.79,8.23-1.54,14.47-.43,16.3A1.15,1.15,0,0,1,357.73,63.34Z"/><path class="cls-3" d="M357.73,63.34c0,.11,0,.11,0,0Z"/><path class="cls-3" d="M354.36,80.55c-.07.1,0,.1,0,0Z"/><path class="cls-3" d="M354.4,80.09a1.08,1.08,0,0,1,0,.46,1.41,1.41,0,0,1,.39-.35c2-1.35,9.17-5.82,7.74-14.85-.08-.52.21-.44-.33-.1C353.12,70.83,354.21,78,354.4,80.09Z"/><path class="cls-3" d="M345,94.47c-.1.07-.07.09,0,0Z"/><path class="cls-3" d="M345.19,94.05a1.23,1.23,0,0,1-.23.42,1.86,1.86,0,0,1,.51-.2c2.39-.64,11-2.54,13.41-11.41.14-.51.37-.34-.26-.2C347.86,85,345.87,92.07,345.19,94.05Z"/><path class="cls-3" d="M346.88,98.92c-11-1.43-15.93,4.41-17.44,6a1.47,1.47,0,0,1-.39.31,2,2,0,0,1,.55,0c2.49.22,11.25,1.34,17.44-6C347.4,98.77,347.53,99,346.88,98.92Z"/><path class="cls-3" d="M329.05,105.24c-.13,0-.11.05,0,0Z"/><path class="cls-3" d="M313.5,109.71a1.48,1.48,0,0,1-.49.18,2.05,2.05,0,0,1,.53.14c2.28.9,10.16,4.42,18.75-.82.49-.31.53,0-.05-.3C322.38,104.48,315.53,108.62,313.5,109.71Z"/><path class="cls-3" d="M313,109.89c-.13,0-.12,0,0,0Z"/><path class="cls-3" d="M304.49,3.59c-13.55,2.23-26.69,9.18-34.09,20.57,1.61-1.25,2.64-2.05,3.29-2.54-1.51,1.15-3.87,2.95,2.17-1.84,39.63-31.47,100.75-.61,95.51,50.18-3.31,32.1-37.2,60-69.54,47.81-7.11-2.68-11.83-6.41-14.72-10.68-.34-.53-.66-1.06-1-1.59a22.83,22.83,0,0,1-2.59-13.45c25.06,12.83,41.3-6.22,41.3-6.22a32,32,0,0,0,4.2-5.5c7.13-12.29.41-29.63-13.37-34.24-26.13-8.75-47.22,21.16-39.68,50,0,0,2.59,14.57,13.77,22.58-10.43-1.37-15.33-10-17.58-16.65a69.91,69.91,0,0,1-1.57-7.55q-1-7.06-2-15.12T266.27,64a105.7,105.7,0,0,0-3.09-13.07q-1.8-5.76-4.53-8.36c-2.72-2.56-5.3-3.95-7.74-4.15A10.23,10.23,0,0,0,244,40.35,23.43,23.43,0,0,0,238,46.91a74.52,74.52,0,0,0-5.33,9.73q-2.48,5.38-4.52,11.28t-3.72,11.4q-1.66,5.5-3,10c-.87,3-1.63,5.39-2.29,7.13q-.13-3.35-.19-9T218.51,75q-.37-6.69-1.18-13.69a102,102,0,0,0-2.29-13,41.87,41.87,0,0,0-3.84-10.16c-1.57-2.81-3.47-4.62-5.7-5.45a12.68,12.68,0,0,0-9.36-.13,17.81,17.81,0,0,0-7.25,5.77,40.18,40.18,0,0,0-5.33,9.6,102.49,102.49,0,0,0-3.77,11.34q-1.56,5.76-2.54,11l-.06.3c.77-.73,1.53-1.41,2.25-2.06,1.48-1.3,3.09-2.65,4.77-4a18.89,18.89,0,0,1,6.68-3.81,10.09,10.09,0,0,1,2.62-.43,5.23,5.23,0,0,1,1,.11,41.9,41.9,0,0,1,1.3-5.42A44.26,44.26,0,0,1,198,49.64c.4-.81.79-1.52,1.17-2.15.72-.83,4.14-4.33,5.76,1.64v0q1.89,9.77,3,20.12,1.43,13.69,1.92,26.83A45.36,45.36,0,0,0,211.69,107a21.5,21.5,0,0,0,4.59,8.61,6.65,6.65,0,0,0,3.28,1.92,11.38,11.38,0,0,0,4.09.37,9.18,9.18,0,0,0,3.78-1.17,5.65,5.65,0,0,0,2.48-2.73q.61-1.11,1.24-6.26t1.54-12.14q.93-7,2.17-14.87A124.63,124.63,0,0,1,238,66.06a49.09,49.09,0,0,1,4.65-11.4,13.82,13.82,0,0,1,2.43-3.14c1.48-1.06,3.55-1.83,4.08,1.63,0,2.24.06,4.51.06,6.84,0,3.59,0,7.23.12,10.9s.23,7.37.43,11.09a84.31,84.31,0,0,0,1.31,10.9q2.6,15,9.54,24.11t19.08,10.09a16.51,16.51,0,0,0,5.58-.43,16.34,16.34,0,0,0,4.33-1.73,7.49,7.49,0,0,0,2.54-2.36,2.64,2.64,0,0,0,.41-2.1c.3.17.61.34.93.5,28.86,14.23,63.75,1,77.68-24.27C396.58,50.56,357-5,304.49,3.59ZM283.7,90.77c2.36-16.67,19.16-32.84,29-28.2,8.22,3.89,7.79,10.73,5.7,16.6h0C312.76,93.33,291.13,91.76,283.7,90.77Z"/><path class="cls-3" d="M182.91,90c-1.61,1.92-3.49,4-5.6,6.34,2.24,2.17,4.54,4.31,6.87,6.36s4.42,4,6.38,5.81c0-.88.09-1.83.13-2.87.12-2.94.29-6.24.49-9.92s.46-7.53.75-11.58c.16-2.31.34-4.55.53-6.74-1.16,1.72-2.47,3.57-3.92,5.52C186.93,85,185,87.41,182.91,90Z"/></svg>