<?xml version="1.0" encoding="utf-8"?>
<!-- Generator: Adobe Illustrator 25.3.1, SVG Export Plug-In . SVG Version: 6.00 Build 0)  -->
<svg version="1.1" id="Capa_1" xmlns="http://www.w3.org/2000/svg" xmlns:xlink="http://www.w3.org/1999/xlink" x="0px" y="0px"
	 viewBox="0 0 33 20" style="enable-background:new 0 0 33 20;" xml:space="preserve">
<style type="text/css">
	.st0{fill:#CD3A93;}
</style>
<desc>Created with Sketch.</desc>
<g id="Icons_x2F_Rotate_x5F_Transparent">
	<path id="Combined-Shape" class="st0" d="M26,10.4c2-0.8,3-1.8,3-2.4s-1-1.6-3-2.4c-2.4-1-5.8-1.6-9.5-1.6S9.5,4.6,7,5.6
		C5,6.4,4,7.4,4,8s1,1.6,3,2.4c0.9,0.4,1.9,0.7,3,0.9v4.1C4.2,14.3,0,11.7,0,8c0-4.9,7.5-8,16.5-8S33,3.1,33,8c0,4.2-5.6,7.1-13,7.8
		V20l-8-6l8-6v3.8C22.3,11.6,24.4,11.1,26,10.4z"/>
</g>
</svg>
